<?xml version="1.0" standalone="no"?>
<!DOCTYPE svg PUBLIC "-//W3C//DTD SVG 1.1//EN" "http://www.w3.org/Graphics/SVG/1.1/DTD/svg11.dtd" >
<svg xmlns="http://www.w3.org/2000/svg" xmlns:xlink="http://www.w3.org/1999/xlink" version="1.1">
<metadata>
Created by FontForge 20190801 at Thu Oct 26 12:28:19 2017
 By Unknown
Copyright \(c\) 2017 by Paulo Goode. All rights reserved.
</metadata>
<defs>
<font id="Torus-Regular" horiz-adv-x="613" >
  <font-face 
    font-family="Torus"
    font-weight="400"
    font-stretch="normal"
    units-per-em="1000"
    panose-1="0 0 5 0 0 0 0 0 0 0"
    ascent="800"
    descent="-200"
    x-height="494"
    cap-height="652"
    bbox="-354.628 -195 1028 912.294"
    underline-thickness="50"
    underline-position="-100"
    stemh="78"
    stemv="82"
    unicode-range="U+0020-FB02"
  />
<missing-glyph horiz-adv-x="899" 
d="M315 38c25 0 41 -13 41 -38s-16 -38 -41 -38h-38c-131 0 -173 62 -173 198v332c0 136 53 198 173 198h38c25 0 41 -13 41 -38s-16 -38 -41 -38h-38c-83 0 -92 -53 -92 -138v-300c0 -85 -2 -138 92 -138h38zM621 690c120 0 174 -62 174 -198v-332
c0 -136 -43 -198 -174 -198h-38c-25 0 -40 13 -40 38s15 38 40 38h38c94 0 93 53 93 138v300c0 85 -10 138 -93 138h-38c-25 0 -40 13 -40 38s15 38 40 38h38zM320 489h24c28 0 45 -14 45 -41s-17 -41 -45 -41h-24c-27 0 -44 14 -44 41s17 41 44 41zM554 407
c-27 0 -45 14 -45 41s18 41 45 41h24c28 0 45 -14 45 -41s-17 -41 -45 -41h-24zM601 173c-5 -26 -25 -31 -50 -23c-30 9 -62 16 -103 16c-38 0 -75 -8 -102 -16c-26 -8 -45 -3 -50 24c-5 26 11 41 39 47c36 9 73 16 113 16s77 -7 114 -16c28 -6 43 -21 39 -48z" />
    <glyph glyph-name="f_f" unicode="ff" horiz-adv-x="729" 
d="M617 627c-71 0 -92 -34 -93 -115v-12h110c25 0 42 -14 42 -37c0 -24 -17 -38 -42 -38h-110v-382c0 -26 -15 -43 -40 -43s-40 17 -40 43v382h-233v-382c0 -26 -15 -43 -40 -43s-40 17 -40 43v382h-56c-25 0 -42 14 -42 38c0 23 17 37 42 37h56v14c2 121 50 188 172 188h40
c25 0 40 -14 40 -37c0 -24 -15 -38 -40 -38h-39c-71 0 -92 -34 -93 -115v-12h233v14c2 121 50 188 172 188h40c25 0 40 -14 40 -37c0 -24 -15 -38 -40 -38h-39z" />
    <glyph glyph-name="f_f_i" unicode="ffi" horiz-adv-x="933" 
d="M817 601c-30 0 -51 21 -51 51s21 51 51 51c31 0 52 -21 52 -51s-21 -51 -52 -51zM656 702c25 0 40 -14 40 -37c0 -24 -15 -38 -40 -38h-39c-71 0 -92 -34 -93 -115v-12h110c25 0 42 -14 42 -37c0 -24 -17 -38 -42 -38h-110v-382c0 -26 -15 -43 -40 -43s-40 17 -40 43v382
h-233v-382c0 -26 -15 -43 -40 -43s-40 17 -40 43v382h-56c-25 0 -42 14 -42 38c0 23 17 37 42 37h56v14c2 121 50 188 172 188h40c25 0 40 -14 40 -37c0 -24 -15 -38 -40 -38h-39c-71 0 -92 -34 -93 -115v-12h233v14c2 121 50 188 172 188h40zM817 500c25 0 41 -17 41 -43
v-414c0 -26 -16 -43 -41 -43c-24 0 -40 17 -40 43v414c0 26 16 43 40 43z" />
    <glyph glyph-name="f_f_l" unicode="ffl" horiz-adv-x="931" 
d="M656 702c25 0 40 -14 40 -37c0 -24 -15 -38 -40 -38h-39c-71 0 -92 -34 -93 -115v-12h110c25 0 42 -14 42 -37c0 -24 -17 -38 -42 -38h-110v-382c0 -26 -15 -43 -40 -43s-40 17 -40 43v382h-233v-382c0 -26 -15 -43 -40 -43s-40 17 -40 43v382h-56c-25 0 -42 14 -42 38
c0 23 17 37 42 37h56v14c2 121 50 188 172 188h40c25 0 40 -14 40 -37c0 -24 -15 -38 -40 -38h-39c-71 0 -92 -34 -93 -115v-12h233v14c2 121 50 188 172 188h40zM820 702c25 0 40 -17 40 -43v-616c0 -26 -15 -43 -40 -43s-40 17 -40 43v616c0 26 15 43 40 43z" />
    <glyph glyph-name="fi" unicode="fi" horiz-adv-x="621" 
d="M505 601c-30 0 -51 21 -51 51s21 51 51 51c31 0 52 -21 52 -51s-21 -51 -52 -51zM304 627c-71 0 -92 -34 -93 -115v-12h110c25 0 42 -14 42 -37c0 -24 -17 -38 -42 -38h-110v-382c0 -26 -15 -43 -40 -43s-40 17 -40 43v382h-56c-25 0 -42 14 -42 38c0 23 17 37 42 37h56
v14c2 121 50 188 172 188h40c25 0 40 -14 40 -37c0 -24 -15 -38 -40 -38h-39zM505 500c25 0 41 -17 41 -43v-414c0 -26 -16 -43 -41 -43c-24 0 -40 17 -40 43v414c0 26 16 43 40 43z" />
    <glyph glyph-name="fl" unicode="fl" horiz-adv-x="619" 
d="M304 627c-71 0 -92 -34 -93 -115v-12h110c25 0 42 -14 42 -37c0 -24 -17 -38 -42 -38h-110v-382c0 -26 -15 -43 -40 -43s-40 17 -40 43v382h-56c-25 0 -42 14 -42 38c0 23 17 37 42 37h56v14c2 121 50 188 172 188h40c25 0 40 -14 40 -37c0 -24 -15 -38 -40 -38h-39z
M508 702c25 0 40 -17 40 -43v-616c0 -26 -15 -43 -40 -43s-40 17 -40 43v616c0 26 15 43 40 43z" />
    <glyph glyph-name=".notdef" horiz-adv-x="899" 
d="M315 38c25 0 41 -13 41 -38s-16 -38 -41 -38h-38c-131 0 -173 62 -173 198v332c0 136 53 198 173 198h38c25 0 41 -13 41 -38s-16 -38 -41 -38h-38c-83 0 -92 -53 -92 -138v-300c0 -85 -2 -138 92 -138h38zM621 690c120 0 174 -62 174 -198v-332
c0 -136 -43 -198 -174 -198h-38c-25 0 -40 13 -40 38s15 38 40 38h38c94 0 93 53 93 138v300c0 85 -10 138 -93 138h-38c-25 0 -40 13 -40 38s15 38 40 38h38zM320 489h24c28 0 45 -14 45 -41s-17 -41 -45 -41h-24c-27 0 -44 14 -44 41s17 41 44 41zM554 407
c-27 0 -45 14 -45 41s18 41 45 41h24c28 0 45 -14 45 -41s-17 -41 -45 -41h-24zM601 173c-5 -26 -25 -31 -50 -23c-30 9 -62 16 -103 16c-38 0 -75 -8 -102 -16c-26 -8 -45 -3 -50 24c-5 26 11 41 39 47c36 9 73 16 113 16s77 -7 114 -16c28 -6 43 -21 39 -48z" />
    <glyph glyph-name="A" unicode="A" horiz-adv-x="610" 
d="M569 59c10 -24 2 -46 -22 -56c-23 -9 -45 3 -53 26l-44 116h-290l-44 -116c-9 -24 -31 -35 -53 -26c-24 10 -32 32 -22 56l225 573c6 18 22 27 39 27s33 -9 39 -27zM188 220h234l-117 312z" />
    <glyph glyph-name="A.ss01" horiz-adv-x="610" 
d="M569 59c10 -24 2 -46 -22 -56c-23 -9 -45 3 -53 26l-189 502l-189 -502c-9 -24 -31 -35 -53 -26c-24 10 -32 32 -22 56l225 573c6 18 22 27 39 27s33 -9 39 -27zM397 175c0 -25 -17 -41 -43 -41h-98c-26 0 -43 16 -43 41s17 40 43 40h98c26 0 43 -15 43 -40z" />
    <glyph glyph-name="A.ss02" horiz-adv-x="610" 
d="M569 59c10 -24 2 -46 -22 -56c-23 -9 -45 3 -53 26l-189 502l-189 -502c-9 -24 -31 -35 -53 -26c-24 10 -32 32 -22 56l225 573c6 18 22 27 39 27s33 -9 39 -27zM315 213c25 0 42 -14 42 -38c0 -25 -17 -39 -42 -39h-20c-25 0 -42 14 -42 39c0 24 17 38 42 38h20z" />
    <glyph glyph-name="Aacute" unicode="&#xc1;" horiz-adv-x="610" 
d="M286 731c-19 -17 -39 -17 -56 2c-15 18 -12 39 8 55l88 74c19 16 39 15 55 -3c16 -19 12 -39 -7 -55zM569 59c10 -24 2 -46 -22 -56c-23 -9 -45 3 -53 26l-44 116h-290l-44 -116c-9 -24 -31 -35 -53 -26c-24 10 -32 32 -22 56l225 573c6 18 22 27 39 27s33 -9 39 -27z
M188 220h234l-117 312z" />
    <glyph glyph-name="Aacute.ss01" horiz-adv-x="610" 
d="M326 862c19 16 39 15 55 -3c16 -19 12 -39 -7 -55l-88 -73c-19 -17 -39 -17 -56 2c-15 18 -12 39 8 55zM569 59c10 -24 2 -46 -22 -56c-23 -9 -45 3 -53 26l-189 502l-189 -502c-9 -24 -31 -35 -53 -26c-24 10 -32 32 -22 56l225 573c6 18 22 27 39 27s33 -9 39 -27z
M397 175c0 -25 -17 -41 -43 -41h-98c-26 0 -43 16 -43 41s17 40 43 40h98c26 0 43 -15 43 -40z" />
    <glyph glyph-name="Aacute.ss02" horiz-adv-x="610" 
d="M326 862c19 16 39 15 55 -3c16 -19 12 -39 -7 -55l-88 -73c-19 -17 -39 -17 -56 2c-15 18 -12 39 8 55zM569 59c10 -24 2 -46 -22 -56c-23 -9 -45 3 -53 26l-189 502l-189 -502c-9 -24 -31 -35 -53 -26c-24 10 -32 32 -22 56l225 573c6 18 22 27 39 27s33 -9 39 -27z
M315 213c25 0 42 -14 42 -38c0 -25 -17 -39 -42 -39h-20c-25 0 -42 14 -42 39c0 24 17 38 42 38h20z" />
    <glyph glyph-name="Abreve" unicode="&#x102;" horiz-adv-x="610" 
d="M305 717c-75 0 -113 39 -131 81c-13 25 -14 49 9 61c23 11 41 3 53 -18c13 -23 26 -54 69 -54c42 0 56 31 68 54c12 21 30 29 54 18c21 -11 22 -33 9 -61c-19 -42 -57 -81 -131 -81zM569 59c10 -24 2 -46 -22 -56c-23 -9 -45 3 -53 26l-44 116h-290l-44 -116
c-9 -24 -31 -35 -53 -26c-24 10 -32 32 -22 56l225 573c6 18 22 27 39 27s33 -9 39 -27zM188 220h234l-117 312z" />
    <glyph glyph-name="Abreve.ss01" horiz-adv-x="610" 
d="M427 859c21 -11 22 -33 9 -61c-19 -42 -57 -81 -131 -81c-75 0 -113 39 -131 81c-13 25 -14 49 9 61c23 11 41 3 53 -18c13 -23 26 -54 69 -54c42 0 56 31 68 54c12 21 30 29 54 18zM569 59c10 -24 2 -46 -22 -56c-23 -9 -45 3 -53 26l-189 502l-189 -502
c-9 -24 -31 -35 -53 -26c-24 10 -32 32 -22 56l225 573c6 18 22 27 39 27s33 -9 39 -27zM397 175c0 -25 -17 -41 -43 -41h-98c-26 0 -43 16 -43 41s17 40 43 40h98c26 0 43 -15 43 -40z" />
    <glyph glyph-name="Abreve.ss02" horiz-adv-x="610" 
d="M427 859c21 -11 22 -33 9 -61c-19 -42 -57 -81 -131 -81c-75 0 -113 39 -131 81c-13 25 -14 49 9 61c23 11 41 3 53 -18c13 -23 26 -54 69 -54c42 0 56 31 68 54c12 21 30 29 54 18zM569 59c10 -24 2 -46 -22 -56c-23 -9 -45 3 -53 26l-189 502l-189 -502
c-9 -24 -31 -35 -53 -26c-24 10 -32 32 -22 56l225 573c6 18 22 27 39 27s33 -9 39 -27zM315 213c25 0 42 -14 42 -38c0 -25 -17 -39 -42 -39h-20c-25 0 -42 14 -42 39c0 24 17 38 42 38h20z" />
    <glyph glyph-name="Acircumflex" unicode="&#xc2;" horiz-adv-x="610" 
d="M246 732c-17 -16 -38 -15 -54 3c-17 18 -13 39 7 57l76 68c9 9 20 14 30 14s20 -5 30 -14l76 -68c20 -18 23 -39 7 -57s-39 -20 -54 -3l-59 62zM569 59c10 -24 2 -46 -22 -56c-23 -9 -45 3 -53 26l-44 116h-290l-44 -116c-9 -24 -31 -35 -53 -26c-24 10 -32 32 -22 56
l225 573c6 18 22 27 39 27s33 -9 39 -27zM188 220h234l-117 312z" />
    <glyph glyph-name="Acircumflex.ss01" horiz-adv-x="610" 
d="M418 735c-16 -18 -39 -20 -54 -3l-59 62l-59 -62c-17 -16 -38 -15 -54 3c-17 18 -13 39 7 57l76 68c9 9 20 14 30 14s20 -5 30 -14l76 -68c20 -18 23 -39 7 -57zM569 59c10 -24 2 -46 -22 -56c-23 -9 -45 3 -53 26l-189 502l-189 -502c-9 -24 -31 -35 -53 -26
c-24 10 -32 32 -22 56l225 573c6 18 22 27 39 27s33 -9 39 -27zM397 175c0 -25 -17 -41 -43 -41h-98c-26 0 -43 16 -43 41s17 40 43 40h98c26 0 43 -15 43 -40z" />
    <glyph glyph-name="Acircumflex.ss02" horiz-adv-x="610" 
d="M418 735c-16 -18 -39 -20 -54 -3l-59 62l-59 -62c-17 -16 -38 -15 -54 3c-17 18 -13 39 7 57l76 68c9 9 20 14 30 14s20 -5 30 -14l76 -68c20 -18 23 -39 7 -57zM569 59c10 -24 2 -46 -22 -56c-23 -9 -45 3 -53 26l-189 502l-189 -502c-9 -24 -31 -35 -53 -26
c-24 10 -32 32 -22 56l225 573c6 18 22 27 39 27s33 -9 39 -27zM315 213c25 0 42 -14 42 -38c0 -25 -17 -39 -42 -39h-20c-25 0 -42 14 -42 39c0 24 17 38 42 38h20z" />
    <glyph glyph-name="Adieresis" unicode="&#xc4;" horiz-adv-x="610" 
d="M236 718c-26 0 -44 18 -44 43s18 43 44 43c25 0 43 -18 43 -43s-18 -43 -43 -43zM377 718c-26 0 -44 18 -44 43s18 43 44 43c25 0 43 -18 43 -43s-18 -43 -43 -43zM569 59c10 -24 2 -46 -22 -56c-23 -9 -45 3 -53 26l-44 116h-290l-44 -116c-9 -24 -31 -35 -53 -26
c-24 10 -32 32 -22 56l225 573c6 18 22 27 39 27s33 -9 39 -27zM188 220h234l-117 312z" />
    <glyph glyph-name="Adieresis.ss01" horiz-adv-x="610" 
d="M236 718c-26 0 -44 18 -44 43s18 43 44 43c25 0 43 -18 43 -43s-18 -43 -43 -43zM377 718c-26 0 -44 18 -44 43s18 43 44 43c25 0 43 -18 43 -43s-18 -43 -43 -43zM569 59c10 -24 2 -46 -22 -56c-23 -9 -45 3 -53 26l-189 502l-189 -502c-9 -24 -31 -35 -53 -26
c-24 10 -32 32 -22 56l225 573c6 18 22 27 39 27s33 -9 39 -27zM397 175c0 -25 -17 -41 -43 -41h-98c-26 0 -43 16 -43 41s17 40 43 40h98c26 0 43 -15 43 -40z" />
    <glyph glyph-name="Adieresis.ss02" horiz-adv-x="610" 
d="M236 718c-26 0 -44 18 -44 43s18 43 44 43c25 0 43 -18 43 -43s-18 -43 -43 -43zM377 718c-26 0 -44 18 -44 43s18 43 44 43c25 0 43 -18 43 -43s-18 -43 -43 -43zM569 59c10 -24 2 -46 -22 -56c-23 -9 -45 3 -53 26l-189 502l-189 -502c-9 -24 -31 -35 -53 -26
c-24 10 -32 32 -22 56l225 573c6 18 22 27 39 27s33 -9 39 -27zM315 213c25 0 42 -14 42 -38c0 -25 -17 -39 -42 -39h-20c-25 0 -42 14 -42 39c0 24 17 38 42 38h20z" />
    <glyph glyph-name="Agrave" unicode="&#xc0;" horiz-adv-x="610" 
d="M236 804c-19 16 -23 36 -7 55c16 18 36 19 55 3l88 -74c20 -16 23 -37 8 -55c-17 -19 -37 -19 -56 -2zM569 59c10 -24 2 -46 -22 -56c-23 -9 -45 3 -53 26l-44 116h-290l-44 -116c-9 -24 -31 -35 -53 -26c-24 10 -32 32 -22 56l225 573c6 18 22 27 39 27s33 -9 39 -27z
M188 220h234l-117 312z" />
    <glyph glyph-name="Agrave.ss01" horiz-adv-x="610" 
d="M284 862l88 -74c20 -16 23 -37 8 -55c-17 -19 -37 -19 -56 -2l-88 73c-19 16 -23 36 -7 55c16 18 36 19 55 3zM569 59c10 -24 2 -46 -22 -56c-23 -9 -45 3 -53 26l-189 502l-189 -502c-9 -24 -31 -35 -53 -26c-24 10 -32 32 -22 56l225 573c6 18 22 27 39 27
s33 -9 39 -27zM397 175c0 -25 -17 -41 -43 -41h-98c-26 0 -43 16 -43 41s17 40 43 40h98c26 0 43 -15 43 -40z" />
    <glyph glyph-name="Agrave.ss02" horiz-adv-x="610" 
d="M284 862l88 -74c20 -16 23 -37 8 -55c-17 -19 -37 -19 -56 -2l-88 73c-19 16 -23 36 -7 55c16 18 36 19 55 3zM569 59c10 -24 2 -46 -22 -56c-23 -9 -45 3 -53 26l-189 502l-189 -502c-9 -24 -31 -35 -53 -26c-24 10 -32 32 -22 56l225 573c6 18 22 27 39 27
s33 -9 39 -27zM315 213c25 0 42 -14 42 -38c0 -25 -17 -39 -42 -39h-20c-25 0 -42 14 -42 39c0 24 17 38 42 38h20z" />
    <glyph glyph-name="Amacron" unicode="&#x100;" horiz-adv-x="610" 
d="M218 719c-24 0 -39 15 -39 36s15 36 39 36h174c24 0 39 -15 39 -36s-15 -36 -39 -36h-174zM569 59c10 -24 2 -46 -22 -56c-23 -9 -45 3 -53 26l-44 116h-290l-44 -116c-9 -24 -31 -35 -53 -26c-24 10 -32 32 -22 56l225 573c6 18 22 27 39 27s33 -9 39 -27zM188 220h234
l-117 312z" />
    <glyph glyph-name="Amacron.ss01" horiz-adv-x="610" 
d="M431 755c0 -21 -15 -36 -39 -36h-174c-24 0 -39 15 -39 36s15 36 39 36h174c24 0 39 -15 39 -36zM569 59c10 -24 2 -46 -22 -56c-23 -9 -45 3 -53 26l-189 502l-189 -502c-9 -24 -31 -35 -53 -26c-24 10 -32 32 -22 56l225 573c6 18 22 27 39 27s33 -9 39 -27zM397 175
c0 -25 -17 -41 -43 -41h-98c-26 0 -43 16 -43 41s17 40 43 40h98c26 0 43 -15 43 -40z" />
    <glyph glyph-name="Amacron.ss02" horiz-adv-x="610" 
d="M431 755c0 -21 -15 -36 -39 -36h-174c-24 0 -39 15 -39 36s15 36 39 36h174c24 0 39 -15 39 -36zM569 59c10 -24 2 -46 -22 -56c-23 -9 -45 3 -53 26l-189 502l-189 -502c-9 -24 -31 -35 -53 -26c-24 10 -32 32 -22 56l225 573c6 18 22 27 39 27s33 -9 39 -27zM315 213
c25 0 42 -14 42 -38c0 -25 -17 -39 -42 -39h-20c-25 0 -42 14 -42 39c0 24 17 38 42 38h20z" />
    <glyph glyph-name="Aogonek" unicode="&#x104;" horiz-adv-x="610" 
d="M587 -106c8 -20 3 -34 -16 -45c-13 -7 -34 -14 -59 -14c-46 0 -87 23 -91 73c-4 47 25 88 79 110c-3 3 -5 7 -6 11l-44 116h-290l-44 -116c-9 -24 -31 -35 -53 -26c-24 10 -32 32 -22 56l225 573c6 18 22 27 39 27s33 -9 39 -27l225 -573c10 -24 2 -46 -22 -56l-11 -3
c-41 -11 -60 -41 -56 -67c3 -22 20 -29 36 -29c12 0 26 6 34 9c13 5 28 2 37 -19zM188 220h234l-117 312z" />
    <glyph glyph-name="Aogonek.001" horiz-adv-x="610" 
d="M587 -106c8 -20 3 -34 -16 -45c-13 -7 -34 -14 -59 -14c-46 0 -87 23 -91 73c-4 47 25 88 79 110c-3 3 -5 7 -6 11l-189 502l-189 -502c-9 -24 -31 -35 -53 -26c-24 10 -32 32 -22 56l225 573c6 18 22 27 39 27s33 -9 39 -27l225 -573c10 -24 2 -46 -22 -56l-11 -3
c-41 -11 -60 -41 -56 -67c3 -22 20 -29 36 -29c12 0 26 6 34 9c13 5 28 2 37 -19zM354 215c26 0 43 -15 43 -40s-17 -41 -43 -41h-98c-26 0 -43 16 -43 41s17 40 43 40h98z" />
    <glyph glyph-name="Aogonek.ss02" horiz-adv-x="610" 
d="M587 -106c8 -20 3 -34 -16 -45c-13 -7 -34 -14 -59 -14c-46 0 -87 23 -91 73c-4 47 25 88 79 110c-3 3 -5 7 -6 11l-189 502l-189 -502c-9 -24 -31 -35 -53 -26c-24 10 -32 32 -22 56l225 573c6 18 22 27 39 27s33 -9 39 -27l225 -573c10 -24 2 -46 -22 -56l-11 -3
c-41 -11 -60 -41 -56 -67c3 -22 20 -29 36 -29c12 0 26 6 34 9c13 5 28 2 37 -19zM315 213c25 0 42 -14 42 -38c0 -25 -17 -39 -42 -39h-20c-25 0 -42 14 -42 39c0 24 17 38 42 38h20z" />
    <glyph glyph-name="Aring" unicode="&#xc5;" horiz-adv-x="610" 
d="M305 707c-55 0 -93 38 -93 93c0 54 38 92 93 92c54 0 92 -38 92 -92c0 -55 -38 -93 -92 -93zM305 842c-27 0 -43 -16 -43 -42c0 -27 16 -43 43 -43c26 0 42 16 42 43c0 26 -16 42 -42 42zM569 59c10 -24 2 -46 -22 -56c-23 -9 -45 3 -53 26l-44 116h-290l-44 -116
c-9 -24 -31 -35 -53 -26c-24 10 -32 32 -22 56l225 573c6 18 22 27 39 27s33 -9 39 -27zM188 220h234l-117 312z" />
    <glyph glyph-name="Aring.ss01" horiz-adv-x="610" 
d="M305 707c-55 0 -93 38 -93 93c0 54 38 92 93 92c54 0 92 -38 92 -92c0 -55 -38 -93 -92 -93zM305 757c26 0 42 16 42 43c0 26 -16 42 -42 42c-27 0 -43 -16 -43 -42c0 -27 16 -43 43 -43zM569 59c10 -24 2 -46 -22 -56c-23 -9 -45 3 -53 26l-189 502l-189 -502
c-9 -24 -31 -35 -53 -26c-24 10 -32 32 -22 56l225 573c6 18 22 27 39 27s33 -9 39 -27zM397 175c0 -25 -17 -41 -43 -41h-98c-26 0 -43 16 -43 41s17 40 43 40h98c26 0 43 -15 43 -40z" />
    <glyph glyph-name="Aring.ss02" horiz-adv-x="610" 
d="M305 707c-55 0 -93 38 -93 93c0 54 38 92 93 92c54 0 92 -38 92 -92c0 -55 -38 -93 -92 -93zM305 757c26 0 42 16 42 43c0 26 -16 42 -42 42c-27 0 -43 -16 -43 -42c0 -27 16 -43 43 -43zM569 59c10 -24 2 -46 -22 -56c-23 -9 -45 3 -53 26l-189 502l-189 -502
c-9 -24 -31 -35 -53 -26c-24 10 -32 32 -22 56l225 573c6 18 22 27 39 27s33 -9 39 -27zM315 213c25 0 42 -14 42 -38c0 -25 -17 -39 -42 -39h-20c-25 0 -42 14 -42 39c0 24 17 38 42 38h20z" />
    <glyph glyph-name="Atilde" unicode="&#xc3;" horiz-adv-x="610" 
d="M241 723c-16 -12 -37 -7 -48 10c-12 16 -8 33 9 50c30 31 69 32 105 12c40 -23 42 -13 61 1s39 8 50 -8c14 -17 8 -35 -9 -52c-32 -31 -62 -32 -107 -9c-38 21 -41 11 -61 -4zM569 59c10 -24 2 -46 -22 -56c-23 -9 -45 3 -53 26l-44 116h-290l-44 -116
c-9 -24 -31 -35 -53 -26c-24 10 -32 32 -22 56l225 573c6 18 22 27 39 27s33 -9 39 -27zM188 220h234l-117 312z" />
    <glyph glyph-name="Atilde.ss01" horiz-adv-x="610" 
d="M418 788c14 -17 8 -35 -9 -52c-32 -31 -62 -32 -107 -9c-38 21 -41 11 -61 -4c-16 -12 -37 -7 -48 10c-12 16 -8 33 9 50c30 31 69 32 105 12c40 -23 42 -13 61 1s39 8 50 -8zM569 59c10 -24 2 -46 -22 -56c-23 -9 -45 3 -53 26l-189 502l-189 -502
c-9 -24 -31 -35 -53 -26c-24 10 -32 32 -22 56l225 573c6 18 22 27 39 27s33 -9 39 -27zM397 175c0 -25 -17 -41 -43 -41h-98c-26 0 -43 16 -43 41s17 40 43 40h98c26 0 43 -15 43 -40z" />
    <glyph glyph-name="Atilde.ss02" horiz-adv-x="610" 
d="M418 788c14 -17 8 -35 -9 -52c-32 -31 -62 -32 -107 -9c-38 21 -41 11 -61 -4c-16 -12 -37 -7 -48 10c-12 16 -8 33 9 50c30 31 69 32 105 12c40 -23 42 -13 61 1s39 8 50 -8zM569 59c10 -24 2 -46 -22 -56c-23 -9 -45 3 -53 26l-189 502l-189 -502
c-9 -24 -31 -35 -53 -26c-24 10 -32 32 -22 56l225 573c6 18 22 27 39 27s33 -9 39 -27zM315 213c25 0 42 -14 42 -38c0 -25 -17 -39 -42 -39h-20c-25 0 -42 14 -42 39c0 24 17 38 42 38h20z" />
    <glyph glyph-name="AE" unicode="&#xc6;" horiz-adv-x="858" 
d="M762 78c26 0 42 -16 42 -39s-16 -39 -42 -39h-308c-27 0 -42 18 -42 44v109h-264l-70 -129c-13 -23 -35 -31 -57 -19c-21 12 -22 36 -9 58l299 563c10 18 24 26 40 26h406c26 0 42 -16 42 -39s-16 -39 -42 -39h-266v-200h220c26 0 44 -16 44 -39c0 -24 -18 -39 -44 -39
h-220v-218h271zM190 231h222v343h-37z" />
    <glyph glyph-name="AE.ss01" horiz-adv-x="877" 
d="M781 78c26 0 42 -16 42 -39s-16 -39 -42 -39h-308c-27 0 -42 18 -42 44v530h-56l-297 -550c-12 -22 -35 -31 -56 -19c-22 12 -23 36 -10 58l299 563c10 18 24 26 40 26h425c26 0 42 -16 42 -39s-16 -39 -42 -39h-265v-496h270zM605 375h126c25 0 43 -15 43 -40
c0 -26 -18 -41 -43 -41h-126c-26 0 -44 15 -44 41c0 25 18 40 44 40zM329 212c26 0 44 -16 44 -41s-18 -41 -44 -41h-65c-26 0 -44 16 -44 41s18 41 44 41h65z" />
    <glyph glyph-name="B" unicode="B" horiz-adv-x="591" 
d="M440 349c56 -27 95 -91 95 -160c0 -111 -68 -189 -187 -189h-231c-25 0 -40 18 -40 44v564c0 26 15 44 42 44h195c111 0 184 -70 184 -178c0 -46 -21 -96 -58 -125zM302 574h-143v-203h165c57 0 93 44 93 103c0 67 -45 100 -115 100zM337 78c78 0 117 41 117 111
c0 63 -38 107 -96 107h-199v-218h178z" />
    <glyph glyph-name="B.ss01" horiz-adv-x="605" 
d="M455 349c55 -27 94 -91 94 -160c0 -111 -68 -189 -187 -189h-104c-26 0 -41 16 -41 39s15 39 41 39h94c77 0 116 41 116 111c0 63 -38 109 -96 109h-105c-25 0 -40 16 -40 37c0 22 15 38 40 38h71c58 0 93 42 93 101c0 67 -44 100 -115 100h-157v-530
c0 -26 -16 -44 -41 -44c-26 0 -41 18 -41 44v564c0 26 15 44 42 44h209c112 0 184 -70 184 -178c0 -46 -21 -96 -57 -125z" />
    <glyph glyph-name="B.ss02" horiz-adv-x="607" 
d="M442 356c63 -26 109 -90 109 -168c0 -103 -78 -188 -204 -188h-92c-25 0 -41 15 -41 39s16 39 41 39h81c85 0 134 46 134 116c0 64 -44 99 -100 110c-11 2 -25 6 -31 23c-6 16 -3 34 17 48c45 30 71 57 71 106c0 66 -48 100 -118 100c-88 0 -153 -55 -153 -201v-336
c0 -26 -15 -44 -41 -44c-25 0 -41 18 -41 44v346c0 182 107 269 239 269c121 0 195 -73 195 -172c0 -62 -35 -107 -66 -131z" />
    <glyph glyph-name="C" unicode="C" horiz-adv-x="674" 
d="M531 517c-27 24 -72 64 -155 64c-142 0 -241 -108 -241 -255s100 -255 240 -255c87 0 135 43 165 69c12 11 33 25 58 1c20 -19 17 -39 1 -59c-31 -37 -117 -89 -229 -89c-181 0 -319 143 -319 334c0 190 137 332 320 332c104 0 186 -45 219 -82c19 -22 16 -39 -2 -58
c-21 -21 -38 -19 -57 -2z" />
    <glyph glyph-name="Cacute" unicode="&#x106;" horiz-adv-x="674" 
d="M390 862c19 16 39 15 55 -3c16 -19 12 -39 -7 -55l-88 -73c-19 -17 -39 -17 -56 2c-15 18 -12 39 8 55zM531 517c-27 24 -72 64 -155 64c-142 0 -241 -108 -241 -255s100 -255 240 -255c87 0 135 43 165 69c12 11 33 25 58 1c20 -19 17 -39 1 -59
c-31 -37 -117 -89 -229 -89c-181 0 -319 143 -319 334c0 190 137 332 320 332c104 0 186 -45 219 -82c19 -22 16 -39 -2 -58c-21 -21 -38 -19 -57 -2z" />
    <glyph glyph-name="Ccaron" unicode="&#x10c;" horiz-adv-x="674" 
d="M482 857c16 -18 13 -39 -7 -57l-76 -68c-10 -9 -20 -14 -30 -14s-21 5 -30 14l-76 68c-20 18 -24 39 -7 57c16 18 37 19 54 3l59 -62l59 62c15 17 38 15 54 -3zM531 517c-27 24 -72 64 -155 64c-142 0 -241 -108 -241 -255s100 -255 240 -255c87 0 135 43 165 69
c12 11 33 25 58 1c20 -19 17 -39 1 -59c-31 -37 -117 -89 -229 -89c-181 0 -319 143 -319 334c0 190 137 332 320 332c104 0 186 -45 219 -82c19 -22 16 -39 -2 -58c-21 -21 -38 -19 -57 -2z" />
    <glyph glyph-name="Ccedilla" unicode="&#xc7;" horiz-adv-x="674" 
d="M598 141c20 -19 17 -39 1 -59c-29 -34 -106 -82 -206 -88l-13 -26c29 -9 76 -27 76 -82c0 -49 -37 -79 -90 -79c-29 0 -52 9 -66 18c-12 7 -19 17 -14 31c5 13 18 16 30 12c13 -5 31 -13 51 -13c24 0 36 13 36 29c0 26 -33 42 -72 52c-9 2 -10 8 -7 15l19 43
c-168 14 -292 152 -292 333c0 190 137 332 320 332c104 0 186 -45 219 -82c19 -22 16 -39 -2 -58c-21 -21 -38 -19 -57 -2c-27 24 -72 64 -155 64c-142 0 -241 -108 -241 -255s100 -255 240 -255c87 0 135 43 165 69c12 11 33 25 58 1z" />
    <glyph glyph-name="Cdotaccent" unicode="&#x10a;" horiz-adv-x="674" 
d="M369 707c-30 0 -51 22 -51 51s21 52 51 52s51 -23 51 -52s-21 -51 -51 -51zM531 517c-27 24 -72 64 -155 64c-142 0 -241 -108 -241 -255s100 -255 240 -255c87 0 135 43 165 69c12 11 33 25 58 1c20 -19 17 -39 1 -59c-31 -37 -117 -89 -229 -89
c-181 0 -319 143 -319 334c0 190 137 332 320 332c104 0 186 -45 219 -82c19 -22 16 -39 -2 -58c-21 -21 -38 -19 -57 -2z" />
    <glyph glyph-name="D" unicode="D" horiz-adv-x="649" 
d="M290 652c177 0 308 -126 308 -326s-124 -326 -298 -326h-182c-26 0 -41 18 -41 44v564c0 26 15 44 42 44h171zM300 78c136 0 215 100 215 248s-85 248 -225 248h-131v-496h141z" />
    <glyph glyph-name="D.ss01" horiz-adv-x="650" 
d="M292 652c177 0 307 -126 307 -326s-124 -326 -297 -326h-44c-26 0 -41 16 -41 39s15 39 41 39h44c136 0 214 100 214 248s-85 248 -224 248h-133v-530c0 -26 -16 -44 -41 -44c-26 0 -41 18 -41 44v564c0 26 15 44 42 44h173z" />
    <glyph glyph-name="Eth" unicode="&#xd0;" horiz-adv-x="686" 
d="M327 652c177 0 308 -126 308 -326s-124 -326 -298 -326h-182c-26 0 -41 18 -41 44v239h-40c-25 0 -41 15 -41 38s16 38 41 38h40v249c0 26 15 44 42 44h171zM337 78c136 0 215 100 215 248s-85 248 -225 248h-131v-215h98c25 0 41 -15 41 -38s-16 -38 -41 -38h-98v-205
h141z" />
    <glyph glyph-name="Eth.ss01" horiz-adv-x="688" 
d="M329 652c177 0 307 -126 307 -326s-124 -326 -297 -326h-44c-26 0 -41 16 -41 39s15 39 41 39h44c136 0 214 100 214 248s-85 248 -224 248h-133v-215h98c25 0 41 -15 41 -38s-16 -38 -41 -38h-98v-239c0 -26 -16 -44 -41 -44c-26 0 -41 18 -41 44v239h-40
c-25 0 -41 15 -41 38s16 38 41 38h40v249c0 26 15 44 42 44h173z" />
    <glyph glyph-name="Dcaron" unicode="&#x10e;" horiz-adv-x="649" 
d="M191 800c-20 18 -24 39 -7 57c16 18 37 19 54 3l59 -62l59 62c15 17 38 15 54 -3s13 -39 -7 -57l-76 -68c-10 -9 -20 -14 -30 -14s-21 5 -30 14zM290 652c177 0 308 -126 308 -326s-124 -326 -298 -326h-182c-26 0 -41 18 -41 44v564c0 26 15 44 42 44h171zM300 78
c136 0 215 100 215 248s-85 248 -225 248h-131v-496h141z" />
    <glyph glyph-name="Dcaron.ss01" horiz-adv-x="650" 
d="M406 857c16 -18 13 -39 -7 -57l-76 -68c-10 -9 -20 -14 -30 -14s-21 5 -30 14l-76 68c-20 18 -24 39 -7 57c16 18 37 19 54 3l59 -62l59 62c15 17 38 15 54 -3zM292 652c177 0 307 -126 307 -326s-124 -326 -297 -326h-44c-26 0 -41 16 -41 39s15 39 41 39h44
c136 0 214 100 214 248s-85 248 -224 248h-133v-530c0 -26 -16 -44 -41 -44c-26 0 -41 18 -41 44v564c0 26 15 44 42 44h173z" />
    <glyph glyph-name="Dcroat" unicode="&#x110;" horiz-adv-x="686" 
d="M327 652c177 0 308 -126 308 -326s-124 -326 -298 -326h-182c-26 0 -41 18 -41 44v239h-40c-25 0 -41 15 -41 38s16 38 41 38h40v249c0 26 15 44 42 44h171zM337 78c136 0 215 100 215 248s-85 248 -225 248h-131v-215h98c25 0 41 -15 41 -38s-16 -38 -41 -38h-98v-205
h141z" />
    <glyph glyph-name="Dcroat.ss01" horiz-adv-x="688" 
d="M329 652c177 0 307 -126 307 -326s-124 -326 -297 -326h-44c-26 0 -41 16 -41 39s15 39 41 39h44c136 0 214 100 214 248s-85 248 -224 248h-133v-215h98c25 0 41 -15 41 -38s-16 -38 -41 -38h-98v-239c0 -26 -16 -44 -41 -44c-26 0 -41 18 -41 44v239h-40
c-25 0 -41 15 -41 38s16 38 41 38h40v249c0 26 15 44 42 44h173z" />
    <glyph glyph-name="E" unicode="E" horiz-adv-x="523" 
d="M427 78c26 0 42 -16 42 -39s-16 -39 -42 -39h-308c-27 0 -42 18 -42 44v564c0 26 15 44 42 44h303c26 0 42 -16 42 -39s-16 -39 -42 -39h-266v-200h220c26 0 44 -16 44 -39c0 -24 -18 -39 -44 -39h-220v-218h271z" />
    <glyph glyph-name="E.ss01" horiz-adv-x="523" 
d="M427 78c26 0 42 -16 42 -39s-16 -39 -42 -39h-308c-27 0 -42 18 -42 44v564c0 26 15 44 42 44h303c26 0 42 -16 42 -39s-16 -39 -42 -39h-265v-496h270zM377 375c25 0 43 -15 43 -40c0 -26 -18 -41 -43 -41h-126c-26 0 -44 15 -44 41c0 25 18 40 44 40h126z" />
    <glyph glyph-name="E.ss02" horiz-adv-x="634" 
d="M488 517c-25 21 -69 63 -148 63c-130 0 -205 -114 -205 -254s74 -254 209 -254c84 0 127 45 155 68c15 13 34 24 58 1c18 -18 19 -37 2 -58c-29 -36 -113 -90 -219 -90c-176 0 -289 146 -289 333s113 333 285 333c98 0 180 -47 211 -82c19 -22 16 -39 -3 -58
c-21 -21 -36 -18 -56 -2zM417 377c27 0 44 -17 44 -41s-17 -41 -44 -41h-174c-26 0 -44 17 -44 41s18 41 44 41h174z" />
    <glyph glyph-name="Eacute" unicode="&#xc9;" horiz-adv-x="523" 
d="M291 862c19 16 39 15 55 -3c16 -19 12 -39 -7 -55l-88 -73c-19 -17 -39 -17 -56 2c-15 18 -12 39 8 55zM427 78c26 0 42 -16 42 -39s-16 -39 -42 -39h-308c-27 0 -42 18 -42 44v564c0 26 15 44 42 44h303c26 0 42 -16 42 -39s-16 -39 -42 -39h-266v-200h220
c26 0 44 -16 44 -39c0 -24 -18 -39 -44 -39h-220v-218h271z" />
    <glyph glyph-name="Eacute.ss01" horiz-adv-x="523" 
d="M291 862c19 16 39 15 55 -3c16 -19 12 -39 -7 -55l-88 -73c-19 -17 -39 -17 -56 2c-15 18 -12 39 8 55zM427 78c26 0 42 -16 42 -39s-16 -39 -42 -39h-308c-27 0 -42 18 -42 44v564c0 26 15 44 42 44h303c26 0 42 -16 42 -39s-16 -39 -42 -39h-265v-496h270zM377 375
c25 0 43 -15 43 -40c0 -26 -18 -41 -43 -41h-126c-26 0 -44 15 -44 41c0 25 18 40 44 40h126z" />
    <glyph glyph-name="Eacute.ss02" horiz-adv-x="634" 
d="M354 862c19 16 39 15 55 -3c16 -19 12 -39 -7 -55l-88 -73c-19 -17 -39 -17 -56 2c-15 18 -12 39 8 55zM488 517c-25 21 -69 63 -148 63c-130 0 -205 -114 -205 -254s74 -254 209 -254c84 0 127 45 155 68c15 13 34 24 58 1c18 -18 19 -37 2 -58
c-29 -36 -113 -90 -219 -90c-176 0 -289 146 -289 333s113 333 285 333c98 0 180 -47 211 -82c19 -22 16 -39 -3 -58c-21 -21 -36 -18 -56 -2zM417 377c27 0 44 -17 44 -41s-17 -41 -44 -41h-174c-26 0 -44 17 -44 41s18 41 44 41h174z" />
    <glyph glyph-name="Ebreve" unicode="&#x114;" horiz-adv-x="523" 
d="M392 859c21 -11 22 -33 9 -61c-19 -42 -57 -81 -131 -81c-75 0 -113 39 -131 81c-13 25 -14 49 9 61c23 11 41 3 53 -18c13 -23 26 -54 69 -54c42 0 56 31 68 54c12 21 30 29 54 18zM427 78c26 0 42 -16 42 -39s-16 -39 -42 -39h-308c-27 0 -42 18 -42 44v564
c0 26 15 44 42 44h303c26 0 42 -16 42 -39s-16 -39 -42 -39h-266v-200h220c26 0 44 -16 44 -39c0 -24 -18 -39 -44 -39h-220v-218h271z" />
    <glyph glyph-name="Ebreve.ss01" horiz-adv-x="523" 
d="M392 859c21 -11 22 -33 9 -61c-19 -42 -57 -81 -131 -81c-75 0 -113 39 -131 81c-13 25 -14 49 9 61c23 11 41 3 53 -18c13 -23 26 -54 69 -54c42 0 56 31 68 54c12 21 30 29 54 18zM427 78c26 0 42 -16 42 -39s-16 -39 -42 -39h-308c-27 0 -42 18 -42 44v564
c0 26 15 44 42 44h303c26 0 42 -16 42 -39s-16 -39 -42 -39h-265v-496h270zM377 375c25 0 43 -15 43 -40c0 -26 -18 -41 -43 -41h-126c-26 0 -44 15 -44 41c0 25 18 40 44 40h126z" />
    <glyph glyph-name="Ebreve.ss02" horiz-adv-x="634" 
d="M455 859c21 -11 22 -33 9 -61c-19 -42 -57 -81 -131 -81c-75 0 -113 39 -131 81c-13 25 -14 49 9 61c23 11 41 3 53 -18c13 -23 26 -54 69 -54c42 0 56 31 68 54c12 21 30 29 54 18zM488 517c-25 21 -69 63 -148 63c-130 0 -205 -114 -205 -254s74 -254 209 -254
c84 0 127 45 155 68c15 13 34 24 58 1c18 -18 19 -37 2 -58c-29 -36 -113 -90 -219 -90c-176 0 -289 146 -289 333s113 333 285 333c98 0 180 -47 211 -82c19 -22 16 -39 -3 -58c-21 -21 -36 -18 -56 -2zM417 377c27 0 44 -17 44 -41s-17 -41 -44 -41h-174
c-26 0 -44 17 -44 41s18 41 44 41h174z" />
    <glyph glyph-name="Ecaron" unicode="&#x11a;" horiz-adv-x="523" 
d="M383 857c16 -18 13 -39 -7 -57l-76 -68c-10 -9 -20 -14 -30 -14s-21 5 -30 14l-76 68c-20 18 -24 39 -7 57c16 18 37 19 54 3l59 -62l59 62c15 17 38 15 54 -3zM427 78c26 0 42 -16 42 -39s-16 -39 -42 -39h-308c-27 0 -42 18 -42 44v564c0 26 15 44 42 44h303
c26 0 42 -16 42 -39s-16 -39 -42 -39h-266v-200h220c26 0 44 -16 44 -39c0 -24 -18 -39 -44 -39h-220v-218h271z" />
    <glyph glyph-name="Ecaron.ss01" horiz-adv-x="523" 
d="M383 857c16 -18 13 -39 -7 -57l-76 -68c-10 -9 -20 -14 -30 -14s-21 5 -30 14l-76 68c-20 18 -24 39 -7 57c16 18 37 19 54 3l59 -62l59 62c15 17 38 15 54 -3zM427 78c26 0 42 -16 42 -39s-16 -39 -42 -39h-308c-27 0 -42 18 -42 44v564c0 26 15 44 42 44h303
c26 0 42 -16 42 -39s-16 -39 -42 -39h-265v-496h270zM377 375c25 0 43 -15 43 -40c0 -26 -18 -41 -43 -41h-126c-26 0 -44 15 -44 41c0 25 18 40 44 40h126z" />
    <glyph glyph-name="Ecaron.ss02" horiz-adv-x="634" 
d="M446 857c16 -18 13 -39 -7 -57l-76 -68c-10 -9 -20 -14 -30 -14s-21 5 -30 14l-76 68c-20 18 -24 39 -7 57c16 18 37 19 54 3l59 -62l59 62c15 17 38 15 54 -3zM488 517c-25 21 -69 63 -148 63c-130 0 -205 -114 -205 -254s74 -254 209 -254c84 0 127 45 155 68
c15 13 34 24 58 1c18 -18 19 -37 2 -58c-29 -36 -113 -90 -219 -90c-176 0 -289 146 -289 333s113 333 285 333c98 0 180 -47 211 -82c19 -22 16 -39 -3 -58c-21 -21 -36 -18 -56 -2zM417 377c27 0 44 -17 44 -41s-17 -41 -44 -41h-174c-26 0 -44 17 -44 41s18 41 44 41h174
z" />
    <glyph glyph-name="Ecircumflex" unicode="&#xca;" horiz-adv-x="523" 
d="M383 735c-16 -18 -39 -20 -54 -3l-59 62l-59 -62c-17 -16 -38 -15 -54 3c-17 18 -13 39 7 57l76 68c9 9 20 14 30 14s20 -5 30 -14l76 -68c20 -18 23 -39 7 -57zM427 78c26 0 42 -16 42 -39s-16 -39 -42 -39h-308c-27 0 -42 18 -42 44v564c0 26 15 44 42 44h303
c26 0 42 -16 42 -39s-16 -39 -42 -39h-266v-200h220c26 0 44 -16 44 -39c0 -24 -18 -39 -44 -39h-220v-218h271z" />
    <glyph glyph-name="Ecircumflex.ss01" horiz-adv-x="523" 
d="M383 735c-16 -18 -39 -20 -54 -3l-59 62l-59 -62c-17 -16 -38 -15 -54 3c-17 18 -13 39 7 57l76 68c9 9 20 14 30 14s20 -5 30 -14l76 -68c20 -18 23 -39 7 -57zM427 78c26 0 42 -16 42 -39s-16 -39 -42 -39h-308c-27 0 -42 18 -42 44v564c0 26 15 44 42 44h303
c26 0 42 -16 42 -39s-16 -39 -42 -39h-265v-496h270zM377 375c25 0 43 -15 43 -40c0 -26 -18 -41 -43 -41h-126c-26 0 -44 15 -44 41c0 25 18 40 44 40h126z" />
    <glyph glyph-name="Ecircumflex.ss02" horiz-adv-x="634" 
d="M446 735c-16 -18 -39 -20 -54 -3l-59 62l-59 -62c-17 -16 -38 -15 -54 3c-17 18 -13 39 7 57l76 68c9 9 20 14 30 14s20 -5 30 -14l76 -68c20 -18 23 -39 7 -57zM488 517c-25 21 -69 63 -148 63c-130 0 -205 -114 -205 -254s74 -254 209 -254c84 0 127 45 155 68
c15 13 34 24 58 1c18 -18 19 -37 2 -58c-29 -36 -113 -90 -219 -90c-176 0 -289 146 -289 333s113 333 285 333c98 0 180 -47 211 -82c19 -22 16 -39 -3 -58c-21 -21 -36 -18 -56 -2zM417 377c27 0 44 -17 44 -41s-17 -41 -44 -41h-174c-26 0 -44 17 -44 41s18 41 44 41h174
z" />
    <glyph glyph-name="Edieresis" unicode="&#xcb;" horiz-adv-x="523" 
d="M201 718c-26 0 -44 18 -44 43s18 43 44 43c25 0 43 -18 43 -43s-18 -43 -43 -43zM342 718c-26 0 -44 18 -44 43s18 43 44 43c25 0 43 -18 43 -43s-18 -43 -43 -43zM427 78c26 0 42 -16 42 -39s-16 -39 -42 -39h-308c-27 0 -42 18 -42 44v564c0 26 15 44 42 44h303
c26 0 42 -16 42 -39s-16 -39 -42 -39h-266v-200h220c26 0 44 -16 44 -39c0 -24 -18 -39 -44 -39h-220v-218h271z" />
    <glyph glyph-name="Edieresis.ss01" horiz-adv-x="523" 
d="M201 718c-26 0 -44 18 -44 43s18 43 44 43c25 0 43 -18 43 -43s-18 -43 -43 -43zM342 718c-26 0 -44 18 -44 43s18 43 44 43c25 0 43 -18 43 -43s-18 -43 -43 -43zM427 78c26 0 42 -16 42 -39s-16 -39 -42 -39h-308c-27 0 -42 18 -42 44v564c0 26 15 44 42 44h303
c26 0 42 -16 42 -39s-16 -39 -42 -39h-265v-496h270zM377 375c25 0 43 -15 43 -40c0 -26 -18 -41 -43 -41h-126c-26 0 -44 15 -44 41c0 25 18 40 44 40h126z" />
    <glyph glyph-name="Edieresis.ss02" horiz-adv-x="634" 
d="M264 718c-26 0 -44 18 -44 43s18 43 44 43c25 0 43 -18 43 -43s-18 -43 -43 -43zM405 718c-26 0 -44 18 -44 43s18 43 44 43c25 0 43 -18 43 -43s-18 -43 -43 -43zM488 517c-25 21 -69 63 -148 63c-130 0 -205 -114 -205 -254s74 -254 209 -254c84 0 127 45 155 68
c15 13 34 24 58 1c18 -18 19 -37 2 -58c-29 -36 -113 -90 -219 -90c-176 0 -289 146 -289 333s113 333 285 333c98 0 180 -47 211 -82c19 -22 16 -39 -3 -58c-21 -21 -36 -18 -56 -2zM417 377c27 0 44 -17 44 -41s-17 -41 -44 -41h-174c-26 0 -44 17 -44 41s18 41 44 41h174
z" />
    <glyph glyph-name="Edotaccent" unicode="&#x116;" horiz-adv-x="523" 
d="M270 707c-30 0 -51 22 -51 51s21 52 51 52s51 -23 51 -52s-21 -51 -51 -51zM427 78c26 0 42 -16 42 -39s-16 -39 -42 -39h-308c-27 0 -42 18 -42 44v564c0 26 15 44 42 44h303c26 0 42 -16 42 -39s-16 -39 -42 -39h-266v-200h220c26 0 44 -16 44 -39
c0 -24 -18 -39 -44 -39h-220v-218h271z" />
    <glyph glyph-name="Edotaccent.001" horiz-adv-x="523" 
d="M270 707c-30 0 -51 22 -51 51s21 52 51 52s51 -23 51 -52s-21 -51 -51 -51zM427 78c26 0 42 -16 42 -39s-16 -39 -42 -39h-308c-27 0 -42 18 -42 44v564c0 26 15 44 42 44h303c26 0 42 -16 42 -39s-16 -39 -42 -39h-265v-496h270zM377 375c25 0 43 -15 43 -40
c0 -26 -18 -41 -43 -41h-126c-26 0 -44 15 -44 41c0 25 18 40 44 40h126z" />
    <glyph glyph-name="Edotaccent.ss02" horiz-adv-x="634" 
d="M333 707c-30 0 -51 22 -51 51s21 52 51 52s51 -23 51 -52s-21 -51 -51 -51zM488 517c-25 21 -69 63 -148 63c-130 0 -205 -114 -205 -254s74 -254 209 -254c84 0 127 45 155 68c15 13 34 24 58 1c18 -18 19 -37 2 -58c-29 -36 -113 -90 -219 -90
c-176 0 -289 146 -289 333s113 333 285 333c98 0 180 -47 211 -82c19 -22 16 -39 -3 -58c-21 -21 -36 -18 -56 -2zM417 377c27 0 44 -17 44 -41s-17 -41 -44 -41h-174c-26 0 -44 17 -44 41s18 41 44 41h174z" />
    <glyph glyph-name="Egrave" unicode="&#xc8;" horiz-adv-x="523" 
d="M249 862l88 -74c20 -16 23 -37 8 -55c-17 -19 -37 -19 -56 -2l-88 73c-19 16 -23 36 -7 55c16 18 36 19 55 3zM427 78c26 0 42 -16 42 -39s-16 -39 -42 -39h-308c-27 0 -42 18 -42 44v564c0 26 15 44 42 44h303c26 0 42 -16 42 -39s-16 -39 -42 -39h-266v-200h220
c26 0 44 -16 44 -39c0 -24 -18 -39 -44 -39h-220v-218h271z" />
    <glyph glyph-name="Egrave.ss01" horiz-adv-x="523" 
d="M249 862l88 -74c20 -16 23 -37 8 -55c-17 -19 -37 -19 -56 -2l-88 73c-19 16 -23 36 -7 55c16 18 36 19 55 3zM427 78c26 0 42 -16 42 -39s-16 -39 -42 -39h-308c-27 0 -42 18 -42 44v564c0 26 15 44 42 44h303c26 0 42 -16 42 -39s-16 -39 -42 -39h-265v-496h270z
M377 375c25 0 43 -15 43 -40c0 -26 -18 -41 -43 -41h-126c-26 0 -44 15 -44 41c0 25 18 40 44 40h126z" />
    <glyph glyph-name="Egrave.ss02" horiz-adv-x="634" 
d="M312 862l88 -74c20 -16 23 -37 8 -55c-17 -19 -37 -19 -56 -2l-88 73c-19 16 -23 36 -7 55c16 18 36 19 55 3zM488 517c-25 21 -69 63 -148 63c-130 0 -205 -114 -205 -254s74 -254 209 -254c84 0 127 45 155 68c15 13 34 24 58 1c18 -18 19 -37 2 -58
c-29 -36 -113 -90 -219 -90c-176 0 -289 146 -289 333s113 333 285 333c98 0 180 -47 211 -82c19 -22 16 -39 -3 -58c-21 -21 -36 -18 -56 -2zM417 377c27 0 44 -17 44 -41s-17 -41 -44 -41h-174c-26 0 -44 17 -44 41s18 41 44 41h174z" />
    <glyph glyph-name="Emacron" unicode="&#x112;" horiz-adv-x="523" 
d="M396 755c0 -21 -15 -36 -39 -36h-174c-24 0 -39 15 -39 36s15 36 39 36h174c24 0 39 -15 39 -36zM427 78c26 0 42 -16 42 -39s-16 -39 -42 -39h-308c-27 0 -42 18 -42 44v564c0 26 15 44 42 44h303c26 0 42 -16 42 -39s-16 -39 -42 -39h-266v-200h220c26 0 44 -16 44 -39
c0 -24 -18 -39 -44 -39h-220v-218h271z" />
    <glyph glyph-name="Emacron.ss01" horiz-adv-x="523" 
d="M396 755c0 -21 -15 -36 -39 -36h-174c-24 0 -39 15 -39 36s15 36 39 36h174c24 0 39 -15 39 -36zM427 78c26 0 42 -16 42 -39s-16 -39 -42 -39h-308c-27 0 -42 18 -42 44v564c0 26 15 44 42 44h303c26 0 42 -16 42 -39s-16 -39 -42 -39h-265v-496h270zM377 375
c25 0 43 -15 43 -40c0 -26 -18 -41 -43 -41h-126c-26 0 -44 15 -44 41c0 25 18 40 44 40h126z" />
    <glyph glyph-name="Emacron.ss02" horiz-adv-x="634" 
d="M459 755c0 -21 -15 -36 -39 -36h-174c-24 0 -39 15 -39 36s15 36 39 36h174c24 0 39 -15 39 -36zM488 517c-25 21 -69 63 -148 63c-130 0 -205 -114 -205 -254s74 -254 209 -254c84 0 127 45 155 68c15 13 34 24 58 1c18 -18 19 -37 2 -58c-29 -36 -113 -90 -219 -90
c-176 0 -289 146 -289 333s113 333 285 333c98 0 180 -47 211 -82c19 -22 16 -39 -3 -58c-21 -21 -36 -18 -56 -2zM417 377c27 0 44 -17 44 -41s-17 -41 -44 -41h-174c-26 0 -44 17 -44 41s18 41 44 41h174z" />
    <glyph glyph-name="Eogonek" unicode="&#x118;" horiz-adv-x="523" 
d="M470 -106c8 -20 3 -34 -16 -45c-13 -7 -34 -14 -59 -14c-46 0 -87 23 -91 73c-3 36 14 69 46 92h-231c-27 0 -42 18 -42 44v564c0 26 15 44 42 44h303c26 0 42 -16 42 -39s-16 -39 -42 -39h-266v-200h220c26 0 44 -16 44 -39c0 -24 -18 -39 -44 -39h-220v-218h271
c26 0 42 -16 42 -39s-16 -39 -42 -39h-9c-40 -12 -59 -42 -55 -67c3 -22 20 -29 36 -29c12 0 26 6 34 9c13 5 28 2 37 -19z" />
    <glyph glyph-name="Eogonek.ss01" horiz-adv-x="523" 
d="M470 -106c8 -20 3 -34 -16 -45c-13 -7 -34 -14 -59 -14c-46 0 -87 23 -91 73c-3 36 14 69 46 92h-231c-27 0 -42 18 -42 44v564c0 26 15 44 42 44h303c26 0 42 -16 42 -39s-16 -39 -42 -39h-265v-496h270c26 0 42 -16 42 -39s-16 -39 -42 -39h-9c-40 -12 -59 -42 -55 -67
c3 -22 20 -29 36 -29c12 0 26 6 34 9c13 5 28 2 37 -19zM251 375h126c25 0 43 -15 43 -40c0 -26 -18 -41 -43 -41h-126c-26 0 -44 15 -44 41c0 25 18 40 44 40z" />
    <glyph glyph-name="Eogonek.ss02" horiz-adv-x="634" 
d="M557 141c18 -18 19 -37 2 -58c-23 -29 -80 -68 -156 -84c-39 -12 -57 -41 -53 -66c3 -22 20 -29 36 -29c12 0 26 6 34 9c13 5 28 2 37 -19c8 -20 3 -34 -16 -45c-13 -7 -34 -14 -59 -14c-46 0 -87 23 -91 73c-3 33 11 63 37 85c-169 7 -277 150 -277 333
c0 187 113 333 285 333c98 0 180 -47 211 -82c19 -22 16 -39 -3 -58c-21 -21 -36 -18 -56 -2c-25 21 -69 63 -148 63c-130 0 -205 -114 -205 -254s74 -254 209 -254c84 0 127 45 155 68c15 13 34 24 58 1zM243 377h174c27 0 44 -17 44 -41s-17 -41 -44 -41h-174
c-26 0 -44 17 -44 41s18 41 44 41z" />
    <glyph glyph-name="F" unicode="F" horiz-adv-x="498" 
d="M408 574h-251v-210h199c26 0 43 -14 43 -39s-17 -39 -43 -39h-199v-242c0 -26 -15 -44 -40 -44s-40 18 -40 44v564c0 26 15 44 41 44h290c25 0 41 -16 41 -39s-16 -39 -41 -39z" />
    <glyph glyph-name="F.ss01" horiz-adv-x="492" 
d="M402 652c25 0 41 -16 41 -39s-16 -39 -41 -39h-243v-530c0 -26 -16 -44 -41 -44c-26 0 -41 18 -41 44v564c0 26 15 44 41 44h284zM357 364c26 0 44 -14 44 -40c0 -25 -18 -39 -44 -39h-107c-25 0 -43 14 -43 39c0 26 18 40 43 40h107z" />
    <glyph glyph-name="F.ss02" horiz-adv-x="493" 
d="M403 652c25 0 41 -16 41 -39s-16 -39 -41 -39h-93c-104 -1 -151 -66 -151 -191v-339c0 -26 -16 -44 -41 -44c-26 0 -41 18 -41 44v349c0 170 93 259 244 259h82zM360 364c27 0 44 -16 44 -40c0 -23 -17 -39 -44 -39h-108c-26 0 -43 16 -43 39c0 24 17 40 43 40h108z" />
    <glyph glyph-name="G" unicode="G" horiz-adv-x="717" 
d="M621 365c25 0 41 -15 41 -38v-81c0 -158 -138 -253 -289 -253c-183 0 -322 141 -322 332c0 186 133 334 320 334c104 0 191 -46 223 -84c17 -20 15 -36 0 -54c-18 -20 -42 -18 -58 -4c-25 20 -78 64 -166 64c-144 0 -235 -115 -235 -256c0 -152 105 -254 242 -254
c117 0 205 70 205 188v28h-144c-25 0 -41 16 -41 39s16 39 41 39h183z" />
    <glyph glyph-name="G.ss01" horiz-adv-x="707" 
d="M539 516c-26 25 -76 65 -164 65c-146 0 -240 -112 -240 -255c0 -140 91 -255 244 -255c118 0 177 71 197 123c10 14 25 30 54 14c24 -13 27 -31 15 -58c-26 -75 -123 -157 -268 -157c-195 0 -326 147 -326 333c0 189 135 333 321 333c105 0 191 -46 224 -84
c16 -20 16 -37 -2 -55c-21 -21 -40 -20 -55 -4zM652 302c0 -23 -17 -39 -42 -39h-170c-25 0 -41 16 -41 39s16 40 41 40h170c25 0 42 -17 42 -40z" />
    <glyph glyph-name="Gbreve" unicode="&#x11e;" horiz-adv-x="717" 
d="M492 859c21 -11 22 -33 9 -61c-19 -42 -57 -81 -131 -81c-75 0 -113 39 -131 81c-13 25 -14 49 9 61c23 11 41 3 53 -18c13 -23 26 -54 69 -54c42 0 56 31 68 54c12 21 30 29 54 18zM621 365c25 0 41 -15 41 -38v-81c0 -158 -138 -253 -289 -253
c-183 0 -322 141 -322 332c0 186 133 334 320 334c104 0 191 -46 223 -84c17 -20 15 -36 0 -54c-18 -20 -42 -18 -58 -4c-25 20 -78 64 -166 64c-144 0 -235 -115 -235 -256c0 -152 105 -254 242 -254c117 0 205 70 205 188v28h-144c-25 0 -41 16 -41 39s16 39 41 39h183z
" />
    <glyph glyph-name="Gbreve.ss01" horiz-adv-x="707" 
d="M486 859c21 -11 22 -33 9 -61c-19 -42 -57 -81 -131 -81c-75 0 -113 39 -131 81c-13 25 -14 49 9 61c23 11 41 3 53 -18c13 -23 26 -54 69 -54c42 0 56 31 68 54c12 21 30 29 54 18zM539 516c-26 25 -76 65 -164 65c-146 0 -240 -112 -240 -255c0 -140 91 -255 244 -255
c118 0 177 71 197 123c10 14 25 30 54 14c24 -13 27 -31 15 -58c-26 -75 -123 -157 -268 -157c-195 0 -326 147 -326 333c0 189 135 333 321 333c105 0 191 -46 224 -84c16 -20 16 -37 -2 -55c-21 -21 -40 -20 -55 -4zM652 302c0 -23 -17 -39 -42 -39h-170
c-25 0 -41 16 -41 39s16 40 41 40h170c25 0 42 -17 42 -40z" />
    <glyph glyph-name="uni0122" unicode="&#x122;" horiz-adv-x="717" 
d="M621 365c25 0 41 -15 41 -38v-81c0 -158 -138 -253 -289 -253c-183 0 -322 141 -322 332c0 186 133 334 320 334c104 0 191 -46 223 -84c17 -20 15 -36 0 -54c-18 -20 -42 -18 -58 -4c-25 20 -78 64 -166 64c-144 0 -235 -115 -235 -256c0 -152 105 -254 242 -254
c117 0 205 70 205 188v28h-144c-25 0 -41 16 -41 39s16 39 41 39h183zM412 -103l-52 -77c-5 -8 -11 -13 -20 -13c-14 0 -23 11 -23 22c0 2 0 4 2 8l24 86c7 28 25 35 42 35c22 0 37 -14 37 -36c0 -9 -2 -14 -10 -25z" />
    <glyph glyph-name="uni0122.ss01" horiz-adv-x="707" 
d="M539 516c-26 25 -76 65 -164 65c-146 0 -240 -112 -240 -255c0 -140 91 -255 244 -255c118 0 177 71 197 123c10 14 25 30 54 14c24 -13 27 -31 15 -58c-26 -75 -123 -157 -268 -157c-195 0 -326 147 -326 333c0 189 135 333 321 333c105 0 191 -46 224 -84
c16 -20 16 -37 -2 -55c-21 -21 -40 -20 -55 -4zM652 302c0 -23 -17 -39 -42 -39h-170c-25 0 -41 16 -41 39s16 40 41 40h170c25 0 42 -17 42 -40zM421 -103l-52 -77c-5 -8 -11 -13 -20 -13c-14 0 -23 11 -23 22c0 2 0 4 2 8l24 86c7 28 25 35 42 35c22 0 37 -14 37 -36
c0 -9 -2 -14 -10 -25z" />
    <glyph glyph-name="Gdotaccent" unicode="&#x120;" horiz-adv-x="717" 
d="M370 707c-30 0 -51 22 -51 51s21 52 51 52s51 -23 51 -52s-21 -51 -51 -51zM621 365c25 0 41 -15 41 -38v-81c0 -158 -138 -253 -289 -253c-183 0 -322 141 -322 332c0 186 133 334 320 334c104 0 191 -46 223 -84c17 -20 15 -36 0 -54c-18 -20 -42 -18 -58 -4
c-25 20 -78 64 -166 64c-144 0 -235 -115 -235 -256c0 -152 105 -254 242 -254c117 0 205 70 205 188v28h-144c-25 0 -41 16 -41 39s16 39 41 39h183z" />
    <glyph glyph-name="Gdotaccent.ss01" horiz-adv-x="707" 
d="M364 707c-30 0 -51 22 -51 51s21 52 51 52s51 -23 51 -52s-21 -51 -51 -51zM539 516c-26 25 -76 65 -164 65c-146 0 -240 -112 -240 -255c0 -140 91 -255 244 -255c118 0 177 71 197 123c10 14 25 30 54 14c24 -13 27 -31 15 -58c-26 -75 -123 -157 -268 -157
c-195 0 -326 147 -326 333c0 189 135 333 321 333c105 0 191 -46 224 -84c16 -20 16 -37 -2 -55c-21 -21 -40 -20 -55 -4zM652 302c0 -23 -17 -39 -42 -39h-170c-25 0 -41 16 -41 39s16 40 41 40h170c25 0 42 -17 42 -40z" />
    <glyph glyph-name="H" unicode="H" horiz-adv-x="700" 
d="M582 652c26 0 41 -18 41 -44v-564c0 -26 -15 -44 -41 -44c-25 0 -41 18 -41 44v251h-382v-251c0 -26 -16 -44 -41 -44c-26 0 -41 18 -41 44v564c0 26 15 44 41 44c25 0 41 -18 41 -44v-235h382v235c0 26 16 44 41 44z" />
    <glyph glyph-name="H.ss01" horiz-adv-x="719" 
d="M118 652c25 0 41 -18 41 -44v-564c0 -26 -16 -44 -41 -44c-26 0 -41 18 -41 44v564c0 26 15 44 41 44zM601 652c26 0 41 -18 41 -44v-564c0 -26 -15 -44 -41 -44c-25 0 -41 18 -41 44v564c0 26 16 44 41 44zM512 334c0 -25 -18 -41 -44 -41h-217c-26 0 -44 16 -44 41
s18 41 44 41h217c26 0 44 -16 44 -41z" />
    <glyph glyph-name="Hbar" unicode="&#x126;" horiz-adv-x="693" 
d="M575 652c26 0 41 -18 41 -44v-564c0 -26 -15 -44 -41 -44s-41 18 -41 44v158h-375v-158c0 -26 -16 -44 -41 -44c-26 0 -41 18 -41 44v564c0 26 15 44 41 44c25 0 41 -18 41 -44v-142h375v142c0 26 15 44 41 44zM159 280h375v108h-375v-108z" />
    <glyph glyph-name="I" unicode="I" horiz-adv-x="246" 
d="M123 652c26 0 41 -18 41 -44v-564c0 -26 -15 -44 -41 -44c-25 0 -41 18 -41 44v564c0 26 16 44 41 44z" />
    <glyph glyph-name="I.ss01" horiz-adv-x="305" 
d="M214 78c25 0 41 -16 41 -39s-16 -39 -41 -39h-122c-26 0 -42 16 -42 39s16 39 42 39h20v496h-20c-26 0 -42 16 -42 39s16 39 42 39h122c25 0 41 -16 41 -39s-16 -39 -41 -39h-20v-496h20z" />
    <glyph glyph-name="Iacute" unicode="&#xcd;" horiz-adv-x="246" 
d="M144 862c19 16 39 15 55 -3c16 -19 12 -39 -7 -55l-88 -73c-19 -17 -39 -17 -56 2c-15 18 -12 39 8 55zM123 652c26 0 41 -18 41 -44v-564c0 -26 -15 -44 -41 -44c-25 0 -41 18 -41 44v564c0 26 16 44 41 44z" />
    <glyph glyph-name="Iacute.ss01" horiz-adv-x="305" 
d="M174 862c19 16 39 15 55 -3c16 -19 12 -39 -7 -55l-88 -73c-19 -17 -39 -17 -56 2c-15 18 -12 39 8 55zM214 78c25 0 41 -16 41 -39s-16 -39 -41 -39h-122c-26 0 -42 16 -42 39s16 39 42 39h20v496h-20c-26 0 -42 16 -42 39s16 39 42 39h122c25 0 41 -16 41 -39
s-16 -39 -41 -39h-20v-496h20z" />
    <glyph glyph-name="Ibreve" unicode="&#x12c;" horiz-adv-x="246" 
d="M245 859c21 -11 22 -33 9 -61c-19 -42 -57 -81 -131 -81c-75 0 -113 39 -131 81c-13 25 -14 49 9 61c23 11 41 3 53 -18c13 -23 26 -54 69 -54c42 0 56 31 68 54c12 21 30 29 54 18zM123 652c26 0 41 -18 41 -44v-564c0 -26 -15 -44 -41 -44c-25 0 -41 18 -41 44v564
c0 26 16 44 41 44z" />
    <glyph glyph-name="Ibreve.ss01" horiz-adv-x="305" 
d="M275 859c21 -11 22 -33 9 -61c-19 -42 -57 -81 -131 -81c-75 0 -113 39 -131 81c-13 25 -14 49 9 61c23 11 41 3 53 -18c13 -23 26 -54 69 -54c42 0 56 31 68 54c12 21 30 29 54 18zM214 78c25 0 41 -16 41 -39s-16 -39 -41 -39h-122c-26 0 -42 16 -42 39s16 39 42 39h20
v496h-20c-26 0 -42 16 -42 39s16 39 42 39h122c25 0 41 -16 41 -39s-16 -39 -41 -39h-20v-496h20z" />
    <glyph glyph-name="Icircumflex" unicode="&#xce;" horiz-adv-x="246" 
d="M236 735c-16 -18 -39 -20 -54 -3l-59 62l-59 -62c-17 -16 -38 -15 -54 3c-17 18 -13 39 7 57l76 68c9 9 20 14 30 14s20 -5 30 -14l76 -68c20 -18 23 -39 7 -57zM123 652c26 0 41 -18 41 -44v-564c0 -26 -15 -44 -41 -44c-25 0 -41 18 -41 44v564c0 26 16 44 41 44z" />
    <glyph glyph-name="Icircumflex.ss01" horiz-adv-x="305" 
d="M266 735c-16 -18 -39 -20 -54 -3l-59 62l-59 -62c-17 -16 -38 -15 -54 3c-17 18 -13 39 7 57l76 68c9 9 20 14 30 14s20 -5 30 -14l76 -68c20 -18 23 -39 7 -57zM214 78c25 0 41 -16 41 -39s-16 -39 -41 -39h-122c-26 0 -42 16 -42 39s16 39 42 39h20v496h-20
c-26 0 -42 16 -42 39s16 39 42 39h122c25 0 41 -16 41 -39s-16 -39 -41 -39h-20v-496h20z" />
    <glyph glyph-name="Idieresis" unicode="&#xcf;" horiz-adv-x="246" 
d="M54 718c-26 0 -44 18 -44 43s18 43 44 43c25 0 43 -18 43 -43s-18 -43 -43 -43zM195 718c-26 0 -44 18 -44 43s18 43 44 43c25 0 43 -18 43 -43s-18 -43 -43 -43zM123 652c26 0 41 -18 41 -44v-564c0 -26 -15 -44 -41 -44c-25 0 -41 18 -41 44v564c0 26 16 44 41 44z" />
    <glyph glyph-name="Idieresis.ss01" horiz-adv-x="305" 
d="M84 718c-26 0 -44 18 -44 43s18 43 44 43c25 0 43 -18 43 -43s-18 -43 -43 -43zM225 718c-26 0 -44 18 -44 43s18 43 44 43c25 0 43 -18 43 -43s-18 -43 -43 -43zM214 78c25 0 41 -16 41 -39s-16 -39 -41 -39h-122c-26 0 -42 16 -42 39s16 39 42 39h20v496h-20
c-26 0 -42 16 -42 39s16 39 42 39h122c25 0 41 -16 41 -39s-16 -39 -41 -39h-20v-496h20z" />
    <glyph glyph-name="Idotaccent" unicode="&#x130;" horiz-adv-x="246" 
d="M123 707c-30 0 -51 22 -51 51s21 52 51 52s51 -23 51 -52s-21 -51 -51 -51zM123 652c26 0 41 -18 41 -44v-564c0 -26 -15 -44 -41 -44c-25 0 -41 18 -41 44v564c0 26 16 44 41 44z" />
    <glyph glyph-name="Idotaccent.ss01" horiz-adv-x="305" 
d="M153 707c-30 0 -51 22 -51 51s21 52 51 52s51 -23 51 -52s-21 -51 -51 -51zM214 78c25 0 41 -16 41 -39s-16 -39 -41 -39h-122c-26 0 -42 16 -42 39s16 39 42 39h20v496h-20c-26 0 -42 16 -42 39s16 39 42 39h122c25 0 41 -16 41 -39s-16 -39 -41 -39h-20v-496h20z" />
    <glyph glyph-name="Igrave" unicode="&#xcc;" horiz-adv-x="246" 
d="M102 862l88 -74c20 -16 23 -37 8 -55c-17 -19 -37 -19 -56 -2l-88 73c-19 16 -23 36 -7 55c16 18 36 19 55 3zM123 652c26 0 41 -18 41 -44v-564c0 -26 -15 -44 -41 -44c-25 0 -41 18 -41 44v564c0 26 16 44 41 44z" />
    <glyph glyph-name="Igrave.ss01" horiz-adv-x="305" 
d="M132 862l88 -74c20 -16 23 -37 8 -55c-17 -19 -37 -19 -56 -2l-88 73c-19 16 -23 36 -7 55c16 18 36 19 55 3zM214 78c25 0 41 -16 41 -39s-16 -39 -41 -39h-122c-26 0 -42 16 -42 39s16 39 42 39h20v496h-20c-26 0 -42 16 -42 39s16 39 42 39h122c25 0 41 -16 41 -39
s-16 -39 -41 -39h-20v-496h20z" />
    <glyph glyph-name="Imacron" unicode="&#x12a;" horiz-adv-x="246" 
d="M223 755c0 -21 -15 -36 -39 -36h-122c-24 0 -39 15 -39 36s15 36 39 36h122c24 0 39 -15 39 -36zM123 652c26 0 41 -18 41 -44v-564c0 -26 -15 -44 -41 -44c-25 0 -41 18 -41 44v564c0 26 16 44 41 44z" />
    <glyph glyph-name="Imacron.ss01" horiz-adv-x="305" 
d="M253 755c0 -21 -15 -36 -39 -36h-122c-24 0 -39 15 -39 36s15 36 39 36h122c24 0 39 -15 39 -36zM214 78c25 0 41 -16 41 -39s-16 -39 -41 -39h-122c-26 0 -42 16 -42 39s16 39 42 39h20v496h-20c-26 0 -42 16 -42 39s16 39 42 39h122c25 0 41 -16 41 -39
s-16 -39 -41 -39h-20v-496h20z" />
    <glyph glyph-name="Iogonek" unicode="&#x12e;" horiz-adv-x="246" 
d="M179 -106c8 -20 3 -34 -16 -45c-13 -7 -34 -14 -59 -14c-46 0 -87 23 -91 73c-4 46 24 87 77 109c-5 7 -8 16 -8 27v564c0 26 16 44 41 44c26 0 41 -18 41 -44v-564c0 -24 -13 -42 -36 -44c-41 -11 -60 -41 -56 -67c3 -22 20 -29 36 -29c12 0 26 6 34 9c13 5 28 2 37 -19
z" />
    <glyph glyph-name="Iogonek.ss01" horiz-adv-x="305" 
d="M256 -106c8 -20 3 -34 -16 -45c-13 -7 -34 -14 -59 -14c-46 0 -87 23 -91 73c-3 36 14 69 46 92h-44c-26 0 -42 16 -42 39s16 39 42 39h20v496h-20c-26 0 -42 16 -42 39s16 39 42 39h122c25 0 41 -16 41 -39s-16 -39 -41 -39h-20v-496h20c25 0 41 -16 41 -39
s-16 -39 -41 -39h-10c-40 -12 -59 -42 -55 -67c3 -22 20 -29 36 -29c12 0 26 6 34 9c13 5 28 2 37 -19z" />
    <glyph glyph-name="Itilde" unicode="&#x128;" horiz-adv-x="246" 
d="M236 788c14 -17 8 -35 -9 -52c-32 -31 -62 -32 -107 -9c-38 21 -41 11 -61 -4c-16 -12 -37 -7 -48 10c-12 16 -8 33 9 50c30 31 69 32 105 12c40 -23 42 -13 61 1s39 8 50 -8zM123 652c26 0 41 -18 41 -44v-564c0 -26 -15 -44 -41 -44c-25 0 -41 18 -41 44v564
c0 26 16 44 41 44z" />
    <glyph glyph-name="Itilde.ss01" horiz-adv-x="305" 
d="M266 788c14 -17 8 -35 -9 -52c-32 -31 -62 -32 -107 -9c-38 21 -41 11 -61 -4c-16 -12 -37 -7 -48 10c-12 16 -8 33 9 50c30 31 69 32 105 12c40 -23 42 -13 61 1s39 8 50 -8zM214 78c25 0 41 -16 41 -39s-16 -39 -41 -39h-122c-26 0 -42 16 -42 39s16 39 42 39h20v496
h-20c-26 0 -42 16 -42 39s16 39 42 39h122c25 0 41 -16 41 -39s-16 -39 -41 -39h-20v-496h20z" />
    <glyph glyph-name="J" unicode="J" horiz-adv-x="325" 
d="M200 652c26 0 41 -18 41 -44v-543c0 -116 -74 -171 -146 -199c-24 -9 -46 0 -53 22c-8 22 1 42 25 54c50 25 92 58 92 135v497h-74c-25 0 -41 16 -41 39s16 39 41 39h115z" />
    <glyph glyph-name="uni00A40301" horiz-adv-x="325" 
d="M169 862c19 16 39 15 55 -3c16 -19 12 -39 -7 -55l-88 -73c-19 -17 -39 -17 -56 2c-15 18 -12 39 8 55zM200 652c26 0 41 -18 41 -44v-543c0 -116 -74 -171 -146 -199c-24 -9 -46 0 -53 22c-8 22 1 42 25 54c50 25 92 58 92 135v497h-74c-25 0 -41 16 -41 39s16 39 41 39
h115z" />
    <glyph glyph-name="K" unicode="K" horiz-adv-x="590" 
d="M539 53c10 -24 -6 -47 -28 -52c-19 -4 -41 7 -51 31l-60 151c-29 71 -60 108 -150 108h-91v-247c0 -26 -16 -44 -41 -44c-26 0 -41 18 -41 44v564c0 26 15 44 41 44c25 0 41 -18 41 -44v-240h75c80 0 104 35 133 106l59 146c9 23 27 37 51 30c23 -6 35 -26 26 -52
l-60 -148c-22 -55 -40 -88 -88 -110c55 -16 96 -63 122 -127z" />
    <glyph glyph-name="K.ss01" horiz-adv-x="602" 
d="M550 53c10 -24 -6 -47 -27 -52c-20 -4 -42 7 -51 31l-61 151c-29 71 -61 108 -163 108c-25 0 -41 14 -41 38c0 25 16 39 41 39c80 0 101 35 130 106l59 146c9 23 27 37 51 30c24 -6 35 -28 26 -52l-59 -148c-23 -55 -45 -95 -95 -111c57 -14 103 -62 128 -126zM118 652
c25 0 41 -18 41 -44v-564c0 -26 -16 -44 -41 -44c-26 0 -41 18 -41 44v564c0 26 15 44 41 44z" />
    <glyph glyph-name="uni0136" unicode="&#x136;" horiz-adv-x="590" 
d="M539 53c10 -24 -6 -47 -28 -52c-19 -4 -41 7 -51 31l-60 151c-29 71 -60 108 -150 108h-91v-247c0 -26 -16 -44 -41 -44c-26 0 -41 18 -41 44v564c0 26 15 44 41 44c25 0 41 -18 41 -44v-240h75c80 0 104 35 133 106l59 146c9 23 27 37 51 30c23 -6 35 -26 26 -52
l-60 -148c-22 -55 -40 -88 -88 -110c55 -16 96 -63 122 -127zM344 -103l-52 -77c-5 -8 -11 -13 -20 -13c-14 0 -23 11 -23 22c0 2 0 4 2 8l24 86c7 28 25 35 42 35c22 0 37 -14 37 -36c0 -9 -2 -14 -10 -25z" />
    <glyph glyph-name="uni0136.ss01" horiz-adv-x="602" 
d="M550 53c10 -24 -6 -47 -27 -52c-20 -4 -42 7 -51 31l-61 151c-29 71 -61 108 -163 108c-25 0 -41 14 -41 38c0 25 16 39 41 39c80 0 101 35 130 106l59 146c9 23 27 37 51 30c24 -6 35 -28 26 -52l-59 -148c-23 -55 -45 -95 -95 -111c57 -14 103 -62 128 -126zM118 652
c25 0 41 -18 41 -44v-564c0 -26 -16 -44 -41 -44c-26 0 -41 18 -41 44v564c0 26 15 44 41 44zM335 -103l-52 -77c-5 -8 -11 -13 -20 -13c-14 0 -23 11 -23 22c0 2 0 4 2 8l24 86c7 28 25 35 42 35c22 0 37 -14 37 -36c0 -9 -2 -14 -10 -25z" />
    <glyph glyph-name="L" unicode="L" horiz-adv-x="506" 
d="M427 78c25 0 41 -16 41 -39s-16 -39 -41 -39h-310c-24 0 -40 17 -40 44v564c0 26 15 44 41 44c25 0 41 -18 41 -44v-530h268z" />
    <glyph glyph-name="Lacute" unicode="&#x139;" horiz-adv-x="506" 
d="M285 862c19 16 39 15 55 -3c16 -19 12 -39 -7 -55l-88 -73c-19 -17 -39 -17 -56 2c-15 18 -12 39 8 55zM427 78c25 0 41 -16 41 -39s-16 -39 -41 -39h-310c-24 0 -40 17 -40 44v564c0 26 15 44 41 44c25 0 41 -18 41 -44v-530h268z" />
    <glyph glyph-name="Lcaron" unicode="&#x13d;" horiz-adv-x="506" 
d="M374 648l-42 -122c-5 -12 -14 -19 -28 -19c-17 0 -27 14 -26 32l16 124c2 31 20 44 45 44c31 0 47 -26 35 -59zM427 78c25 0 41 -16 41 -39s-16 -39 -41 -39h-310c-24 0 -40 17 -40 44v564c0 26 15 44 41 44c25 0 41 -18 41 -44v-530h268z" />
    <glyph glyph-name="uni013B" unicode="&#x13b;" horiz-adv-x="506" 
d="M427 78c25 0 41 -16 41 -39s-16 -39 -41 -39h-310c-24 0 -40 17 -40 44v564c0 26 15 44 41 44c25 0 41 -18 41 -44v-530h268zM309 -103l-52 -77c-5 -8 -11 -13 -20 -13c-14 0 -23 11 -23 22c0 2 0 4 2 8l24 86c7 28 25 35 42 35c22 0 37 -14 37 -36c0 -9 -2 -14 -10 -25z
" />
    <glyph glyph-name="Ldot" unicode="&#x13f;" horiz-adv-x="506" 
d="M427 78c25 0 41 -16 41 -39s-16 -39 -41 -39h-310c-24 0 -40 17 -40 44v564c0 26 15 44 41 44c25 0 41 -18 41 -44v-530h268zM314 292c-30 0 -53 24 -53 53c0 30 23 54 53 54s53 -24 53 -54c0 -29 -23 -53 -53 -53z" />
    <glyph glyph-name="Lslash" unicode="&#x141;" horiz-adv-x="552" 
d="M473 78c25 0 41 -16 41 -39s-16 -39 -41 -39h-310c-24 0 -40 17 -40 44v216l-28 -23c-18 -15 -40 -14 -53 2c-14 17 -11 38 7 53l74 62v254c0 26 15 44 41 44c25 0 41 -18 41 -44v-186l65 54c18 15 40 14 53 -2c14 -17 11 -38 -7 -53l-111 -92v-251h268z" />
    <glyph glyph-name="M" unicode="M" horiz-adv-x="736" 
d="M682 51c3 -25 -4 -46 -29 -50c-26 -5 -47 9 -50 37l-49 455l-148 -313c-8 -18 -22 -26 -38 -26s-31 8 -39 26l-148 313l-48 -455c-3 -28 -24 -42 -50 -37c-25 4 -32 25 -29 50l60 563c3 25 22 39 43 39c20 0 33 -10 41 -28l170 -353l169 353c8 18 21 28 41 28
c24 0 40 -16 43 -39z" />
    <glyph glyph-name="N" unicode="N" horiz-adv-x="671" 
d="M553 652c26 0 41 -18 41 -44v-564c0 -26 -15 -44 -41 -44c-15 0 -26 5 -34 15l-360 478v-449c0 -26 -16 -44 -41 -44c-26 0 -41 18 -41 44v564c0 26 15 44 41 44c16 0 27 -8 37 -21l357 -474v451c0 26 16 44 41 44z" />
    <glyph glyph-name="Nacute" unicode="&#x143;" horiz-adv-x="671" 
d="M358 862c19 16 39 15 55 -3c16 -19 12 -39 -7 -55l-88 -73c-19 -17 -39 -17 -56 2c-15 18 -12 39 8 55zM553 652c26 0 41 -18 41 -44v-564c0 -26 -15 -44 -41 -44c-15 0 -26 5 -34 15l-360 478v-449c0 -26 -16 -44 -41 -44c-26 0 -41 18 -41 44v564c0 26 15 44 41 44
c16 0 27 -8 37 -21l357 -474v451c0 26 16 44 41 44z" />
    <glyph glyph-name="Ncaron" unicode="&#x147;" horiz-adv-x="671" 
d="M450 857c16 -18 13 -39 -7 -57l-76 -68c-10 -9 -20 -14 -30 -14s-21 5 -30 14l-76 68c-20 18 -24 39 -7 57c16 18 37 19 54 3l59 -62l59 62c15 17 38 15 54 -3zM553 652c26 0 41 -18 41 -44v-564c0 -26 -15 -44 -41 -44c-15 0 -26 5 -34 15l-360 478v-449
c0 -26 -16 -44 -41 -44c-26 0 -41 18 -41 44v564c0 26 15 44 41 44c16 0 27 -8 37 -21l357 -474v451c0 26 16 44 41 44z" />
    <glyph glyph-name="uni0145" unicode="&#x145;" horiz-adv-x="671" 
d="M553 652c26 0 41 -18 41 -44v-564c0 -26 -15 -44 -41 -44c-15 0 -26 5 -34 15l-360 478v-449c0 -26 -16 -44 -41 -44c-26 0 -41 18 -41 44v564c0 26 15 44 41 44c16 0 27 -8 37 -21l357 -474v451c0 26 16 44 41 44zM382 -103l-52 -77c-5 -8 -11 -13 -20 -13
c-14 0 -23 11 -23 22c0 2 0 4 2 8l24 86c7 28 25 35 42 35c22 0 37 -14 37 -36c0 -9 -2 -14 -10 -25z" />
    <glyph glyph-name="Eng" unicode="&#x14a;" horiz-adv-x="678" 
d="M553 652c26 0 41 -18 41 -44v-570c-5 -104 -67 -154 -138 -178c-24 -9 -46 1 -53 23c-8 22 3 38 26 49c73 32 91 81 63 120l-333 441v-449c0 -26 -16 -44 -41 -44c-26 0 -41 18 -41 44v564c0 26 15 44 41 44c16 0 27 -8 37 -21l357 -474v451c0 26 16 44 41 44z" />
    <glyph glyph-name="Ntilde" unicode="&#xd1;" horiz-adv-x="671" 
d="M450 788c14 -17 8 -35 -9 -52c-32 -31 -62 -32 -107 -9c-38 21 -41 11 -61 -4c-16 -12 -37 -7 -48 10c-12 16 -8 33 9 50c30 31 69 32 105 12c40 -23 42 -13 61 1s39 8 50 -8zM553 652c26 0 41 -18 41 -44v-564c0 -26 -15 -44 -41 -44c-15 0 -26 5 -34 15l-360 478v-449
c0 -26 -16 -44 -41 -44c-26 0 -41 18 -41 44v564c0 26 15 44 41 44c16 0 27 -8 37 -21l357 -474v451c0 26 16 44 41 44z" />
    <glyph glyph-name="O" unicode="O" horiz-adv-x="768" 
d="M384 -7c-192 0 -333 139 -333 332s141 334 333 334s333 -141 333 -334s-141 -332 -333 -332zM384 71c145 0 249 105 249 254s-104 256 -249 256s-249 -107 -249 -256s104 -254 249 -254z" />
    <glyph glyph-name="O.ss01" horiz-adv-x="768" 
d="M384 -7c-192 0 -333 139 -333 332s141 334 333 334s333 -141 333 -334s-141 -332 -333 -332zM384 71c145 0 249 105 249 254s-104 256 -249 256s-249 -107 -249 -256s104 -254 249 -254zM384 274c-30 0 -51 22 -51 51s21 51 51 51s51 -22 51 -51s-21 -51 -51 -51z" />
    <glyph glyph-name="Oacute" unicode="&#xd3;" horiz-adv-x="768" 
d="M405 862c19 16 39 15 55 -3c16 -19 12 -39 -7 -55l-88 -73c-19 -17 -39 -17 -56 2c-15 18 -12 39 8 55zM384 -7c-192 0 -333 139 -333 332s141 334 333 334s333 -141 333 -334s-141 -332 -333 -332zM384 71c145 0 249 105 249 254s-104 256 -249 256s-249 -107 -249 -256
s104 -254 249 -254z" />
    <glyph glyph-name="Obreve" unicode="&#x14e;" horiz-adv-x="768" 
d="M506 859c21 -11 22 -33 9 -61c-19 -42 -57 -81 -131 -81c-75 0 -113 39 -131 81c-13 25 -14 49 9 61c23 11 41 3 53 -18c13 -23 26 -54 69 -54c42 0 56 31 68 54c12 21 30 29 54 18zM384 -7c-192 0 -333 139 -333 332s141 334 333 334s333 -141 333 -334
s-141 -332 -333 -332zM384 71c145 0 249 105 249 254s-104 256 -249 256s-249 -107 -249 -256s104 -254 249 -254z" />
    <glyph glyph-name="Ocircumflex" unicode="&#xd4;" horiz-adv-x="768" 
d="M497 735c-16 -18 -39 -20 -54 -3l-59 62l-59 -62c-17 -16 -38 -15 -54 3c-17 18 -13 39 7 57l76 68c9 9 20 14 30 14s20 -5 30 -14l76 -68c20 -18 23 -39 7 -57zM384 -7c-192 0 -333 139 -333 332s141 334 333 334s333 -141 333 -334s-141 -332 -333 -332zM384 71
c145 0 249 105 249 254s-104 256 -249 256s-249 -107 -249 -256s104 -254 249 -254z" />
    <glyph glyph-name="Odieresis" unicode="&#xd6;" horiz-adv-x="768" 
d="M315 718c-26 0 -44 18 -44 43s18 43 44 43c25 0 43 -18 43 -43s-18 -43 -43 -43zM456 718c-26 0 -44 18 -44 43s18 43 44 43c25 0 43 -18 43 -43s-18 -43 -43 -43zM384 -7c-192 0 -333 139 -333 332s141 334 333 334s333 -141 333 -334s-141 -332 -333 -332zM384 71
c145 0 249 105 249 254s-104 256 -249 256s-249 -107 -249 -256s104 -254 249 -254z" />
    <glyph glyph-name="Ograve" unicode="&#xd2;" horiz-adv-x="768" 
d="M363 862l88 -74c20 -16 23 -37 8 -55c-17 -19 -37 -19 -56 -2l-88 73c-19 16 -23 36 -7 55c16 18 36 19 55 3zM384 -7c-192 0 -333 139 -333 332s141 334 333 334s333 -141 333 -334s-141 -332 -333 -332zM384 71c145 0 249 105 249 254s-104 256 -249 256
s-249 -107 -249 -256s104 -254 249 -254z" />
    <glyph glyph-name="Ohungarumlaut" unicode="&#x150;" horiz-adv-x="768" 
d="M493 860c15 18 34 21 51 6c17 -14 17 -33 2 -51l-72 -84c-15 -18 -33 -20 -52 -5c-17 14 -16 33 -1 50zM331 860c15 18 33 20 51 6c17 -14 16 -33 1 -51l-71 -84c-15 -18 -34 -21 -52 -5c-17 14 -16 33 -2 50zM384 -7c-192 0 -333 139 -333 332s141 334 333 334
s333 -141 333 -334s-141 -332 -333 -332zM384 71c145 0 249 105 249 254s-104 256 -249 256s-249 -107 -249 -256s104 -254 249 -254z" />
    <glyph glyph-name="Omacron" unicode="&#x14c;" horiz-adv-x="768" 
d="M510 755c0 -21 -15 -36 -39 -36h-174c-24 0 -39 15 -39 36s15 36 39 36h174c24 0 39 -15 39 -36zM384 -7c-192 0 -333 139 -333 332s141 334 333 334s333 -141 333 -334s-141 -332 -333 -332zM384 71c145 0 249 105 249 254s-104 256 -249 256s-249 -107 -249 -256
s104 -254 249 -254z" />
    <glyph glyph-name="Oslash" unicode="&#xd8;" horiz-adv-x="768" 
d="M646 537c45 -56 71 -129 71 -212c0 -193 -141 -332 -333 -332c-82 0 -155 26 -212 70l-50 -50c-17 -16 -38 -17 -53 -1c-15 15 -14 36 2 52l50 50c-44 56 -70 129 -70 211c0 193 141 334 333 334c83 0 156 -26 212 -71l53 52c16 17 37 17 52 2s15 -36 -2 -52zM135 325
c0 -59 16 -111 45 -152l359 357c-42 33 -95 51 -155 51c-145 0 -249 -107 -249 -256zM384 71c145 0 249 105 249 254c0 59 -16 112 -45 154l-358 -358c41 -32 94 -50 154 -50z" />
    <glyph glyph-name="Otilde" unicode="&#xd5;" horiz-adv-x="768" 
d="M497 788c14 -17 8 -35 -9 -52c-32 -31 -62 -32 -107 -9c-38 21 -41 11 -61 -4c-16 -12 -37 -7 -48 10c-12 16 -8 33 9 50c30 31 69 32 105 12c40 -23 42 -13 61 1s39 8 50 -8zM384 -7c-192 0 -333 139 -333 332s141 334 333 334s333 -141 333 -334s-141 -332 -333 -332z
M384 71c145 0 249 105 249 254s-104 256 -249 256s-249 -107 -249 -256s104 -254 249 -254z" />
    <glyph glyph-name="OE" unicode="&#x152;" horiz-adv-x="1081" 
d="M986 78c26 0 42 -16 42 -39s-16 -39 -42 -39h-308c-27 0 -42 18 -42 44v57c-60 -68 -148 -108 -252 -108c-192 0 -333 139 -333 332s141 334 333 334c104 0 192 -41 252 -109v58c0 26 15 44 42 44h303c26 0 42 -16 42 -39s-16 -39 -42 -39h-266v-200h220
c26 0 44 -16 44 -39c0 -24 -18 -39 -44 -39h-219l-1 -10v-208h271zM384 71c145 0 249 105 249 254s-104 256 -249 256s-249 -107 -249 -256s104 -254 249 -254z" />
    <glyph glyph-name="OE.ss01" horiz-adv-x="1081" 
d="M986 78c26 0 42 -16 42 -39s-16 -39 -42 -39h-308c-27 0 -42 18 -42 44v57c-60 -68 -148 -108 -252 -108c-192 0 -333 139 -333 332s141 334 333 334c104 0 192 -41 252 -109v58c0 26 15 44 42 44h303c26 0 42 -16 42 -39s-16 -39 -42 -39h-265v-221c1 -9 1 -19 1 -28
s0 -19 -1 -28v-219h270zM384 71c145 0 249 105 249 254s-104 256 -249 256s-249 -107 -249 -256s104 -254 249 -254zM810 375h126c25 0 43 -15 43 -40c0 -26 -18 -41 -43 -41h-126c-26 0 -44 15 -44 41c0 25 18 40 44 40z" />
    <glyph glyph-name="P" unicode="P" horiz-adv-x="577" 
d="M315 652c149 0 220 -104 220 -222c0 -116 -83 -224 -215 -224h-161v-162c0 -26 -16 -44 -41 -44c-26 0 -41 18 -41 44v564c0 26 15 44 41 44h197zM304 284c113 0 150 73 150 146c0 75 -41 144 -149 144h-146v-290h145z" />
    <glyph glyph-name="P.ss01" horiz-adv-x="600" 
d="M331 652c151 0 219 -107 219 -222c0 -117 -83 -225 -218 -225h-78c-25 0 -40 14 -40 39s15 39 40 39h60c113 0 155 67 155 147c0 78 -42 144 -150 144h-160v-530c0 -26 -16 -44 -41 -44c-26 0 -41 18 -41 44v564c0 26 15 44 41 44h213z" />
    <glyph glyph-name="Thorn" unicode="&#xde;" horiz-adv-x="539" 
d="M273 546c145 0 221 -101 221 -216s-76 -216 -221 -216h-114v-70c0 -26 -16 -44 -41 -44c-26 0 -41 18 -41 44v564c0 26 15 44 41 44c25 0 41 -18 41 -44v-62h114zM255 192c120 0 158 61 158 138s-38 138 -158 138h-96v-276h96z" />
    <glyph glyph-name="Thorn.ss01" horiz-adv-x="576" 
d="M118 652c25 0 41 -18 41 -44v-564c0 -26 -16 -44 -41 -44c-26 0 -41 18 -41 44v564c0 26 15 44 41 44zM313 546c141 0 218 -103 218 -216s-77 -216 -218 -216h-65c-26 0 -41 14 -41 39s15 39 41 39h46c117 0 156 61 156 138s-39 138 -156 138h-46c-26 0 -41 14 -41 39
s15 39 41 39h65z" />
    <glyph glyph-name="Q" unicode="Q" horiz-adv-x="768" 
d="M670 30c19 -18 19 -42 3 -58c-17 -16 -40 -17 -59 2l-60 61c-49 -27 -107 -42 -170 -42c-192 0 -333 139 -333 332s141 334 333 334s333 -141 333 -334c0 -99 -37 -183 -99 -243zM135 325c0 -149 104 -254 249 -254s249 105 249 254s-104 256 -249 256
s-249 -107 -249 -256z" />
    <glyph glyph-name="Q.ss01" horiz-adv-x="768" 
d="M384 659c197 0 333 -146 333 -334c0 -66 -23 -129 -44 -167c-12 -23 -34 -29 -58 -18c-23 12 -28 34 -17 57c15 25 35 67 35 128c0 141 -99 256 -249 256s-249 -115 -249 -256s99 -253 249 -253c17 0 50 4 63 9c24 2 41 -13 43 -37s-13 -41 -38 -42c-14 -5 -48 -9 -68 -9
c-197 0 -333 144 -333 332s136 334 333 334zM654 -10c-17 -16 -40 -16 -59 2l-66 66c-18 19 -18 43 -2 59s39 16 58 -3l66 -66c19 -18 19 -42 3 -58z" />
    <glyph glyph-name="R" unicode="R" 
d="M550 66c14 -21 10 -45 -9 -59c-19 -13 -44 -9 -59 12l-89 130c-21 29 -54 89 -124 89h-110v-194c0 -26 -16 -44 -41 -44c-26 0 -41 18 -41 44v564c0 26 15 44 41 44h200c148 0 217 -86 217 -205c0 -97 -59 -160 -133 -192c19 -13 38 -29 60 -63zM300 313
c106 0 154 53 154 133c0 79 -43 128 -149 128h-146v-261h141z" />
    <glyph glyph-name="R.ss01" horiz-adv-x="616" 
d="M543 6c-19 -13 -44 -9 -58 12c-14 19 -76 111 -90 131c-23 34 -63 87 -129 87c-25 0 -40 16 -40 38s15 38 40 38h39c111 0 151 61 151 136c0 76 -40 126 -146 126h-151v-530c0 -26 -16 -44 -41 -44c-26 0 -41 18 -41 44v564c0 26 15 44 41 44h205c145 0 215 -86 215 -204
c0 -90 -53 -163 -137 -193c21 -14 42 -32 62 -60c13 -18 76 -112 89 -131c14 -20 10 -44 -9 -58z" />
    <glyph glyph-name="Racute" unicode="&#x154;" 
d="M323 862c19 16 39 15 55 -3c16 -19 12 -39 -7 -55l-88 -73c-19 -17 -39 -17 -56 2c-15 18 -12 39 8 55zM550 66c14 -21 10 -45 -9 -59c-19 -13 -44 -9 -59 12l-89 130c-21 29 -54 89 -124 89h-110v-194c0 -26 -16 -44 -41 -44c-26 0 -41 18 -41 44v564c0 26 15 44 41 44
h200c148 0 217 -86 217 -205c0 -97 -59 -160 -133 -192c19 -13 38 -29 60 -63zM300 313c106 0 154 53 154 133c0 79 -43 128 -149 128h-146v-261h141z" />
    <glyph glyph-name="Racute.ss01" horiz-adv-x="616" 
d="M317 862c19 16 39 15 55 -3c16 -19 12 -39 -7 -55l-88 -73c-19 -17 -39 -17 -56 2c-15 18 -12 39 8 55zM543 6c-19 -13 -44 -9 -58 12c-14 19 -76 111 -90 131c-23 34 -63 87 -129 87c-25 0 -40 16 -40 38s15 38 40 38h39c111 0 151 61 151 136c0 76 -40 126 -146 126
h-151v-530c0 -26 -16 -44 -41 -44c-26 0 -41 18 -41 44v564c0 26 15 44 41 44h205c145 0 215 -86 215 -204c0 -90 -53 -163 -137 -193c21 -14 42 -32 62 -60c13 -18 76 -112 89 -131c14 -20 10 -44 -9 -58z" />
    <glyph glyph-name="Rcaron" unicode="&#x158;" 
d="M415 857c16 -18 13 -39 -7 -57l-76 -68c-10 -9 -20 -14 -30 -14s-21 5 -30 14l-76 68c-20 18 -24 39 -7 57c16 18 37 19 54 3l59 -62l59 62c15 17 38 15 54 -3zM550 66c14 -21 10 -45 -9 -59c-19 -13 -44 -9 -59 12l-89 130c-21 29 -54 89 -124 89h-110v-194
c0 -26 -16 -44 -41 -44c-26 0 -41 18 -41 44v564c0 26 15 44 41 44h200c148 0 217 -86 217 -205c0 -97 -59 -160 -133 -192c19 -13 38 -29 60 -63zM300 313c106 0 154 53 154 133c0 79 -43 128 -149 128h-146v-261h141z" />
    <glyph glyph-name="Rcaron.ss01" horiz-adv-x="616" 
d="M409 857c16 -18 13 -39 -7 -57l-76 -68c-10 -9 -20 -14 -30 -14s-21 5 -30 14l-76 68c-20 18 -24 39 -7 57c16 18 37 19 54 3l59 -62l59 62c15 17 38 15 54 -3zM543 6c-19 -13 -44 -9 -58 12c-14 19 -76 111 -90 131c-23 34 -63 87 -129 87c-25 0 -40 16 -40 38
s15 38 40 38h39c111 0 151 61 151 136c0 76 -40 126 -146 126h-151v-530c0 -26 -16 -44 -41 -44c-26 0 -41 18 -41 44v564c0 26 15 44 41 44h205c145 0 215 -86 215 -204c0 -90 -53 -163 -137 -193c21 -14 42 -32 62 -60c13 -18 76 -112 89 -131c14 -20 10 -44 -9 -58z" />
    <glyph glyph-name="uni0156" unicode="&#x156;" 
d="M550 66c14 -21 10 -45 -9 -59c-19 -13 -44 -9 -59 12l-89 130c-21 29 -54 89 -124 89h-110v-194c0 -26 -16 -44 -41 -44c-26 0 -41 18 -41 44v564c0 26 15 44 41 44h200c148 0 217 -86 217 -205c0 -97 -59 -160 -133 -192c19 -13 38 -29 60 -63zM300 313
c106 0 154 53 154 133c0 79 -43 128 -149 128h-146v-261h141zM347 -103l-52 -77c-5 -8 -11 -13 -20 -13c-14 0 -23 11 -23 22c0 2 0 4 2 8l24 86c7 28 25 35 42 35c22 0 37 -14 37 -36c0 -9 -2 -14 -10 -25z" />
    <glyph glyph-name="uni0156.ss01" horiz-adv-x="616" 
d="M543 6c-19 -13 -44 -9 -58 12c-14 19 -76 111 -90 131c-23 34 -63 87 -129 87c-25 0 -40 16 -40 38s15 38 40 38h39c111 0 151 61 151 136c0 76 -40 126 -146 126h-151v-530c0 -26 -16 -44 -41 -44c-26 0 -41 18 -41 44v564c0 26 15 44 41 44h205c145 0 215 -86 215 -204
c0 -90 -53 -163 -137 -193c21 -14 42 -32 62 -60c13 -18 76 -112 89 -131c14 -20 10 -44 -9 -58zM341 -103l-52 -77c-5 -8 -11 -13 -20 -13c-14 0 -23 11 -23 22c0 2 0 4 2 8l24 86c7 28 25 35 42 35c22 0 37 -14 37 -36c0 -9 -2 -14 -10 -25z" />
    <glyph glyph-name="S" unicode="S" horiz-adv-x="568" 
d="M156 489c0 -53 49 -80 159 -114c94 -30 204 -71 204 -190c0 -104 -85 -192 -227 -192c-117 0 -199 60 -231 101c-20 25 -15 44 2 60c23 23 41 15 58 -1c24 -24 75 -82 171 -82c94 0 146 52 146 109c0 61 -61 87 -187 127c-109 36 -175 78 -175 172c0 108 88 180 206 180
c91 0 166 -43 199 -83c20 -24 16 -40 -2 -58c-18 -17 -36 -22 -56 -2c-10 10 -53 65 -142 65c-72 0 -125 -37 -125 -92z" />
    <glyph glyph-name="Sacute" unicode="&#x15a;" horiz-adv-x="568" 
d="M308 862c19 16 39 15 55 -3c16 -19 12 -39 -7 -55l-88 -73c-19 -17 -39 -17 -56 2c-15 18 -12 39 8 55zM156 489c0 -53 49 -80 159 -114c94 -30 204 -71 204 -190c0 -104 -85 -192 -227 -192c-117 0 -199 60 -231 101c-20 25 -15 44 2 60c23 23 41 15 58 -1
c24 -24 75 -82 171 -82c94 0 146 52 146 109c0 61 -61 87 -187 127c-109 36 -175 78 -175 172c0 108 88 180 206 180c91 0 166 -43 199 -83c20 -24 16 -40 -2 -58c-18 -17 -36 -22 -56 -2c-10 10 -53 65 -142 65c-72 0 -125 -37 -125 -92z" />
    <glyph glyph-name="Scaron" unicode="&#x160;" horiz-adv-x="568" 
d="M400 857c16 -18 13 -39 -7 -57l-76 -68c-10 -9 -20 -14 -30 -14s-21 5 -30 14l-76 68c-20 18 -24 39 -7 57c16 18 37 19 54 3l59 -62l59 62c15 17 38 15 54 -3zM156 489c0 -53 49 -80 159 -114c94 -30 204 -71 204 -190c0 -104 -85 -192 -227 -192
c-117 0 -199 60 -231 101c-20 25 -15 44 2 60c23 23 41 15 58 -1c24 -24 75 -82 171 -82c94 0 146 52 146 109c0 61 -61 87 -187 127c-109 36 -175 78 -175 172c0 108 88 180 206 180c91 0 166 -43 199 -83c20 -24 16 -40 -2 -58c-18 -17 -36 -22 -56 -2
c-10 10 -53 65 -142 65c-72 0 -125 -37 -125 -92z" />
    <glyph glyph-name="Scedilla" unicode="&#x15e;" horiz-adv-x="568" 
d="M519 185c0 -96 -73 -179 -197 -191l-13 -26c29 -9 76 -27 76 -82c0 -49 -37 -79 -90 -79c-29 0 -52 9 -66 18c-12 7 -19 17 -14 31c5 13 18 16 30 12c13 -5 31 -13 51 -13c24 0 36 13 36 29c0 26 -33 42 -72 52c-9 2 -10 8 -7 15l18 43c-106 6 -180 61 -210 100
c-20 25 -15 44 2 60c23 23 41 15 58 -1c24 -24 75 -82 171 -82c94 0 146 52 146 109c0 61 -61 87 -187 127c-109 36 -175 78 -175 172c0 108 88 180 206 180c91 0 166 -43 199 -83c20 -24 16 -40 -2 -58c-18 -17 -36 -22 -56 -2c-10 10 -53 65 -142 65
c-72 0 -125 -37 -125 -92c0 -53 49 -80 159 -114c94 -30 204 -71 204 -190z" />
    <glyph glyph-name="uni0218" unicode="&#x218;" horiz-adv-x="568" 
d="M156 489c0 -53 49 -80 159 -114c94 -30 204 -71 204 -190c0 -104 -85 -192 -227 -192c-117 0 -199 60 -231 101c-20 25 -15 44 2 60c23 23 41 15 58 -1c24 -24 75 -82 171 -82c94 0 146 52 146 109c0 61 -61 87 -187 127c-109 36 -175 78 -175 172c0 108 88 180 206 180
c91 0 166 -43 199 -83c20 -24 16 -40 -2 -58c-18 -17 -36 -22 -56 -2c-10 10 -53 65 -142 65c-72 0 -125 -37 -125 -92zM325 -103l-52 -77c-5 -8 -11 -13 -20 -13c-14 0 -23 11 -23 22c0 2 0 4 2 8l24 86c7 28 25 35 42 35c22 0 37 -14 37 -36c0 -9 -2 -14 -10 -25z" />
    <glyph glyph-name="uni1E9E" unicode="&#x1e9e;" horiz-adv-x="607" 
d="M442 356c63 -26 109 -90 109 -168c0 -103 -78 -188 -204 -188h-92c-25 0 -41 15 -41 39s16 39 41 39h81c85 0 134 46 134 116c0 64 -44 99 -100 110c-11 2 -25 6 -31 23c-6 16 -3 34 17 48c45 30 71 57 71 106c0 66 -48 100 -118 100c-88 0 -153 -55 -153 -201v-336
c0 -26 -15 -44 -41 -44c-25 0 -41 18 -41 44v346c0 182 107 269 239 269c121 0 195 -73 195 -172c0 -62 -35 -107 -66 -131z" />
    <glyph glyph-name="T" unicode="T" horiz-adv-x="564" 
d="M489 652c25 0 41 -16 41 -39s-16 -39 -41 -39h-166v-530c0 -26 -15 -44 -41 -44c-25 0 -41 18 -41 44v530h-166c-25 0 -41 16 -41 39s16 39 41 39h414z" />
    <glyph glyph-name="T.ss01" horiz-adv-x="606" 
d="M136 652c122 0 208 -44 208 -199v-409c0 -26 -15 -44 -41 -44c-25 0 -41 18 -41 44v399c0 100 -42 129 -115 131h-72c-25 0 -41 16 -41 39s16 39 41 39h61zM531 652c25 0 41 -16 41 -39s-16 -39 -41 -39h-146c-26 0 -41 16 -41 39s15 39 41 39h146z" />
    <glyph glyph-name="Tbar" unicode="&#x166;" horiz-adv-x="564" 
d="M489 652c25 0 41 -16 41 -39s-16 -39 -41 -39h-166v-215h69c25 0 41 -15 41 -38s-16 -38 -41 -38h-69v-239c0 -26 -15 -44 -41 -44c-25 0 -41 18 -41 44v239h-69c-24 0 -40 15 -40 38s16 38 40 38h69v215h-166c-25 0 -41 16 -41 39s16 39 41 39h414z" />
    <glyph glyph-name="Tbar.ss01" horiz-adv-x="606" 
d="M413 359c25 0 41 -15 41 -38s-16 -38 -41 -38h-69v-239c0 -26 -15 -44 -41 -44c-25 0 -41 18 -41 44v239h-69c-25 0 -41 15 -41 38s16 38 41 38h69v84c0 100 -42 129 -115 131h-72c-25 0 -41 16 -41 39s16 39 41 39h61c122 0 208 -44 208 -199v-94h69zM531 652
c25 0 41 -16 41 -39s-16 -39 -41 -39h-146c-26 0 -41 16 -41 39s15 39 41 39h146z" />
    <glyph glyph-name="Tcaron" unicode="&#x164;" horiz-adv-x="564" 
d="M395 857c16 -18 13 -39 -7 -57l-76 -68c-10 -9 -20 -14 -30 -14s-21 5 -30 14l-76 68c-20 18 -24 39 -7 57c16 18 37 19 54 3l59 -62l59 62c15 17 38 15 54 -3zM489 652c25 0 41 -16 41 -39s-16 -39 -41 -39h-166v-530c0 -26 -15 -44 -41 -44c-25 0 -41 18 -41 44v530
h-166c-25 0 -41 16 -41 39s16 39 41 39h414z" />
    <glyph glyph-name="Tcaron.ss01" horiz-adv-x="606" 
d="M416 857c16 -18 13 -39 -7 -57l-76 -68c-10 -9 -20 -14 -30 -14s-21 5 -30 14l-76 68c-20 18 -24 39 -7 57c16 18 37 19 54 3l59 -62l59 62c15 17 38 15 54 -3zM136 652c122 0 208 -44 208 -199v-409c0 -26 -15 -44 -41 -44c-25 0 -41 18 -41 44v399
c0 100 -42 129 -115 131h-72c-25 0 -41 16 -41 39s16 39 41 39h61zM531 652c25 0 41 -16 41 -39s-16 -39 -41 -39h-146c-26 0 -41 16 -41 39s15 39 41 39h146z" />
    <glyph glyph-name="uni0162" unicode="&#x162;" horiz-adv-x="564" 
d="M489 652c25 0 41 -16 41 -39s-16 -39 -41 -39h-166v-530c0 -16 -5 -29 -16 -36l-19 -40c29 -9 76 -27 76 -82c0 -49 -37 -79 -90 -79c-29 0 -52 9 -66 18c-12 7 -19 17 -14 31c5 13 18 16 30 12c13 -5 31 -13 51 -13c24 0 36 13 36 29c0 26 -33 42 -72 52
c-9 2 -10 8 -7 15l25 57c-10 8 -16 20 -16 36v530h-166c-25 0 -41 16 -41 39s16 39 41 39h414z" />
    <glyph glyph-name="uni0162.ss01" horiz-adv-x="606" 
d="M308 -32c29 -9 76 -27 76 -82c0 -49 -37 -79 -90 -79c-29 0 -52 9 -66 18c-12 7 -19 17 -14 31c5 13 18 16 30 12c13 -5 31 -13 51 -13c24 0 36 13 36 29c0 26 -33 42 -72 52c-9 2 -10 8 -7 15l25 58c-10 7 -15 20 -15 35v399c0 100 -42 129 -115 131h-72
c-25 0 -41 16 -41 39s16 39 41 39h61c122 0 208 -44 208 -199v-409c0 -17 -6 -30 -17 -37zM531 652c25 0 41 -16 41 -39s-16 -39 -41 -39h-146c-26 0 -41 16 -41 39s15 39 41 39h146z" />
    <glyph glyph-name="uni021A" unicode="&#x21a;" horiz-adv-x="564" 
d="M489 652c25 0 41 -16 41 -39s-16 -39 -41 -39h-166v-530c0 -26 -15 -44 -41 -44c-25 0 -41 18 -41 44v530h-166c-25 0 -41 16 -41 39s16 39 41 39h414zM304 -103l-52 -77c-5 -8 -11 -13 -20 -13c-14 0 -23 11 -23 22c0 2 0 4 2 8l24 86c7 28 25 35 42 35
c22 0 37 -14 37 -36c0 -9 -2 -14 -10 -25z" />
    <glyph glyph-name="uni021A.001" horiz-adv-x="606" 
d="M136 652c122 0 208 -44 208 -199v-409c0 -26 -15 -44 -41 -44c-25 0 -41 18 -41 44v399c0 100 -42 129 -115 131h-72c-25 0 -41 16 -41 39s16 39 41 39h61zM531 652c25 0 41 -16 41 -39s-16 -39 -41 -39h-146c-26 0 -41 16 -41 39s15 39 41 39h146zM324 -103l-52 -77
c-5 -8 -11 -13 -20 -13c-14 0 -23 11 -23 22c0 2 0 4 2 8l24 86c7 28 25 35 42 35c22 0 37 -14 37 -36c0 -9 -2 -14 -10 -25z" />
    <glyph glyph-name="U" unicode="U" horiz-adv-x="658" 
d="M545 652c26 0 41 -18 41 -44v-361c0 -172 -114 -253 -257 -254s-257 82 -257 254v361c0 26 15 44 41 44c25 0 41 -18 41 -44v-350c0 -135 76 -189 175 -189s175 54 175 189v350c0 26 15 44 41 44z" />
    <glyph glyph-name="Uacute" unicode="&#xda;" horiz-adv-x="658" 
d="M350 862c19 16 39 15 55 -3c16 -19 12 -39 -7 -55l-88 -73c-19 -17 -39 -17 -56 2c-15 18 -12 39 8 55zM545 652c26 0 41 -18 41 -44v-361c0 -172 -114 -253 -257 -254s-257 82 -257 254v361c0 26 15 44 41 44c25 0 41 -18 41 -44v-350c0 -135 76 -189 175 -189
s175 54 175 189v350c0 26 15 44 41 44z" />
    <glyph glyph-name="Ubreve" unicode="&#x16c;" horiz-adv-x="658" 
d="M451 859c21 -11 22 -33 9 -61c-19 -42 -57 -81 -131 -81c-75 0 -113 39 -131 81c-13 25 -14 49 9 61c23 11 41 3 53 -18c13 -23 26 -54 69 -54c42 0 56 31 68 54c12 21 30 29 54 18zM545 652c26 0 41 -18 41 -44v-361c0 -172 -114 -253 -257 -254s-257 82 -257 254v361
c0 26 15 44 41 44c25 0 41 -18 41 -44v-350c0 -135 76 -189 175 -189s175 54 175 189v350c0 26 15 44 41 44z" />
    <glyph glyph-name="Ucircumflex" unicode="&#xdb;" horiz-adv-x="658" 
d="M442 735c-16 -18 -39 -20 -54 -3l-59 62l-59 -62c-17 -16 -38 -15 -54 3c-17 18 -13 39 7 57l76 68c9 9 20 14 30 14s20 -5 30 -14l76 -68c20 -18 23 -39 7 -57zM545 652c26 0 41 -18 41 -44v-361c0 -172 -114 -253 -257 -254s-257 82 -257 254v361c0 26 15 44 41 44
c25 0 41 -18 41 -44v-350c0 -135 76 -189 175 -189s175 54 175 189v350c0 26 15 44 41 44z" />
    <glyph glyph-name="Udieresis" unicode="&#xdc;" horiz-adv-x="658" 
d="M260 718c-26 0 -44 18 -44 43s18 43 44 43c25 0 43 -18 43 -43s-18 -43 -43 -43zM401 718c-26 0 -44 18 -44 43s18 43 44 43c25 0 43 -18 43 -43s-18 -43 -43 -43zM545 652c26 0 41 -18 41 -44v-361c0 -172 -114 -253 -257 -254s-257 82 -257 254v361c0 26 15 44 41 44
c25 0 41 -18 41 -44v-350c0 -135 76 -189 175 -189s175 54 175 189v350c0 26 15 44 41 44z" />
    <glyph glyph-name="Ugrave" unicode="&#xd9;" horiz-adv-x="658" 
d="M308 862l88 -74c20 -16 23 -37 8 -55c-17 -19 -37 -19 -56 -2l-88 73c-19 16 -23 36 -7 55c16 18 36 19 55 3zM545 652c26 0 41 -18 41 -44v-361c0 -172 -114 -253 -257 -254s-257 82 -257 254v361c0 26 15 44 41 44c25 0 41 -18 41 -44v-350c0 -135 76 -189 175 -189
s175 54 175 189v350c0 26 15 44 41 44z" />
    <glyph glyph-name="Uhungarumlaut" unicode="&#x170;" horiz-adv-x="658" 
d="M438 860c15 18 34 21 51 6c17 -14 17 -33 2 -51l-72 -84c-15 -18 -33 -20 -52 -5c-17 14 -16 33 -1 50zM276 860c15 18 33 20 51 6c17 -14 16 -33 1 -51l-71 -84c-15 -18 -34 -21 -52 -5c-17 14 -16 33 -2 50zM545 652c26 0 41 -18 41 -44v-361
c0 -172 -114 -253 -257 -254s-257 82 -257 254v361c0 26 15 44 41 44c25 0 41 -18 41 -44v-350c0 -135 76 -189 175 -189s175 54 175 189v350c0 26 15 44 41 44z" />
    <glyph glyph-name="Umacron" unicode="&#x16a;" horiz-adv-x="658" 
d="M455 755c0 -21 -15 -36 -39 -36h-174c-24 0 -39 15 -39 36s15 36 39 36h174c24 0 39 -15 39 -36zM545 652c26 0 41 -18 41 -44v-361c0 -172 -114 -253 -257 -254s-257 82 -257 254v361c0 26 15 44 41 44c25 0 41 -18 41 -44v-350c0 -135 76 -189 175 -189s175 54 175 189
v350c0 26 15 44 41 44z" />
    <glyph glyph-name="Uogonek" unicode="&#x172;" horiz-adv-x="658" 
d="M545 652c26 0 41 -18 41 -44v-361c0 -145 -81 -225 -191 -247c-40 -12 -58 -42 -54 -67c3 -22 20 -29 36 -29c12 0 26 6 34 9c13 5 28 2 37 -19c8 -20 3 -34 -16 -45c-13 -7 -34 -14 -59 -14c-46 0 -87 23 -91 73c-3 33 10 63 37 85c-138 3 -247 86 -247 254v361
c0 26 15 44 41 44c25 0 41 -18 41 -44v-350c0 -135 76 -189 175 -189s175 54 175 189v350c0 26 15 44 41 44z" />
    <glyph glyph-name="Uring" unicode="&#x16e;" horiz-adv-x="658" 
d="M329 707c-55 0 -93 38 -93 93c0 54 38 92 93 92c54 0 92 -38 92 -92c0 -55 -38 -93 -92 -93zM329 757c26 0 42 16 42 43c0 26 -16 42 -42 42c-27 0 -43 -16 -43 -42c0 -27 16 -43 43 -43zM545 652c26 0 41 -18 41 -44v-361c0 -172 -114 -253 -257 -254s-257 82 -257 254
v361c0 26 15 44 41 44c25 0 41 -18 41 -44v-350c0 -135 76 -189 175 -189s175 54 175 189v350c0 26 15 44 41 44z" />
    <glyph glyph-name="Utilde" unicode="&#x168;" horiz-adv-x="658" 
d="M442 788c14 -17 8 -35 -9 -52c-32 -31 -62 -32 -107 -9c-38 21 -41 11 -61 -4c-16 -12 -37 -7 -48 10c-12 16 -8 33 9 50c30 31 69 32 105 12c40 -23 42 -13 61 1s39 8 50 -8zM545 652c26 0 41 -18 41 -44v-361c0 -172 -114 -253 -257 -254s-257 82 -257 254v361
c0 26 15 44 41 44c25 0 41 -18 41 -44v-350c0 -135 76 -189 175 -189s175 54 175 189v350c0 26 15 44 41 44z" />
    <glyph glyph-name="V" unicode="V" horiz-adv-x="607" 
d="M545 648c25 -10 31 -33 22 -55l-223 -566c-8 -19 -20 -30 -40 -30c-21 0 -33 11 -41 30l-223 566c-9 22 -3 45 22 55c23 10 47 2 55 -24l187 -494l186 494c8 26 32 34 55 24z" />
    <glyph glyph-name="V.ss01" horiz-adv-x="607" 
d="M317 0c-23 -9 -44 2 -53 26l-224 567c-9 23 -2 46 22 56c24 9 45 -1 55 -26l217 -566c10 -24 7 -47 -17 -57zM343 135c-24 10 -25 31 -16 54l163 434c10 25 31 35 55 26c24 -10 31 -33 22 -56l-170 -432c-10 -24 -31 -35 -54 -26z" />
    <glyph glyph-name="W" unicode="W" horiz-adv-x="879" 
d="M814 649c25 -8 34 -28 26 -56l-184 -564c-6 -20 -23 -32 -44 -32c-23 0 -37 10 -46 34l-127 393l-127 -393c-8 -24 -23 -34 -46 -34c-20 0 -37 12 -44 32l-183 564c-8 28 0 48 25 56c25 9 48 0 55 -28l151 -500l127 426c5 18 22 30 42 30s37 -12 43 -30l127 -426l153 502
c7 28 28 35 52 26z" />
    <glyph glyph-name="W.ss01" horiz-adv-x="879" 
d="M279 0c-27 -9 -48 4 -57 29l-182 564c-9 22 -3 46 23 56c22 9 44 -1 54 -26l180 -565c9 -26 7 -49 -18 -58zM814 650c26 -9 33 -33 26 -55l-184 -566c-6 -20 -24 -32 -44 -32c-23 0 -37 10 -46 34l-127 393l-81 -256c-8 -24 -22 -33 -47 -26c-24 7 -27 25 -20 50l106 355
c5 18 22 30 42 30s38 -12 43 -30l127 -431l153 505c7 26 30 36 52 29z" />
    <glyph glyph-name="Wacute" unicode="&#x1e82;" horiz-adv-x="879" 
d="M460 862c19 16 39 15 55 -3c16 -19 12 -39 -7 -55l-88 -73c-19 -17 -39 -17 -56 2c-15 18 -12 39 8 55zM814 649c25 -8 34 -28 26 -56l-184 -564c-6 -20 -23 -32 -44 -32c-23 0 -37 10 -46 34l-127 393l-127 -393c-8 -24 -23 -34 -46 -34c-20 0 -37 12 -44 32l-183 564
c-8 28 0 48 25 56c25 9 48 0 55 -28l151 -500l127 426c5 18 22 30 42 30s37 -12 43 -30l127 -426l153 502c7 28 28 35 52 26z" />
    <glyph glyph-name="Wacute.ss01" horiz-adv-x="879" 
d="M462 862c19 16 39 15 55 -3c16 -19 12 -39 -7 -55l-88 -73c-19 -17 -39 -17 -56 2c-15 18 -12 39 8 55zM279 0c-27 -9 -48 4 -57 29l-182 564c-9 22 -3 46 23 56c22 9 44 -1 54 -26l180 -565c9 -26 7 -49 -18 -58zM814 650c26 -9 33 -33 26 -55l-184 -566
c-6 -20 -24 -32 -44 -32c-23 0 -37 10 -46 34l-127 393l-81 -256c-8 -24 -22 -33 -47 -26c-24 7 -27 25 -20 50l106 355c5 18 22 30 42 30s38 -12 43 -30l127 -431l153 505c7 26 30 36 52 29z" />
    <glyph glyph-name="Wcircumflex" unicode="&#x174;" horiz-adv-x="879" 
d="M552 735c-16 -18 -39 -20 -54 -3l-59 62l-59 -62c-17 -16 -38 -15 -54 3c-17 18 -13 39 7 57l76 68c9 9 20 14 30 14s20 -5 30 -14l76 -68c20 -18 23 -39 7 -57zM814 649c25 -8 34 -28 26 -56l-184 -564c-6 -20 -23 -32 -44 -32c-23 0 -37 10 -46 34l-127 393l-127 -393
c-8 -24 -23 -34 -46 -34c-20 0 -37 12 -44 32l-183 564c-8 28 0 48 25 56c25 9 48 0 55 -28l151 -500l127 426c5 18 22 30 42 30s37 -12 43 -30l127 -426l153 502c7 28 28 35 52 26z" />
    <glyph glyph-name="Wcircumflex.ss01" horiz-adv-x="879" 
d="M554 735c-16 -18 -39 -20 -54 -3l-59 62l-59 -62c-17 -16 -38 -15 -54 3c-17 18 -13 39 7 57l76 68c9 9 20 14 30 14s20 -5 30 -14l76 -68c20 -18 23 -39 7 -57zM279 0c-27 -9 -48 4 -57 29l-182 564c-9 22 -3 46 23 56c22 9 44 -1 54 -26l180 -565c9 -26 7 -49 -18 -58z
M814 650c26 -9 33 -33 26 -55l-184 -566c-6 -20 -24 -32 -44 -32c-23 0 -37 10 -46 34l-127 393l-81 -256c-8 -24 -22 -33 -47 -26c-24 7 -27 25 -20 50l106 355c5 18 22 30 42 30s38 -12 43 -30l127 -431l153 505c7 26 30 36 52 29z" />
    <glyph glyph-name="Wdieresis" unicode="&#x1e84;" horiz-adv-x="879" 
d="M370 718c-26 0 -44 18 -44 43s18 43 44 43c25 0 43 -18 43 -43s-18 -43 -43 -43zM511 718c-26 0 -44 18 -44 43s18 43 44 43c25 0 43 -18 43 -43s-18 -43 -43 -43zM814 649c25 -8 34 -28 26 -56l-184 -564c-6 -20 -23 -32 -44 -32c-23 0 -37 10 -46 34l-127 393
l-127 -393c-8 -24 -23 -34 -46 -34c-20 0 -37 12 -44 32l-183 564c-8 28 0 48 25 56c25 9 48 0 55 -28l151 -500l127 426c5 18 22 30 42 30s37 -12 43 -30l127 -426l153 502c7 28 28 35 52 26z" />
    <glyph glyph-name="Wdieresis.ss01" horiz-adv-x="879" 
d="M372 718c-26 0 -44 18 -44 43s18 43 44 43c25 0 43 -18 43 -43s-18 -43 -43 -43zM513 718c-26 0 -44 18 -44 43s18 43 44 43c25 0 43 -18 43 -43s-18 -43 -43 -43zM279 0c-27 -9 -48 4 -57 29l-182 564c-9 22 -3 46 23 56c22 9 44 -1 54 -26l180 -565
c9 -26 7 -49 -18 -58zM814 650c26 -9 33 -33 26 -55l-184 -566c-6 -20 -24 -32 -44 -32c-23 0 -37 10 -46 34l-127 393l-81 -256c-8 -24 -22 -33 -47 -26c-24 7 -27 25 -20 50l106 355c5 18 22 30 42 30s38 -12 43 -30l127 -431l153 505c7 26 30 36 52 29z" />
    <glyph glyph-name="Wgrave" unicode="&#x1e80;" horiz-adv-x="879" 
d="M418 862l88 -74c20 -16 23 -37 8 -55c-17 -19 -37 -19 -56 -2l-88 73c-19 16 -23 36 -7 55c16 18 36 19 55 3zM814 649c25 -8 34 -28 26 -56l-184 -564c-6 -20 -23 -32 -44 -32c-23 0 -37 10 -46 34l-127 393l-127 -393c-8 -24 -23 -34 -46 -34c-20 0 -37 12 -44 32
l-183 564c-8 28 0 48 25 56c25 9 48 0 55 -28l151 -500l127 426c5 18 22 30 42 30s37 -12 43 -30l127 -426l153 502c7 28 28 35 52 26z" />
    <glyph glyph-name="Wgrave.ss01" horiz-adv-x="879" 
d="M420 862l88 -74c20 -16 23 -37 8 -55c-17 -19 -37 -19 -56 -2l-88 73c-19 16 -23 36 -7 55c16 18 36 19 55 3zM279 0c-27 -9 -48 4 -57 29l-182 564c-9 22 -3 46 23 56c22 9 44 -1 54 -26l180 -565c9 -26 7 -49 -18 -58zM814 650c26 -9 33 -33 26 -55l-184 -566
c-6 -20 -24 -32 -44 -32c-23 0 -37 10 -46 34l-127 393l-81 -256c-8 -24 -22 -33 -47 -26c-24 7 -27 25 -20 50l106 355c5 18 22 30 42 30s38 -12 43 -30l127 -431l153 505c7 26 30 36 52 29z" />
    <glyph glyph-name="X" unicode="X" horiz-adv-x="586" 
d="M526 67c15 -22 10 -46 -10 -60c-21 -14 -45 -6 -60 15l-163 245l-164 -245c-14 -21 -38 -29 -59 -15c-20 14 -25 38 -10 60l187 267l-164 252c-14 21 -10 45 11 59c21 13 45 6 58 -15l141 -227l141 227c13 21 37 28 58 15c21 -14 25 -38 11 -59l-164 -252z" />
    <glyph glyph-name="X.ss01" horiz-adv-x="583" 
d="M491 645c21 -15 25 -39 10 -60l-373 -562c-13 -22 -38 -30 -59 -16c-20 15 -23 39 -9 61l373 562c14 21 38 29 58 15zM93 645c21 13 44 6 58 -15l105 -162c14 -22 12 -46 -9 -61c-21 -13 -45 -6 -59 16l-105 162c-15 21 -12 45 10 60zM337 274c21 14 45 7 59 -14
l127 -192c14 -22 12 -46 -9 -61c-21 -13 -45 -6 -59 16l-128 191c-14 21 -11 46 10 60z" />
    <glyph glyph-name="Y" unicode="Y" horiz-adv-x="581" 
d="M486 652c26 0 41 -18 41 -44v-101c0 -132 -74 -228 -196 -246v-217c0 -26 -15 -44 -41 -44c-25 0 -41 18 -41 44v217c-121 18 -196 114 -196 246v101c0 26 16 44 41 44c26 0 41 -18 41 -44v-91c0 -110 55 -183 155 -183c101 0 155 73 155 183v91c0 26 16 44 41 44z" />
    <glyph glyph-name="Y.ss01" horiz-adv-x="581" 
d="M486 652c26 0 41 -18 41 -44v-101c0 -150 -95 -249 -237 -249c-141 0 -237 99 -237 249v101c0 26 16 44 41 44c26 0 41 -18 41 -44v-91c0 -114 57 -183 155 -183s155 69 155 183v91c0 26 16 44 41 44zM290 224c26 0 41 -18 41 -44v-136c0 -26 -15 -44 -41 -44
c-25 0 -41 18 -41 44v136c0 26 16 44 41 44z" />
    <glyph glyph-name="Yacute" unicode="&#xdd;" horiz-adv-x="581" 
d="M311 862c19 16 39 15 55 -3c16 -19 12 -39 -7 -55l-88 -73c-19 -17 -39 -17 -56 2c-15 18 -12 39 8 55zM486 652c26 0 41 -18 41 -44v-101c0 -132 -74 -228 -196 -246v-217c0 -26 -15 -44 -41 -44c-25 0 -41 18 -41 44v217c-121 18 -196 114 -196 246v101
c0 26 16 44 41 44c26 0 41 -18 41 -44v-91c0 -110 55 -183 155 -183c101 0 155 73 155 183v91c0 26 16 44 41 44z" />
    <glyph glyph-name="Yacute.ss01" horiz-adv-x="581" 
d="M311 862c19 16 39 15 55 -3c16 -19 12 -39 -7 -55l-88 -73c-19 -17 -39 -17 -56 2c-15 18 -12 39 8 55zM486 652c26 0 41 -18 41 -44v-101c0 -150 -95 -249 -237 -249c-141 0 -237 99 -237 249v101c0 26 16 44 41 44c26 0 41 -18 41 -44v-91c0 -114 57 -183 155 -183
s155 69 155 183v91c0 26 16 44 41 44zM290 224c26 0 41 -18 41 -44v-136c0 -26 -15 -44 -41 -44c-25 0 -41 18 -41 44v136c0 26 16 44 41 44z" />
    <glyph glyph-name="Ycircumflex" unicode="&#x176;" horiz-adv-x="581" 
d="M403 735c-16 -18 -39 -20 -54 -3l-59 62l-59 -62c-17 -16 -38 -15 -54 3c-17 18 -13 39 7 57l76 68c9 9 20 14 30 14s20 -5 30 -14l76 -68c20 -18 23 -39 7 -57zM486 652c26 0 41 -18 41 -44v-101c0 -132 -74 -228 -196 -246v-217c0 -26 -15 -44 -41 -44
c-25 0 -41 18 -41 44v217c-121 18 -196 114 -196 246v101c0 26 16 44 41 44c26 0 41 -18 41 -44v-91c0 -110 55 -183 155 -183c101 0 155 73 155 183v91c0 26 16 44 41 44z" />
    <glyph glyph-name="Ycircumflex.ss01" horiz-adv-x="581" 
d="M403 735c-16 -18 -39 -20 -54 -3l-59 62l-59 -62c-17 -16 -38 -15 -54 3c-17 18 -13 39 7 57l76 68c9 9 20 14 30 14s20 -5 30 -14l76 -68c20 -18 23 -39 7 -57zM486 652c26 0 41 -18 41 -44v-101c0 -150 -95 -249 -237 -249c-141 0 -237 99 -237 249v101
c0 26 16 44 41 44c26 0 41 -18 41 -44v-91c0 -114 57 -183 155 -183s155 69 155 183v91c0 26 16 44 41 44zM290 224c26 0 41 -18 41 -44v-136c0 -26 -15 -44 -41 -44c-25 0 -41 18 -41 44v136c0 26 16 44 41 44z" />
    <glyph glyph-name="Ydieresis" unicode="&#x178;" horiz-adv-x="581" 
d="M221 718c-26 0 -44 18 -44 43s18 43 44 43c25 0 43 -18 43 -43s-18 -43 -43 -43zM362 718c-26 0 -44 18 -44 43s18 43 44 43c25 0 43 -18 43 -43s-18 -43 -43 -43zM486 652c26 0 41 -18 41 -44v-101c0 -132 -74 -228 -196 -246v-217c0 -26 -15 -44 -41 -44
c-25 0 -41 18 -41 44v217c-121 18 -196 114 -196 246v101c0 26 16 44 41 44c26 0 41 -18 41 -44v-91c0 -110 55 -183 155 -183c101 0 155 73 155 183v91c0 26 16 44 41 44z" />
    <glyph glyph-name="Ydieresis.ss01" horiz-adv-x="581" 
d="M221 718c-26 0 -44 18 -44 43s18 43 44 43c25 0 43 -18 43 -43s-18 -43 -43 -43zM362 718c-26 0 -44 18 -44 43s18 43 44 43c25 0 43 -18 43 -43s-18 -43 -43 -43zM486 652c26 0 41 -18 41 -44v-101c0 -150 -95 -249 -237 -249c-141 0 -237 99 -237 249v101
c0 26 16 44 41 44c26 0 41 -18 41 -44v-91c0 -114 57 -183 155 -183s155 69 155 183v91c0 26 16 44 41 44zM290 224c26 0 41 -18 41 -44v-136c0 -26 -15 -44 -41 -44c-25 0 -41 18 -41 44v136c0 26 16 44 41 44z" />
    <glyph glyph-name="Ygrave" unicode="&#x1ef2;" horiz-adv-x="581" 
d="M269 862l88 -74c20 -16 23 -37 8 -55c-17 -19 -37 -19 -56 -2l-88 73c-19 16 -23 36 -7 55c16 18 36 19 55 3zM486 652c26 0 41 -18 41 -44v-101c0 -132 -74 -228 -196 -246v-217c0 -26 -15 -44 -41 -44c-25 0 -41 18 -41 44v217c-121 18 -196 114 -196 246v101
c0 26 16 44 41 44c26 0 41 -18 41 -44v-91c0 -110 55 -183 155 -183c101 0 155 73 155 183v91c0 26 16 44 41 44z" />
    <glyph glyph-name="Ygrave.ss01" horiz-adv-x="581" 
d="M269 862l88 -74c20 -16 23 -37 8 -55c-17 -19 -37 -19 -56 -2l-88 73c-19 16 -23 36 -7 55c16 18 36 19 55 3zM486 652c26 0 41 -18 41 -44v-101c0 -150 -95 -249 -237 -249c-141 0 -237 99 -237 249v101c0 26 16 44 41 44c26 0 41 -18 41 -44v-91
c0 -114 57 -183 155 -183s155 69 155 183v91c0 26 16 44 41 44zM290 224c26 0 41 -18 41 -44v-136c0 -26 -15 -44 -41 -44c-25 0 -41 18 -41 44v136c0 26 16 44 41 44z" />
    <glyph glyph-name="Z" unicode="Z" horiz-adv-x="573" 
d="M480 78c24 0 41 -15 41 -39s-17 -39 -41 -39h-390c-21 0 -31 11 -36 31c-3 11 -1 25 7 37l341 506h-296c-25 0 -36 15 -36 39s16 39 41 39h362c19 0 32 -8 38 -21c7 -14 4 -33 -4 -46l-341 -507h314z" />
    <glyph glyph-name="Zacute" unicode="&#x179;" horiz-adv-x="573" 
d="M314 862c19 16 39 15 55 -3c16 -19 12 -39 -7 -55l-88 -73c-19 -17 -39 -17 -56 2c-15 18 -12 39 8 55zM480 78c24 0 41 -15 41 -39s-17 -39 -41 -39h-390c-21 0 -31 11 -36 31c-3 11 -1 25 7 37l341 506h-296c-25 0 -36 15 -36 39s16 39 41 39h362c19 0 32 -8 38 -21
c7 -14 4 -33 -4 -46l-341 -507h314z" />
    <glyph glyph-name="Zcaron" unicode="&#x17d;" horiz-adv-x="573" 
d="M406 857c16 -18 13 -39 -7 -57l-76 -68c-10 -9 -20 -14 -30 -14s-21 5 -30 14l-76 68c-20 18 -24 39 -7 57c16 18 37 19 54 3l59 -62l59 62c15 17 38 15 54 -3zM480 78c24 0 41 -15 41 -39s-17 -39 -41 -39h-390c-21 0 -31 11 -36 31c-3 11 -1 25 7 37l341 506h-296
c-25 0 -36 15 -36 39s16 39 41 39h362c19 0 32 -8 38 -21c7 -14 4 -33 -4 -46l-341 -507h314z" />
    <glyph glyph-name="Zdotaccent" unicode="&#x17b;" horiz-adv-x="573" 
d="M293 707c-30 0 -51 22 -51 51s21 52 51 52s51 -23 51 -52s-21 -51 -51 -51zM480 78c24 0 41 -15 41 -39s-17 -39 -41 -39h-390c-21 0 -31 11 -36 31c-3 11 -1 25 7 37l341 506h-296c-25 0 -36 15 -36 39s16 39 41 39h362c19 0 32 -8 38 -21c7 -14 4 -33 -4 -46l-341 -507
h314z" />
    <glyph glyph-name="a" unicode="a" 
d="M306 507c128 0 240 -82 240 -227v-236c0 -27 -15 -44 -40 -44s-41 17 -41 44v35h-5c-16 -29 -61 -86 -167 -86c-141 0 -249 110 -249 251c0 151 100 263 262 263zM302 69c102 0 163 67 163 184v16c0 103 -60 162 -159 162c-119 0 -180 -84 -180 -182
c0 -106 68 -180 176 -180z" />
    <glyph glyph-name="a.ss01" 
d="M312 72c26 0 41 -14 41 -39s-15 -38 -41 -38c-161 0 -268 107 -268 256c0 150 110 256 265 256c144 0 237 -83 237 -227v-236c0 -26 -15 -44 -40 -44c-26 0 -41 18 -41 44v220c0 110 -51 167 -157 167c-111 0 -182 -78 -182 -180c0 -103 71 -179 186 -179z" />
    <glyph glyph-name="a.ss02" 
d="M312 72c26 0 41 -14 41 -39s-15 -38 -41 -38c-161 0 -268 107 -268 255c0 151 112 257 261 257c150 0 241 -83 241 -227v-128c0 -26 -15 -43 -40 -43c-26 0 -41 17 -41 43v112c0 109 -49 167 -160 167c-105 0 -179 -77 -179 -180c0 -102 71 -179 186 -179z" />
    <glyph glyph-name="aacute" unicode="&#xe1;" 
d="M288 579c-19 -17 -39 -17 -56 2c-15 18 -12 39 8 55l88 74c19 16 39 15 55 -3c16 -19 12 -39 -7 -55zM306 507c128 0 240 -82 240 -227v-236c0 -27 -15 -44 -40 -44s-41 17 -41 44v35h-5c-16 -29 -61 -86 -167 -86c-141 0 -249 110 -249 251c0 151 100 263 262 263z
M302 69c102 0 163 67 163 184v16c0 103 -60 162 -159 162c-119 0 -180 -84 -180 -182c0 -106 68 -180 176 -180z" />
    <glyph glyph-name="aacute.ss01" 
d="M325 710c19 16 39 15 55 -3c16 -19 12 -39 -7 -55l-88 -73c-19 -17 -39 -17 -56 2c-15 18 -12 39 8 55zM312 72c26 0 41 -14 41 -39s-15 -38 -41 -38c-161 0 -268 107 -268 256c0 150 110 256 265 256c144 0 237 -83 237 -227v-236c0 -26 -15 -44 -40 -44
c-26 0 -41 18 -41 44v220c0 110 -51 167 -157 167c-111 0 -182 -78 -182 -180c0 -103 71 -179 186 -179z" />
    <glyph glyph-name="aacute.ss02" 
d="M327 710c19 16 39 15 55 -3c16 -19 12 -39 -7 -55l-88 -73c-19 -17 -39 -17 -56 2c-15 18 -12 39 8 55zM312 72c26 0 41 -14 41 -39s-15 -38 -41 -38c-161 0 -268 107 -268 255c0 151 112 257 261 257c150 0 241 -83 241 -227v-128c0 -26 -15 -43 -40 -43
c-26 0 -41 17 -41 43v112c0 109 -49 167 -160 167c-105 0 -179 -77 -179 -180c0 -102 71 -179 186 -179z" />
    <glyph glyph-name="abreve" unicode="&#x103;" 
d="M307 565c-75 0 -113 39 -131 81c-13 25 -14 49 9 61c23 11 41 3 53 -18c13 -23 26 -54 69 -54c42 0 56 31 68 54c12 21 30 29 54 18c21 -11 22 -33 9 -61c-19 -42 -57 -81 -131 -81zM306 507c128 0 240 -82 240 -227v-236c0 -27 -15 -44 -40 -44s-41 17 -41 44v35h-5
c-16 -29 -61 -86 -167 -86c-141 0 -249 110 -249 251c0 151 100 263 262 263zM302 69c102 0 163 67 163 184v16c0 103 -60 162 -159 162c-119 0 -180 -84 -180 -182c0 -106 68 -180 176 -180z" />
    <glyph glyph-name="abreve.ss01" 
d="M426 707c21 -11 22 -33 9 -61c-19 -42 -57 -81 -131 -81c-75 0 -113 39 -131 81c-13 25 -14 49 9 61c23 11 41 3 53 -18c13 -23 26 -54 69 -54c42 0 56 31 68 54c12 21 30 29 54 18zM312 72c26 0 41 -14 41 -39s-15 -38 -41 -38c-161 0 -268 107 -268 256
c0 150 110 256 265 256c144 0 237 -83 237 -227v-236c0 -26 -15 -44 -40 -44c-26 0 -41 18 -41 44v220c0 110 -51 167 -157 167c-111 0 -182 -78 -182 -180c0 -103 71 -179 186 -179z" />
    <glyph glyph-name="abreve.ss02" 
d="M428 707c21 -11 22 -33 9 -61c-19 -42 -57 -81 -131 -81c-75 0 -113 39 -131 81c-13 25 -14 49 9 61c23 11 41 3 53 -18c13 -23 26 -54 69 -54c42 0 56 31 68 54c12 21 30 29 54 18zM312 72c26 0 41 -14 41 -39s-15 -38 -41 -38c-161 0 -268 107 -268 255
c0 151 112 257 261 257c150 0 241 -83 241 -227v-128c0 -26 -15 -43 -40 -43c-26 0 -41 17 -41 43v112c0 109 -49 167 -160 167c-105 0 -179 -77 -179 -180c0 -102 71 -179 186 -179z" />
    <glyph glyph-name="acircumflex" unicode="&#xe2;" 
d="M248 580c-17 -16 -38 -15 -54 3c-17 18 -13 39 7 57l76 68c9 9 20 14 30 14s20 -5 30 -14l76 -68c20 -18 23 -39 7 -57s-39 -20 -54 -3l-59 62zM306 507c128 0 240 -82 240 -227v-236c0 -27 -15 -44 -40 -44s-41 17 -41 44v35h-5c-16 -29 -61 -86 -167 -86
c-141 0 -249 110 -249 251c0 151 100 263 262 263zM302 69c102 0 163 67 163 184v16c0 103 -60 162 -159 162c-119 0 -180 -84 -180 -182c0 -106 68 -180 176 -180z" />
    <glyph glyph-name="acircumflex.ss01" 
d="M417 583c-16 -18 -39 -20 -54 -3l-59 62l-59 -62c-17 -16 -38 -15 -54 3c-17 18 -13 39 7 57l76 68c9 9 20 14 30 14s20 -5 30 -14l76 -68c20 -18 23 -39 7 -57zM312 72c26 0 41 -14 41 -39s-15 -38 -41 -38c-161 0 -268 107 -268 256c0 150 110 256 265 256
c144 0 237 -83 237 -227v-236c0 -26 -15 -44 -40 -44c-26 0 -41 18 -41 44v220c0 110 -51 167 -157 167c-111 0 -182 -78 -182 -180c0 -103 71 -179 186 -179z" />
    <glyph glyph-name="acircumflex.ss02" 
d="M419 583c-16 -18 -39 -20 -54 -3l-59 62l-59 -62c-17 -16 -38 -15 -54 3c-17 18 -13 39 7 57l76 68c9 9 20 14 30 14s20 -5 30 -14l76 -68c20 -18 23 -39 7 -57zM312 72c26 0 41 -14 41 -39s-15 -38 -41 -38c-161 0 -268 107 -268 255c0 151 112 257 261 257
c150 0 241 -83 241 -227v-128c0 -26 -15 -43 -40 -43c-26 0 -41 17 -41 43v112c0 109 -49 167 -160 167c-105 0 -179 -77 -179 -180c0 -102 71 -179 186 -179z" />
    <glyph glyph-name="adieresis" unicode="&#xe4;" 
d="M238 566c-26 0 -44 18 -44 43s18 43 44 43c25 0 43 -18 43 -43s-18 -43 -43 -43zM379 566c-26 0 -44 18 -44 43s18 43 44 43c25 0 43 -18 43 -43s-18 -43 -43 -43zM306 507c128 0 240 -82 240 -227v-236c0 -27 -15 -44 -40 -44s-41 17 -41 44v35h-5
c-16 -29 -61 -86 -167 -86c-141 0 -249 110 -249 251c0 151 100 263 262 263zM302 69c102 0 163 67 163 184v16c0 103 -60 162 -159 162c-119 0 -180 -84 -180 -182c0 -106 68 -180 176 -180z" />
    <glyph glyph-name="adieresis.ss01" 
d="M235 566c-26 0 -44 18 -44 43s18 43 44 43c25 0 43 -18 43 -43s-18 -43 -43 -43zM376 566c-26 0 -44 18 -44 43s18 43 44 43c25 0 43 -18 43 -43s-18 -43 -43 -43zM312 72c26 0 41 -14 41 -39s-15 -38 -41 -38c-161 0 -268 107 -268 256c0 150 110 256 265 256
c144 0 237 -83 237 -227v-236c0 -26 -15 -44 -40 -44c-26 0 -41 18 -41 44v220c0 110 -51 167 -157 167c-111 0 -182 -78 -182 -180c0 -103 71 -179 186 -179z" />
    <glyph glyph-name="adieresis.ss02" 
d="M237 566c-26 0 -44 18 -44 43s18 43 44 43c25 0 43 -18 43 -43s-18 -43 -43 -43zM378 566c-26 0 -44 18 -44 43s18 43 44 43c25 0 43 -18 43 -43s-18 -43 -43 -43zM312 72c26 0 41 -14 41 -39s-15 -38 -41 -38c-161 0 -268 107 -268 255c0 151 112 257 261 257
c150 0 241 -83 241 -227v-128c0 -26 -15 -43 -40 -43c-26 0 -41 17 -41 43v112c0 109 -49 167 -160 167c-105 0 -179 -77 -179 -180c0 -102 71 -179 186 -179z" />
    <glyph glyph-name="agrave" unicode="&#xe0;" 
d="M238 652c-19 16 -23 36 -7 55c16 18 36 19 55 3l88 -74c20 -16 23 -37 8 -55c-17 -19 -37 -19 -56 -2zM306 507c128 0 240 -82 240 -227v-236c0 -27 -15 -44 -40 -44s-41 17 -41 44v35h-5c-16 -29 -61 -86 -167 -86c-141 0 -249 110 -249 251c0 151 100 263 262 263z
M302 69c102 0 163 67 163 184v16c0 103 -60 162 -159 162c-119 0 -180 -84 -180 -182c0 -106 68 -180 176 -180z" />
    <glyph glyph-name="agrave.ss01" 
d="M283 710l88 -74c20 -16 23 -37 8 -55c-17 -19 -37 -19 -56 -2l-88 73c-19 16 -23 36 -7 55c16 18 36 19 55 3zM312 72c26 0 41 -14 41 -39s-15 -38 -41 -38c-161 0 -268 107 -268 256c0 150 110 256 265 256c144 0 237 -83 237 -227v-236c0 -26 -15 -44 -40 -44
c-26 0 -41 18 -41 44v220c0 110 -51 167 -157 167c-111 0 -182 -78 -182 -180c0 -103 71 -179 186 -179z" />
    <glyph glyph-name="agrave.ss02" 
d="M285 710l88 -74c20 -16 23 -37 8 -55c-17 -19 -37 -19 -56 -2l-88 73c-19 16 -23 36 -7 55c16 18 36 19 55 3zM312 72c26 0 41 -14 41 -39s-15 -38 -41 -38c-161 0 -268 107 -268 255c0 151 112 257 261 257c150 0 241 -83 241 -227v-128c0 -26 -15 -43 -40 -43
c-26 0 -41 17 -41 43v112c0 109 -49 167 -160 167c-105 0 -179 -77 -179 -180c0 -102 71 -179 186 -179z" />
    <glyph glyph-name="amacron" unicode="&#x101;" 
d="M220 567c-24 0 -39 15 -39 36s15 36 39 36h174c24 0 39 -15 39 -36s-15 -36 -39 -36h-174zM306 507c128 0 240 -82 240 -227v-236c0 -27 -15 -44 -40 -44s-41 17 -41 44v35h-5c-16 -29 -61 -86 -167 -86c-141 0 -249 110 -249 251c0 151 100 263 262 263zM302 69
c102 0 163 67 163 184v16c0 103 -60 162 -159 162c-119 0 -180 -84 -180 -182c0 -106 68 -180 176 -180z" />
    <glyph glyph-name="amacron.ss01" 
d="M430 603c0 -21 -15 -36 -39 -36h-174c-24 0 -39 15 -39 36s15 36 39 36h174c24 0 39 -15 39 -36zM312 72c26 0 41 -14 41 -39s-15 -38 -41 -38c-161 0 -268 107 -268 256c0 150 110 256 265 256c144 0 237 -83 237 -227v-236c0 -26 -15 -44 -40 -44c-26 0 -41 18 -41 44
v220c0 110 -51 167 -157 167c-111 0 -182 -78 -182 -180c0 -103 71 -179 186 -179z" />
    <glyph glyph-name="amacron.ss02" 
d="M432 603c0 -21 -15 -36 -39 -36h-174c-24 0 -39 15 -39 36s15 36 39 36h174c24 0 39 -15 39 -36zM312 72c26 0 41 -14 41 -39s-15 -38 -41 -38c-161 0 -268 107 -268 255c0 151 112 257 261 257c150 0 241 -83 241 -227v-128c0 -26 -15 -43 -40 -43c-26 0 -41 17 -41 43
v112c0 109 -49 167 -160 167c-105 0 -179 -77 -179 -180c0 -102 71 -179 186 -179z" />
    <glyph glyph-name="aogonek" unicode="&#x105;" 
d="M562 -106c8 -20 3 -34 -16 -45c-13 -7 -34 -14 -59 -14c-46 0 -87 23 -91 73c-4 46 24 87 76 109c-4 7 -7 16 -7 27v35h-5c-16 -29 -61 -86 -167 -86c-141 0 -249 110 -249 251c0 151 100 263 262 263c128 0 240 -82 240 -227v-236c0 -25 -13 -42 -35 -44
c-41 -11 -60 -41 -56 -67c3 -22 20 -29 36 -29c12 0 26 6 34 9c13 5 28 2 37 -19zM302 69c102 0 163 67 163 184v16c0 103 -60 162 -159 162c-119 0 -180 -84 -180 -182c0 -106 68 -180 176 -180z" />
    <glyph glyph-name="aogonek.ss01" 
d="M561 -106c8 -20 3 -34 -16 -45c-13 -7 -34 -14 -59 -14c-46 0 -87 23 -91 73c-4 46 25 88 77 109c-5 7 -7 16 -7 27v220c0 110 -51 167 -157 167c-111 0 -182 -78 -182 -180c0 -103 71 -179 186 -179c26 0 41 -14 41 -39s-15 -38 -41 -38c-161 0 -268 107 -268 256
c0 150 110 256 265 256c144 0 237 -83 237 -227v-236c0 -25 -14 -42 -36 -44c-41 -12 -60 -42 -56 -67c3 -22 20 -29 36 -29c12 0 26 6 34 9c13 5 28 2 37 -19z" />
    <glyph glyph-name="aring" unicode="&#xe5;" 
d="M307 555c-55 0 -93 38 -93 93c0 54 38 92 93 92c54 0 92 -38 92 -92c0 -55 -38 -93 -92 -93zM307 690c-27 0 -43 -16 -43 -42c0 -27 16 -43 43 -43c26 0 42 16 42 43c0 26 -16 42 -42 42zM306 507c128 0 240 -82 240 -227v-236c0 -27 -15 -44 -40 -44s-41 17 -41 44v35
h-5c-16 -29 -61 -86 -167 -86c-141 0 -249 110 -249 251c0 151 100 263 262 263zM302 69c102 0 163 67 163 184v16c0 103 -60 162 -159 162c-119 0 -180 -84 -180 -182c0 -106 68 -180 176 -180z" />
    <glyph glyph-name="aring.ss01" 
d="M304 555c-55 0 -93 38 -93 93c0 54 38 92 93 92c54 0 92 -38 92 -92c0 -55 -38 -93 -92 -93zM304 605c26 0 42 16 42 43c0 26 -16 42 -42 42c-27 0 -43 -16 -43 -42c0 -27 16 -43 43 -43zM312 72c26 0 41 -14 41 -39s-15 -38 -41 -38c-161 0 -268 107 -268 256
c0 150 110 256 265 256c144 0 237 -83 237 -227v-236c0 -26 -15 -44 -40 -44c-26 0 -41 18 -41 44v220c0 110 -51 167 -157 167c-111 0 -182 -78 -182 -180c0 -103 71 -179 186 -179z" />
    <glyph glyph-name="aring.ss02" 
d="M306 555c-55 0 -93 38 -93 93c0 54 38 92 93 92c54 0 92 -38 92 -92c0 -55 -38 -93 -92 -93zM306 605c26 0 42 16 42 43c0 26 -16 42 -42 42c-27 0 -43 -16 -43 -42c0 -27 16 -43 43 -43zM312 72c26 0 41 -14 41 -39s-15 -38 -41 -38c-161 0 -268 107 -268 255
c0 151 112 257 261 257c150 0 241 -83 241 -227v-128c0 -26 -15 -43 -40 -43c-26 0 -41 17 -41 43v112c0 109 -49 167 -160 167c-105 0 -179 -77 -179 -180c0 -102 71 -179 186 -179z" />
    <glyph glyph-name="atilde" unicode="&#xe3;" 
d="M243 571c-16 -12 -37 -7 -48 10c-12 16 -8 33 9 50c30 31 69 32 105 12c40 -23 42 -13 61 1s39 8 50 -8c14 -17 8 -35 -9 -52c-32 -31 -62 -32 -107 -9c-38 21 -41 11 -61 -4zM306 507c128 0 240 -82 240 -227v-236c0 -27 -15 -44 -40 -44s-41 17 -41 44v35h-5
c-16 -29 -61 -86 -167 -86c-141 0 -249 110 -249 251c0 151 100 263 262 263zM302 69c102 0 163 67 163 184v16c0 103 -60 162 -159 162c-119 0 -180 -84 -180 -182c0 -106 68 -180 176 -180z" />
    <glyph glyph-name="atilde.ss01" 
d="M417 636c14 -17 8 -35 -9 -52c-32 -31 -62 -32 -107 -9c-38 21 -41 11 -61 -4c-16 -12 -37 -7 -48 10c-12 16 -8 33 9 50c30 31 69 32 105 12c40 -23 42 -13 61 1s39 8 50 -8zM312 72c26 0 41 -14 41 -39s-15 -38 -41 -38c-161 0 -268 107 -268 256
c0 150 110 256 265 256c144 0 237 -83 237 -227v-236c0 -26 -15 -44 -40 -44c-26 0 -41 18 -41 44v220c0 110 -51 167 -157 167c-111 0 -182 -78 -182 -180c0 -103 71 -179 186 -179z" />
    <glyph glyph-name="atilde.ss02" 
d="M419 636c14 -17 8 -35 -9 -52c-32 -31 -62 -32 -107 -9c-38 21 -41 11 -61 -4c-16 -12 -37 -7 -48 10c-12 16 -8 33 9 50c30 31 69 32 105 12c40 -23 42 -13 61 1s39 8 50 -8zM312 72c26 0 41 -14 41 -39s-15 -38 -41 -38c-161 0 -268 107 -268 255
c0 151 112 257 261 257c150 0 241 -83 241 -227v-128c0 -26 -15 -43 -40 -43c-26 0 -41 17 -41 43v112c0 109 -49 167 -160 167c-105 0 -179 -77 -179 -180c0 -102 71 -179 186 -179z" />
    <glyph glyph-name="ae" unicode="&#xe6;" horiz-adv-x="978" 
d="M938 288c0 -44 -26 -71 -69 -71h-320c13 -86 75 -149 173 -149c49 0 91 16 119 31c24 12 44 11 57 -11c13 -21 8 -40 -16 -56c-33 -22 -93 -39 -156 -39c-163 0 -261 110 -261 256v1v16c0 106 -58 165 -161 165c-106 0 -178 -78 -178 -182c0 -89 48 -180 174 -180
c29 0 56 5 78 14c26 8 41 -1 49 -23c7 -23 -2 -39 -28 -49c-29 -12 -66 -18 -105 -18c-159 0 -250 125 -250 256c0 149 108 258 260 258c94 0 167 -37 207 -100c44 62 115 100 198 100c132 0 229 -86 229 -219zM550 289h310c0 85 -67 143 -151 143c-83 0 -144 -59 -159 -143
z" />
    <glyph glyph-name="ae.ss01" horiz-adv-x="987" 
d="M665 253c0 25 16 37 41 37h163c0 83 -64 142 -150 142c-102 0 -172 -78 -172 -182c0 -102 65 -182 182 -182c51 0 91 16 116 32c24 13 44 10 57 -12c12 -20 9 -38 -15 -55c-31 -23 -89 -40 -155 -40c-169 0 -267 110 -267 256v1v16c0 106 -58 165 -161 165
c-107 0 -178 -78 -178 -182c0 -88 49 -180 174 -180c29 0 56 5 78 14c26 8 41 -1 49 -23c7 -23 -2 -39 -28 -49c-29 -12 -66 -18 -105 -18c-159 0 -250 125 -250 256c0 149 108 258 260 258c94 0 168 -38 208 -101c45 63 119 101 207 101c134 0 227 -86 227 -219
c0 -44 -26 -72 -68 -72h-172c-25 0 -41 13 -41 37z" />
    <glyph glyph-name="b" unicode="b" 
d="M324 507c138 0 244 -104 244 -255c0 -140 -86 -259 -255 -259c-157 0 -246 105 -246 231v434c0 26 15 44 40 44s40 -18 40 -44v-241h6c18 32 70 90 171 90zM316 69c123 0 171 95 171 181c0 108 -72 182 -175 182c-101 0 -164 -73 -164 -179v-7c0 -110 64 -177 168 -177z
" />
    <glyph glyph-name="b.ss01" 
d="M314 423h-31c-24 0 -40 14 -40 39c0 24 16 38 40 38h31c153 0 254 -104 254 -249c0 -143 -97 -258 -259 -258c-159 0 -242 112 -242 238v428c0 26 15 43 40 43s40 -17 40 -43v-417c0 -106 61 -173 163 -173c118 0 177 90 177 182c0 99 -68 172 -173 172z" />
    <glyph glyph-name="c" unicode="c" horiz-adv-x="546" 
d="M428 374c-31 33 -70 57 -126 57c-103 0 -176 -79 -176 -181s73 -181 175 -181c62 0 103 30 132 62c17 18 37 18 55 1s20 -39 3 -57c-43 -47 -105 -82 -189 -82c-150 0 -258 109 -258 257s108 257 258 257c81 0 140 -32 184 -77c17 -16 13 -37 -4 -54
c-18 -18 -37 -19 -54 -2z" />
    <glyph glyph-name="cacute" unicode="&#x107;" horiz-adv-x="546" 
d="M316 710c19 16 39 15 55 -3c16 -19 12 -39 -7 -55l-88 -73c-19 -17 -39 -17 -56 2c-15 18 -12 39 8 55zM428 374c-31 33 -70 57 -126 57c-103 0 -176 -79 -176 -181s73 -181 175 -181c62 0 103 30 132 62c17 18 37 18 55 1s20 -39 3 -57c-43 -47 -105 -82 -189 -82
c-150 0 -258 109 -258 257s108 257 258 257c81 0 140 -32 184 -77c17 -16 13 -37 -4 -54c-18 -18 -37 -19 -54 -2z" />
    <glyph glyph-name="ccaron" unicode="&#x10d;" horiz-adv-x="546" 
d="M408 705c16 -18 13 -39 -7 -57l-76 -68c-10 -9 -20 -14 -30 -14s-21 5 -30 14l-76 68c-20 18 -24 39 -7 57c16 18 37 19 54 3l59 -62l59 62c15 17 38 15 54 -3zM428 374c-31 33 -70 57 -126 57c-103 0 -176 -79 -176 -181s73 -181 175 -181c62 0 103 30 132 62
c17 18 37 18 55 1s20 -39 3 -57c-43 -47 -105 -82 -189 -82c-150 0 -258 109 -258 257s108 257 258 257c81 0 140 -32 184 -77c17 -16 13 -37 -4 -54c-18 -18 -37 -19 -54 -2z" />
    <glyph glyph-name="ccedilla" unicode="&#xe7;" horiz-adv-x="546" 
d="M488 132c18 -17 20 -39 3 -57c-40 -44 -97 -78 -174 -82l-12 -25c29 -9 76 -27 76 -82c0 -49 -37 -79 -90 -79c-29 0 -52 9 -66 18c-12 7 -19 17 -14 31c5 13 18 16 30 12c13 -5 31 -13 51 -13c24 0 36 13 36 29c0 26 -33 42 -72 52c-9 2 -10 8 -7 15l19 44
c-132 15 -224 118 -224 255c0 148 108 257 258 257c81 0 140 -32 184 -77c17 -16 13 -37 -4 -54c-18 -18 -37 -19 -54 -2c-31 33 -70 57 -126 57c-103 0 -176 -79 -176 -181s73 -181 175 -181c62 0 103 30 132 62c17 18 37 18 55 1z" />
    <glyph glyph-name="cdotaccent" unicode="&#x10b;" horiz-adv-x="546" 
d="M295 555c-30 0 -51 22 -51 51s21 52 51 52s51 -23 51 -52s-21 -51 -51 -51zM428 374c-31 33 -70 57 -126 57c-103 0 -176 -79 -176 -181s73 -181 175 -181c62 0 103 30 132 62c17 18 37 18 55 1s20 -39 3 -57c-43 -47 -105 -82 -189 -82c-150 0 -258 109 -258 257
s108 257 258 257c81 0 140 -32 184 -77c17 -16 13 -37 -4 -54c-18 -18 -37 -19 -54 -2z" />
    <glyph glyph-name="d" unicode="d" 
d="M506 702c25 0 40 -18 40 -44v-431c0 -134 -103 -234 -247 -234c-151 0 -255 109 -255 256c0 152 112 258 253 258c110 0 149 -63 163 -85h5v236c0 26 16 44 41 44zM465 235v15c0 109 -58 182 -159 182c-103 0 -180 -76 -180 -181c0 -99 68 -182 177 -182
c97 0 162 66 162 166z" />
    <glyph glyph-name="d.ss01" 
d="M299 423c-106 0 -173 -73 -173 -171c0 -93 60 -183 180 -183c102 0 159 62 159 164v426c0 26 16 43 41 43s40 -17 40 -43v-434c0 -136 -95 -232 -241 -232c-157 0 -261 111 -261 258c0 144 102 249 255 249h32c25 0 40 -14 40 -38c0 -25 -15 -39 -40 -39h-32z" />
    <glyph glyph-name="eth" unicode="&#xf0;" horiz-adv-x="589" 
d="M378 617c88 -90 160 -205 160 -354c0 -160 -101 -270 -249 -270c-143 0 -245 102 -245 239c0 145 111 216 198 241c24 8 40 5 50 -17c13 -26 -2 -46 -18 -52c-59 -20 -148 -62 -148 -170c0 -92 64 -165 163 -165c102 0 168 78 168 196c0 142 -77 235 -142 298l-28 -24
c-17 -15 -34 -13 -48 4c-14 16 -11 32 7 46l22 19c-10 9 -19 18 -26 26c-20 24 -20 42 2 59c22 18 39 9 59 -7l28 -24l28 23c16 14 32 13 46 -4c14 -15 12 -32 -6 -47z" />
    <glyph glyph-name="dcaron" unicode="&#x10f;" horiz-adv-x="723" 
d="M506 702c25 0 40 -18 40 -44v-431c0 -134 -103 -234 -247 -234c-151 0 -255 109 -255 256c0 152 112 258 253 258c110 0 149 -63 163 -85h5v236c0 26 16 44 41 44zM668 699c31 0 47 -26 35 -59l-42 -122c-5 -12 -14 -19 -28 -19c-17 0 -27 14 -26 32l16 124
c2 31 20 44 45 44zM465 235v15c0 109 -58 182 -159 182c-103 0 -180 -76 -180 -181c0 -99 68 -182 177 -182c97 0 162 66 162 166z" />
    <glyph glyph-name="dcaron.ss01" horiz-adv-x="727" 
d="M299 423c-106 0 -173 -73 -173 -171c0 -93 60 -183 180 -183c102 0 159 62 159 164v426c0 26 16 43 41 43s40 -17 40 -43v-434c0 -136 -95 -232 -241 -232c-157 0 -261 111 -261 258c0 144 102 249 255 249h32c25 0 40 -14 40 -38c0 -25 -15 -39 -40 -39h-32zM707 627
l-42 -122c-5 -12 -14 -19 -28 -19c-17 0 -27 14 -26 32l16 124c2 31 20 44 45 44c31 0 47 -26 35 -59z" />
    <glyph glyph-name="dcroat" unicode="&#x111;" horiz-adv-x="668" 
d="M562 640c24 0 39 -14 39 -36s-15 -36 -39 -36h-35v-341c0 -134 -103 -234 -247 -234c-151 0 -255 109 -255 256c0 152 112 258 253 258c110 0 149 -63 163 -85h5v146h-64c-24 0 -39 14 -39 36s15 36 39 36h64v18c0 26 16 44 41 44s40 -18 40 -44v-18h35zM446 235v15
c0 109 -58 182 -159 182c-103 0 -180 -76 -180 -181c0 -99 68 -182 177 -182c97 0 162 66 162 166z" />
    <glyph glyph-name="dcroat.ss01" horiz-adv-x="687" 
d="M581 640c24 0 39 -14 39 -36s-15 -36 -39 -36h-35v-343c0 -136 -95 -232 -241 -232c-157 0 -261 111 -261 258c0 144 102 249 255 249h32c25 0 40 -14 40 -38c0 -25 -15 -39 -40 -39h-32c-106 0 -173 -73 -173 -171c0 -93 60 -183 180 -183c102 0 159 62 159 164v335h-64
c-24 0 -39 14 -39 36s15 36 39 36h64v19c0 26 16 43 41 43s40 -17 40 -43v-19h35z" />
    <glyph glyph-name="e" unicode="e" horiz-adv-x="557" 
d="M517 288c0 -44 -26 -71 -69 -71h-320c13 -86 75 -149 173 -149c49 0 91 16 119 31c24 12 44 11 57 -11c13 -21 8 -40 -16 -56c-33 -22 -93 -39 -156 -39c-163 0 -261 110 -261 256c0 152 104 258 244 258c132 0 229 -86 229 -219zM129 289h310c0 85 -67 143 -151 143
c-83 0 -144 -59 -159 -143z" />
    <glyph glyph-name="e.ss01" horiz-adv-x="566" 
d="M424 100c24 13 44 10 57 -12c12 -20 9 -38 -15 -55c-31 -23 -89 -40 -155 -40c-169 0 -267 110 -267 256c0 152 107 258 254 258c134 0 227 -86 227 -219c0 -44 -26 -72 -68 -72h-172c-25 0 -41 13 -41 37c0 25 16 37 41 37h163c0 83 -64 142 -150 142
c-102 0 -172 -78 -172 -182c0 -102 65 -182 182 -182c51 0 91 16 116 32z" />
    <glyph glyph-name="e.ss02" horiz-adv-x="566" 
d="M308 71c25 0 40 -13 40 -38s-15 -38 -40 -38c-160 0 -264 109 -264 255c0 150 108 257 253 257c136 0 228 -86 228 -219c0 -44 -26 -74 -68 -74h-130c-25 0 -42 13 -42 38c0 24 17 38 42 38h121c0 82 -64 142 -149 142c-103 0 -173 -78 -173 -182
c0 -100 69 -179 182 -179z" />
    <glyph glyph-name="eacute" unicode="&#xe9;" horiz-adv-x="557" 
d="M271 579c-19 -17 -39 -17 -56 2c-15 18 -12 39 8 55l88 74c19 16 39 15 55 -3c16 -19 12 -39 -7 -55zM517 288c0 -44 -26 -71 -69 -71h-320c13 -86 75 -149 173 -149c49 0 91 16 119 31c24 12 44 11 57 -11c13 -21 8 -40 -16 -56c-33 -22 -93 -39 -156 -39
c-163 0 -261 110 -261 256c0 152 104 258 244 258c132 0 229 -86 229 -219zM129 289h310c0 85 -67 143 -151 143c-83 0 -144 -59 -159 -143z" />
    <glyph glyph-name="eacute.ss01" horiz-adv-x="566" 
d="M319 710c19 16 39 15 55 -3c16 -19 12 -39 -7 -55l-88 -73c-19 -17 -39 -17 -56 2c-15 18 -12 39 8 55zM424 100c24 13 44 10 57 -12c12 -20 9 -38 -15 -55c-31 -23 -89 -40 -155 -40c-169 0 -267 110 -267 256c0 152 107 258 254 258c134 0 227 -86 227 -219
c0 -44 -26 -72 -68 -72h-172c-25 0 -41 13 -41 37c0 25 16 37 41 37h163c0 83 -64 142 -150 142c-102 0 -172 -78 -172 -182c0 -102 65 -182 182 -182c51 0 91 16 116 32z" />
    <glyph glyph-name="eacute.ss02" horiz-adv-x="566" 
d="M317 710c19 16 39 15 55 -3c16 -19 12 -39 -7 -55l-88 -73c-19 -17 -39 -17 -56 2c-15 18 -12 39 8 55zM308 71c25 0 40 -13 40 -38s-15 -38 -40 -38c-160 0 -264 109 -264 255c0 150 108 257 253 257c136 0 228 -86 228 -219c0 -44 -26 -74 -68 -74h-130
c-25 0 -42 13 -42 38c0 24 17 38 42 38h121c0 82 -64 142 -149 142c-103 0 -173 -78 -173 -182c0 -100 69 -179 182 -179z" />
    <glyph glyph-name="ebreve" unicode="&#x115;" horiz-adv-x="557" 
d="M290 565c-75 0 -113 39 -131 81c-13 25 -14 49 9 61c23 11 41 3 53 -18c13 -23 26 -54 69 -54c42 0 56 31 68 54c12 21 30 29 54 18c21 -11 22 -33 9 -61c-19 -42 -57 -81 -131 -81zM517 288c0 -44 -26 -71 -69 -71h-320c13 -86 75 -149 173 -149c49 0 91 16 119 31
c24 12 44 11 57 -11c13 -21 8 -40 -16 -56c-33 -22 -93 -39 -156 -39c-163 0 -261 110 -261 256c0 152 104 258 244 258c132 0 229 -86 229 -219zM129 289h310c0 85 -67 143 -151 143c-83 0 -144 -59 -159 -143z" />
    <glyph glyph-name="ebreve.ss01" horiz-adv-x="566" 
d="M420 707c21 -11 22 -33 9 -61c-19 -42 -57 -81 -131 -81c-75 0 -113 39 -131 81c-13 25 -14 49 9 61c23 11 41 3 53 -18c13 -23 26 -54 69 -54c42 0 56 31 68 54c12 21 30 29 54 18zM424 100c24 13 44 10 57 -12c12 -20 9 -38 -15 -55c-31 -23 -89 -40 -155 -40
c-169 0 -267 110 -267 256c0 152 107 258 254 258c134 0 227 -86 227 -219c0 -44 -26 -72 -68 -72h-172c-25 0 -41 13 -41 37c0 25 16 37 41 37h163c0 83 -64 142 -150 142c-102 0 -172 -78 -172 -182c0 -102 65 -182 182 -182c51 0 91 16 116 32z" />
    <glyph glyph-name="ebreve.ss02" horiz-adv-x="566" 
d="M418 707c21 -11 22 -33 9 -61c-19 -42 -57 -81 -131 -81c-75 0 -113 39 -131 81c-13 25 -14 49 9 61c23 11 41 3 53 -18c13 -23 26 -54 69 -54c42 0 56 31 68 54c12 21 30 29 54 18zM308 71c25 0 40 -13 40 -38s-15 -38 -40 -38c-160 0 -264 109 -264 255
c0 150 108 257 253 257c136 0 228 -86 228 -219c0 -44 -26 -74 -68 -74h-130c-25 0 -42 13 -42 38c0 24 17 38 42 38h121c0 82 -64 142 -149 142c-103 0 -173 -78 -173 -182c0 -100 69 -179 182 -179z" />
    <glyph glyph-name="ecaron" unicode="&#x11b;" horiz-adv-x="557" 
d="M184 648c-20 18 -24 39 -7 57c16 18 37 19 54 3l59 -62l59 62c15 17 38 15 54 -3s13 -39 -7 -57l-76 -68c-10 -9 -20 -14 -30 -14s-21 5 -30 14zM517 288c0 -44 -26 -71 -69 -71h-320c13 -86 75 -149 173 -149c49 0 91 16 119 31c24 12 44 11 57 -11
c13 -21 8 -40 -16 -56c-33 -22 -93 -39 -156 -39c-163 0 -261 110 -261 256c0 152 104 258 244 258c132 0 229 -86 229 -219zM129 289h310c0 85 -67 143 -151 143c-83 0 -144 -59 -159 -143z" />
    <glyph glyph-name="ecaron.ss01" horiz-adv-x="566" 
d="M411 705c16 -18 13 -39 -7 -57l-76 -68c-10 -9 -20 -14 -30 -14s-21 5 -30 14l-76 68c-20 18 -24 39 -7 57c16 18 37 19 54 3l59 -62l59 62c15 17 38 15 54 -3zM424 100c24 13 44 10 57 -12c12 -20 9 -38 -15 -55c-31 -23 -89 -40 -155 -40c-169 0 -267 110 -267 256
c0 152 107 258 254 258c134 0 227 -86 227 -219c0 -44 -26 -72 -68 -72h-172c-25 0 -41 13 -41 37c0 25 16 37 41 37h163c0 83 -64 142 -150 142c-102 0 -172 -78 -172 -182c0 -102 65 -182 182 -182c51 0 91 16 116 32z" />
    <glyph glyph-name="ecaron.ss02" horiz-adv-x="566" 
d="M409 705c16 -18 13 -39 -7 -57l-76 -68c-10 -9 -20 -14 -30 -14s-21 5 -30 14l-76 68c-20 18 -24 39 -7 57c16 18 37 19 54 3l59 -62l59 62c15 17 38 15 54 -3zM308 71c25 0 40 -13 40 -38s-15 -38 -40 -38c-160 0 -264 109 -264 255c0 150 108 257 253 257
c136 0 228 -86 228 -219c0 -44 -26 -74 -68 -74h-130c-25 0 -42 13 -42 38c0 24 17 38 42 38h121c0 82 -64 142 -149 142c-103 0 -173 -78 -173 -182c0 -100 69 -179 182 -179z" />
    <glyph glyph-name="ecircumflex" unicode="&#xea;" horiz-adv-x="557" 
d="M231 580c-17 -16 -38 -15 -54 3c-17 18 -13 39 7 57l76 68c9 9 20 14 30 14s20 -5 30 -14l76 -68c20 -18 23 -39 7 -57s-39 -20 -54 -3l-59 62zM517 288c0 -44 -26 -71 -69 -71h-320c13 -86 75 -149 173 -149c49 0 91 16 119 31c24 12 44 11 57 -11c13 -21 8 -40 -16 -56
c-33 -22 -93 -39 -156 -39c-163 0 -261 110 -261 256c0 152 104 258 244 258c132 0 229 -86 229 -219zM129 289h310c0 85 -67 143 -151 143c-83 0 -144 -59 -159 -143z" />
    <glyph glyph-name="ecircumflex.ss01" horiz-adv-x="566" 
d="M411 583c-16 -18 -39 -20 -54 -3l-59 62l-59 -62c-17 -16 -38 -15 -54 3c-17 18 -13 39 7 57l76 68c9 9 20 14 30 14s20 -5 30 -14l76 -68c20 -18 23 -39 7 -57zM424 100c24 13 44 10 57 -12c12 -20 9 -38 -15 -55c-31 -23 -89 -40 -155 -40c-169 0 -267 110 -267 256
c0 152 107 258 254 258c134 0 227 -86 227 -219c0 -44 -26 -72 -68 -72h-172c-25 0 -41 13 -41 37c0 25 16 37 41 37h163c0 83 -64 142 -150 142c-102 0 -172 -78 -172 -182c0 -102 65 -182 182 -182c51 0 91 16 116 32z" />
    <glyph glyph-name="ecircumflex.ss02" horiz-adv-x="566" 
d="M409 583c-16 -18 -39 -20 -54 -3l-59 62l-59 -62c-17 -16 -38 -15 -54 3c-17 18 -13 39 7 57l76 68c9 9 20 14 30 14s20 -5 30 -14l76 -68c20 -18 23 -39 7 -57zM308 71c25 0 40 -13 40 -38s-15 -38 -40 -38c-160 0 -264 109 -264 255c0 150 108 257 253 257
c136 0 228 -86 228 -219c0 -44 -26 -74 -68 -74h-130c-25 0 -42 13 -42 38c0 24 17 38 42 38h121c0 82 -64 142 -149 142c-103 0 -173 -78 -173 -182c0 -100 69 -179 182 -179z" />
    <glyph glyph-name="edieresis" unicode="&#xeb;" horiz-adv-x="557" 
d="M221 566c-26 0 -44 18 -44 43s18 43 44 43c25 0 43 -18 43 -43s-18 -43 -43 -43zM362 566c-26 0 -44 18 -44 43s18 43 44 43c25 0 43 -18 43 -43s-18 -43 -43 -43zM517 288c0 -44 -26 -71 -69 -71h-320c13 -86 75 -149 173 -149c49 0 91 16 119 31c24 12 44 11 57 -11
c13 -21 8 -40 -16 -56c-33 -22 -93 -39 -156 -39c-163 0 -261 110 -261 256c0 152 104 258 244 258c132 0 229 -86 229 -219zM129 289h310c0 85 -67 143 -151 143c-83 0 -144 -59 -159 -143z" />
    <glyph glyph-name="edieresis.ss01" horiz-adv-x="566" 
d="M229 566c-26 0 -44 18 -44 43s18 43 44 43c25 0 43 -18 43 -43s-18 -43 -43 -43zM370 566c-26 0 -44 18 -44 43s18 43 44 43c25 0 43 -18 43 -43s-18 -43 -43 -43zM424 100c24 13 44 10 57 -12c12 -20 9 -38 -15 -55c-31 -23 -89 -40 -155 -40c-169 0 -267 110 -267 256
c0 152 107 258 254 258c134 0 227 -86 227 -219c0 -44 -26 -72 -68 -72h-172c-25 0 -41 13 -41 37c0 25 16 37 41 37h163c0 83 -64 142 -150 142c-102 0 -172 -78 -172 -182c0 -102 65 -182 182 -182c51 0 91 16 116 32z" />
    <glyph glyph-name="edieresis.ss02" horiz-adv-x="566" 
d="M227 566c-26 0 -44 18 -44 43s18 43 44 43c25 0 43 -18 43 -43s-18 -43 -43 -43zM368 566c-26 0 -44 18 -44 43s18 43 44 43c25 0 43 -18 43 -43s-18 -43 -43 -43zM308 71c25 0 40 -13 40 -38s-15 -38 -40 -38c-160 0 -264 109 -264 255c0 150 108 257 253 257
c136 0 228 -86 228 -219c0 -44 -26 -74 -68 -74h-130c-25 0 -42 13 -42 38c0 24 17 38 42 38h121c0 82 -64 142 -149 142c-103 0 -173 -78 -173 -182c0 -100 69 -179 182 -179z" />
    <glyph glyph-name="edotaccent" unicode="&#x117;" horiz-adv-x="557" 
d="M290 555c-30 0 -51 22 -51 51s21 52 51 52s51 -23 51 -52s-21 -51 -51 -51zM517 288c0 -44 -26 -71 -69 -71h-320c13 -86 75 -149 173 -149c49 0 91 16 119 31c24 12 44 11 57 -11c13 -21 8 -40 -16 -56c-33 -22 -93 -39 -156 -39c-163 0 -261 110 -261 256
c0 152 104 258 244 258c132 0 229 -86 229 -219zM129 289h310c0 85 -67 143 -151 143c-83 0 -144 -59 -159 -143z" />
    <glyph glyph-name="edotaccent.ss01" horiz-adv-x="566" 
d="M298 555c-30 0 -51 22 -51 51s21 52 51 52s51 -23 51 -52s-21 -51 -51 -51zM424 100c24 13 44 10 57 -12c12 -20 9 -38 -15 -55c-31 -23 -89 -40 -155 -40c-169 0 -267 110 -267 256c0 152 107 258 254 258c134 0 227 -86 227 -219c0 -44 -26 -72 -68 -72h-172
c-25 0 -41 13 -41 37c0 25 16 37 41 37h163c0 83 -64 142 -150 142c-102 0 -172 -78 -172 -182c0 -102 65 -182 182 -182c51 0 91 16 116 32z" />
    <glyph glyph-name="edotaccent.ss02" horiz-adv-x="566" 
d="M296 555c-30 0 -51 22 -51 51s21 52 51 52s51 -23 51 -52s-21 -51 -51 -51zM308 71c25 0 40 -13 40 -38s-15 -38 -40 -38c-160 0 -264 109 -264 255c0 150 108 257 253 257c136 0 228 -86 228 -219c0 -44 -26 -74 -68 -74h-130c-25 0 -42 13 -42 38c0 24 17 38 42 38h121
c0 82 -64 142 -149 142c-103 0 -173 -78 -173 -182c0 -100 69 -179 182 -179z" />
    <glyph glyph-name="egrave" unicode="&#xe8;" horiz-adv-x="557" 
d="M221 652c-19 16 -23 36 -7 55c16 18 36 19 55 3l88 -74c20 -16 23 -37 8 -55c-17 -19 -37 -19 -56 -2zM517 288c0 -44 -26 -71 -69 -71h-320c13 -86 75 -149 173 -149c49 0 91 16 119 31c24 12 44 11 57 -11c13 -21 8 -40 -16 -56c-33 -22 -93 -39 -156 -39
c-163 0 -261 110 -261 256c0 152 104 258 244 258c132 0 229 -86 229 -219zM129 289h310c0 85 -67 143 -151 143c-83 0 -144 -59 -159 -143z" />
    <glyph glyph-name="egrave.ss01" horiz-adv-x="566" 
d="M277 710l88 -74c20 -16 23 -37 8 -55c-17 -19 -37 -19 -56 -2l-88 73c-19 16 -23 36 -7 55c16 18 36 19 55 3zM424 100c24 13 44 10 57 -12c12 -20 9 -38 -15 -55c-31 -23 -89 -40 -155 -40c-169 0 -267 110 -267 256c0 152 107 258 254 258c134 0 227 -86 227 -219
c0 -44 -26 -72 -68 -72h-172c-25 0 -41 13 -41 37c0 25 16 37 41 37h163c0 83 -64 142 -150 142c-102 0 -172 -78 -172 -182c0 -102 65 -182 182 -182c51 0 91 16 116 32z" />
    <glyph glyph-name="egrave.ss02" horiz-adv-x="566" 
d="M275 710l88 -74c20 -16 23 -37 8 -55c-17 -19 -37 -19 -56 -2l-88 73c-19 16 -23 36 -7 55c16 18 36 19 55 3zM308 71c25 0 40 -13 40 -38s-15 -38 -40 -38c-160 0 -264 109 -264 255c0 150 108 257 253 257c136 0 228 -86 228 -219c0 -44 -26 -74 -68 -74h-130
c-25 0 -42 13 -42 38c0 24 17 38 42 38h121c0 82 -64 142 -149 142c-103 0 -173 -78 -173 -182c0 -100 69 -179 182 -179z" />
    <glyph glyph-name="emacron" unicode="&#x113;" horiz-adv-x="557" 
d="M203 567c-24 0 -39 15 -39 36s15 36 39 36h174c24 0 39 -15 39 -36s-15 -36 -39 -36h-174zM517 288c0 -44 -26 -71 -69 -71h-320c13 -86 75 -149 173 -149c49 0 91 16 119 31c24 12 44 11 57 -11c13 -21 8 -40 -16 -56c-33 -22 -93 -39 -156 -39
c-163 0 -261 110 -261 256c0 152 104 258 244 258c132 0 229 -86 229 -219zM129 289h310c0 85 -67 143 -151 143c-83 0 -144 -59 -159 -143z" />
    <glyph glyph-name="emacron.ss01" horiz-adv-x="566" 
d="M424 603c0 -21 -15 -36 -39 -36h-174c-24 0 -39 15 -39 36s15 36 39 36h174c24 0 39 -15 39 -36zM424 100c24 13 44 10 57 -12c12 -20 9 -38 -15 -55c-31 -23 -89 -40 -155 -40c-169 0 -267 110 -267 256c0 152 107 258 254 258c134 0 227 -86 227 -219
c0 -44 -26 -72 -68 -72h-172c-25 0 -41 13 -41 37c0 25 16 37 41 37h163c0 83 -64 142 -150 142c-102 0 -172 -78 -172 -182c0 -102 65 -182 182 -182c51 0 91 16 116 32z" />
    <glyph glyph-name="emacron.ss02" horiz-adv-x="566" 
d="M422 603c0 -21 -15 -36 -39 -36h-174c-24 0 -39 15 -39 36s15 36 39 36h174c24 0 39 -15 39 -36zM308 71c25 0 40 -13 40 -38s-15 -38 -40 -38c-160 0 -264 109 -264 255c0 150 108 257 253 257c136 0 228 -86 228 -219c0 -44 -26 -74 -68 -74h-130c-25 0 -42 13 -42 38
c0 24 17 38 42 38h121c0 82 -64 142 -149 142c-103 0 -173 -78 -173 -182c0 -100 69 -179 182 -179z" />
    <glyph glyph-name="eogonek" unicode="&#x119;" horiz-adv-x="557" 
d="M517 288c0 -44 -26 -71 -69 -71h-320c13 -86 75 -149 173 -149c49 0 91 16 119 31c24 12 44 11 57 -11c13 -21 8 -40 -16 -56c-21 -14 -51 -25 -87 -32c-40 -12 -58 -42 -54 -67c3 -22 20 -29 36 -29c12 0 26 6 34 9c13 5 28 2 37 -19c8 -20 3 -34 -16 -45
c-13 -7 -34 -14 -59 -14c-46 0 -87 23 -91 73c-3 33 10 63 37 85c-159 3 -254 112 -254 256c0 152 104 258 244 258c132 0 229 -86 229 -219zM129 289h310c0 85 -67 143 -151 143c-83 0 -144 -59 -159 -143z" />
    <glyph glyph-name="eogonek.ss01" horiz-adv-x="566" 
d="M244 253c0 25 16 37 41 37h163c0 83 -64 142 -150 142c-102 0 -172 -78 -172 -182c0 -102 65 -182 182 -182c51 0 91 16 116 32c24 13 44 10 57 -12c12 -20 9 -38 -15 -55c-18 -13 -45 -25 -78 -32c-46 -10 -67 -42 -63 -69c3 -22 20 -29 36 -29c12 0 26 6 34 9
c13 5 28 2 37 -19c8 -20 3 -34 -16 -45c-13 -7 -34 -14 -59 -14c-46 0 -87 23 -91 73c-3 33 11 64 38 86c-165 3 -260 112 -260 256c0 152 107 258 254 258c134 0 227 -86 227 -219c0 -44 -26 -72 -68 -72h-172c-25 0 -41 13 -41 37z" />
    <glyph glyph-name="eogonek.ss02" horiz-adv-x="566" 
d="M297 507c136 0 228 -86 228 -219c0 -44 -26 -74 -68 -74h-130c-25 0 -42 13 -42 38c0 24 17 38 42 38h121c0 82 -64 142 -149 142c-103 0 -173 -78 -173 -182c0 -100 69 -179 182 -179c25 0 40 -13 40 -38c0 -15 -5 -26 -15 -32h-1c-5 -3 -11 -5 -18 -6
c-33 -13 -47 -40 -44 -63c3 -22 20 -29 36 -29c12 0 26 6 34 9c13 5 28 2 37 -19c8 -20 3 -34 -16 -45c-13 -7 -34 -14 -59 -14c-46 0 -87 23 -91 73c-3 36 14 69 46 92c-131 21 -213 121 -213 251c0 150 108 257 253 257z" />
    <glyph glyph-name="f" unicode="f" horiz-adv-x="417" 
d="M304 627c-71 0 -92 -34 -93 -115v-12h110c25 0 42 -14 42 -37c0 -24 -17 -38 -42 -38h-110v-382c0 -26 -15 -43 -40 -43s-40 17 -40 43v382h-56c-25 0 -42 14 -42 38c0 23 17 37 42 37h56v14c2 121 50 188 172 188h40c25 0 40 -14 40 -37c0 -24 -15 -38 -40 -38h-39z" />
    <glyph glyph-name="f.ss01" horiz-adv-x="394" 
d="M321 702c25 0 40 -14 40 -37c0 -24 -15 -38 -40 -38h-54c-79 0 -116 -45 -116 -136v-448c0 -26 -15 -43 -40 -43s-40 17 -40 43v450c0 129 67 209 194 209h56zM299 500c25 0 42 -14 42 -40s-17 -39 -42 -39h-57c-26 0 -43 13 -43 39s17 40 43 40h57z" />
    <glyph glyph-name="g" unicode="g" horiz-adv-x="602" 
d="M292 507c143 0 243 -98 243 -236v-193c0 -135 -106 -230 -262 -230c-47 0 -102 10 -127 22c-19 8 -31 20 -23 47c10 31 31 29 47 25c28 -8 54 -19 98 -19c126 0 188 69 188 168v25h-6c-31 -57 -88 -97 -173 -97c-138 0 -233 102 -233 246c0 143 105 242 248 242zM288 94
c99 0 168 75 168 162v4c0 97 -60 172 -165 172c-103 0 -165 -75 -165 -169c0 -95 54 -169 162 -169z" />
    <glyph glyph-name="g.ss01" horiz-adv-x="622" 
d="M307 77c26 0 41 -14 41 -39c0 -24 -15 -38 -41 -38c-159 0 -263 113 -263 253s105 254 266 254c145 0 245 -92 245 -227v-210c0 -116 -76 -192 -149 -214c-29 -8 -47 1 -55 23c-9 28 11 41 29 50c56 24 95 71 95 148v187c0 100 -59 167 -166 167
c-121 0 -183 -90 -183 -178c0 -94 68 -176 181 -176z" />
    <glyph glyph-name="gbreve" unicode="&#x11f;" horiz-adv-x="602" 
d="M292 565c-75 0 -113 39 -131 81c-13 25 -14 49 9 61c23 11 41 3 53 -18c13 -23 26 -54 69 -54c42 0 56 31 68 54c12 21 30 29 54 18c21 -11 22 -33 9 -61c-19 -42 -57 -81 -131 -81zM292 507c143 0 243 -98 243 -236v-193c0 -135 -106 -230 -262 -230
c-47 0 -102 10 -127 22c-19 8 -31 20 -23 47c10 31 31 29 47 25c28 -8 54 -19 98 -19c126 0 188 69 188 168v25h-6c-31 -57 -88 -97 -173 -97c-138 0 -233 102 -233 246c0 143 105 242 248 242zM288 94c99 0 168 75 168 162v4c0 97 -60 172 -165 172
c-103 0 -165 -75 -165 -169c0 -95 54 -169 162 -169z" />
    <glyph glyph-name="gbreve.ss01" horiz-adv-x="622" 
d="M432 707c21 -11 22 -33 9 -61c-19 -42 -57 -81 -131 -81c-75 0 -113 39 -131 81c-13 25 -14 49 9 61c23 11 41 3 53 -18c13 -23 26 -54 69 -54c42 0 56 31 68 54c12 21 30 29 54 18zM307 77c26 0 41 -14 41 -39c0 -24 -15 -38 -41 -38c-159 0 -263 113 -263 253
s105 254 266 254c145 0 245 -92 245 -227v-210c0 -116 -76 -192 -149 -214c-29 -8 -47 1 -55 23c-9 28 11 41 29 50c56 24 95 71 95 148v187c0 100 -59 167 -166 167c-121 0 -183 -90 -183 -178c0 -94 68 -176 181 -176z" />
    <glyph glyph-name="uni0123" unicode="&#x123;" horiz-adv-x="602" 
d="M263 567c-20 10 -27 34 -13 57l49 90c8 15 24 19 39 13c13 -6 17 -19 14 -34l-30 -96c-8 -32 -35 -41 -59 -30zM292 507c143 0 243 -98 243 -236v-193c0 -135 -106 -230 -262 -230c-47 0 -102 10 -127 22c-19 8 -31 20 -23 47c10 31 31 29 47 25c28 -8 54 -19 98 -19
c126 0 188 69 188 168v25h-6c-31 -57 -88 -97 -173 -97c-138 0 -233 102 -233 246c0 143 105 242 248 242zM288 94c99 0 168 75 168 162v4c0 97 -60 172 -165 172c-103 0 -165 -75 -165 -169c0 -95 54 -169 162 -169z" />
    <glyph glyph-name="uni0123.ss01" horiz-adv-x="622" 
d="M268 624l49 90c8 15 24 19 39 13c13 -6 17 -19 14 -34l-30 -96c-8 -32 -35 -41 -59 -30c-20 10 -27 34 -13 57zM307 77c26 0 41 -14 41 -39c0 -24 -15 -38 -41 -38c-159 0 -263 113 -263 253s105 254 266 254c145 0 245 -92 245 -227v-210c0 -116 -76 -192 -149 -214
c-29 -8 -47 1 -55 23c-9 28 11 41 29 50c56 24 95 71 95 148v187c0 100 -59 167 -166 167c-121 0 -183 -90 -183 -178c0 -94 68 -176 181 -176z" />
    <glyph glyph-name="gdotaccent" unicode="&#x121;" horiz-adv-x="602" 
d="M292 555c-30 0 -51 22 -51 51s21 52 51 52s51 -23 51 -52s-21 -51 -51 -51zM292 507c143 0 243 -98 243 -236v-193c0 -135 -106 -230 -262 -230c-47 0 -102 10 -127 22c-19 8 -31 20 -23 47c10 31 31 29 47 25c28 -8 54 -19 98 -19c126 0 188 69 188 168v25h-6
c-31 -57 -88 -97 -173 -97c-138 0 -233 102 -233 246c0 143 105 242 248 242zM288 94c99 0 168 75 168 162v4c0 97 -60 172 -165 172c-103 0 -165 -75 -165 -169c0 -95 54 -169 162 -169z" />
    <glyph glyph-name="gdotaccent.ss01" horiz-adv-x="622" 
d="M310 555c-30 0 -51 22 -51 51s21 52 51 52s51 -23 51 -52s-21 -51 -51 -51zM307 77c26 0 41 -14 41 -39c0 -24 -15 -38 -41 -38c-159 0 -263 113 -263 253s105 254 266 254c145 0 245 -92 245 -227v-210c0 -116 -76 -192 -149 -214c-29 -8 -47 1 -55 23
c-9 28 11 41 29 50c56 24 95 71 95 148v187c0 100 -59 167 -166 167c-121 0 -183 -90 -183 -178c0 -94 68 -176 181 -176z" />
    <glyph glyph-name="h" unicode="h" horiz-adv-x="573" 
d="M308 507c110 0 198 -59 198 -196v-268c0 -26 -15 -43 -40 -43s-40 17 -40 43v256c0 102 -53 132 -131 132c-109 0 -148 -68 -148 -113v-275c0 -26 -15 -43 -40 -43s-40 17 -40 43v616c0 26 15 43 40 43s40 -17 40 -43v-229h6c23 39 74 77 155 77z" />
    <glyph glyph-name="hbar" unicode="&#x127;" horiz-adv-x="610" 
d="M345 507c110 0 198 -59 198 -196v-268c0 -26 -15 -43 -40 -43s-40 17 -40 43v256c0 102 -53 132 -131 132c-109 0 -148 -68 -148 -113v-275c0 -26 -15 -43 -40 -43s-40 17 -40 43v525h-43c-24 0 -39 14 -39 36s15 36 39 36h43v19c0 26 15 43 40 43s40 -17 40 -43v-19h57
c24 0 39 -14 39 -36s-15 -36 -39 -36h-57v-138h6c23 39 74 77 155 77z" />
    <glyph glyph-name="i" unicode="i" horiz-adv-x="231" 
d="M115 601c-30 0 -51 21 -51 51s21 51 51 51c31 0 52 -21 52 -51s-21 -51 -52 -51zM115 500c25 0 41 -17 41 -43v-414c0 -26 -16 -43 -41 -43c-24 0 -40 17 -40 43v414c0 26 16 43 40 43z" />
    <glyph glyph-name="dotlessi" unicode="&#x131;" horiz-adv-x="224" 
d="M112 500c25 0 41 -17 41 -43v-414c0 -26 -16 -43 -41 -43s-40 17 -40 43v414c0 26 15 43 40 43z" />
    <glyph glyph-name="iacute" unicode="&#xed;" horiz-adv-x="224" 
d="M133 734c19 16 39 15 55 -3c16 -19 12 -39 -7 -55l-88 -73c-19 -17 -39 -17 -56 2c-15 18 -12 39 8 55zM112 500c25 0 41 -17 41 -43v-414c0 -26 -16 -43 -41 -43s-40 17 -40 43v414c0 26 15 43 40 43z" />
    <glyph glyph-name="ibreve" unicode="&#x12d;" horiz-adv-x="224" 
d="M234 731c21 -11 22 -33 9 -61c-19 -42 -57 -81 -131 -81c-75 0 -113 39 -131 81c-13 25 -14 49 9 61c23 11 41 3 53 -18c13 -23 26 -54 69 -54c42 0 56 31 68 54c12 21 30 29 54 18zM112 500c25 0 41 -17 41 -43v-414c0 -26 -16 -43 -41 -43s-40 17 -40 43v414
c0 26 15 43 40 43z" />
    <glyph glyph-name="icircumflex" unicode="&#xee;" horiz-adv-x="224" 
d="M225 607c-16 -18 -39 -20 -54 -3l-59 62l-59 -62c-17 -16 -38 -15 -54 3c-17 18 -13 39 7 57l76 68c9 9 20 14 30 14s20 -5 30 -14l76 -68c20 -18 23 -39 7 -57zM112 500c25 0 41 -17 41 -43v-414c0 -26 -16 -43 -41 -43s-40 17 -40 43v414c0 26 15 43 40 43z" />
    <glyph glyph-name="idieresis" unicode="&#xef;" horiz-adv-x="224" 
d="M43 590c-26 0 -44 18 -44 43s18 43 44 43c25 0 43 -18 43 -43s-18 -43 -43 -43zM184 590c-26 0 -44 18 -44 43s18 43 44 43c25 0 43 -18 43 -43s-18 -43 -43 -43zM112 500c25 0 41 -17 41 -43v-414c0 -26 -16 -43 -41 -43s-40 17 -40 43v414c0 26 15 43 40 43z" />
    <glyph glyph-name="i.loclTRK" horiz-adv-x="224" 
d="M112 579c-30 0 -51 22 -51 51s21 52 51 52s51 -23 51 -52s-21 -51 -51 -51zM112 500c25 0 41 -17 41 -43v-414c0 -26 -16 -43 -41 -43s-40 17 -40 43v414c0 26 15 43 40 43z" />
    <glyph glyph-name="igrave" unicode="&#xec;" horiz-adv-x="224" 
d="M91 734l88 -74c20 -16 23 -37 8 -55c-17 -19 -37 -19 -56 -2l-88 73c-19 16 -23 36 -7 55c16 18 36 19 55 3zM112 500c25 0 41 -17 41 -43v-414c0 -26 -16 -43 -41 -43s-40 17 -40 43v414c0 26 15 43 40 43z" />
    <glyph glyph-name="imacron" unicode="&#x12b;" horiz-adv-x="224" 
d="M212 627c0 -21 -15 -36 -39 -36h-122c-24 0 -39 15 -39 36s15 36 39 36h122c24 0 39 -15 39 -36zM112 500c25 0 41 -17 41 -43v-414c0 -26 -16 -43 -41 -43s-40 17 -40 43v414c0 26 15 43 40 43z" />
    <glyph glyph-name="iogonek" unicode="&#x12f;" horiz-adv-x="233" 
d="M115 601c-30 0 -51 21 -51 51s21 51 51 51c31 0 52 -21 52 -51s-21 -51 -52 -51zM171 -106c8 -20 3 -34 -16 -45c-13 -7 -34 -14 -59 -14c-46 0 -87 23 -91 73c-4 46 25 88 77 109c-5 7 -7 16 -7 26v414c0 26 16 43 40 43c25 0 41 -17 41 -43v-414c0 -24 -14 -41 -36 -43
c-41 -11 -60 -41 -56 -67c3 -22 20 -29 36 -29c12 0 26 6 34 9c13 5 28 2 37 -19z" />
    <glyph glyph-name="itilde" unicode="&#x129;" horiz-adv-x="224" 
d="M225 660c14 -17 8 -35 -9 -52c-32 -31 -62 -32 -107 -9c-38 21 -41 11 -61 -4c-16 -12 -37 -7 -48 10c-12 16 -8 33 9 50c30 31 69 32 105 12c40 -23 42 -13 61 1s39 8 50 -8zM112 500c25 0 41 -17 41 -43v-414c0 -26 -16 -43 -41 -43s-40 17 -40 43v414
c0 26 15 43 40 43z" />
    <glyph glyph-name="j" unicode="j" horiz-adv-x="248" 
d="M130 601c-30 0 -51 21 -51 51s21 51 51 51s51 -21 51 -51s-21 -51 -51 -51zM130 500c25 0 40 -17 40 -43v-385c0 -112 -62 -172 -133 -198c-23 -8 -45 1 -53 23c-7 22 3 38 27 50c50 23 79 58 79 130v380c0 26 15 43 40 43z" />
    <glyph glyph-name="uni0237" unicode="&#x237;" horiz-adv-x="237" 
d="M130 500c25 0 40 -17 40 -43v-385c0 -112 -62 -172 -133 -198c-23 -8 -45 1 -53 23c-7 22 3 38 27 50c50 23 79 58 79 130v380c0 26 15 43 40 43z" />
    <glyph glyph-name="uni006A0301" horiz-adv-x="237" 
d="M147 710c19 16 39 15 55 -3c16 -19 12 -39 -7 -55l-88 -73c-19 -17 -39 -17 -56 2c-15 18 -12 39 8 55zM130 500c25 0 40 -17 40 -43v-385c0 -112 -62 -172 -133 -198c-23 -8 -45 1 -53 23c-7 22 3 38 27 50c50 23 79 58 79 130v380c0 26 15 43 40 43z" />
    <glyph glyph-name="k" unicode="k" horiz-adv-x="482" 
d="M439 54c9 -25 -1 -46 -27 -52c-22 -7 -41 7 -51 31l-55 126c-18 42 -38 70 -101 70h-58v-186c0 -26 -15 -43 -40 -43s-40 17 -40 43v616c0 26 15 43 40 43s40 -17 40 -43v-355h51c56 0 72 27 90 62l53 102c10 24 26 37 50 30c23 -6 37 -26 27 -52l-50 -99
c-13 -29 -32 -61 -68 -74c44 -11 66 -45 81 -82z" />
    <glyph glyph-name="k.ss01" horiz-adv-x="500" 
d="M107 702c25 0 40 -17 40 -43v-616c0 -26 -15 -43 -40 -43s-40 17 -40 43v616c0 26 15 43 40 43zM456 54c10 -25 0 -46 -26 -52c-23 -7 -41 7 -51 31l-55 126c-18 42 -38 69 -101 69c-26 0 -41 14 -41 39s15 38 41 38c49 0 65 26 83 61l52 102c11 24 27 37 51 30
c23 -6 37 -26 26 -52l-49 -99c-14 -29 -32 -61 -69 -74c45 -11 67 -45 82 -82z" />
    <glyph glyph-name="uni0137" unicode="&#x137;" horiz-adv-x="482" 
d="M439 54c9 -25 -1 -46 -27 -52c-22 -7 -41 7 -51 31l-55 126c-18 42 -38 70 -101 70h-58v-186c0 -26 -15 -43 -40 -43s-40 17 -40 43v616c0 26 15 43 40 43s40 -17 40 -43v-355h51c56 0 72 27 90 62l53 102c10 24 26 37 50 30c23 -6 37 -26 27 -52l-50 -99
c-13 -29 -32 -61 -68 -74c44 -11 66 -45 81 -82zM269 -42c22 0 37 -14 37 -36c0 -9 -2 -14 -10 -25l-52 -77c-5 -8 -11 -13 -20 -13c-14 0 -23 11 -23 22c0 2 0 4 2 8l24 86c7 28 25 35 42 35z" />
    <glyph glyph-name="uni0137.ss01" horiz-adv-x="500" 
d="M107 702c25 0 40 -17 40 -43v-616c0 -26 -15 -43 -40 -43s-40 17 -40 43v616c0 26 15 43 40 43zM456 54c10 -25 0 -46 -26 -52c-23 -7 -41 7 -51 31l-55 126c-18 42 -38 69 -101 69c-26 0 -41 14 -41 39s15 38 41 38c49 0 65 26 83 61l52 102c11 24 27 37 51 30
c23 -6 37 -26 26 -52l-49 -99c-14 -29 -32 -61 -69 -74c45 -11 67 -45 82 -82zM283 -103l-52 -77c-5 -8 -11 -13 -20 -13c-14 0 -23 11 -23 22c0 2 0 4 2 8l24 86c7 28 25 35 42 35c22 0 37 -14 37 -36c0 -9 -2 -14 -10 -25z" />
    <glyph glyph-name="l" unicode="l" horiz-adv-x="222" 
d="M111 702c25 0 40 -17 40 -43v-616c0 -26 -15 -43 -40 -43s-40 17 -40 43v616c0 26 15 43 40 43z" />
    <glyph glyph-name="lacute" unicode="&#x13a;" horiz-adv-x="222" 
d="M132 901c19 16 39 15 55 -3c16 -19 12 -39 -7 -55l-88 -73c-19 -17 -39 -17 -56 2c-15 18 -12 39 8 55zM111 702c25 0 40 -17 40 -43v-616c0 -26 -15 -43 -40 -43s-40 17 -40 43v616c0 26 15 43 40 43z" />
    <glyph glyph-name="lcaron" unicode="&#x13e;" horiz-adv-x="338" 
d="M111 702c25 0 40 -17 40 -43v-616c0 -26 -15 -43 -40 -43s-40 17 -40 43v616c0 26 15 43 40 43zM318 627l-42 -122c-5 -12 -14 -19 -28 -19c-17 0 -27 14 -26 32l16 124c2 31 20 44 45 44c31 0 47 -26 35 -59z" />
    <glyph glyph-name="uni013C" unicode="&#x13c;" horiz-adv-x="222" 
d="M111 702c25 0 40 -17 40 -43v-616c0 -26 -15 -43 -40 -43s-40 17 -40 43v616c0 26 15 43 40 43zM143 -103l-52 -77c-5 -8 -11 -13 -20 -13c-14 0 -23 11 -23 22c0 2 0 4 2 8l24 86c7 28 25 35 42 35c22 0 37 -14 37 -36c0 -9 -2 -14 -10 -25z" />
    <glyph glyph-name="ldot" unicode="&#x140;" horiz-adv-x="391" 
d="M111 702c25 0 40 -17 40 -43v-616c0 -26 -15 -43 -40 -43s-40 17 -40 43v616c0 26 15 43 40 43zM289 292c-30 0 -53 24 -53 53c0 30 23 54 53 54s53 -24 53 -54c0 -29 -23 -53 -53 -53z" />
    <glyph glyph-name="lslash" unicode="&#x142;" horiz-adv-x="275" 
d="M258 470c14 -18 12 -41 -9 -58l-73 -61v-308c0 -26 -15 -43 -40 -43s-40 17 -40 43v241l-21 -18c-21 -17 -44 -16 -58 1c-14 19 -12 42 8 58l71 60v274c0 26 15 43 40 43s40 -17 40 -43v-207l23 19c21 18 44 17 59 -1z" />
    <glyph glyph-name="m" unicode="m" horiz-adv-x="812" 
d="M572 507c97 0 173 -62 173 -161v-303c0 -26 -16 -43 -40 -43c-25 0 -41 17 -41 43v293c0 64 -40 97 -103 97c-59 0 -115 -31 -115 -91v-299c0 -26 -15 -43 -40 -43s-41 17 -41 43v293c0 64 -46 97 -103 97c-59 0 -115 -36 -115 -96v-294c0 -26 -15 -43 -40 -43
s-40 17 -40 43v414c0 26 15 43 40 43c24 0 39 -15 40 -39v-16h5c15 23 67 62 128 62c50 0 107 -24 136 -69c30 39 84 69 156 69z" />
    <glyph glyph-name="m.ss01" horiz-adv-x="796" 
d="M543 507c84 0 186 -41 186 -188v-276c0 -26 -15 -43 -40 -43s-41 17 -41 43v268c0 100 -60 120 -105 120c-44 0 -105 -20 -105 -120v-268c0 -26 -15 -43 -40 -43s-41 17 -41 43v268c0 100 -60 120 -105 120c-44 0 -105 -20 -105 -120v-268c0 -26 -15 -43 -40 -43
s-40 17 -40 43v276c0 147 102 188 185 188c69 0 126 -41 146 -87c20 46 77 87 145 87z" />
    <glyph glyph-name="m.ss02" horiz-adv-x="734" 
d="M307 467c0 -25 -16 -39 -42 -39c-62 0 -118 -44 -118 -124v-261c0 -26 -15 -43 -40 -43s-40 17 -40 43v265c0 117 95 197 198 197c26 0 42 -14 42 -38zM427 467c0 24 16 38 42 38c103 0 198 -80 198 -197v-265c0 -26 -15 -43 -40 -43s-40 17 -40 43v261
c0 80 -56 124 -118 124c-26 0 -42 14 -42 39zM367 423c23 0 39 -16 39 -41v-341c0 -25 -16 -41 -39 -41s-39 16 -39 41v341c0 25 16 41 39 41z" />
    <glyph glyph-name="n" unicode="n" horiz-adv-x="573" 
d="M309 507c109 0 197 -59 197 -196v-268c0 -26 -15 -43 -40 -43s-40 17 -40 43v256c0 102 -53 132 -130 132c-110 0 -149 -68 -149 -113v-275c0 -26 -15 -43 -40 -43s-40 17 -40 43v414c0 26 15 43 40 43s40 -17 40 -42v-27h6c27 36 77 76 156 76z" />
    <glyph glyph-name="n.ss01" horiz-adv-x="575" 
d="M468 0c-25 0 -41 17 -41 43v243c0 99 -64 145 -140 145c-75 0 -140 -46 -140 -145v-243c0 -26 -15 -43 -40 -43s-40 17 -40 43v251c0 147 105 213 220 213s221 -66 221 -213v-251c0 -26 -15 -43 -40 -43z" />
    <glyph glyph-name="nacute" unicode="&#x144;" horiz-adv-x="573" 
d="M308 710c19 16 39 15 55 -3c16 -19 12 -39 -7 -55l-88 -73c-19 -17 -39 -17 -56 2c-15 18 -12 39 8 55zM309 507c109 0 197 -59 197 -196v-268c0 -26 -15 -43 -40 -43s-40 17 -40 43v256c0 102 -53 132 -130 132c-110 0 -149 -68 -149 -113v-275c0 -26 -15 -43 -40 -43
s-40 17 -40 43v414c0 26 15 43 40 43s40 -17 40 -42v-27h6c27 36 77 76 156 76z" />
    <glyph glyph-name="nacute.ss01" horiz-adv-x="575" 
d="M308 710c19 16 39 15 55 -3c16 -19 12 -39 -7 -55l-88 -73c-19 -17 -39 -17 -56 2c-15 18 -12 39 8 55zM468 0c-25 0 -41 17 -41 43v243c0 99 -64 145 -140 145c-75 0 -140 -46 -140 -145v-243c0 -26 -15 -43 -40 -43s-40 17 -40 43v251c0 147 105 213 220 213
s221 -66 221 -213v-251c0 -26 -15 -43 -40 -43z" />
    <glyph glyph-name="ncaron" unicode="&#x148;" horiz-adv-x="573" 
d="M400 705c16 -18 13 -39 -7 -57l-76 -68c-10 -9 -20 -14 -30 -14s-21 5 -30 14l-76 68c-20 18 -24 39 -7 57c16 18 37 19 54 3l59 -62l59 62c15 17 38 15 54 -3zM309 507c109 0 197 -59 197 -196v-268c0 -26 -15 -43 -40 -43s-40 17 -40 43v256c0 102 -53 132 -130 132
c-110 0 -149 -68 -149 -113v-275c0 -26 -15 -43 -40 -43s-40 17 -40 43v414c0 26 15 43 40 43s40 -17 40 -42v-27h6c27 36 77 76 156 76z" />
    <glyph glyph-name="ncaron.ss01" horiz-adv-x="575" 
d="M400 705c16 -18 13 -39 -7 -57l-76 -68c-10 -9 -20 -14 -30 -14s-21 5 -30 14l-76 68c-20 18 -24 39 -7 57c16 18 37 19 54 3l59 -62l59 62c15 17 38 15 54 -3zM468 0c-25 0 -41 17 -41 43v243c0 99 -64 145 -140 145c-75 0 -140 -46 -140 -145v-243
c0 -26 -15 -43 -40 -43s-40 17 -40 43v251c0 147 105 213 220 213s221 -66 221 -213v-251c0 -26 -15 -43 -40 -43z" />
    <glyph glyph-name="uni0146" unicode="&#x146;" horiz-adv-x="573" 
d="M309 507c109 0 197 -59 197 -196v-268c0 -26 -15 -43 -40 -43s-40 17 -40 43v256c0 102 -53 132 -130 132c-110 0 -149 -68 -149 -113v-275c0 -26 -15 -43 -40 -43s-40 17 -40 43v414c0 26 15 43 40 43s40 -17 40 -42v-27h6c27 36 77 76 156 76zM332 -103l-52 -77
c-5 -8 -11 -13 -20 -13c-14 0 -23 11 -23 22c0 2 0 4 2 8l24 86c7 28 25 35 42 35c22 0 37 -14 37 -36c0 -9 -2 -14 -10 -25z" />
    <glyph glyph-name="uni0146.ss01" horiz-adv-x="575" 
d="M468 0c-25 0 -41 17 -41 43v243c0 99 -64 145 -140 145c-75 0 -140 -46 -140 -145v-243c0 -26 -15 -43 -40 -43s-40 17 -40 43v251c0 147 105 213 220 213s221 -66 221 -213v-251c0 -26 -15 -43 -40 -43zM332 -103l-52 -77c-5 -8 -11 -13 -20 -13c-14 0 -23 11 -23 22
c0 2 0 4 2 8l24 86c7 28 25 35 42 35c22 0 37 -14 37 -36c0 -9 -2 -14 -10 -25z" />
    <glyph glyph-name="eng" unicode="&#x14b;" horiz-adv-x="573" 
d="M309 507c109 0 197 -59 197 -196v-267c0 -85 -65 -148 -135 -173c-24 -9 -46 0 -53 22c-8 22 2 37 27 49c48 24 81 61 81 133v224c0 102 -53 132 -130 132c-110 0 -149 -68 -149 -113v-275c0 -26 -15 -43 -40 -43s-40 17 -40 43v414c0 26 15 43 40 43c24 0 40 -16 40 -42
v-27h6c24 35 76 76 156 76z" />
    <glyph glyph-name="eng.ss01" horiz-adv-x="575" 
d="M287 507c115 0 221 -66 221 -213v-250c0 -85 -66 -148 -135 -173c-24 -9 -46 0 -53 22c-8 22 2 37 27 49c48 24 80 61 80 133v211c0 99 -64 145 -140 145c-75 0 -140 -46 -140 -145v-243c0 -26 -15 -43 -40 -43s-40 17 -40 43v251c0 147 105 213 220 213z" />
    <glyph glyph-name="ntilde" unicode="&#xf1;" horiz-adv-x="573" 
d="M400 636c14 -17 8 -35 -9 -52c-32 -31 -62 -32 -107 -9c-38 21 -41 11 -61 -4c-16 -12 -37 -7 -48 10c-12 16 -8 33 9 50c30 31 69 32 105 12c40 -23 42 -13 61 1s39 8 50 -8zM309 507c109 0 197 -59 197 -196v-268c0 -26 -15 -43 -40 -43s-40 17 -40 43v256
c0 102 -53 132 -130 132c-110 0 -149 -68 -149 -113v-275c0 -26 -15 -43 -40 -43s-40 17 -40 43v414c0 26 15 43 40 43s40 -17 40 -42v-27h6c27 36 77 76 156 76z" />
    <glyph glyph-name="ntilde.ss01" horiz-adv-x="575" 
d="M400 636c14 -17 8 -35 -9 -52c-32 -31 -62 -32 -107 -9c-38 21 -41 11 -61 -4c-16 -12 -37 -7 -48 10c-12 16 -8 33 9 50c30 31 69 32 105 12c40 -23 42 -13 61 1s39 8 50 -8zM468 0c-25 0 -41 17 -41 43v243c0 99 -64 145 -140 145c-75 0 -140 -46 -140 -145v-243
c0 -26 -15 -43 -40 -43s-40 17 -40 43v251c0 147 105 213 220 213s221 -66 221 -213v-251c0 -26 -15 -43 -40 -43z" />
    <glyph glyph-name="o" unicode="o" horiz-adv-x="602" 
d="M301 -7c-149 0 -257 109 -257 257s108 257 257 257s256 -109 256 -257s-107 -257 -256 -257zM301 69c104 0 175 77 175 181s-71 181 -175 181s-175 -77 -175 -181s71 -181 175 -181z" />
    <glyph glyph-name="o.ss01" horiz-adv-x="602" 
d="M301 -7c-149 0 -257 109 -257 257s108 257 257 257s256 -109 256 -257s-107 -257 -256 -257zM301 69c104 0 175 77 175 181s-71 181 -175 181s-175 -77 -175 -181s71 -181 175 -181zM301 207c-25 0 -43 19 -43 43s18 43 43 43s43 -19 43 -43s-18 -43 -43 -43z" />
    <glyph glyph-name="oacute" unicode="&#xf3;" horiz-adv-x="602" 
d="M322 710c19 16 39 15 55 -3c16 -19 12 -39 -7 -55l-88 -73c-19 -17 -39 -17 -56 2c-15 18 -12 39 8 55zM301 -7c-149 0 -257 109 -257 257s108 257 257 257s256 -109 256 -257s-107 -257 -256 -257zM301 69c104 0 175 77 175 181s-71 181 -175 181s-175 -77 -175 -181
s71 -181 175 -181z" />
    <glyph glyph-name="obreve" unicode="&#x14f;" horiz-adv-x="602" 
d="M423 707c21 -11 22 -33 9 -61c-19 -42 -57 -81 -131 -81c-75 0 -113 39 -131 81c-13 25 -14 49 9 61c23 11 41 3 53 -18c13 -23 26 -54 69 -54c42 0 56 31 68 54c12 21 30 29 54 18zM301 -7c-149 0 -257 109 -257 257s108 257 257 257s256 -109 256 -257
s-107 -257 -256 -257zM301 69c104 0 175 77 175 181s-71 181 -175 181s-175 -77 -175 -181s71 -181 175 -181z" />
    <glyph glyph-name="ocircumflex" unicode="&#xf4;" horiz-adv-x="602" 
d="M414 583c-16 -18 -39 -20 -54 -3l-59 62l-59 -62c-17 -16 -38 -15 -54 3c-17 18 -13 39 7 57l76 68c9 9 20 14 30 14s20 -5 30 -14l76 -68c20 -18 23 -39 7 -57zM301 -7c-149 0 -257 109 -257 257s108 257 257 257s256 -109 256 -257s-107 -257 -256 -257zM301 69
c104 0 175 77 175 181s-71 181 -175 181s-175 -77 -175 -181s71 -181 175 -181z" />
    <glyph glyph-name="odieresis" unicode="&#xf6;" horiz-adv-x="602" 
d="M232 566c-26 0 -44 18 -44 43s18 43 44 43c25 0 43 -18 43 -43s-18 -43 -43 -43zM373 566c-26 0 -44 18 -44 43s18 43 44 43c25 0 43 -18 43 -43s-18 -43 -43 -43zM301 -7c-149 0 -257 109 -257 257s108 257 257 257s256 -109 256 -257s-107 -257 -256 -257zM301 69
c104 0 175 77 175 181s-71 181 -175 181s-175 -77 -175 -181s71 -181 175 -181z" />
    <glyph glyph-name="ograve" unicode="&#xf2;" horiz-adv-x="602" 
d="M280 710l88 -74c20 -16 23 -37 8 -55c-17 -19 -37 -19 -56 -2l-88 73c-19 16 -23 36 -7 55c16 18 36 19 55 3zM301 -7c-149 0 -257 109 -257 257s108 257 257 257s256 -109 256 -257s-107 -257 -256 -257zM301 69c104 0 175 77 175 181s-71 181 -175 181
s-175 -77 -175 -181s71 -181 175 -181z" />
    <glyph glyph-name="ohungarumlaut" unicode="&#x151;" horiz-adv-x="602" 
d="M410 708c15 18 34 21 51 6c17 -14 17 -33 2 -51l-72 -84c-15 -18 -33 -20 -52 -5c-17 14 -16 33 -1 50zM248 708c15 18 33 20 51 6c17 -14 16 -33 1 -51l-71 -84c-15 -18 -34 -21 -52 -5c-17 14 -16 33 -2 50zM301 -7c-149 0 -257 109 -257 257s108 257 257 257
s256 -109 256 -257s-107 -257 -256 -257zM301 69c104 0 175 77 175 181s-71 181 -175 181s-175 -77 -175 -181s71 -181 175 -181z" />
    <glyph glyph-name="omacron" unicode="&#x14d;" horiz-adv-x="602" 
d="M427 603c0 -21 -15 -36 -39 -36h-174c-24 0 -39 15 -39 36s15 36 39 36h174c24 0 39 -15 39 -36zM301 -7c-149 0 -257 109 -257 257s108 257 257 257s256 -109 256 -257s-107 -257 -256 -257zM301 69c104 0 175 77 175 181s-71 181 -175 181s-175 -77 -175 -181
s71 -181 175 -181z" />
    <glyph glyph-name="oslash" unicode="&#xf8;" horiz-adv-x="602" 
d="M508 408c31 -43 49 -97 49 -158c0 -148 -107 -257 -256 -257c-61 0 -115 18 -158 50l-30 -30c-17 -17 -35 -16 -49 -2s-15 32 2 49l30 30c-33 43 -52 98 -52 160c0 148 108 257 257 257c62 0 117 -19 160 -52l32 32c16 17 35 16 49 2s14 -32 -2 -49zM126 250
c0 -39 10 -74 28 -102l251 251c-28 20 -64 32 -104 32c-104 0 -175 -77 -175 -181zM301 69c104 0 175 77 175 181c0 38 -9 72 -26 100l-251 -251c28 -19 63 -30 102 -30z" />
    <glyph glyph-name="otilde" unicode="&#xf5;" horiz-adv-x="602" 
d="M414 636c14 -17 8 -35 -9 -52c-32 -31 -62 -32 -107 -9c-38 21 -41 11 -61 -4c-16 -12 -37 -7 -48 10c-12 16 -8 33 9 50c30 31 69 32 105 12c40 -23 42 -13 61 1s39 8 50 -8zM301 -7c-149 0 -257 109 -257 257s108 257 257 257s256 -109 256 -257s-107 -257 -256 -257z
M301 69c104 0 175 77 175 181s-71 181 -175 181s-175 -77 -175 -181s71 -181 175 -181z" />
    <glyph glyph-name="oe" unicode="&#x153;" horiz-adv-x="989" 
d="M949 288c0 -44 -26 -71 -69 -71h-320c13 -86 75 -149 173 -149c49 0 91 16 119 31c24 12 44 11 57 -11c13 -21 8 -40 -16 -56c-33 -22 -93 -39 -156 -39c-102 0 -178 43 -221 111c-45 -68 -122 -111 -215 -111c-149 0 -257 109 -257 257s108 257 257 257
c93 0 170 -43 214 -111c43 69 117 111 205 111c132 0 229 -86 229 -219zM561 289h310c0 85 -67 143 -151 143c-83 0 -144 -59 -159 -143zM301 69c104 0 175 77 175 181s-71 181 -175 181s-175 -77 -175 -181s71 -181 175 -181z" />
    <glyph glyph-name="oe.ss01" horiz-adv-x="998" 
d="M676 253c0 25 16 37 41 37h163c0 83 -64 142 -150 142c-102 0 -172 -78 -172 -182c0 -102 65 -182 182 -182c51 0 91 16 116 32c24 13 44 10 57 -12c12 -20 9 -38 -15 -55c-31 -23 -89 -40 -155 -40c-106 0 -184 43 -227 111c-45 -68 -122 -111 -215 -111
c-149 0 -257 109 -257 257s108 257 257 257c94 0 171 -43 215 -112c44 70 121 112 214 112c134 0 227 -86 227 -219c0 -44 -26 -72 -68 -72h-172c-25 0 -41 13 -41 37zM301 69c104 0 175 77 175 181s-71 181 -175 181s-175 -77 -175 -181s71 -181 175 -181z" />
    <glyph glyph-name="p" unicode="p" horiz-adv-x="607" 
d="M306 507c144 0 256 -102 256 -256c0 -142 -96 -258 -244 -258c-82 0 -141 38 -165 87h-6v-189c0 -26 -15 -43 -40 -43s-40 17 -40 43v364c0 157 97 252 239 252zM315 68c106 0 166 89 166 182c0 106 -74 181 -175 181s-159 -71 -159 -184v-4c0 -110 71 -175 168 -175z
" />
    <glyph glyph-name="p.ss01" horiz-adv-x="607" 
d="M295 77c96 0 187 64 187 178c0 104 -75 176 -179 176c-99 0 -156 -65 -156 -171v-327c0 -26 -15 -43 -40 -43s-40 17 -40 43v335c0 150 97 239 236 239c147 0 259 -98 259 -251c0 -161 -124 -256 -267 -256c-26 0 -41 14 -41 38c0 25 15 39 41 39z" />
    <glyph glyph-name="thorn" unicode="&#xfe;" horiz-adv-x="610" 
d="M319 507c151 0 246 -106 246 -256c0 -142 -97 -258 -245 -258c-82 0 -141 37 -167 89h-6v-191c0 -26 -15 -43 -40 -43s-40 17 -40 43v768c0 26 15 43 40 43s40 -17 40 -43v-242h6c15 28 68 90 166 90zM317 68c107 0 167 89 167 182c0 102 -56 181 -173 181
c-103 0 -163 -75 -163 -184v-10c0 -103 72 -169 169 -169z" />
    <glyph glyph-name="thorn.ss01" horiz-adv-x="607" 
d="M314 507c152 0 248 -109 248 -257c0 -153 -117 -250 -268 -250c-26 0 -42 13 -42 38s16 39 42 39c103 0 187 67 187 173c0 103 -62 181 -169 181c-110 0 -165 -69 -165 -178v-320c0 -26 -15 -43 -40 -43s-40 17 -40 43v726c0 26 15 43 40 43s40 -17 40 -43v-242h6
c24 38 74 90 161 90z" />
    <glyph glyph-name="q" unicode="q" horiz-adv-x="607" 
d="M302 507c141 0 238 -83 238 -243v-373c0 -26 -15 -43 -40 -43s-41 17 -41 43v189h-5c-24 -49 -77 -87 -159 -87c-148 0 -251 117 -251 261c0 148 109 253 258 253zM295 68c93 0 164 64 164 173v15c0 117 -56 175 -156 175c-108 0 -177 -80 -177 -178
c0 -96 67 -185 169 -185z" />
    <glyph glyph-name="q.ss01" horiz-adv-x="607" 
d="M315 77c26 0 41 -14 41 -39c0 -24 -15 -38 -41 -38c-147 0 -271 96 -271 255c0 152 112 252 259 252c143 0 237 -85 237 -239v-335c0 -26 -15 -43 -40 -43s-41 17 -41 43v327c0 111 -52 171 -155 171c-106 0 -179 -76 -179 -177c0 -112 90 -177 190 -177z" />
    <glyph glyph-name="r" unicode="r" horiz-adv-x="399" 
d="M339 497c25 -6 36 -23 31 -47c-5 -23 -22 -34 -48 -29c-10 4 -25 9 -41 9c-82 0 -134 -77 -134 -215v-172c0 -26 -15 -43 -40 -43s-40 17 -40 43v414c0 26 15 43 40 43s40 -17 40 -43v-39h4c20 43 68 89 135 89c23 0 40 -6 53 -10z" />
    <glyph glyph-name="racute" unicode="&#x155;" horiz-adv-x="399" 
d="M227 710c19 16 39 15 55 -3c16 -19 12 -39 -7 -55l-88 -73c-19 -17 -39 -17 -56 2c-15 18 -12 39 8 55zM339 497c25 -6 36 -23 31 -47c-5 -23 -22 -34 -48 -29c-10 4 -25 9 -41 9c-82 0 -134 -77 -134 -215v-172c0 -26 -15 -43 -40 -43s-40 17 -40 43v414
c0 26 15 43 40 43s40 -17 40 -43v-39h4c20 43 68 89 135 89c23 0 40 -6 53 -10z" />
    <glyph glyph-name="rcaron" unicode="&#x159;" horiz-adv-x="399" 
d="M319 705c16 -18 13 -39 -7 -57l-76 -68c-10 -9 -20 -14 -30 -14s-21 5 -30 14l-76 68c-20 18 -24 39 -7 57c16 18 37 19 54 3l59 -62l59 62c15 17 38 15 54 -3zM339 497c25 -6 36 -23 31 -47c-5 -23 -22 -34 -48 -29c-10 4 -25 9 -41 9c-82 0 -134 -77 -134 -215v-172
c0 -26 -15 -43 -40 -43s-40 17 -40 43v414c0 26 15 43 40 43s40 -17 40 -43v-39h4c20 43 68 89 135 89c23 0 40 -6 53 -10z" />
    <glyph glyph-name="uni0157" unicode="&#x157;" horiz-adv-x="399" 
d="M339 497c25 -6 36 -23 31 -47c-5 -23 -22 -34 -48 -29c-10 4 -25 9 -41 9c-82 0 -134 -77 -134 -215v-172c0 -26 -15 -43 -40 -43s-40 17 -40 43v414c0 26 15 43 40 43s40 -17 40 -43v-39h4c20 43 68 89 135 89c23 0 40 -6 53 -10zM146 -103l-52 -77
c-5 -8 -11 -13 -20 -13c-14 0 -23 11 -23 22c0 2 0 4 2 8l24 86c7 28 25 35 42 35c22 0 37 -14 37 -36c0 -9 -2 -14 -10 -25z" />
    <glyph glyph-name="s" unicode="s" horiz-adv-x="472" 
d="M142 370c0 -37 27 -55 119 -79c86 -21 169 -43 169 -147c0 -100 -78 -151 -186 -151c-90 0 -158 36 -188 75c-19 22 -16 41 2 57c23 20 42 11 54 0c26 -27 64 -59 135 -59c61 0 104 26 104 73c0 44 -36 60 -138 86c-95 26 -149 57 -149 136c0 97 79 146 176 146
c61 0 123 -20 158 -60c12 -13 22 -31 -1 -54s-40 -15 -54 -2c-25 21 -59 43 -112 43c-50 0 -89 -20 -89 -64z" />
    <glyph glyph-name="sacute" unicode="&#x15b;" horiz-adv-x="472" 
d="M256 710c19 16 39 15 55 -3c16 -19 12 -39 -7 -55l-88 -73c-19 -17 -39 -17 -56 2c-15 18 -12 39 8 55zM142 370c0 -37 27 -55 119 -79c86 -21 169 -43 169 -147c0 -100 -78 -151 -186 -151c-90 0 -158 36 -188 75c-19 22 -16 41 2 57c23 20 42 11 54 0
c26 -27 64 -59 135 -59c61 0 104 26 104 73c0 44 -36 60 -138 86c-95 26 -149 57 -149 136c0 97 79 146 176 146c61 0 123 -20 158 -60c12 -13 22 -31 -1 -54s-40 -15 -54 -2c-25 21 -59 43 -112 43c-50 0 -89 -20 -89 -64z" />
    <glyph glyph-name="scaron" unicode="&#x161;" horiz-adv-x="472" 
d="M348 705c16 -18 13 -39 -7 -57l-76 -68c-10 -9 -20 -14 -30 -14s-21 5 -30 14l-76 68c-20 18 -24 39 -7 57c16 18 37 19 54 3l59 -62l59 62c15 17 38 15 54 -3zM142 370c0 -37 27 -55 119 -79c86 -21 169 -43 169 -147c0 -100 -78 -151 -186 -151c-90 0 -158 36 -188 75
c-19 22 -16 41 2 57c23 20 42 11 54 0c26 -27 64 -59 135 -59c61 0 104 26 104 73c0 44 -36 60 -138 86c-95 26 -149 57 -149 136c0 97 79 146 176 146c61 0 123 -20 158 -60c12 -13 22 -31 -1 -54s-40 -15 -54 -2c-25 21 -59 43 -112 43c-50 0 -89 -20 -89 -64z" />
    <glyph glyph-name="scedilla" unicode="&#x15f;" horiz-adv-x="472" 
d="M430 144c0 -96 -72 -147 -173 -151l-12 -25c29 -9 76 -27 76 -82c0 -49 -37 -79 -90 -79c-29 0 -52 9 -66 18c-12 7 -19 17 -14 31c5 13 18 16 30 12c13 -5 31 -13 51 -13c24 0 36 13 36 29c0 26 -33 42 -72 52c-9 2 -10 8 -7 15l19 44c-72 8 -126 39 -152 73
c-19 22 -16 41 2 57c23 20 42 11 54 0c26 -27 64 -59 135 -59c61 0 104 26 104 73c0 44 -36 60 -138 86c-95 26 -149 57 -149 136c0 97 79 146 176 146c61 0 123 -20 158 -60c12 -13 22 -31 -1 -54s-40 -15 -54 -2c-25 21 -59 43 -112 43c-50 0 -89 -20 -89 -64
c0 -37 27 -55 119 -79c86 -21 169 -43 169 -147z" />
    <glyph glyph-name="uni0219" unicode="&#x219;" horiz-adv-x="472" 
d="M142 370c0 -37 27 -55 119 -79c86 -21 169 -43 169 -147c0 -100 -78 -151 -186 -151c-90 0 -158 36 -188 75c-19 22 -16 41 2 57c23 20 42 11 54 0c26 -27 64 -59 135 -59c61 0 104 26 104 73c0 44 -36 60 -138 86c-95 26 -149 57 -149 136c0 97 79 146 176 146
c61 0 123 -20 158 -60c12 -13 22 -31 -1 -54s-40 -15 -54 -2c-25 21 -59 43 -112 43c-50 0 -89 -20 -89 -64zM261 -103l-52 -77c-5 -8 -11 -13 -20 -13c-14 0 -23 11 -23 22c0 2 0 4 2 8l24 86c7 28 25 35 42 35c22 0 37 -14 37 -36c0 -9 -2 -14 -10 -25z" />
    <glyph glyph-name="germandbls" unicode="&#xdf;" horiz-adv-x="548" 
d="M358 358c0 -77 150 -104 150 -222c0 -70 -52 -143 -154 -143c-36 0 -74 10 -93 18c-26 10 -33 29 -26 50c7 22 27 31 52 23c13 -4 38 -15 66 -15c42 0 74 26 74 64c0 83 -150 96 -150 219c0 96 93 125 93 181c0 28 -26 48 -77 48c-89 0 -146 -60 -146 -164v-373
c0 -26 -14 -44 -40 -44s-40 18 -40 44v383c0 146 95 232 230 232c102 0 154 -53 154 -123c0 -87 -93 -116 -93 -178z" />
    <glyph glyph-name="t" unicode="t" horiz-adv-x="417" 
d="M326 77c25 0 41 -14 41 -39c0 -24 -16 -38 -41 -38h-18c-112 0 -177 60 -177 187v238h-51c-26 0 -43 14 -43 38c0 23 17 37 43 37h51v109c0 26 15 44 40 44s40 -18 40 -44v-109h111c26 0 43 -14 43 -37c0 -24 -17 -38 -43 -38h-111v-220c0 -86 29 -128 97 -128h18z" />
    <glyph glyph-name="t.ss01" horiz-adv-x="379" 
d="M288 77c25 0 40 -14 40 -39c0 -24 -15 -38 -40 -38h-48c-116 0 -173 57 -173 187v422c0 26 15 44 40 44s40 -18 40 -44v-404c0 -91 23 -128 93 -128h48zM240 421c-26 0 -43 14 -43 40s17 40 43 40h45c25 0 42 -14 42 -40s-17 -40 -42 -40h-45z" />
    <glyph glyph-name="tbar" unicode="&#x167;" horiz-adv-x="417" 
d="M325 77c25 0 41 -14 41 -39c0 -24 -16 -38 -41 -38h-18c-112 0 -177 60 -177 187v60h-54c-24 0 -39 14 -39 36s15 36 39 36h54v109h-54c-24 0 -39 14 -39 36s15 36 39 36h54v109c0 26 16 44 41 44s40 -18 40 -44v-109h114c24 0 40 -14 40 -36s-16 -36 -40 -36h-114v-109
h114c24 0 40 -14 40 -36s-16 -36 -40 -36h-114v-42c0 -86 29 -128 96 -128h18z" />
    <glyph glyph-name="tbar.ss01" horiz-adv-x="379" 
d="M288 77c25 0 40 -14 40 -39c0 -24 -15 -38 -40 -38h-48c-116 0 -173 57 -173 187v422c0 26 15 44 40 44s40 -18 40 -44v-404c0 -91 23 -128 93 -128h48zM240 421c-26 0 -43 14 -43 40s17 40 43 40h45c25 0 42 -14 42 -40s-17 -40 -42 -40h-45zM327 283
c0 -22 -15 -36 -39 -36h-52c-23 0 -39 14 -39 36s16 36 39 36h52c24 0 39 -14 39 -36z" />
    <glyph glyph-name="tcaron" unicode="&#x165;" horiz-adv-x="427" 
d="M371 707l-42 -122c-5 -12 -14 -19 -28 -19c-17 0 -27 14 -26 32l16 124c2 31 20 44 45 44c31 0 47 -26 35 -59zM326 77c25 0 41 -14 41 -39c0 -24 -16 -38 -41 -38h-18c-112 0 -177 60 -177 187v238h-51c-26 0 -43 14 -43 38c0 23 17 37 43 37h51v109c0 26 15 44 40 44
s40 -18 40 -44v-109h111c26 0 43 -14 43 -37c0 -24 -17 -38 -43 -38h-111v-220c0 -86 29 -128 97 -128h18z" />
    <glyph glyph-name="tcaron.ss01" horiz-adv-x="379" 
d="M316 707l-42 -122c-5 -12 -14 -19 -28 -19c-17 0 -27 14 -26 32l16 124c2 31 20 44 45 44c31 0 47 -26 35 -59zM288 77c25 0 40 -14 40 -39c0 -24 -15 -38 -40 -38h-48c-116 0 -173 57 -173 187v422c0 26 15 44 40 44s40 -18 40 -44v-404c0 -91 23 -128 93 -128h48z
M240 421c-26 0 -43 14 -43 40s17 40 43 40h45c25 0 42 -14 42 -40s-17 -40 -42 -40h-45z" />
    <glyph glyph-name="uni0163" unicode="&#x163;" horiz-adv-x="417" 
d="M308 0c-7 0 -14 0 -21 1l-16 -33c29 -9 76 -27 76 -82c0 -49 -37 -79 -90 -79c-29 0 -52 9 -66 18c-12 7 -19 17 -14 31c5 13 18 16 30 12c13 -5 31 -13 51 -13c24 0 36 13 36 29c0 26 -33 42 -72 52c-9 2 -10 8 -7 15l25 58c-70 21 -109 79 -109 178v238h-51
c-26 0 -43 14 -43 38c0 23 17 37 43 37h51v109c0 26 15 44 40 44s40 -18 40 -44v-109h111c26 0 43 -14 43 -37c0 -24 -17 -38 -43 -38h-111v-220c0 -86 29 -128 97 -128h18c25 0 41 -14 41 -39c0 -24 -16 -38 -41 -38h-18z" />
    <glyph glyph-name="uni0163.ss01" horiz-adv-x="379" 
d="M288 77c25 0 40 -14 40 -39c0 -24 -15 -38 -40 -38h-48h-17l-16 -32c29 -9 76 -27 76 -82c0 -49 -37 -79 -90 -79c-29 0 -52 9 -66 18c-12 7 -19 17 -14 31c5 13 18 16 30 12c13 -5 31 -13 51 -13c24 0 36 13 36 29c0 26 -33 42 -72 52c-9 2 -10 8 -7 15l24 57
c-72 19 -108 76 -108 179v422c0 26 15 44 40 44s40 -18 40 -44v-404c0 -91 23 -128 93 -128h48zM240 421c-26 0 -43 14 -43 40s17 40 43 40h45c25 0 42 -14 42 -40s-17 -40 -42 -40h-45z" />
    <glyph glyph-name="uni021B" unicode="&#x21b;" horiz-adv-x="417" 
d="M326 77c25 0 41 -14 41 -39c0 -24 -16 -38 -41 -38h-18c-112 0 -177 60 -177 187v238h-51c-26 0 -43 14 -43 38c0 23 17 37 43 37h51v109c0 26 15 44 40 44s40 -18 40 -44v-109h111c26 0 43 -14 43 -37c0 -24 -17 -38 -43 -38h-111v-220c0 -86 29 -128 97 -128h18z
M287 -103l-52 -77c-5 -8 -11 -13 -20 -13c-14 0 -23 11 -23 22c0 2 0 4 2 8l24 86c7 28 25 35 42 35c22 0 37 -14 37 -36c0 -9 -2 -14 -10 -25z" />
    <glyph glyph-name="uni021B.ss01" horiz-adv-x="379" 
d="M288 77c25 0 40 -14 40 -39c0 -24 -15 -38 -40 -38h-48c-116 0 -173 57 -173 187v422c0 26 15 44 40 44s40 -18 40 -44v-404c0 -91 23 -128 93 -128h48zM240 421c-26 0 -43 14 -43 40s17 40 43 40h45c25 0 42 -14 42 -40s-17 -40 -42 -40h-45zM223 -103l-52 -77
c-5 -8 -11 -13 -20 -13c-14 0 -23 11 -23 22c0 2 0 4 2 8l24 86c7 28 25 35 42 35c22 0 37 -14 37 -36c0 -9 -2 -14 -10 -25z" />
    <glyph glyph-name="u" unicode="u" horiz-adv-x="579" 
d="M472 500c25 0 40 -17 40 -43v-414c0 -26 -15 -43 -40 -43s-41 17 -41 43v25h-5c-19 -33 -74 -75 -157 -75c-108 0 -202 56 -202 207v257c0 26 15 43 40 43s40 -17 40 -43v-245c0 -110 59 -143 139 -143c100 1 145 61 145 108v280c0 26 16 43 41 43z" />
    <glyph glyph-name="u.ss01" horiz-adv-x="580" 
d="M473 500c25 0 41 -17 41 -43v-249c0 -147 -104 -215 -224 -215s-223 68 -223 215v249c0 26 15 43 40 43s40 -17 40 -43v-241c0 -98 61 -147 143 -147c83 0 143 49 143 147v241c0 26 15 43 40 43z" />
    <glyph glyph-name="uacute" unicode="&#xfa;" horiz-adv-x="579" 
d="M316 710c19 16 39 15 55 -3c16 -19 12 -39 -7 -55l-88 -73c-19 -17 -39 -17 -56 2c-15 18 -12 39 8 55zM472 500c25 0 40 -17 40 -43v-414c0 -26 -15 -43 -40 -43s-41 17 -41 43v25h-5c-19 -33 -74 -75 -157 -75c-108 0 -202 56 -202 207v257c0 26 15 43 40 43
s40 -17 40 -43v-245c0 -110 59 -143 139 -143c100 1 145 61 145 108v280c0 26 16 43 41 43z" />
    <glyph glyph-name="uacute.ss01" horiz-adv-x="580" 
d="M311 710c19 16 39 15 55 -3c16 -19 12 -39 -7 -55l-88 -73c-19 -17 -39 -17 -56 2c-15 18 -12 39 8 55zM473 500c25 0 41 -17 41 -43v-249c0 -147 -104 -215 -224 -215s-223 68 -223 215v249c0 26 15 43 40 43s40 -17 40 -43v-241c0 -98 61 -147 143 -147
c83 0 143 49 143 147v241c0 26 15 43 40 43z" />
    <glyph glyph-name="ubreve" unicode="&#x16d;" horiz-adv-x="579" 
d="M417 707c21 -11 22 -33 9 -61c-19 -42 -57 -81 -131 -81c-75 0 -113 39 -131 81c-13 25 -14 49 9 61c23 11 41 3 53 -18c13 -23 26 -54 69 -54c42 0 56 31 68 54c12 21 30 29 54 18zM472 500c25 0 40 -17 40 -43v-414c0 -26 -15 -43 -40 -43s-41 17 -41 43v25h-5
c-19 -33 -74 -75 -157 -75c-108 0 -202 56 -202 207v257c0 26 15 43 40 43s40 -17 40 -43v-245c0 -110 59 -143 139 -143c100 1 145 61 145 108v280c0 26 16 43 41 43z" />
    <glyph glyph-name="ubreve.ss01" horiz-adv-x="580" 
d="M412 707c21 -11 22 -33 9 -61c-19 -42 -57 -81 -131 -81c-75 0 -113 39 -131 81c-13 25 -14 49 9 61c23 11 41 3 53 -18c13 -23 26 -54 69 -54c42 0 56 31 68 54c12 21 30 29 54 18zM473 500c25 0 41 -17 41 -43v-249c0 -147 -104 -215 -224 -215s-223 68 -223 215v249
c0 26 15 43 40 43s40 -17 40 -43v-241c0 -98 61 -147 143 -147c83 0 143 49 143 147v241c0 26 15 43 40 43z" />
    <glyph glyph-name="ucircumflex" unicode="&#xfb;" horiz-adv-x="579" 
d="M408 583c-16 -18 -39 -20 -54 -3l-59 62l-59 -62c-17 -16 -38 -15 -54 3c-17 18 -13 39 7 57l76 68c9 9 20 14 30 14s20 -5 30 -14l76 -68c20 -18 23 -39 7 -57zM472 500c25 0 40 -17 40 -43v-414c0 -26 -15 -43 -40 -43s-41 17 -41 43v25h-5c-19 -33 -74 -75 -157 -75
c-108 0 -202 56 -202 207v257c0 26 15 43 40 43s40 -17 40 -43v-245c0 -110 59 -143 139 -143c100 1 145 61 145 108v280c0 26 16 43 41 43z" />
    <glyph glyph-name="ucircumflex.ss01" horiz-adv-x="580" 
d="M403 583c-16 -18 -39 -20 -54 -3l-59 62l-59 -62c-17 -16 -38 -15 -54 3c-17 18 -13 39 7 57l76 68c9 9 20 14 30 14s20 -5 30 -14l76 -68c20 -18 23 -39 7 -57zM473 500c25 0 41 -17 41 -43v-249c0 -147 -104 -215 -224 -215s-223 68 -223 215v249c0 26 15 43 40 43
s40 -17 40 -43v-241c0 -98 61 -147 143 -147c83 0 143 49 143 147v241c0 26 15 43 40 43z" />
    <glyph glyph-name="udieresis" unicode="&#xfc;" horiz-adv-x="579" 
d="M226 566c-26 0 -44 18 -44 43s18 43 44 43c25 0 43 -18 43 -43s-18 -43 -43 -43zM367 566c-26 0 -44 18 -44 43s18 43 44 43c25 0 43 -18 43 -43s-18 -43 -43 -43zM472 500c25 0 40 -17 40 -43v-414c0 -26 -15 -43 -40 -43s-41 17 -41 43v25h-5c-19 -33 -74 -75 -157 -75
c-108 0 -202 56 -202 207v257c0 26 15 43 40 43s40 -17 40 -43v-245c0 -110 59 -143 139 -143c100 1 145 61 145 108v280c0 26 16 43 41 43z" />
    <glyph glyph-name="udieresis.ss01" horiz-adv-x="580" 
d="M221 566c-26 0 -44 18 -44 43s18 43 44 43c25 0 43 -18 43 -43s-18 -43 -43 -43zM362 566c-26 0 -44 18 -44 43s18 43 44 43c25 0 43 -18 43 -43s-18 -43 -43 -43zM473 500c25 0 41 -17 41 -43v-249c0 -147 -104 -215 -224 -215s-223 68 -223 215v249c0 26 15 43 40 43
s40 -17 40 -43v-241c0 -98 61 -147 143 -147c83 0 143 49 143 147v241c0 26 15 43 40 43z" />
    <glyph glyph-name="ugrave" unicode="&#xf9;" horiz-adv-x="579" 
d="M274 710l88 -74c20 -16 23 -37 8 -55c-17 -19 -37 -19 -56 -2l-88 73c-19 16 -23 36 -7 55c16 18 36 19 55 3zM472 500c25 0 40 -17 40 -43v-414c0 -26 -15 -43 -40 -43s-41 17 -41 43v25h-5c-19 -33 -74 -75 -157 -75c-108 0 -202 56 -202 207v257c0 26 15 43 40 43
s40 -17 40 -43v-245c0 -110 59 -143 139 -143c100 1 145 61 145 108v280c0 26 16 43 41 43z" />
    <glyph glyph-name="ugrave.ss01" horiz-adv-x="580" 
d="M269 710l88 -74c20 -16 23 -37 8 -55c-17 -19 -37 -19 -56 -2l-88 73c-19 16 -23 36 -7 55c16 18 36 19 55 3zM473 500c25 0 41 -17 41 -43v-249c0 -147 -104 -215 -224 -215s-223 68 -223 215v249c0 26 15 43 40 43s40 -17 40 -43v-241c0 -98 61 -147 143 -147
c83 0 143 49 143 147v241c0 26 15 43 40 43z" />
    <glyph glyph-name="uhungarumlaut" unicode="&#x171;" horiz-adv-x="579" 
d="M404 708c15 18 34 21 51 6c17 -14 17 -33 2 -51l-72 -84c-15 -18 -33 -20 -52 -5c-17 14 -16 33 -1 50zM242 708c15 18 33 20 51 6c17 -14 16 -33 1 -51l-71 -84c-15 -18 -34 -21 -52 -5c-17 14 -16 33 -2 50zM472 500c25 0 40 -17 40 -43v-414c0 -26 -15 -43 -40 -43
s-41 17 -41 43v25h-5c-19 -33 -74 -75 -157 -75c-108 0 -202 56 -202 207v257c0 26 15 43 40 43s40 -17 40 -43v-245c0 -110 59 -143 139 -143c100 1 145 61 145 108v280c0 26 16 43 41 43z" />
    <glyph glyph-name="uhungarumlaut.ss01" horiz-adv-x="580" 
d="M399 708c15 18 34 21 51 6c17 -14 17 -33 2 -51l-72 -84c-15 -18 -33 -20 -52 -5c-17 14 -16 33 -1 50zM237 708c15 18 33 20 51 6c17 -14 16 -33 1 -51l-71 -84c-15 -18 -34 -21 -52 -5c-17 14 -16 33 -2 50zM473 500c25 0 41 -17 41 -43v-249
c0 -147 -104 -215 -224 -215s-223 68 -223 215v249c0 26 15 43 40 43s40 -17 40 -43v-241c0 -98 61 -147 143 -147c83 0 143 49 143 147v241c0 26 15 43 40 43z" />
    <glyph glyph-name="umacron" unicode="&#x16b;" horiz-adv-x="579" 
d="M421 603c0 -21 -15 -36 -39 -36h-174c-24 0 -39 15 -39 36s15 36 39 36h174c24 0 39 -15 39 -36zM472 500c25 0 40 -17 40 -43v-414c0 -26 -15 -43 -40 -43s-41 17 -41 43v25h-5c-19 -33 -74 -75 -157 -75c-108 0 -202 56 -202 207v257c0 26 15 43 40 43s40 -17 40 -43
v-245c0 -110 59 -143 139 -143c100 1 145 61 145 108v280c0 26 16 43 41 43z" />
    <glyph glyph-name="umacron.ss01" horiz-adv-x="580" 
d="M416 603c0 -21 -15 -36 -39 -36h-174c-24 0 -39 15 -39 36s15 36 39 36h174c24 0 39 -15 39 -36zM473 500c25 0 41 -17 41 -43v-249c0 -147 -104 -215 -224 -215s-223 68 -223 215v249c0 26 15 43 40 43s40 -17 40 -43v-241c0 -98 61 -147 143 -147c83 0 143 49 143 147
v241c0 26 15 43 40 43z" />
    <glyph glyph-name="uogonek" unicode="&#x173;" horiz-adv-x="579" 
d="M525 -106c8 -20 3 -34 -16 -45c-13 -7 -34 -14 -59 -14c-46 0 -87 23 -91 73c-4 47 25 88 79 110c-5 6 -7 15 -7 25v25h-5c-19 -33 -74 -75 -157 -75c-108 0 -202 56 -202 207v257c0 26 15 43 40 43s40 -17 40 -43v-245c0 -110 59 -143 139 -143c100 1 145 61 145 108
v280c0 26 16 43 41 43s40 -17 40 -43v-414c0 -26 -15 -42 -39 -43c-40 -12 -59 -42 -55 -67c3 -22 20 -29 36 -29c12 0 26 6 34 9c13 5 28 2 37 -19z" />
    <glyph glyph-name="uogonek.ss01" horiz-adv-x="580" 
d="M473 500c25 0 41 -17 41 -43v-249c0 -120 -69 -187 -160 -208c-40 -12 -59 -42 -55 -67c3 -22 20 -29 36 -29c12 0 26 6 34 9c13 5 28 2 37 -19c8 -20 3 -34 -16 -45c-13 -7 -34 -14 -59 -14c-46 0 -87 23 -91 73c-3 33 11 63 37 85c-114 5 -210 73 -210 215v249
c0 26 15 43 40 43s40 -17 40 -43v-241c0 -98 61 -147 143 -147c83 0 143 49 143 147v241c0 26 15 43 40 43z" />
    <glyph glyph-name="uring" unicode="&#x16f;" horiz-adv-x="579" 
d="M295 555c-55 0 -93 38 -93 93c0 54 38 92 93 92c54 0 92 -38 92 -92c0 -55 -38 -93 -92 -93zM295 605c26 0 42 16 42 43c0 26 -16 42 -42 42c-27 0 -43 -16 -43 -42c0 -27 16 -43 43 -43zM472 500c25 0 40 -17 40 -43v-414c0 -26 -15 -43 -40 -43s-41 17 -41 43v25h-5
c-19 -33 -74 -75 -157 -75c-108 0 -202 56 -202 207v257c0 26 15 43 40 43s40 -17 40 -43v-245c0 -110 59 -143 139 -143c100 1 145 61 145 108v280c0 26 16 43 41 43z" />
    <glyph glyph-name="uring.ss01" horiz-adv-x="580" 
d="M290 555c-55 0 -93 38 -93 93c0 54 38 92 93 92c54 0 92 -38 92 -92c0 -55 -38 -93 -92 -93zM290 605c26 0 42 16 42 43c0 26 -16 42 -42 42c-27 0 -43 -16 -43 -42c0 -27 16 -43 43 -43zM473 500c25 0 41 -17 41 -43v-249c0 -147 -104 -215 -224 -215s-223 68 -223 215
v249c0 26 15 43 40 43s40 -17 40 -43v-241c0 -98 61 -147 143 -147c83 0 143 49 143 147v241c0 26 15 43 40 43z" />
    <glyph glyph-name="utilde" unicode="&#x169;" horiz-adv-x="579" 
d="M408 636c14 -17 8 -35 -9 -52c-32 -31 -62 -32 -107 -9c-38 21 -41 11 -61 -4c-16 -12 -37 -7 -48 10c-12 16 -8 33 9 50c30 31 69 32 105 12c40 -23 42 -13 61 1s39 8 50 -8zM472 500c25 0 40 -17 40 -43v-414c0 -26 -15 -43 -40 -43s-41 17 -41 43v25h-5
c-19 -33 -74 -75 -157 -75c-108 0 -202 56 -202 207v257c0 26 15 43 40 43s40 -17 40 -43v-245c0 -110 59 -143 139 -143c100 1 145 61 145 108v280c0 26 16 43 41 43z" />
    <glyph glyph-name="utilde.ss01" horiz-adv-x="580" 
d="M403 636c14 -17 8 -35 -9 -52c-32 -31 -62 -32 -107 -9c-38 21 -41 11 -61 -4c-16 -12 -37 -7 -48 10c-12 16 -8 33 9 50c30 31 69 32 105 12c40 -23 42 -13 61 1s39 8 50 -8zM473 500c25 0 41 -17 41 -43v-249c0 -147 -104 -215 -224 -215s-223 68 -223 215v249
c0 26 15 43 40 43s40 -17 40 -43v-241c0 -98 61 -147 143 -147c83 0 143 49 143 147v241c0 26 15 43 40 43z" />
    <glyph glyph-name="v" unicode="v" horiz-adv-x="530" 
d="M473 496c22 -10 28 -32 17 -56l-186 -418c-9 -18 -23 -27 -39 -27s-30 9 -39 27l-186 419c-11 23 -5 45 17 55c24 11 47 1 56 -21l152 -360l152 360c10 22 32 32 56 21z" />
    <glyph glyph-name="w" unicode="w" horiz-adv-x="727" 
d="M666 498c24 -8 32 -31 23 -55l-141 -412c-9 -23 -24 -31 -42 -31c-23 0 -36 14 -42 33l-100 307l-101 -307c-6 -19 -19 -33 -42 -33c-18 0 -33 8 -42 31l-141 412c-9 24 -1 47 23 55c25 8 46 -2 53 -27l108 -355l101 331c7 23 22 35 41 35c18 0 33 -12 40 -35l101 -331
l108 355c7 25 28 35 53 27z" />
    <glyph glyph-name="w.ss01" horiz-adv-x="796" 
d="M543 -3c-68 0 -125 41 -145 87c-20 -46 -77 -87 -146 -87c-83 0 -185 42 -185 189v271c0 26 15 43 40 43s40 -17 40 -43v-263c0 -100 61 -120 105 -120c45 0 105 20 105 120v263c0 26 16 43 41 43s40 -17 40 -43v-263c0 -100 61 -120 105 -120c45 0 105 20 105 120v263
c0 26 16 43 41 43s40 -17 40 -43v-271c0 -147 -102 -189 -186 -189z" />
    <glyph glyph-name="wacute" unicode="&#x1e83;" horiz-adv-x="727" 
d="M385 710c19 16 39 15 55 -3c16 -19 12 -39 -7 -55l-88 -73c-19 -17 -39 -17 -56 2c-15 18 -12 39 8 55zM666 498c24 -8 32 -31 23 -55l-141 -412c-9 -23 -24 -31 -42 -31c-23 0 -36 14 -42 33l-100 307l-101 -307c-6 -19 -19 -33 -42 -33c-18 0 -33 8 -42 31l-141 412
c-9 24 -1 47 23 55c25 8 46 -2 53 -27l108 -355l101 331c7 23 22 35 41 35c18 0 33 -12 40 -35l101 -331l108 355c7 25 28 35 53 27z" />
    <glyph glyph-name="wacute.ss01" horiz-adv-x="796" 
d="M419 710c19 16 39 15 55 -3c16 -19 12 -39 -7 -55l-88 -73c-19 -17 -39 -17 -56 2c-15 18 -12 39 8 55zM543 -3c-68 0 -125 41 -145 87c-20 -46 -77 -87 -146 -87c-83 0 -185 42 -185 189v271c0 26 15 43 40 43s40 -17 40 -43v-263c0 -100 61 -120 105 -120
c45 0 105 20 105 120v263c0 26 16 43 41 43s40 -17 40 -43v-263c0 -100 61 -120 105 -120c45 0 105 20 105 120v263c0 26 16 43 41 43s40 -17 40 -43v-271c0 -147 -102 -189 -186 -189z" />
    <glyph glyph-name="wcircumflex" unicode="&#x175;" horiz-adv-x="727" 
d="M477 583c-16 -18 -39 -20 -54 -3l-59 62l-59 -62c-17 -16 -38 -15 -54 3c-17 18 -13 39 7 57l76 68c9 9 20 14 30 14s20 -5 30 -14l76 -68c20 -18 23 -39 7 -57zM666 498c24 -8 32 -31 23 -55l-141 -412c-9 -23 -24 -31 -42 -31c-23 0 -36 14 -42 33l-100 307l-101 -307
c-6 -19 -19 -33 -42 -33c-18 0 -33 8 -42 31l-141 412c-9 24 -1 47 23 55c25 8 46 -2 53 -27l108 -355l101 331c7 23 22 35 41 35c18 0 33 -12 40 -35l101 -331l108 355c7 25 28 35 53 27z" />
    <glyph glyph-name="wcircumflex.ss01" horiz-adv-x="796" 
d="M511 583c-16 -18 -39 -20 -54 -3l-59 62l-59 -62c-17 -16 -38 -15 -54 3c-17 18 -13 39 7 57l76 68c9 9 20 14 30 14s20 -5 30 -14l76 -68c20 -18 23 -39 7 -57zM543 -3c-68 0 -125 41 -145 87c-20 -46 -77 -87 -146 -87c-83 0 -185 42 -185 189v271c0 26 15 43 40 43
s40 -17 40 -43v-263c0 -100 61 -120 105 -120c45 0 105 20 105 120v263c0 26 16 43 41 43s40 -17 40 -43v-263c0 -100 61 -120 105 -120c45 0 105 20 105 120v263c0 26 16 43 41 43s40 -17 40 -43v-271c0 -147 -102 -189 -186 -189z" />
    <glyph glyph-name="wdieresis" unicode="&#x1e85;" horiz-adv-x="727" 
d="M295 566c-26 0 -44 18 -44 43s18 43 44 43c25 0 43 -18 43 -43s-18 -43 -43 -43zM436 566c-26 0 -44 18 -44 43s18 43 44 43c25 0 43 -18 43 -43s-18 -43 -43 -43zM666 498c24 -8 32 -31 23 -55l-141 -412c-9 -23 -24 -31 -42 -31c-23 0 -36 14 -42 33l-100 307
l-101 -307c-6 -19 -19 -33 -42 -33c-18 0 -33 8 -42 31l-141 412c-9 24 -1 47 23 55c25 8 46 -2 53 -27l108 -355l101 331c7 23 22 35 41 35c18 0 33 -12 40 -35l101 -331l108 355c7 25 28 35 53 27z" />
    <glyph glyph-name="wdieresis.ss01" horiz-adv-x="796" 
d="M329 566c-26 0 -44 18 -44 43s18 43 44 43c25 0 43 -18 43 -43s-18 -43 -43 -43zM470 566c-26 0 -44 18 -44 43s18 43 44 43c25 0 43 -18 43 -43s-18 -43 -43 -43zM543 -3c-68 0 -125 41 -145 87c-20 -46 -77 -87 -146 -87c-83 0 -185 42 -185 189v271c0 26 15 43 40 43
s40 -17 40 -43v-263c0 -100 61 -120 105 -120c45 0 105 20 105 120v263c0 26 16 43 41 43s40 -17 40 -43v-263c0 -100 61 -120 105 -120c45 0 105 20 105 120v263c0 26 16 43 41 43s40 -17 40 -43v-271c0 -147 -102 -189 -186 -189z" />
    <glyph glyph-name="wgrave" unicode="&#x1e81;" horiz-adv-x="727" 
d="M343 710l88 -74c20 -16 23 -37 8 -55c-17 -19 -37 -19 -56 -2l-88 73c-19 16 -23 36 -7 55c16 18 36 19 55 3zM666 498c24 -8 32 -31 23 -55l-141 -412c-9 -23 -24 -31 -42 -31c-23 0 -36 14 -42 33l-100 307l-101 -307c-6 -19 -19 -33 -42 -33c-18 0 -33 8 -42 31
l-141 412c-9 24 -1 47 23 55c25 8 46 -2 53 -27l108 -355l101 331c7 23 22 35 41 35c18 0 33 -12 40 -35l101 -331l108 355c7 25 28 35 53 27z" />
    <glyph glyph-name="wgrave.ss01" horiz-adv-x="796" 
d="M377 710l88 -74c20 -16 23 -37 8 -55c-17 -19 -37 -19 -56 -2l-88 73c-19 16 -23 36 -7 55c16 18 36 19 55 3zM543 -3c-68 0 -125 41 -145 87c-20 -46 -77 -87 -146 -87c-83 0 -185 42 -185 189v271c0 26 15 43 40 43s40 -17 40 -43v-263c0 -100 61 -120 105 -120
c45 0 105 20 105 120v263c0 26 16 43 41 43s40 -17 40 -43v-263c0 -100 61 -120 105 -120c45 0 105 20 105 120v263c0 26 16 43 41 43s40 -17 40 -43v-271c0 -147 -102 -189 -186 -189z" />
    <glyph glyph-name="x" unicode="x" horiz-adv-x="518" 
d="M460 64c16 -18 11 -44 -10 -58c-19 -13 -41 -5 -58 16l-133 168l-133 -168c-18 -22 -39 -29 -58 -15c-20 14 -26 38 -10 58l158 189l-151 183c-15 18 -10 43 10 57c20 13 41 7 58 -14l126 -161l127 161c16 20 37 27 57 14c21 -13 25 -39 10 -56l-150 -184z" />
    <glyph glyph-name="x.ss01" horiz-adv-x="561" 
d="M482 77c24 -8 35 -24 28 -48c-6 -24 -22 -34 -49 -26c-75 22 -146 74 -181 129c-35 -55 -105 -107 -181 -130c-26 -7 -43 4 -49 27c-6 24 4 40 29 48c91 29 164 95 164 173s-73 144 -164 173c-25 9 -35 25 -29 48c6 24 23 35 49 27c77 -21 146 -75 182 -131
c34 56 105 108 180 131c27 8 43 -3 49 -27c7 -23 -4 -40 -28 -48c-91 -29 -165 -95 -165 -173s74 -144 165 -173z" />
    <glyph glyph-name="x.ss02" horiz-adv-x="560" 
d="M471 76c26 0 41 -13 41 -38s-15 -38 -41 -38c-86 0 -154 53 -190 123c-37 -70 -106 -123 -191 -123c-26 0 -42 13 -42 38s16 38 42 38c94 0 153 91 153 174s-59 174 -153 174c-26 0 -42 13 -42 38s16 38 42 38c85 0 154 -53 191 -123c36 70 104 123 190 123
c26 0 41 -13 41 -38s-15 -38 -41 -38c-95 0 -153 -91 -153 -174s58 -174 153 -174z" />
    <glyph glyph-name="y" unicode="y" horiz-adv-x="583" 
d="M476 500c25 0 40 -17 40 -43v-391c0 -145 -115 -218 -233 -218c-54 0 -97 7 -143 26c-24 8 -29 29 -22 49c7 22 25 32 47 24c42 -17 70 -24 112 -24c80 0 163 44 163 165v18h-5c-18 -32 -72 -82 -164 -82c-107 0 -204 62 -204 224v209c0 26 15 43 40 43s40 -17 40 -43
v-201c0 -124 66 -158 144 -157c96 1 144 57 144 121v237c0 26 16 43 41 43z" />
    <glyph glyph-name="y.ss01" horiz-adv-x="583" 
d="M476 500c25 0 40 -17 40 -43v-395c0 -112 -68 -178 -142 -203c-25 -9 -46 1 -54 23c-7 23 3 38 28 49c49 21 92 65 92 141v21h-5c-21 -32 -72 -77 -161 -77c-110 0 -207 68 -207 225v216c0 26 15 43 40 43s40 -17 40 -43v-208c0 -120 66 -157 147 -156
c93 1 141 54 141 108v256c0 26 16 43 41 43z" />
    <glyph glyph-name="y.ss02" horiz-adv-x="562" 
d="M455 500c25 0 40 -17 40 -43v-178c0 -162 -108 -225 -214 -225c-107 0 -214 63 -214 225v178c0 26 15 43 40 43s40 -17 40 -43v-170c0 -114 66 -157 134 -157s133 43 133 157v170c0 26 16 43 41 43zM281 13c25 0 40 -18 40 -44v-78c0 -26 -15 -43 -40 -43s-40 17 -40 43
v78c0 26 15 44 40 44z" />
    <glyph glyph-name="yacute" unicode="&#xfd;" horiz-adv-x="583" 
d="M312 710c19 16 39 15 55 -3c16 -19 12 -39 -7 -55l-88 -73c-19 -17 -39 -17 -56 2c-15 18 -12 39 8 55zM476 500c25 0 40 -17 40 -43v-391c0 -145 -115 -218 -233 -218c-54 0 -97 7 -143 26c-24 8 -29 29 -22 49c7 22 25 32 47 24c42 -17 70 -24 112 -24
c80 0 163 44 163 165v18h-5c-18 -32 -72 -82 -164 -82c-107 0 -204 62 -204 224v209c0 26 15 43 40 43s40 -17 40 -43v-201c0 -124 66 -158 144 -157c96 1 144 57 144 121v237c0 26 16 43 41 43z" />
    <glyph glyph-name="yacute.ss01" horiz-adv-x="583" 
d="M312 710c19 16 39 15 55 -3c16 -19 12 -39 -7 -55l-88 -73c-19 -17 -39 -17 -56 2c-15 18 -12 39 8 55zM476 500c25 0 40 -17 40 -43v-395c0 -112 -68 -178 -142 -203c-25 -9 -46 1 -54 23c-7 23 3 38 28 49c49 21 92 65 92 141v21h-5c-21 -32 -72 -77 -161 -77
c-110 0 -207 68 -207 225v216c0 26 15 43 40 43s40 -17 40 -43v-208c0 -120 66 -157 147 -156c93 1 141 54 141 108v256c0 26 16 43 41 43z" />
    <glyph glyph-name="yacute.ss02" horiz-adv-x="562" 
d="M302 710c19 16 39 15 55 -3c16 -19 12 -39 -7 -55l-88 -73c-19 -17 -39 -17 -56 2c-15 18 -12 39 8 55zM455 500c25 0 40 -17 40 -43v-178c0 -162 -108 -225 -214 -225c-107 0 -214 63 -214 225v178c0 26 15 43 40 43s40 -17 40 -43v-170c0 -114 66 -157 134 -157
s133 43 133 157v170c0 26 16 43 41 43zM281 13c25 0 40 -18 40 -44v-78c0 -26 -15 -43 -40 -43s-40 17 -40 43v78c0 26 15 44 40 44z" />
    <glyph glyph-name="ycircumflex" unicode="&#x177;" horiz-adv-x="583" 
d="M404 583c-16 -18 -39 -20 -54 -3l-59 62l-59 -62c-17 -16 -38 -15 -54 3c-17 18 -13 39 7 57l76 68c9 9 20 14 30 14s20 -5 30 -14l76 -68c20 -18 23 -39 7 -57zM476 500c25 0 40 -17 40 -43v-391c0 -145 -115 -218 -233 -218c-54 0 -97 7 -143 26c-24 8 -29 29 -22 49
c7 22 25 32 47 24c42 -17 70 -24 112 -24c80 0 163 44 163 165v18h-5c-18 -32 -72 -82 -164 -82c-107 0 -204 62 -204 224v209c0 26 15 43 40 43s40 -17 40 -43v-201c0 -124 66 -158 144 -157c96 1 144 57 144 121v237c0 26 16 43 41 43z" />
    <glyph glyph-name="ycircumflex.ss01" horiz-adv-x="583" 
d="M404 583c-16 -18 -39 -20 -54 -3l-59 62l-59 -62c-17 -16 -38 -15 -54 3c-17 18 -13 39 7 57l76 68c9 9 20 14 30 14s20 -5 30 -14l76 -68c20 -18 23 -39 7 -57zM476 500c25 0 40 -17 40 -43v-395c0 -112 -68 -178 -142 -203c-25 -9 -46 1 -54 23c-7 23 3 38 28 49
c49 21 92 65 92 141v21h-5c-21 -32 -72 -77 -161 -77c-110 0 -207 68 -207 225v216c0 26 15 43 40 43s40 -17 40 -43v-208c0 -120 66 -157 147 -156c93 1 141 54 141 108v256c0 26 16 43 41 43z" />
    <glyph glyph-name="ycircumflex.ss02" horiz-adv-x="562" 
d="M394 583c-16 -18 -39 -20 -54 -3l-59 62l-59 -62c-17 -16 -38 -15 -54 3c-17 18 -13 39 7 57l76 68c9 9 20 14 30 14s20 -5 30 -14l76 -68c20 -18 23 -39 7 -57zM455 500c25 0 40 -17 40 -43v-178c0 -162 -108 -225 -214 -225c-107 0 -214 63 -214 225v178
c0 26 15 43 40 43s40 -17 40 -43v-170c0 -114 66 -157 134 -157s133 43 133 157v170c0 26 16 43 41 43zM281 13c25 0 40 -18 40 -44v-78c0 -26 -15 -43 -40 -43s-40 17 -40 43v78c0 26 15 44 40 44z" />
    <glyph glyph-name="ydieresis" unicode="&#xff;" horiz-adv-x="583" 
d="M222 566c-26 0 -44 18 -44 43s18 43 44 43c25 0 43 -18 43 -43s-18 -43 -43 -43zM363 566c-26 0 -44 18 -44 43s18 43 44 43c25 0 43 -18 43 -43s-18 -43 -43 -43zM476 500c25 0 40 -17 40 -43v-391c0 -145 -115 -218 -233 -218c-54 0 -97 7 -143 26c-24 8 -29 29 -22 49
c7 22 25 32 47 24c42 -17 70 -24 112 -24c80 0 163 44 163 165v18h-5c-18 -32 -72 -82 -164 -82c-107 0 -204 62 -204 224v209c0 26 15 43 40 43s40 -17 40 -43v-201c0 -124 66 -158 144 -157c96 1 144 57 144 121v237c0 26 16 43 41 43z" />
    <glyph glyph-name="ydieresis.ss01" horiz-adv-x="583" 
d="M222 566c-26 0 -44 18 -44 43s18 43 44 43c25 0 43 -18 43 -43s-18 -43 -43 -43zM363 566c-26 0 -44 18 -44 43s18 43 44 43c25 0 43 -18 43 -43s-18 -43 -43 -43zM476 500c25 0 40 -17 40 -43v-395c0 -112 -68 -178 -142 -203c-25 -9 -46 1 -54 23c-7 23 3 38 28 49
c49 21 92 65 92 141v21h-5c-21 -32 -72 -77 -161 -77c-110 0 -207 68 -207 225v216c0 26 15 43 40 43s40 -17 40 -43v-208c0 -120 66 -157 147 -156c93 1 141 54 141 108v256c0 26 16 43 41 43z" />
    <glyph glyph-name="ydieresis.ss02" horiz-adv-x="562" 
d="M212 566c-26 0 -44 18 -44 43s18 43 44 43c25 0 43 -18 43 -43s-18 -43 -43 -43zM353 566c-26 0 -44 18 -44 43s18 43 44 43c25 0 43 -18 43 -43s-18 -43 -43 -43zM455 500c25 0 40 -17 40 -43v-178c0 -162 -108 -225 -214 -225c-107 0 -214 63 -214 225v178
c0 26 15 43 40 43s40 -17 40 -43v-170c0 -114 66 -157 134 -157s133 43 133 157v170c0 26 16 43 41 43zM281 13c25 0 40 -18 40 -44v-78c0 -26 -15 -43 -40 -43s-40 17 -40 43v78c0 26 15 44 40 44z" />
    <glyph glyph-name="ygrave" unicode="&#x1ef3;" horiz-adv-x="583" 
d="M270 710l88 -74c20 -16 23 -37 8 -55c-17 -19 -37 -19 -56 -2l-88 73c-19 16 -23 36 -7 55c16 18 36 19 55 3zM476 500c25 0 40 -17 40 -43v-391c0 -145 -115 -218 -233 -218c-54 0 -97 7 -143 26c-24 8 -29 29 -22 49c7 22 25 32 47 24c42 -17 70 -24 112 -24
c80 0 163 44 163 165v18h-5c-18 -32 -72 -82 -164 -82c-107 0 -204 62 -204 224v209c0 26 15 43 40 43s40 -17 40 -43v-201c0 -124 66 -158 144 -157c96 1 144 57 144 121v237c0 26 16 43 41 43z" />
    <glyph glyph-name="ygrave.ss01" horiz-adv-x="583" 
d="M270 710l88 -74c20 -16 23 -37 8 -55c-17 -19 -37 -19 -56 -2l-88 73c-19 16 -23 36 -7 55c16 18 36 19 55 3zM476 500c25 0 40 -17 40 -43v-395c0 -112 -68 -178 -142 -203c-25 -9 -46 1 -54 23c-7 23 3 38 28 49c49 21 92 65 92 141v21h-5c-21 -32 -72 -77 -161 -77
c-110 0 -207 68 -207 225v216c0 26 15 43 40 43s40 -17 40 -43v-208c0 -120 66 -157 147 -156c93 1 141 54 141 108v256c0 26 16 43 41 43z" />
    <glyph glyph-name="ygrave.ss02" horiz-adv-x="562" 
d="M260 710l88 -74c20 -16 23 -37 8 -55c-17 -19 -37 -19 -56 -2l-88 73c-19 16 -23 36 -7 55c16 18 36 19 55 3zM455 500c25 0 40 -17 40 -43v-178c0 -162 -108 -225 -214 -225c-107 0 -214 63 -214 225v178c0 26 15 43 40 43s40 -17 40 -43v-170c0 -114 66 -157 134 -157
s133 43 133 157v170c0 26 16 43 41 43zM281 13c25 0 40 -18 40 -44v-78c0 -26 -15 -43 -40 -43s-40 17 -40 43v78c0 26 15 44 40 44z" />
    <glyph glyph-name="z" unicode="z" horiz-adv-x="493" 
d="M405 75c26 0 43 -14 43 -38c0 -23 -17 -37 -43 -37h-316c-27 0 -44 14 -44 37c0 13 3 22 13 35l268 353h-225c-25 0 -42 12 -42 36s17 39 42 39h288c20 0 30 -5 40 -19s9 -31 -4 -48l-268 -358h248z" />
    <glyph glyph-name="zacute" unicode="&#x17a;" horiz-adv-x="493" 
d="M269 710c19 16 39 15 55 -3c16 -19 12 -39 -7 -55l-88 -73c-19 -17 -39 -17 -56 2c-15 18 -12 39 8 55zM405 75c26 0 43 -14 43 -38c0 -23 -17 -37 -43 -37h-316c-27 0 -44 14 -44 37c0 13 3 22 13 35l268 353h-225c-25 0 -42 12 -42 36s17 39 42 39h288
c20 0 30 -5 40 -19s9 -31 -4 -48l-268 -358h248z" />
    <glyph glyph-name="zcaron" unicode="&#x17e;" horiz-adv-x="493" 
d="M361 705c16 -18 13 -39 -7 -57l-76 -68c-10 -9 -20 -14 -30 -14s-21 5 -30 14l-76 68c-20 18 -24 39 -7 57c16 18 37 19 54 3l59 -62l59 62c15 17 38 15 54 -3zM405 75c26 0 43 -14 43 -38c0 -23 -17 -37 -43 -37h-316c-27 0 -44 14 -44 37c0 13 3 22 13 35l268 353h-225
c-25 0 -42 12 -42 36s17 39 42 39h288c20 0 30 -5 40 -19s9 -31 -4 -48l-268 -358h248z" />
    <glyph glyph-name="zdotaccent" unicode="&#x17c;" horiz-adv-x="493" 
d="M248 555c-30 0 -51 22 -51 51s21 52 51 52s51 -23 51 -52s-21 -51 -51 -51zM405 75c26 0 43 -14 43 -38c0 -23 -17 -37 -43 -37h-316c-27 0 -44 14 -44 37c0 13 3 22 13 35l268 353h-225c-25 0 -42 12 -42 36s17 39 42 39h288c20 0 30 -5 40 -19s9 -31 -4 -48l-268 -358
h248z" />
    <glyph glyph-name="ordfeminine" unicode="&#xaa;" horiz-adv-x="394" 
d="M202 467c23 0 36 -11 36 -32c0 -22 -13 -34 -36 -34c-89 0 -162 52 -162 150c0 100 63 158 159 158c95 0 155 -48 155 -142v-129c0 -22 -13 -37 -34 -37c-22 0 -35 15 -35 37v115c0 65 -24 92 -86 92c-61 0 -89 -36 -89 -94c0 -55 40 -84 92 -84z" />
    <glyph glyph-name="ordmasculine" unicode="&#xba;" horiz-adv-x="390" 
d="M195 400c-79 0 -155 52 -155 155c0 104 76 154 155 154c80 0 155 -50 155 -154c0 -103 -75 -155 -155 -155zM195 464c46 0 87 29 87 91s-41 90 -87 90c-45 0 -87 -28 -87 -90s42 -91 87 -91z" />
    <glyph glyph-name="zero" unicode="0" horiz-adv-x="646" 
d="M323 659c153 0 269 -130 269 -332c0 -203 -116 -333 -269 -334s-269 131 -269 334c0 202 116 332 269 332zM323 581c-109 0 -185 -90 -185 -254s76 -256 185 -255s185 91 185 255s-76 254 -185 254z" />
    <glyph glyph-name="one" unicode="1" horiz-adv-x="345" 
d="M193 652c31 0 65 -18 65 -79v-532c0 -26 -15 -44 -41 -44s-41 18 -41 44v507c0 9 -11 14 -18 6l-63 -68c-18 -18 -40 -18 -57 -2s-16 40 1 57l59 60c22 22 49 51 95 51z" />
    <glyph glyph-name="two" unicode="2" horiz-adv-x="572" 
d="M474 78c25 0 41 -15 41 -39s-16 -39 -41 -39h-359c-4 0 -23 1 -35 19c-10 16 -10 38 9 52l255 205c53 43 92 83 92 155c0 88 -58 150 -149 150c-87 0 -153 -56 -153 -145c0 -37 14 -67 34 -90c15 -20 16 -40 2 -54c-20 -22 -40 -15 -57 0c-50 43 -59 108 -59 139
c0 130 101 227 235 227c139 0 228 -103 228 -229c0 -86 -42 -151 -132 -221l-165 -130h254z" />
    <glyph glyph-name="three" unicode="3" horiz-adv-x="526" 
d="M368 347c54 -25 103 -79 103 -163c0 -120 -91 -191 -221 -191c-90 0 -163 38 -197 79c-16 20 -16 39 3 57c17 17 35 18 55 0c33 -31 67 -60 136 -60c86 0 143 40 143 117c0 73 -54 112 -139 112h-14c-26 0 -42 17 -42 39c0 23 16 38 42 38h8c61 0 122 39 122 105
c0 54 -47 103 -117 103c-72 0 -103 -50 -118 -72c-15 -20 -34 -22 -53 -9c-20 13 -25 33 -11 57c25 46 89 100 183 100c121 0 197 -87 197 -173c0 -60 -40 -112 -80 -139z" />
    <glyph glyph-name="four" unicode="4" horiz-adv-x="543" 
d="M473 247c25 0 41 -15 41 -38c0 -24 -16 -39 -41 -39h-52c-39 0 -52 -17 -52 -67v-66c0 -25 -15 -40 -40 -40c-24 0 -39 15 -39 40v66c0 50 -13 67 -52 67h-168c-25 0 -41 16 -41 39c0 12 4 20 12 33l241 392c14 22 37 30 58 16c21 -13 24 -37 11 -57l-220 -347h88
c28 0 51 -2 72 -20v94c0 26 14 40 38 40c25 0 38 -14 38 -40v-91c19 16 43 18 61 18h45z" />
    <glyph glyph-name="five" unicode="5" horiz-adv-x="542" 
d="M282 441c121 0 206 -86 206 -220c0 -140 -97 -228 -229 -228c-86 0 -160 38 -193 81c-16 22 -15 40 3 57c17 17 36 19 62 -6c24 -26 64 -56 126 -56c86 0 150 56 150 152c0 89 -52 143 -139 143c-61 0 -94 -31 -111 -48c-21 -18 -42 -23 -61 -15c-20 8 -29 24 -24 54
l33 258c4 26 24 39 45 39h249c25 0 41 -15 41 -39c0 -23 -16 -38 -41 -38h-225l-27 -196c21 25 59 62 135 62z" />
    <glyph glyph-name="six" unicode="6" horiz-adv-x="602" 
d="M283 319c-13 -9 -34 -18 -50 3c-14 19 -7 37 9 53c24 24 69 47 127 47c111 0 188 -86 188 -204c0 -132 -98 -225 -239 -225c-160 0 -264 120 -264 294c0 248 224 360 301 371c28 5 45 -6 49 -31c4 -26 -13 -36 -36 -45c-119 -41 -232 -129 -232 -292
c0 -126 63 -221 183 -221c93 0 157 58 157 150c0 87 -56 128 -115 128c-35 0 -58 -13 -78 -28z" />
    <glyph glyph-name="seven" unicode="7" horiz-adv-x="460" 
d="M435 621c3 -10 1 -22 -5 -32l-263 -566c-13 -22 -36 -29 -57 -17c-21 10 -26 35 -13 57l244 512h-275c-25 0 -42 15 -42 38c0 24 17 39 42 39h328c23 0 37 -12 41 -31z" />
    <glyph glyph-name="eight" unicode="8" horiz-adv-x="557" 
d="M413 351c64 -33 99 -92 99 -162c0 -110 -86 -196 -233 -196s-234 86 -234 196c0 70 35 129 99 162c-43 30 -71 76 -71 133c0 105 92 175 206 175c113 0 205 -70 205 -175c0 -57 -28 -103 -71 -133zM279 584c-82 0 -126 -42 -126 -99c0 -62 37 -104 126 -104
c88 0 125 42 125 104c0 57 -44 99 -125 99zM278 68c85 0 153 41 153 121c0 84 -62 124 -152 124c-91 0 -153 -41 -153 -124c0 -80 67 -121 152 -121z" />
    <glyph glyph-name="nine" unicode="9" horiz-adv-x="602" 
d="M328 336c13 9 31 19 49 -1c14 -17 10 -34 -6 -52c-25 -26 -73 -50 -131 -50c-123 0 -195 95 -195 208c0 129 103 218 243 218c164 0 260 -118 260 -291c0 -256 -227 -362 -305 -375c-27 -4 -45 4 -49 30c-4 31 18 41 37 48c103 35 235 117 235 296
c0 121 -55 216 -180 216c-92 0 -160 -56 -160 -149c0 -77 49 -126 121 -126c37 0 61 14 81 28z" />
    <glyph glyph-name="uni00B9" unicode="&#xb9;" horiz-adv-x="257" 
d="M133 706c37 0 55 -18 55 -61v-213c0 -22 -12 -34 -31 -34c-20 0 -31 12 -31 34v210c0 7 -6 8 -11 3l-24 -30c-12 -13 -28 -13 -41 0c-14 13 -13 29 1 43l24 24c20 18 36 24 58 24z" />
    <glyph glyph-name="uni00B2" unicode="&#xb2;" horiz-adv-x="340" 
d="M257 458c19 0 32 -11 32 -29c0 -17 -12 -27 -32 -27h-177c-9 0 -18 4 -22 12c-6 10 -4 22 8 32l129 112c20 17 25 33 25 50c0 32 -21 50 -54 50c-32 0 -53 -18 -53 -42c0 -11 3 -20 6 -27c6 -17 1 -28 -14 -34c-17 -7 -31 -7 -40 9c-7 12 -13 31 -13 50
c0 51 46 95 118 95c68 0 111 -42 111 -101c0 -39 -19 -57 -50 -86l-71 -64h97z" />
    <glyph glyph-name="uni00B3" unicode="&#xb3;" horiz-adv-x="323" 
d="M221 567c29 -11 52 -34 52 -73c0 -53 -33 -96 -114 -96c-47 0 -81 11 -99 31c-13 13 -14 24 0 38s25 11 38 1c14 -11 30 -20 56 -20c38 0 58 18 58 45s-22 43 -51 43h-10c-20 0 -29 9 -29 25c0 17 9 26 29 26h16c19 0 34 17 34 39c0 23 -17 33 -46 33
c-23 0 -38 -9 -50 -24c-7 -8 -18 -18 -36 -6c-15 10 -16 22 -7 37c18 28 52 43 95 43c61 0 101 -29 101 -79c0 -24 -10 -48 -37 -63z" />
    <glyph glyph-name="uni2074" unicode="&#x2074;" horiz-adv-x="319" 
d="M254 527c15 0 29 -13 29 -29c0 -17 -14 -28 -29 -28c-17 0 -27 -3 -27 -18v-24c0 -19 -11 -30 -29 -30c-19 0 -29 11 -29 30v24c0 13 -8 18 -24 18h-84c-19 0 -32 12 -32 28c0 9 3 14 8 23l107 172c11 17 27 21 43 11c15 -9 19 -28 8 -44l-90 -133h34c14 0 24 -3 32 -9
v25c0 18 10 30 27 30c16 0 27 -12 27 -30v-24c6 5 14 8 29 8z" />
    <glyph glyph-name="fraction" unicode="&#x2044;" horiz-adv-x="545" 
d="M452 706c16 -10 17 -24 6 -44l-339 -663c-8 -14 -29 -18 -43 -8c-14 9 -17 24 -6 44l340 662c8 15 27 19 42 9z" />
    <glyph glyph-name="onehalf" unicode="&#xbd;" horiz-adv-x="626" 
d="M472 706c16 -10 17 -24 6 -44l-339 -663c-8 -14 -29 -18 -43 -8c-14 9 -17 24 -6 44l340 662c8 15 27 19 42 9zM145 706c37 0 55 -18 55 -61v-213c0 -22 -12 -34 -31 -34c-20 0 -31 12 -31 34v210c0 7 -6 8 -11 3l-24 -30c-12 -13 -28 -13 -41 0c-14 13 -13 29 1 43
l24 24c20 18 36 24 58 24zM544 56c19 0 32 -11 32 -29c0 -17 -12 -27 -32 -27h-177c-9 0 -18 4 -22 12c-6 10 -4 22 8 32l129 112c20 17 25 33 25 50c0 32 -21 50 -54 50c-32 0 -53 -18 -53 -42c0 -11 3 -20 6 -27c6 -17 1 -28 -14 -34c-17 -7 -31 -7 -40 9
c-7 12 -13 31 -13 50c0 51 46 95 118 95c68 0 111 -42 111 -101c0 -39 -19 -57 -50 -86l-71 -64h97z" />
    <glyph glyph-name="onequarter" unicode="&#xbc;" horiz-adv-x="617" 
d="M472 706c16 -10 17 -24 6 -44l-339 -663c-8 -14 -29 -18 -43 -8c-14 9 -17 24 -6 44l340 662c8 15 27 19 42 9zM145 706c37 0 55 -18 55 -61v-213c0 -22 -12 -34 -31 -34c-20 0 -31 12 -31 34v210c0 7 -6 8 -11 3l-24 -30c-12 -13 -28 -13 -41 0c-14 13 -13 29 1 43
l24 24c20 18 36 24 58 24zM533 130c15 0 29 -13 29 -29c0 -17 -14 -28 -29 -28c-17 0 -27 -3 -27 -18v-24c0 -19 -11 -30 -29 -30c-19 0 -29 11 -29 30v24c0 13 -8 18 -24 18h-84c-19 0 -32 12 -32 28c0 9 3 14 8 23l107 172c11 17 27 21 43 11c15 -9 19 -28 8 -44l-90 -133
h34c14 0 24 -3 32 -9v25c0 18 10 30 27 30c16 0 27 -12 27 -30v-24c6 5 14 8 29 8z" />
    <glyph glyph-name="threequarters" unicode="&#xbe;" horiz-adv-x="631" 
d="M509 706c16 -10 17 -24 6 -44l-339 -663c-8 -14 -29 -18 -43 -8c-14 9 -17 24 -6 44l340 662c8 15 27 19 42 9zM221 567c29 -11 52 -34 52 -73c0 -53 -33 -96 -114 -96c-47 0 -81 11 -99 31c-13 13 -14 24 0 38s25 11 38 1c14 -11 30 -20 56 -20c38 0 58 18 58 45
s-22 43 -51 43h-10c-20 0 -29 9 -29 25c0 17 9 26 29 26h16c19 0 34 17 34 39c0 23 -17 33 -46 33c-23 0 -38 -9 -50 -24c-7 -8 -18 -18 -36 -6c-15 10 -16 22 -7 37c18 28 52 43 95 43c61 0 101 -29 101 -79c0 -24 -10 -48 -37 -63zM565 126c15 0 29 -13 29 -29
c0 -17 -14 -28 -29 -28c-17 0 -27 -3 -27 -18v-24c0 -19 -11 -30 -29 -30c-19 0 -29 11 -29 30v24c0 13 -8 18 -24 18h-84c-19 0 -32 12 -32 28c0 9 3 14 8 23l107 172c11 17 27 21 43 11c15 -9 19 -28 8 -44l-90 -133h34c14 0 24 -3 32 -9v25c0 18 10 30 27 30
c16 0 27 -12 27 -30v-24c6 5 14 8 29 8z" />
    <glyph glyph-name="period" unicode="." horiz-adv-x="226" 
d="M113 0c-30 0 -53 24 -53 53c0 30 23 54 53 54s53 -24 53 -54c0 -29 -23 -53 -53 -53z" />
    <glyph glyph-name="comma" unicode="," horiz-adv-x="230" 
d="M163 20l-68 -131c-5 -10 -15 -18 -29 -18c-18 0 -33 15 -33 32c0 4 1 8 2 12l47 146c7 17 23 28 43 28c25 0 45 -20 45 -45c0 -9 -2 -14 -7 -24z" />
    <glyph glyph-name="colon" unicode=":" horiz-adv-x="267" 
d="M133 292c-30 0 -53 24 -53 53c0 30 23 54 53 54s53 -24 53 -54c0 -29 -23 -53 -53 -53zM133 0c-30 0 -53 24 -53 53c0 30 23 54 53 54s53 -24 53 -54c0 -29 -23 -53 -53 -53z" />
    <glyph glyph-name="semicolon" unicode=";" horiz-adv-x="275" 
d="M141 292c-30 0 -53 24 -53 53c0 30 23 54 53 54s53 -24 53 -54c0 -29 -23 -53 -53 -53zM172 20l-68 -131c-5 -10 -15 -18 -29 -18c-18 0 -33 15 -33 32c0 4 1 8 2 12l47 146c7 17 23 28 43 28c25 0 45 -20 45 -45c0 -9 -2 -14 -7 -24z" />
    <glyph glyph-name="ellipsis" unicode="&#x2026;" horiz-adv-x="683" 
d="M113 0c-30 0 -53 24 -53 53c0 30 23 54 53 54s53 -24 53 -54c0 -29 -23 -53 -53 -53zM342 0c-30 0 -53 24 -53 53c0 30 23 54 53 54s53 -24 53 -54c0 -29 -23 -53 -53 -53zM570 0c-30 0 -53 24 -53 53c0 30 23 54 53 54s53 -24 53 -54c0 -29 -23 -53 -53 -53z" />
    <glyph glyph-name="exclam" unicode="!" horiz-adv-x="291" 
d="M146 659c25 0 40 -17 40 -43v-392c0 -26 -15 -43 -40 -43s-41 17 -41 43v392c0 26 16 43 41 43zM146 -7c-33 0 -59 26 -59 58s26 58 59 58c32 0 58 -26 58 -58s-26 -58 -58 -58z" />
    <glyph glyph-name="exclamdown" unicode="&#xa1;" horiz-adv-x="304" 
d="M146 509c32 0 58 -26 58 -58s-26 -58 -58 -58c-33 0 -59 26 -59 58s26 58 59 58zM146 -157c-25 0 -41 17 -41 43v392c0 26 16 43 41 43s40 -17 40 -43v-392c0 -26 -15 -43 -40 -43z" />
    <glyph glyph-name="question" unicode="?" horiz-adv-x="563" 
d="M344 267c-26 -1 -33 -2 -35 -20c-2 -27 -2 -9 -2 -39c-2 -29 -5 -48 -41 -48c-32 0 -42 15 -42 36v99c0 26 14 40 44 40h30c70 0 116 50 116 123c0 75 -49 123 -135 123c-87 0 -123 -57 -136 -109c-5 -21 -21 -35 -48 -29c-26 5 -31 23 -28 45c9 62 65 170 216 170
c134 0 213 -82 213 -200c0 -110 -69 -181 -152 -191zM263 -7c-32 0 -58 26 -58 58s26 58 58 58c33 0 59 -26 59 -58s-26 -58 -59 -58z" />
    <glyph glyph-name="questiondown" unicode="&#xbf;" horiz-adv-x="482" 
d="M259 507c32 0 58 -26 58 -58s-26 -58 -58 -58c-33 0 -59 26 -59 58s26 58 59 58zM178 233c26 1 33 2 35 20c2 27 2 9 2 39c2 29 5 48 41 48c32 0 42 -15 42 -36v-99c0 -26 -14 -40 -44 -40h-30c-70 0 -116 -50 -116 -123c0 -75 49 -123 135 -123c87 0 123 57 136 109
c5 21 21 35 48 29c26 -5 31 -23 28 -45c-9 -62 -65 -170 -216 -170c-134 0 -213 82 -213 200c0 110 69 181 152 191z" />
    <glyph glyph-name="periodcentered" unicode="&#xb7;" horiz-adv-x="236" 
d="M118 292c-30 0 -53 24 -53 53c0 30 23 54 53 54s53 -24 53 -54c0 -29 -23 -53 -53 -53z" />
    <glyph glyph-name="bullet" unicode="&#x2022;" horiz-adv-x="367" 
d="M184 223c-57 0 -101 44 -101 101s44 100 101 100c56 0 100 -43 100 -100s-44 -101 -100 -101z" />
    <glyph glyph-name="asterisk" unicode="*" horiz-adv-x="401" 
d="M319 526c20 -8 25 -30 15 -48c-11 -18 -32 -24 -49 -11l-61 46l10 -75c3 -21 -13 -37 -33 -37c-21 0 -37 16 -34 37l10 75l-61 -46c-17 -13 -38 -7 -49 10c-10 19 -5 41 15 49l70 29l-70 29c-20 8 -25 30 -15 49c11 17 32 23 49 10l61 -46l-10 75c-3 21 13 37 34 37
c20 0 36 -16 33 -37l-10 -75l61 46c17 13 38 7 49 -11c10 -18 5 -40 -15 -48l-70 -29z" />
    <glyph glyph-name="numbersign" unicode="#" horiz-adv-x="688" 
d="M603 488c24 0 39 -14 39 -36s-15 -36 -39 -36h-79l-43 -175h62c24 0 39 -14 39 -36s-15 -36 -39 -36h-79l-35 -140c-6 -22 -22 -33 -43 -28s-31 22 -25 46l30 122h-173l-35 -140c-5 -22 -22 -33 -42 -28c-22 5 -31 22 -25 46l30 122h-60c-25 0 -39 14 -39 36s14 36 39 36
h78l43 175h-61c-25 0 -39 14 -39 36s14 36 39 36h79l33 134c6 23 22 33 43 28s30 -22 25 -45l-29 -117h174l33 134c5 23 21 33 43 28c20 -5 30 -22 24 -45l-29 -117h61zM409 241l44 175h-174l-43 -175h173z" />
    <glyph glyph-name="slash" unicode="/" horiz-adv-x="389" 
d="M353 736c20 -7 27 -26 18 -49l-278 -687c-9 -22 -27 -30 -47 -22s-27 26 -18 49l278 687c8 22 27 30 47 22z" />
    <glyph glyph-name="backslash" unicode="\" horiz-adv-x="389" 
d="M36 736c20 8 39 0 47 -22l278 -687c9 -23 2 -41 -18 -49s-38 0 -47 22l-278 687c-9 23 -2 42 18 49z" />
    <glyph glyph-name="parenleft" unicode="(" horiz-adv-x="315" 
d="M235 699c23 -10 30 -32 21 -57c-30 -66 -85 -162 -85 -349s54 -283 85 -349c9 -25 2 -47 -21 -57c-23 -9 -44 1 -54 25c-34 68 -94 200 -94 381s61 313 94 381c10 24 31 34 54 25z" />
    <glyph glyph-name="parenright" unicode=")" horiz-adv-x="315" 
d="M80 699c23 9 44 -1 54 -25c33 -68 94 -200 94 -381s-60 -313 -94 -381c-10 -24 -31 -34 -54 -25c-23 10 -30 32 -21 57c31 66 85 162 85 349s-55 283 -85 349c-9 25 -2 47 21 57z" />
    <glyph glyph-name="braceleft" unicode="{" horiz-adv-x="392" 
d="M317 -43c25 0 40 -14 40 -39c0 -24 -15 -38 -40 -38h-33c-76 0 -134 26 -134 143v187c0 30 -6 46 -29 46h-18c-21 0 -37 10 -37 35s16 35 37 35h18c23 0 29 16 29 46v187c0 117 58 143 134 143h33c25 0 40 -14 40 -38c0 -25 -15 -39 -40 -39h-20c-44 0 -66 -18 -66 -82
v-189c0 -41 -34 -56 -53 -56v-14c19 0 53 -15 53 -56v-189c0 -64 22 -82 66 -82h20z" />
    <glyph glyph-name="braceright" unicode="}" horiz-adv-x="392" 
d="M75 -43h20c44 0 66 18 66 82v189c0 41 34 56 53 56v14c-19 0 -53 15 -53 56v189c0 64 -22 82 -66 82h-20c-25 0 -40 14 -40 39c0 24 15 38 40 38h33c76 0 134 -26 134 -143v-187c0 -30 6 -46 29 -46h18c21 0 37 -10 37 -35s-16 -35 -37 -35h-18c-23 0 -29 -16 -29 -46
v-187c0 -117 -58 -143 -134 -143h-33c-25 0 -40 14 -40 38c0 25 15 39 40 39z" />
    <glyph glyph-name="bracketleft" unicode="[" horiz-adv-x="332" 
d="M258 -45c24 0 39 -13 39 -38c0 -24 -15 -38 -39 -38h-35c-91 0 -136 39 -136 136v551c0 98 45 137 136 137h35c24 0 39 -14 39 -38c0 -25 -15 -39 -39 -39h-35c-38 0 -55 -16 -55 -76v-519c0 -59 17 -76 55 -76h35z" />
    <glyph glyph-name="bracketright" unicode="]" horiz-adv-x="332" 
d="M74 -45h35c38 0 55 17 55 76v519c0 60 -17 76 -55 76h-35c-24 0 -39 14 -39 39c0 24 15 38 39 38h35c91 0 136 -39 136 -137v-551c0 -97 -45 -136 -136 -136h-35c-24 0 -39 14 -39 38c0 25 15 38 39 38z" />
    <glyph glyph-name="hyphen" unicode="-" horiz-adv-x="469" 
d="M382 281c0 -25 -17 -40 -43 -40h-208c-26 0 -44 15 -44 40s18 40 44 40h208c26 0 43 -15 43 -40z" />
    <glyph glyph-name="endash" unicode="&#x2013;" horiz-adv-x="584" 
d="M543 281c0 -25 -18 -40 -44 -40h-414c-26 0 -44 15 -44 40s18 40 44 40h414c26 0 44 -15 44 -40z" />
    <glyph glyph-name="emdash" unicode="&#x2014;" horiz-adv-x="810" 
d="M781 281c0 -25 -17 -40 -43 -40h-666c-26 0 -43 15 -43 40s17 40 43 40h666c26 0 43 -15 43 -40z" />
    <glyph glyph-name="underscore" unicode="_" horiz-adv-x="619" 
d="M536 -86c0 -25 -18 -40 -44 -40h-366c-26 0 -43 15 -43 40s17 40 43 40h366c26 0 44 -15 44 -40z" />
    <glyph glyph-name="quotesinglbase" unicode="&#x201a;" horiz-adv-x="243" 
d="M189 46l-79 -152c-6 -10 -16 -18 -31 -16c-25 0 -38 23 -32 44l61 168c7 19 22 31 43 31c29 0 47 -21 47 -48c0 -9 -3 -15 -9 -27z" />
    <glyph glyph-name="quotedblbase" unicode="&#x201e;" horiz-adv-x="442" 
d="M189 46l-79 -152c-6 -10 -16 -18 -31 -16c-25 0 -38 23 -32 44l61 168c7 19 22 31 43 31c29 0 47 -21 47 -48c0 -9 -3 -15 -9 -27zM388 46l-79 -152c-6 -10 -16 -18 -31 -16c-25 0 -38 23 -32 44l61 168c7 19 22 31 43 31c29 0 47 -21 47 -48c0 -9 -3 -15 -9 -27z" />
    <glyph glyph-name="quotedblleft" unicode="&#x201c;" horiz-adv-x="439" 
d="M52 535l79 152c6 10 16 18 31 16c25 0 38 -23 32 -44l-61 -168c-7 -19 -22 -31 -43 -31c-29 0 -47 21 -47 48c0 9 3 15 9 27zM251 535l79 152c6 10 16 18 31 16c25 0 38 -23 32 -44l-61 -168c-7 -19 -22 -31 -43 -31c-29 0 -47 21 -47 48c0 9 3 15 9 27z" />
    <glyph glyph-name="quotedblright" unicode="&#x201d;" horiz-adv-x="439" 
d="M188 632l-79 -152c-6 -10 -16 -18 -31 -16c-25 0 -38 23 -32 44l61 168c7 19 22 31 43 31c29 0 47 -21 47 -48c0 -9 -3 -15 -9 -27zM387 632l-79 -152c-6 -10 -16 -18 -31 -16c-25 0 -38 23 -32 44l61 168c7 19 22 31 43 31c29 0 47 -21 47 -48c0 -9 -3 -15 -9 -27z" />
    <glyph glyph-name="quoteleft" unicode="&#x2018;" horiz-adv-x="240" 
d="M52 535l79 152c6 10 16 18 31 16c25 0 38 -23 32 -44l-61 -168c-7 -19 -22 -31 -43 -31c-29 0 -47 21 -47 48c0 9 3 15 9 27z" />
    <glyph glyph-name="quoteright" unicode="&#x2019;" horiz-adv-x="240" 
d="M188 632l-79 -152c-6 -10 -16 -18 -31 -16c-25 0 -38 23 -32 44l61 168c7 19 22 31 43 31c29 0 47 -21 47 -48c0 -9 -3 -15 -9 -27z" />
    <glyph glyph-name="guillemotleft" unicode="&#xab;" horiz-adv-x="588" 
d="M141 279l128 -154c16 -20 13 -40 -4 -53s-35 -11 -50 8l-139 172c-8 10 -12 18 -12 27c0 8 4 16 12 26l138 172c15 19 33 21 51 8c17 -13 20 -33 4 -53zM366 279l128 -154c16 -20 13 -40 -4 -53s-35 -11 -50 8l-139 172c-8 10 -12 18 -12 27c0 8 4 16 12 26l138 172
c15 19 33 21 51 8c17 -13 20 -33 4 -53z" />
    <glyph glyph-name="guillemotright" unicode="&#xbb;" horiz-adv-x="588" 
d="M222 279l-128 153c-16 20 -13 40 4 53c18 13 36 11 51 -8l138 -172c8 -10 12 -18 12 -26c0 -9 -4 -17 -12 -27l-139 -172c-15 -19 -33 -21 -50 -8s-20 33 -4 53zM447 279l-128 153c-16 20 -13 40 4 53c18 13 36 11 51 -8l138 -172c8 -10 12 -18 12 -26
c0 -9 -4 -17 -12 -27l-139 -172c-15 -19 -33 -21 -50 -8s-20 33 -4 53z" />
    <glyph glyph-name="guilsinglleft" unicode="&#x2039;" horiz-adv-x="363" 
d="M141 279l128 -154c16 -20 13 -40 -4 -53s-35 -11 -50 8l-139 172c-8 10 -12 18 -12 27c0 8 4 16 12 26l138 172c15 19 33 21 51 8c17 -13 20 -33 4 -53z" />
    <glyph glyph-name="guilsinglright" unicode="&#x203a;" horiz-adv-x="363" 
d="M222 279l-128 153c-16 20 -13 40 4 53c18 13 36 11 51 -8l138 -172c8 -10 12 -18 12 -26c0 -9 -4 -17 -12 -27l-139 -172c-15 -19 -33 -21 -50 -8s-20 33 -4 53z" />
    <glyph glyph-name="quotedbl" unicode="&#x22;" horiz-adv-x="398" 
d="M105 709c25 0 40 -17 40 -43v-160c0 -26 -15 -43 -40 -43s-41 17 -41 43v160c0 26 16 43 41 43zM293 709c25 0 40 -17 40 -43v-160c0 -26 -15 -43 -40 -43s-41 17 -41 43v160c0 26 16 43 41 43z" />
    <glyph glyph-name="quotesingle" unicode="'" horiz-adv-x="210" 
d="M105 709c25 0 40 -17 40 -43v-160c0 -26 -15 -43 -40 -43s-41 17 -41 43v160c0 26 16 43 41 43z" />
    <glyph glyph-name="space" unicode=" " horiz-adv-x="283" 
 />
    <glyph glyph-name="cent" unicode="&#xa2;" horiz-adv-x="576" 
d="M508 208c18 -17 20 -39 3 -57c-37 -40 -88 -72 -154 -80v-35c0 -26 -16 -43 -40 -43c-25 0 -41 17 -41 43v37c-126 19 -212 121 -212 253s86 234 212 253v37c0 26 16 43 41 43c24 0 40 -17 40 -43v-35c63 -8 112 -37 149 -75c17 -16 13 -37 -4 -54
c-18 -18 -37 -19 -54 -2c-31 33 -70 57 -126 57c-103 0 -176 -79 -176 -181s73 -181 175 -181c62 0 103 30 132 62c17 18 37 18 55 1z" />
    <glyph glyph-name="currency" unicode="&#xa4;" horiz-adv-x="639" 
d="M547 151c19 -18 20 -41 2 -58c-17 -19 -40 -17 -59 2l-19 19c-42 -29 -93 -45 -151 -45c-60 0 -114 18 -156 49l-23 -23c-18 -18 -41 -20 -58 -2c-19 17 -17 41 2 59l23 23c-29 42 -45 94 -45 151s16 109 45 151l-24 24c-18 18 -20 41 -2 58c17 19 41 17 59 -2l23 -23
c42 31 96 49 156 49c58 0 109 -16 151 -45l19 19c18 19 42 21 59 2c18 -17 16 -40 -2 -58l-19 -19c31 -43 48 -96 48 -156s-17 -113 -48 -156zM145 326c0 -104 71 -181 175 -181s175 77 175 181s-71 181 -175 181s-175 -77 -175 -181z" />
    <glyph glyph-name="dollar" unicode="$" horiz-adv-x="571" 
d="M518 181c0 -103 -79 -178 -199 -187v-25c0 -20 -11 -32 -29 -32s-30 12 -30 32v26c-97 10 -167 60 -195 98c-18 23 -16 40 2 57c21 21 37 14 53 -2c25 -26 68 -69 140 -80v239c-4 2 -7 3 -11 4c-88 30 -167 69 -167 173c0 97 72 165 178 174v19c0 20 12 32 30 32
s29 -12 29 -32v-20c74 -9 134 -45 163 -81c17 -21 16 -35 -4 -54c-19 -18 -34 -20 -51 -2c-12 13 -47 51 -108 63v-212c1 0 2 -1 3 -1c89 -29 196 -71 196 -189zM157 488c0 -50 39 -75 103 -98v195c-62 -8 -103 -47 -103 -97zM319 66c80 9 123 60 123 114
c0 56 -45 80 -123 107v-221z" />
    <glyph glyph-name="Euro" unicode="&#x20ac;" horiz-adv-x="592" 
d="M510 145c21 -12 27 -30 15 -55c-26 -51 -94 -97 -179 -97c-121 0 -202 93 -230 228h-37c-21 0 -33 11 -33 30s12 30 33 30h29c-1 15 -2 30 -2 46c0 14 1 28 2 42h-29c-21 0 -33 11 -33 30s12 30 33 30h37c27 136 109 230 231 230c82 0 144 -42 169 -86
c12 -25 6 -39 -16 -53c-27 -17 -38 -6 -53 14c-20 24 -52 50 -100 50c-77 0 -128 -63 -149 -155h134c20 0 32 -12 32 -31c0 -18 -12 -29 -33 -29h-142c-1 -14 -2 -28 -2 -43s1 -30 2 -45h143c20 0 32 -12 32 -31c0 -18 -12 -29 -33 -29h-133c21 -91 73 -153 154 -153
c60 0 91 36 106 60c12 21 27 32 52 17z" />
    <glyph glyph-name="florin" unicode="&#x192;" horiz-adv-x="488" 
d="M346 627c-86 0 -123 -49 -123 -137v-115h147c26 0 43 -13 43 -39s-17 -39 -43 -39h-147v-246c0 -97 -56 -145 -143 -145h-24c-25 0 -41 14 -41 37c0 24 16 38 41 38h24c39 0 63 19 63 70v439c0 134 70 212 203 212h68c25 0 40 -14 40 -37c0 -24 -15 -38 -40 -38h-68z" />
    <glyph glyph-name="sterling" unicode="&#xa3;" horiz-adv-x="519" 
d="M428 77c26 0 42 -15 42 -38c0 -24 -16 -39 -42 -39h-369c-24 0 -39 12 -39 36s15 37 39 37h8c21 0 33 14 33 39v328c0 134 71 213 204 213h101c24 0 40 -14 40 -38s-16 -37 -40 -37h-101c-86 0 -123 -49 -123 -138v-65h150c26 0 44 -13 44 -39s-18 -39 -44 -39h-150v-145
c0 -33 -4 -56 -13 -75h260z" />
    </font>
</defs>
</svg>
