<?xml version="1.0" standalone="no"?>
<!DOCTYPE svg PUBLIC "-//W3C//DTD SVG 1.1//EN" "http://www.w3.org/Graphics/SVG/1.1/DTD/svg11.dtd" >
<svg xmlns="http://www.w3.org/2000/svg" xmlns:xlink="http://www.w3.org/1999/xlink" version="1.1">
<metadata>
Created by FontForge 20190801 at Thu Oct 26 12:28:19 2017
 By Unknown
Copyright \(c\) 2017 by Paulo Goode. All rights reserved.
</metadata>
<defs>
<font id="Torus-Thin" horiz-adv-x="624" >
  <font-face 
    font-family="Torus Thin"
    font-weight="250"
    font-stretch="normal"
    units-per-em="1000"
    panose-1="0 0 3 0 0 0 0 0 0 0"
    ascent="800"
    descent="-200"
    x-height="498"
    cap-height="652"
    bbox="-331.25 -186 1042 897.271"
    underline-thickness="50"
    underline-position="-100"
    stemh="34"
    stemv="34"
    unicode-range="U+0020-FB02"
  />
<missing-glyph horiz-adv-x="900" 
d="M316 17c13 0 19 -6 19 -17s-6 -17 -19 -17h-38c-112 0 -150 47 -150 177v332c0 130 68 177 150 177h38c13 0 19 -6 19 -17s-6 -17 -19 -17h-38c-88 0 -116 -63 -116 -159v-300c0 -96 -2 -159 116 -159h38zM622 669c82 0 150 -47 150 -177v-332c0 -130 -38 -177 -150 -177
h-38c-13 0 -19 6 -19 17s6 17 19 17h38c118 0 116 63 116 159v300c0 96 -28 159 -116 159h-38c-13 0 -19 6 -19 17s6 17 19 17h38zM316 468h27c19 0 25 -6 25 -20s-6 -20 -25 -20h-27c-19 0 -24 6 -24 20s5 20 24 20zM557 428c-19 0 -25 6 -25 20s6 20 25 20h27
c19 0 24 -6 24 -20s-5 -20 -24 -20h-27zM602 176c-2 -11 -11 -12 -24 -8c-26 8 -73 19 -129 19c-50 0 -103 -11 -129 -19c-13 -4 -21 -3 -23 9c-3 12 5 18 24 23c44 12 74 19 128 19s83 -7 128 -19c19 -5 27 -11 25 -24z" />
    <glyph glyph-name="f_f" unicode="ff" horiz-adv-x="688" 
d="M632 702c13 0 16 -6 16 -16s-3 -16 -16 -16h-41c-73 0 -117 -30 -117 -140v-30h138c12 0 16 -8 16 -16s-4 -16 -16 -16h-138v-448c0 -14 -6 -20 -17 -20s-17 6 -17 20v448h-264v-448c0 -14 -6 -20 -17 -20s-17 6 -17 20v448h-94c-12 0 -16 8 -16 16s4 16 16 16h94v36
c0 104 50 166 146 166h46c13 0 16 -6 16 -16s-3 -16 -16 -16h-41c-73 0 -117 -30 -117 -140v-30h264v36c0 104 50 166 146 166h46z" />
    <glyph glyph-name="f_f_i" unicode="ffi" horiz-adv-x="868" 
d="M632 702c13 0 16 -6 16 -16s-3 -16 -16 -16h-41c-73 0 -117 -30 -117 -140v-30h138c12 0 16 -8 16 -16s-4 -16 -16 -16h-138v-448c0 -14 -6 -20 -17 -20s-17 6 -17 20v448h-264v-448c0 -14 -6 -20 -17 -20s-17 6 -17 20v448h-94c-12 0 -16 8 -16 16s4 16 16 16h94v36
c0 104 50 166 146 166h46c13 0 16 -6 16 -16s-3 -16 -16 -16h-41c-73 0 -117 -30 -117 -140v-30h264v36c0 104 50 166 146 166h46zM762 680c17 0 28 -11 28 -28s-11 -28 -28 -28s-28 11 -28 28s11 28 28 28zM762 500c11 0 17 -6 17 -20v-460c0 -14 -6 -20 -17 -20
s-17 6 -17 20v460c0 14 6 20 17 20z" />
    <glyph glyph-name="f_f_l" unicode="ffl" horiz-adv-x="866" 
d="M632 702c13 0 16 -6 16 -16s-3 -16 -16 -16h-41c-73 0 -117 -30 -117 -140v-30h138c12 0 16 -8 16 -16s-4 -16 -16 -16h-138v-448c0 -14 -6 -20 -17 -20s-17 6 -17 20v448h-264v-448c0 -14 -6 -20 -17 -20s-17 6 -17 20v448h-94c-12 0 -16 8 -16 16s4 16 16 16h94v36
c0 104 50 166 146 166h46c13 0 16 -6 16 -16s-3 -16 -16 -16h-41c-73 0 -117 -30 -117 -140v-30h264v36c0 104 50 166 146 166h46zM767 702c11 0 17 -6 17 -20v-662c0 -14 -6 -20 -17 -20s-17 6 -17 20v662c0 14 6 20 17 20z" />
    <glyph glyph-name="fi" unicode="fi" horiz-adv-x="570" 
d="M293 670c-73 0 -117 -30 -117 -140v-30h138c12 0 16 -8 16 -16s-4 -16 -16 -16h-138v-448c0 -14 -6 -20 -17 -20s-17 6 -17 20v448h-94c-12 0 -16 8 -16 16s4 16 16 16h94v36c0 104 50 166 146 166h46c13 0 16 -6 16 -16s-3 -16 -16 -16h-41zM464 624
c-17 0 -28 11 -28 28s11 28 28 28s28 -11 28 -28s-11 -28 -28 -28zM464 500c11 0 17 -6 17 -20v-460c0 -14 -6 -20 -17 -20s-17 6 -17 20v460c0 14 6 20 17 20z" />
    <glyph glyph-name="fl" unicode="fl" horiz-adv-x="568" 
d="M293 670c-73 0 -117 -30 -117 -140v-30h138c12 0 16 -8 16 -16s-4 -16 -16 -16h-138v-448c0 -14 -6 -20 -17 -20s-17 6 -17 20v448h-94c-12 0 -16 8 -16 16s4 16 16 16h94v36c0 104 50 166 146 166h46c13 0 16 -6 16 -16s-3 -16 -16 -16h-41zM469 702c11 0 17 -6 17 -20
v-662c0 -14 -6 -20 -17 -20s-17 6 -17 20v662c0 14 6 20 17 20z" />
    <glyph glyph-name=".notdef" horiz-adv-x="900" 
d="M316 17c13 0 19 -6 19 -17s-6 -17 -19 -17h-38c-112 0 -150 47 -150 177v332c0 130 68 177 150 177h38c13 0 19 -6 19 -17s-6 -17 -19 -17h-38c-88 0 -116 -63 -116 -159v-300c0 -96 -2 -159 116 -159h38zM622 669c82 0 150 -47 150 -177v-332c0 -130 -38 -177 -150 -177
h-38c-13 0 -19 6 -19 17s6 17 19 17h38c118 0 116 63 116 159v300c0 96 -28 159 -116 159h-38c-13 0 -19 6 -19 17s6 17 19 17h38zM316 468h27c19 0 25 -6 25 -20s-6 -20 -25 -20h-27c-19 0 -24 6 -24 20s5 20 24 20zM557 428c-19 0 -25 6 -25 20s6 20 25 20h27
c19 0 24 -6 24 -20s-5 -20 -24 -20h-27zM602 176c-2 -11 -11 -12 -24 -8c-26 8 -73 19 -129 19c-50 0 -103 -11 -129 -19c-13 -4 -21 -3 -23 9c-3 12 5 18 24 23c44 12 74 19 128 19s83 -7 128 -19c19 -5 27 -11 25 -24z" />
    <glyph glyph-name="A" unicode="A" horiz-adv-x="610" 
d="M560 26c5 -12 1 -21 -10 -25c-9 -3 -18 3 -21 12l-60 157h-328l-60 -157c-5 -12 -14 -15 -22 -12c-10 4 -14 13 -9 25l239 622c3 7 8 10 16 10s13 -3 16 -10zM153 202h304l-152 397z" />
    <glyph glyph-name="A.ss01" horiz-adv-x="610" 
d="M560 26c5 -12 1 -21 -10 -25c-9 -3 -18 3 -21 12l-224 586l-224 -586c-5 -12 -14 -15 -22 -12c-10 4 -14 13 -9 25l239 622c3 7 8 10 16 10s13 -3 16 -10zM421 181c0 -11 -6 -17 -19 -17h-194c-13 0 -19 6 -19 17s6 17 19 17h194c13 0 19 -6 19 -17z" />
    <glyph glyph-name="A.ss02" horiz-adv-x="610" 
d="M560 26c5 -12 1 -21 -10 -25c-9 -3 -18 3 -21 12l-224 586l-224 -586c-5 -12 -14 -15 -22 -12c-10 4 -14 13 -9 25l239 622c3 7 8 10 16 10s13 -3 16 -10zM330 200c13 0 21 -7 21 -19s-8 -19 -21 -19h-50c-13 0 -21 7 -21 19s8 19 21 19h50z" />
    <glyph glyph-name="Aacute" unicode="&#xc1;" horiz-adv-x="610" 
d="M265 739c-11 -9 -19 -8 -26 0c-8 9 -6 17 4 26l105 87c10 9 18 8 26 -1c7 -8 6 -16 -4 -25zM560 26c5 -12 1 -21 -10 -25c-9 -3 -18 3 -21 12l-60 157h-328l-60 -157c-5 -12 -14 -15 -22 -12c-10 4 -14 13 -9 25l239 622c3 7 8 10 16 10s13 -3 16 -10zM153 202h304
l-152 397z" />
    <glyph glyph-name="Aacute.ss01" horiz-adv-x="610" 
d="M348 852c10 9 18 8 26 -1c7 -8 6 -16 -4 -25l-105 -87c-11 -9 -19 -8 -26 0c-8 9 -6 17 4 26zM560 26c5 -12 1 -21 -10 -25c-9 -3 -18 3 -21 12l-224 586l-224 -586c-5 -12 -14 -15 -22 -12c-10 4 -14 13 -9 25l239 622c3 7 8 10 16 10s13 -3 16 -10zM421 181
c0 -11 -6 -17 -19 -17h-194c-13 0 -19 6 -19 17s6 17 19 17h194c13 0 19 -6 19 -17z" />
    <glyph glyph-name="Aacute.ss02" horiz-adv-x="610" 
d="M348 852c10 9 18 8 26 -1c7 -8 6 -16 -4 -25l-105 -87c-11 -9 -19 -8 -26 0c-8 9 -6 17 4 26zM560 26c5 -12 1 -21 -10 -25c-9 -3 -18 3 -21 12l-224 586l-224 -586c-5 -12 -14 -15 -22 -12c-10 4 -14 13 -9 25l239 622c3 7 8 10 16 10s13 -3 16 -10zM330 200
c13 0 21 -7 21 -19s-8 -19 -21 -19h-50c-13 0 -21 7 -21 19s8 19 21 19h50z" />
    <glyph glyph-name="Abreve" unicode="&#x102;" horiz-adv-x="610" 
d="M305 730c-64 0 -96 34 -110 81c-2 8 -7 19 6 25c15 6 20 1 25 -13c7 -20 21 -63 79 -63s72 43 79 63c4 12 10 19 25 13c10 -4 10 -12 6 -25c-16 -47 -49 -81 -110 -81zM560 26c5 -12 1 -21 -10 -25c-9 -3 -18 3 -21 12l-60 157h-328l-60 -157c-5 -12 -14 -15 -22 -12
c-10 4 -14 13 -9 25l239 622c3 7 8 10 16 10s13 -3 16 -10zM153 202h304l-152 397z" />
    <glyph glyph-name="Abreve.ss01" horiz-adv-x="610" 
d="M409 836c10 -4 10 -12 6 -25c-16 -47 -49 -81 -110 -81c-64 0 -96 34 -110 81c-2 8 -7 19 6 25c15 6 20 1 25 -13c7 -20 21 -63 79 -63s72 43 79 63c4 12 10 19 25 13zM560 26c5 -12 1 -21 -10 -25c-9 -3 -18 3 -21 12l-224 586l-224 -586c-5 -12 -14 -15 -22 -12
c-10 4 -14 13 -9 25l239 622c3 7 8 10 16 10s13 -3 16 -10zM421 181c0 -11 -6 -17 -19 -17h-194c-13 0 -19 6 -19 17s6 17 19 17h194c13 0 19 -6 19 -17z" />
    <glyph glyph-name="Abreve.ss02" horiz-adv-x="610" 
d="M409 836c10 -4 10 -12 6 -25c-16 -47 -49 -81 -110 -81c-64 0 -96 34 -110 81c-2 8 -7 19 6 25c15 6 20 1 25 -13c7 -20 21 -63 79 -63s72 43 79 63c4 12 10 19 25 13zM560 26c5 -12 1 -21 -10 -25c-9 -3 -18 3 -21 12l-224 586l-224 -586c-5 -12 -14 -15 -22 -12
c-10 4 -14 13 -9 25l239 622c3 7 8 10 16 10s13 -3 16 -10zM330 200c13 0 21 -7 21 -19s-8 -19 -21 -19h-50c-13 0 -21 7 -21 19s8 19 21 19h50z" />
    <glyph glyph-name="Acircumflex" unicode="&#xc2;" horiz-adv-x="610" 
d="M208 746c-9 7 -8 18 4 30l74 74c5 5 10 10 19 10s14 -5 19 -10l74 -74c12 -12 13 -23 4 -30c-8 -8 -17 -7 -23 0l-74 78l-74 -78c-6 -7 -15 -8 -23 0zM560 26c5 -12 1 -21 -10 -25c-9 -3 -18 3 -21 12l-60 157h-328l-60 -157c-5 -12 -14 -15 -22 -12c-10 4 -14 13 -9 25
l239 622c3 7 8 10 16 10s13 -3 16 -10zM153 202h304l-152 397z" />
    <glyph glyph-name="Acircumflex.ss01" horiz-adv-x="610" 
d="M402 746c-8 -8 -17 -7 -23 0l-74 78l-74 -78c-6 -7 -15 -8 -23 0c-9 7 -8 18 4 30l74 74c5 5 10 10 19 10s14 -5 19 -10l74 -74c12 -12 13 -23 4 -30zM560 26c5 -12 1 -21 -10 -25c-9 -3 -18 3 -21 12l-224 586l-224 -586c-5 -12 -14 -15 -22 -12c-10 4 -14 13 -9 25
l239 622c3 7 8 10 16 10s13 -3 16 -10zM421 181c0 -11 -6 -17 -19 -17h-194c-13 0 -19 6 -19 17s6 17 19 17h194c13 0 19 -6 19 -17z" />
    <glyph glyph-name="Acircumflex.ss02" horiz-adv-x="610" 
d="M402 746c-8 -8 -17 -7 -23 0l-74 78l-74 -78c-6 -7 -15 -8 -23 0c-9 7 -8 18 4 30l74 74c5 5 10 10 19 10s14 -5 19 -10l74 -74c12 -12 13 -23 4 -30zM560 26c5 -12 1 -21 -10 -25c-9 -3 -18 3 -21 12l-224 586l-224 -586c-5 -12 -14 -15 -22 -12c-10 4 -14 13 -9 25
l239 622c3 7 8 10 16 10s13 -3 16 -10zM330 200c13 0 21 -7 21 -19s-8 -19 -21 -19h-50c-13 0 -21 7 -21 19s8 19 21 19h50z" />
    <glyph glyph-name="Adieresis" unicode="&#xc4;" horiz-adv-x="610" 
d="M249 736c-15 0 -25 11 -25 25s10 25 25 25s25 -11 25 -25s-10 -25 -25 -25zM369 736c-15 0 -25 11 -25 25s10 25 25 25s25 -11 25 -25s-10 -25 -25 -25zM560 26c5 -12 1 -21 -10 -25c-9 -3 -18 3 -21 12l-60 157h-328l-60 -157c-5 -12 -14 -15 -22 -12
c-10 4 -14 13 -9 25l239 622c3 7 8 10 16 10s13 -3 16 -10zM153 202h304l-152 397z" />
    <glyph glyph-name="Adieresis.ss01" horiz-adv-x="610" 
d="M249 736c-15 0 -25 11 -25 25s10 25 25 25s25 -11 25 -25s-10 -25 -25 -25zM369 736c-15 0 -25 11 -25 25s10 25 25 25s25 -11 25 -25s-10 -25 -25 -25zM560 26c5 -12 1 -21 -10 -25c-9 -3 -18 3 -21 12l-224 586l-224 -586c-5 -12 -14 -15 -22 -12c-10 4 -14 13 -9 25
l239 622c3 7 8 10 16 10s13 -3 16 -10zM421 181c0 -11 -6 -17 -19 -17h-194c-13 0 -19 6 -19 17s6 17 19 17h194c13 0 19 -6 19 -17z" />
    <glyph glyph-name="Adieresis.ss02" horiz-adv-x="610" 
d="M249 736c-15 0 -25 11 -25 25s10 25 25 25s25 -11 25 -25s-10 -25 -25 -25zM369 736c-15 0 -25 11 -25 25s10 25 25 25s25 -11 25 -25s-10 -25 -25 -25zM560 26c5 -12 1 -21 -10 -25c-9 -3 -18 3 -21 12l-224 586l-224 -586c-5 -12 -14 -15 -22 -12c-10 4 -14 13 -9 25
l239 622c3 7 8 10 16 10s13 -3 16 -10zM330 200c13 0 21 -7 21 -19s-8 -19 -21 -19h-50c-13 0 -21 7 -21 19s8 19 21 19h50z" />
    <glyph glyph-name="Agrave" unicode="&#xc0;" horiz-adv-x="610" 
d="M240 826c-10 9 -11 17 -4 25c8 9 16 10 26 1l105 -87c10 -9 12 -17 4 -26c-7 -8 -15 -9 -26 0zM560 26c5 -12 1 -21 -10 -25c-9 -3 -18 3 -21 12l-60 157h-328l-60 -157c-5 -12 -14 -15 -22 -12c-10 4 -14 13 -9 25l239 622c3 7 8 10 16 10s13 -3 16 -10zM153 202h304
l-152 397z" />
    <glyph glyph-name="Agrave.ss01" horiz-adv-x="610" 
d="M262 852l105 -87c10 -9 12 -17 4 -26c-7 -8 -15 -9 -26 0l-105 87c-10 9 -11 17 -4 25c8 9 16 10 26 1zM560 26c5 -12 1 -21 -10 -25c-9 -3 -18 3 -21 12l-224 586l-224 -586c-5 -12 -14 -15 -22 -12c-10 4 -14 13 -9 25l239 622c3 7 8 10 16 10s13 -3 16 -10zM421 181
c0 -11 -6 -17 -19 -17h-194c-13 0 -19 6 -19 17s6 17 19 17h194c13 0 19 -6 19 -17z" />
    <glyph glyph-name="Agrave.ss02" horiz-adv-x="610" 
d="M262 852l105 -87c10 -9 12 -17 4 -26c-7 -8 -15 -9 -26 0l-105 87c-10 9 -11 17 -4 25c8 9 16 10 26 1zM560 26c5 -12 1 -21 -10 -25c-9 -3 -18 3 -21 12l-224 586l-224 -586c-5 -12 -14 -15 -22 -12c-10 4 -14 13 -9 25l239 622c3 7 8 10 16 10s13 -3 16 -10zM330 200
c13 0 21 -7 21 -19s-8 -19 -21 -19h-50c-13 0 -21 7 -21 19s8 19 21 19h50z" />
    <glyph glyph-name="Amacron" unicode="&#x100;" horiz-adv-x="610" 
d="M224 739c-13 0 -19 6 -19 16s6 16 19 16h162c13 0 19 -6 19 -16s-6 -16 -19 -16h-162zM560 26c5 -12 1 -21 -10 -25c-9 -3 -18 3 -21 12l-60 157h-328l-60 -157c-5 -12 -14 -15 -22 -12c-10 4 -14 13 -9 25l239 622c3 7 8 10 16 10s13 -3 16 -10zM153 202h304l-152 397z
" />
    <glyph glyph-name="Amacron.ss01" horiz-adv-x="610" 
d="M405 755c0 -10 -6 -16 -19 -16h-162c-13 0 -19 6 -19 16s6 16 19 16h162c13 0 19 -6 19 -16zM560 26c5 -12 1 -21 -10 -25c-9 -3 -18 3 -21 12l-224 586l-224 -586c-5 -12 -14 -15 -22 -12c-10 4 -14 13 -9 25l239 622c3 7 8 10 16 10s13 -3 16 -10zM421 181
c0 -11 -6 -17 -19 -17h-194c-13 0 -19 6 -19 17s6 17 19 17h194c13 0 19 -6 19 -17z" />
    <glyph glyph-name="Amacron.ss02" horiz-adv-x="610" 
d="M405 755c0 -10 -6 -16 -19 -16h-162c-13 0 -19 6 -19 16s6 16 19 16h162c13 0 19 -6 19 -16zM560 26c5 -12 1 -21 -10 -25c-9 -3 -18 3 -21 12l-224 586l-224 -586c-5 -12 -14 -15 -22 -12c-10 4 -14 13 -9 25l239 622c3 7 8 10 16 10s13 -3 16 -10zM330 200
c13 0 21 -7 21 -19s-8 -19 -21 -19h-50c-13 0 -21 7 -21 19s8 19 21 19h50z" />
    <glyph glyph-name="Aogonek" unicode="&#x104;" horiz-adv-x="610" 
d="M597 -125c4 -10 1 -16 -12 -23c-14 -8 -37 -15 -62 -15c-42 0 -74 20 -84 54c-12 44 15 99 91 120c0 0 -1 1 -1 2l-60 157h-328l-60 -157c-5 -12 -14 -15 -22 -12c-10 4 -14 13 -9 25l239 622c3 7 8 10 16 10s13 -3 16 -10l239 -622c5 -12 1 -21 -10 -25h-1v-1
c-66 -12 -85 -63 -74 -95c8 -25 32 -35 56 -35c16 0 33 8 42 13c12 6 21 0 24 -8zM153 202h304l-152 397z" />
    <glyph glyph-name="Aogonek.001" horiz-adv-x="610" 
d="M597 -125c4 -10 1 -16 -12 -23c-14 -8 -37 -15 -62 -15c-42 0 -74 20 -84 54c-12 44 15 99 91 120c0 0 -1 1 -1 2l-224 586l-224 -586c-5 -12 -14 -15 -22 -12c-10 4 -14 13 -9 25l239 622c3 7 8 10 16 10s13 -3 16 -10l239 -622c5 -12 1 -21 -10 -25h-1v-1
c-66 -12 -85 -63 -74 -95c8 -25 32 -35 56 -35c16 0 33 8 42 13c12 6 21 0 24 -8zM402 198c13 0 19 -6 19 -17s-6 -17 -19 -17h-194c-13 0 -19 6 -19 17s6 17 19 17h194z" />
    <glyph glyph-name="Aogonek.ss02" horiz-adv-x="610" 
d="M597 -125c4 -10 1 -16 -12 -23c-14 -8 -37 -15 -62 -15c-42 0 -74 20 -84 54c-12 44 15 99 91 120c0 0 -1 1 -1 2l-224 586l-224 -586c-5 -12 -14 -15 -22 -12c-10 4 -14 13 -9 25l239 622c3 7 8 10 16 10s13 -3 16 -10l239 -622c5 -12 1 -21 -10 -25h-1v-1
c-66 -12 -85 -63 -74 -95c8 -25 32 -35 56 -35c16 0 33 8 42 13c12 6 21 0 24 -8zM330 200c13 0 21 -7 21 -19s-8 -19 -21 -19h-50c-13 0 -21 7 -21 19s8 19 21 19h50z" />
    <glyph glyph-name="Aring" unicode="&#xc5;" horiz-adv-x="610" 
d="M305 719c-48 0 -81 33 -81 81c0 47 33 80 81 80c47 0 80 -33 80 -80c0 -48 -33 -81 -80 -81zM305 850c-32 0 -51 -19 -51 -50c0 -32 19 -51 51 -51c31 0 50 19 50 51c0 31 -19 50 -50 50zM560 26c5 -12 1 -21 -10 -25c-9 -3 -18 3 -21 12l-60 157h-328l-60 -157
c-5 -12 -14 -15 -22 -12c-10 4 -14 13 -9 25l239 622c3 7 8 10 16 10s13 -3 16 -10zM153 202h304l-152 397z" />
    <glyph glyph-name="Aring.ss01" horiz-adv-x="610" 
d="M305 719c-48 0 -81 33 -81 81c0 47 33 80 81 80c47 0 80 -33 80 -80c0 -48 -33 -81 -80 -81zM305 749c31 0 50 19 50 51c0 31 -19 50 -50 50c-32 0 -51 -19 -51 -50c0 -32 19 -51 51 -51zM560 26c5 -12 1 -21 -10 -25c-9 -3 -18 3 -21 12l-224 586l-224 -586
c-5 -12 -14 -15 -22 -12c-10 4 -14 13 -9 25l239 622c3 7 8 10 16 10s13 -3 16 -10zM421 181c0 -11 -6 -17 -19 -17h-194c-13 0 -19 6 -19 17s6 17 19 17h194c13 0 19 -6 19 -17z" />
    <glyph glyph-name="Aring.ss02" horiz-adv-x="610" 
d="M305 719c-48 0 -81 33 -81 81c0 47 33 80 81 80c47 0 80 -33 80 -80c0 -48 -33 -81 -80 -81zM305 749c31 0 50 19 50 51c0 31 -19 50 -50 50c-32 0 -51 -19 -51 -50c0 -32 19 -51 51 -51zM560 26c5 -12 1 -21 -10 -25c-9 -3 -18 3 -21 12l-224 586l-224 -586
c-5 -12 -14 -15 -22 -12c-10 4 -14 13 -9 25l239 622c3 7 8 10 16 10s13 -3 16 -10zM330 200c13 0 21 -7 21 -19s-8 -19 -21 -19h-50c-13 0 -21 7 -21 19s8 19 21 19h50z" />
    <glyph glyph-name="Atilde" unicode="&#xc3;" horiz-adv-x="610" 
d="M211 738c-10 7 -9 19 -3 25c31 31 73 34 101 15c47 -32 60 -7 72 2c7 5 15 5 21 1c10 -7 9 -19 3 -25c-31 -31 -73 -34 -102 -14c-43 29 -57 9 -71 -3c-6 -5 -15 -5 -21 -1zM560 26c5 -12 1 -21 -10 -25c-9 -3 -18 3 -21 12l-60 157h-328l-60 -157
c-5 -12 -14 -15 -22 -12c-10 4 -14 13 -9 25l239 622c3 7 8 10 16 10s13 -3 16 -10zM153 202h304l-152 397z" />
    <glyph glyph-name="Atilde.ss01" horiz-adv-x="610" 
d="M402 781c10 -7 9 -19 3 -25c-31 -31 -73 -34 -102 -14c-43 29 -57 9 -71 -3c-6 -5 -15 -5 -21 -1c-10 7 -9 19 -3 25c31 31 73 34 101 15c47 -32 60 -7 72 2c7 5 15 5 21 1zM560 26c5 -12 1 -21 -10 -25c-9 -3 -18 3 -21 12l-224 586l-224 -586c-5 -12 -14 -15 -22 -12
c-10 4 -14 13 -9 25l239 622c3 7 8 10 16 10s13 -3 16 -10zM421 181c0 -11 -6 -17 -19 -17h-194c-13 0 -19 6 -19 17s6 17 19 17h194c13 0 19 -6 19 -17z" />
    <glyph glyph-name="Atilde.ss02" horiz-adv-x="610" 
d="M402 781c10 -7 9 -19 3 -25c-31 -31 -73 -34 -102 -14c-43 29 -57 9 -71 -3c-6 -5 -15 -5 -21 -1c-10 7 -9 19 -3 25c31 31 73 34 101 15c47 -32 60 -7 72 2c7 5 15 5 21 1zM560 26c5 -12 1 -21 -10 -25c-9 -3 -18 3 -21 12l-224 586l-224 -586c-5 -12 -14 -15 -22 -12
c-10 4 -14 13 -9 25l239 622c3 7 8 10 16 10s13 -3 16 -10zM330 200c13 0 21 -7 21 -19s-8 -19 -21 -19h-50c-13 0 -21 7 -21 19s8 19 21 19h50z" />
    <glyph glyph-name="AE" unicode="&#xc6;" horiz-adv-x="832" 
d="M743 34c12 0 18 -8 18 -17s-6 -17 -18 -17h-325c-14 0 -20 6 -20 20v156h-269l-90 -167c-7 -11 -14 -11 -22 -7c-7 4 -10 9 -4 22l327 615c6 9 11 13 19 13h379c12 0 18 -8 18 -17s-6 -17 -18 -17h-306v-265h260c13 0 20 -6 20 -17s-7 -17 -20 -17h-260v-285h311z
M146 208h252v410h-31z" />
    <glyph glyph-name="AE.ss01" horiz-adv-x="832" 
d="M743 34c12 0 18 -8 18 -17s-6 -17 -18 -17h-325c-14 0 -20 6 -20 20v598h-31l-328 -609c-5 -9 -12 -11 -20 -8c-9 4 -12 10 -6 23l327 615c6 9 11 13 19 13h379c12 0 18 -8 18 -17s-6 -17 -18 -17h-306v-584h311zM509 354h184c13 0 20 -6 20 -18s-7 -18 -20 -18h-184
c-13 0 -20 6 -20 18s7 18 20 18zM298 190c13 0 21 -7 21 -19s-8 -19 -21 -19h-70c-13 0 -21 7 -21 19s8 19 21 19h70z" />
    <glyph glyph-name="B" unicode="B" horiz-adv-x="585" 
d="M398 348c76 -17 125 -96 125 -168c0 -111 -69 -180 -182 -180h-236c-11 0 -17 6 -17 20v612c0 14 6 20 20 20h203c94 0 174 -53 174 -164c0 -48 -29 -114 -87 -140zM301 618h-179v-264h201c69 0 127 60 127 134c0 96 -67 130 -149 130zM334 34c101 0 154 50 154 146
c0 78 -61 141 -131 141h-235v-287h212z" />
    <glyph glyph-name="B.ss01" horiz-adv-x="600" 
d="M413 348c76 -17 125 -96 125 -168c0 -111 -69 -180 -182 -180h-159c-12 0 -17 8 -17 17s5 17 17 17h152c101 0 154 50 154 146c0 78 -61 141 -131 141h-166c-11 0 -17 9 -17 17s6 16 17 16h132c69 0 127 60 127 134c0 96 -67 130 -149 130h-194v-598
c0 -14 -6 -20 -17 -20s-17 6 -17 20v612c0 14 6 20 20 20h218c94 0 174 -53 174 -164c0 -48 -29 -114 -87 -140z" />
    <glyph glyph-name="B.ss02" horiz-adv-x="603" 
d="M398 365c80 -21 143 -96 143 -183c0 -96 -77 -182 -212 -182h-132c-11 0 -17 6 -17 17s6 17 17 17h126c120 0 183 65 183 149c0 68 -47 140 -144 157c-6 1 -14 4 -16 14s3 16 12 21c54 32 99 61 99 127c0 82 -69 122 -144 122c-115 0 -191 -89 -191 -263v-341
c0 -14 -6 -20 -17 -20s-17 6 -17 20v351c0 175 89 287 224 287c97 0 180 -59 180 -154c0 -80 -64 -128 -94 -139z" />
    <glyph glyph-name="C" unicode="C" horiz-adv-x="664" 
d="M558 553c-29 24 -88 71 -185 71c-157 0 -283 -125 -283 -298s126 -298 286 -298c101 0 161 49 190 73c6 5 16 12 26 2c9 -8 6 -17 -2 -26c-20 -23 -100 -83 -218 -83c-179 0 -318 147 -318 333s140 331 315 331c105 0 184 -49 213 -78c11 -11 9 -21 3 -27
c-7 -7 -16 -9 -27 0z" />
    <glyph glyph-name="Cacute" unicode="&#x106;" horiz-adv-x="664" 
d="M418 852c10 9 18 8 26 -1c7 -8 6 -16 -4 -25l-105 -87c-11 -9 -19 -8 -26 0c-8 9 -6 17 4 26zM558 553c-29 24 -88 71 -185 71c-157 0 -283 -125 -283 -298s126 -298 286 -298c101 0 161 49 190 73c6 5 16 12 26 2c9 -8 6 -17 -2 -26c-20 -23 -100 -83 -218 -83
c-179 0 -318 147 -318 333s140 331 315 331c105 0 184 -49 213 -78c11 -11 9 -21 3 -27c-7 -7 -16 -9 -27 0z" />
    <glyph glyph-name="Ccaron" unicode="&#x10c;" horiz-adv-x="664" 
d="M472 846c9 -7 8 -18 -4 -30l-74 -74c-5 -5 -10 -10 -19 -10s-14 5 -19 10l-74 74c-12 12 -13 23 -4 30c8 8 17 7 23 0l74 -78l74 78c6 7 15 8 23 0zM558 553c-29 24 -88 71 -185 71c-157 0 -283 -125 -283 -298s126 -298 286 -298c101 0 161 49 190 73c6 5 16 12 26 2
c9 -8 6 -17 -2 -26c-20 -23 -100 -83 -218 -83c-179 0 -318 147 -318 333s140 331 315 331c105 0 184 -49 213 -78c11 -11 9 -21 3 -27c-7 -7 -16 -9 -27 0z" />
    <glyph glyph-name="Ccedilla" unicode="&#xc7;" horiz-adv-x="664" 
d="M592 103c9 -8 6 -17 -2 -26c-19 -22 -94 -79 -205 -83l-19 -33c33 -10 81 -27 81 -78c0 -37 -25 -67 -77 -67c-25 0 -49 7 -65 17c-10 6 -13 13 -8 22c4 7 11 9 19 5c12 -6 30 -14 52 -14c29 0 46 14 46 38c0 30 -31 46 -68 56c-9 2 -12 8 -7 20l13 35
c-169 10 -298 153 -298 332c0 186 140 331 315 331c105 0 184 -49 213 -78c11 -11 9 -21 3 -27c-7 -7 -16 -9 -27 0c-29 24 -88 71 -185 71c-157 0 -283 -125 -283 -298s126 -298 286 -298c101 0 161 49 190 73c6 5 16 12 26 2z" />
    <glyph glyph-name="Cdotaccent" unicode="&#x10a;" horiz-adv-x="664" 
d="M375 729c-20 0 -33 14 -33 33s13 33 33 33s33 -14 33 -33s-13 -33 -33 -33zM558 553c-29 24 -88 71 -185 71c-157 0 -283 -125 -283 -298s126 -298 286 -298c101 0 161 49 190 73c6 5 16 12 26 2c9 -8 6 -17 -2 -26c-20 -23 -100 -83 -218 -83c-179 0 -318 147 -318 333
s140 331 315 331c105 0 184 -49 213 -78c11 -11 9 -21 3 -27c-7 -7 -16 -9 -27 0z" />
    <glyph glyph-name="D" unicode="D" horiz-adv-x="651" 
d="M272 652c179 0 325 -129 325 -326s-129 -326 -298 -326h-194c-11 0 -17 7 -17 20v612c0 14 6 20 20 20h164zM299 34c150 0 262 111 262 292s-129 292 -289 292h-150v-584h177z" />
    <glyph glyph-name="D.ss01" horiz-adv-x="641" 
d="M262 652c179 0 325 -129 325 -326s-129 -326 -298 -326h-92c-12 0 -17 8 -17 17s5 17 17 17h92c150 0 262 111 262 292s-129 292 -289 292h-140v-598c0 -13 -6 -20 -17 -20s-17 7 -17 20v612c0 14 6 20 20 20h154z" />
    <glyph glyph-name="Eth" unicode="&#xd0;" horiz-adv-x="666" 
d="M287 652c179 0 325 -129 325 -326s-129 -326 -298 -326h-194c-11 0 -17 7 -17 20v284h-51c-14 0 -20 6 -20 17s6 17 20 17h51v294c0 14 6 20 20 20h164zM314 34c150 0 262 111 262 292s-129 292 -289 292h-150v-280h135c14 0 20 -6 20 -17s-6 -17 -20 -17h-135v-270h177z
" />
    <glyph glyph-name="Eth.ss01" horiz-adv-x="656" 
d="M277 652c179 0 325 -129 325 -326s-129 -326 -298 -326h-92c-12 0 -17 8 -17 17s5 17 17 17h92c150 0 262 111 262 292s-129 292 -289 292h-140v-280h135c14 0 20 -6 20 -17s-6 -17 -20 -17h-135v-284c0 -13 -6 -20 -17 -20s-17 7 -17 20v284h-51c-14 0 -20 6 -20 17
s6 17 20 17h51v294c0 14 6 20 20 20h154z" />
    <glyph glyph-name="Dcaron" unicode="&#x10e;" horiz-adv-x="651" 
d="M284 742l-74 74c-12 12 -13 23 -4 30c8 8 17 7 23 0l74 -78l74 78c6 7 15 8 23 0c9 -7 8 -18 -4 -30l-74 -74c-5 -5 -10 -10 -19 -10s-14 5 -19 10zM272 652c179 0 325 -129 325 -326s-129 -326 -298 -326h-194c-11 0 -17 7 -17 20v612c0 14 6 20 20 20h164zM299 34
c150 0 262 111 262 292s-129 292 -289 292h-150v-584h177z" />
    <glyph glyph-name="Dcaron.ss01" horiz-adv-x="641" 
d="M390 846c9 -7 8 -18 -4 -30l-74 -74c-5 -5 -10 -10 -19 -10s-14 5 -19 10l-74 74c-12 12 -13 23 -4 30c8 8 17 7 23 0l74 -78l74 78c6 7 15 8 23 0zM262 652c179 0 325 -129 325 -326s-129 -326 -298 -326h-92c-12 0 -17 8 -17 17s5 17 17 17h92c150 0 262 111 262 292
s-129 292 -289 292h-140v-598c0 -13 -6 -20 -17 -20s-17 7 -17 20v612c0 14 6 20 20 20h154z" />
    <glyph glyph-name="Dcroat" unicode="&#x110;" horiz-adv-x="666" 
d="M287 652c179 0 325 -129 325 -326s-129 -326 -298 -326h-194c-11 0 -17 7 -17 20v284h-51c-14 0 -20 6 -20 17s6 17 20 17h51v294c0 14 6 20 20 20h164zM314 34c150 0 262 111 262 292s-129 292 -289 292h-150v-280h135c14 0 20 -6 20 -17s-6 -17 -20 -17h-135v-270h177z
" />
    <glyph glyph-name="Dcroat.ss01" horiz-adv-x="656" 
d="M277 652c179 0 325 -129 325 -326s-129 -326 -298 -326h-92c-12 0 -17 8 -17 17s5 17 17 17h92c150 0 262 111 262 292s-129 292 -289 292h-140v-280h135c14 0 20 -6 20 -17s-6 -17 -20 -17h-135v-284c0 -13 -6 -20 -17 -20s-17 7 -17 20v284h-51c-14 0 -20 6 -20 17
s6 17 20 17h51v294c0 14 6 20 20 20h154z" />
    <glyph glyph-name="E" unicode="E" horiz-adv-x="522" 
d="M433 34c12 0 18 -8 18 -17s-6 -17 -18 -17h-325c-14 0 -20 6 -20 20v612c0 14 6 20 20 20h320c12 0 18 -8 18 -17s-6 -17 -18 -17h-306v-265h260c13 0 20 -6 20 -17s-7 -17 -20 -17h-260v-285h311z" />
    <glyph glyph-name="E.ss01" horiz-adv-x="522" 
d="M433 34c12 0 18 -8 18 -17s-6 -17 -18 -17h-325c-14 0 -20 6 -20 20v612c0 14 6 20 20 20h320c12 0 18 -8 18 -17s-6 -17 -18 -17h-306v-584h311zM383 354c13 0 20 -6 20 -18s-7 -18 -20 -18h-184c-13 0 -20 6 -20 18s7 18 20 18h184z" />
    <glyph glyph-name="E.ss02" horiz-adv-x="621" 
d="M508 554c-26 21 -87 70 -176 70c-149 0 -242 -138 -242 -298s92 -298 250 -298c95 0 156 50 184 73c6 5 16 12 26 2c7 -7 7 -15 0 -24c-19 -24 -104 -85 -213 -85c-174 0 -283 155 -283 331c0 178 111 333 278 333c98 0 177 -54 200 -77c13 -13 11 -20 4 -28
c-8 -8 -17 -8 -28 1zM425 357c13 0 20 -7 20 -18s-7 -18 -20 -18h-234c-13 0 -20 7 -20 18s7 18 20 18h234z" />
    <glyph glyph-name="Eacute" unicode="&#xc9;" horiz-adv-x="522" 
d="M312 852c10 9 18 8 26 -1c7 -8 6 -16 -4 -25l-105 -87c-11 -9 -19 -8 -26 0c-8 9 -6 17 4 26zM433 34c12 0 18 -8 18 -17s-6 -17 -18 -17h-325c-14 0 -20 6 -20 20v612c0 14 6 20 20 20h320c12 0 18 -8 18 -17s-6 -17 -18 -17h-306v-265h260c13 0 20 -6 20 -17
s-7 -17 -20 -17h-260v-285h311z" />
    <glyph glyph-name="Eacute.ss01" horiz-adv-x="522" 
d="M312 852c10 9 18 8 26 -1c7 -8 6 -16 -4 -25l-105 -87c-11 -9 -19 -8 -26 0c-8 9 -6 17 4 26zM433 34c12 0 18 -8 18 -17s-6 -17 -18 -17h-325c-14 0 -20 6 -20 20v612c0 14 6 20 20 20h320c12 0 18 -8 18 -17s-6 -17 -18 -17h-306v-584h311zM383 354c13 0 20 -6 20 -18
s-7 -18 -20 -18h-184c-13 0 -20 6 -20 18s7 18 20 18h184z" />
    <glyph glyph-name="Eacute.ss02" horiz-adv-x="621" 
d="M373 852c10 9 18 8 26 -1c7 -8 6 -16 -4 -25l-105 -87c-11 -9 -19 -8 -26 0c-8 9 -6 17 4 26zM508 554c-26 21 -87 70 -176 70c-149 0 -242 -138 -242 -298s92 -298 250 -298c95 0 156 50 184 73c6 5 16 12 26 2c7 -7 7 -15 0 -24c-19 -24 -104 -85 -213 -85
c-174 0 -283 155 -283 331c0 178 111 333 278 333c98 0 177 -54 200 -77c13 -13 11 -20 4 -28c-8 -8 -17 -8 -28 1zM425 357c13 0 20 -7 20 -18s-7 -18 -20 -18h-234c-13 0 -20 7 -20 18s7 18 20 18h234z" />
    <glyph glyph-name="Ebreve" unicode="&#x114;" horiz-adv-x="522" 
d="M373 836c10 -4 10 -12 6 -25c-16 -47 -49 -81 -110 -81c-64 0 -96 34 -110 81c-2 8 -7 19 6 25c15 6 20 1 25 -13c7 -20 21 -63 79 -63s72 43 79 63c4 12 10 19 25 13zM433 34c12 0 18 -8 18 -17s-6 -17 -18 -17h-325c-14 0 -20 6 -20 20v612c0 14 6 20 20 20h320
c12 0 18 -8 18 -17s-6 -17 -18 -17h-306v-265h260c13 0 20 -6 20 -17s-7 -17 -20 -17h-260v-285h311z" />
    <glyph glyph-name="Ebreve.ss01" horiz-adv-x="522" 
d="M373 836c10 -4 10 -12 6 -25c-16 -47 -49 -81 -110 -81c-64 0 -96 34 -110 81c-2 8 -7 19 6 25c15 6 20 1 25 -13c7 -20 21 -63 79 -63s72 43 79 63c4 12 10 19 25 13zM433 34c12 0 18 -8 18 -17s-6 -17 -18 -17h-325c-14 0 -20 6 -20 20v612c0 14 6 20 20 20h320
c12 0 18 -8 18 -17s-6 -17 -18 -17h-306v-584h311zM383 354c13 0 20 -6 20 -18s-7 -18 -20 -18h-184c-13 0 -20 6 -20 18s7 18 20 18h184z" />
    <glyph glyph-name="Ebreve.ss02" horiz-adv-x="621" 
d="M434 836c10 -4 10 -12 6 -25c-16 -47 -49 -81 -110 -81c-64 0 -96 34 -110 81c-2 8 -7 19 6 25c15 6 20 1 25 -13c7 -20 21 -63 79 -63s72 43 79 63c4 12 10 19 25 13zM508 554c-26 21 -87 70 -176 70c-149 0 -242 -138 -242 -298s92 -298 250 -298c95 0 156 50 184 73
c6 5 16 12 26 2c7 -7 7 -15 0 -24c-19 -24 -104 -85 -213 -85c-174 0 -283 155 -283 331c0 178 111 333 278 333c98 0 177 -54 200 -77c13 -13 11 -20 4 -28c-8 -8 -17 -8 -28 1zM425 357c13 0 20 -7 20 -18s-7 -18 -20 -18h-234c-13 0 -20 7 -20 18s7 18 20 18h234z" />
    <glyph glyph-name="Ecaron" unicode="&#x11a;" horiz-adv-x="522" 
d="M366 846c9 -7 8 -18 -4 -30l-74 -74c-5 -5 -10 -10 -19 -10s-14 5 -19 10l-74 74c-12 12 -13 23 -4 30c8 8 17 7 23 0l74 -78l74 78c6 7 15 8 23 0zM433 34c12 0 18 -8 18 -17s-6 -17 -18 -17h-325c-14 0 -20 6 -20 20v612c0 14 6 20 20 20h320c12 0 18 -8 18 -17
s-6 -17 -18 -17h-306v-265h260c13 0 20 -6 20 -17s-7 -17 -20 -17h-260v-285h311z" />
    <glyph glyph-name="Ecaron.ss01" horiz-adv-x="522" 
d="M366 846c9 -7 8 -18 -4 -30l-74 -74c-5 -5 -10 -10 -19 -10s-14 5 -19 10l-74 74c-12 12 -13 23 -4 30c8 8 17 7 23 0l74 -78l74 78c6 7 15 8 23 0zM433 34c12 0 18 -8 18 -17s-6 -17 -18 -17h-325c-14 0 -20 6 -20 20v612c0 14 6 20 20 20h320c12 0 18 -8 18 -17
s-6 -17 -18 -17h-306v-584h311zM383 354c13 0 20 -6 20 -18s-7 -18 -20 -18h-184c-13 0 -20 6 -20 18s7 18 20 18h184z" />
    <glyph glyph-name="Ecaron.ss02" horiz-adv-x="621" 
d="M427 846c9 -7 8 -18 -4 -30l-74 -74c-5 -5 -10 -10 -19 -10s-14 5 -19 10l-74 74c-12 12 -13 23 -4 30c8 8 17 7 23 0l74 -78l74 78c6 7 15 8 23 0zM508 554c-26 21 -87 70 -176 70c-149 0 -242 -138 -242 -298s92 -298 250 -298c95 0 156 50 184 73c6 5 16 12 26 2
c7 -7 7 -15 0 -24c-19 -24 -104 -85 -213 -85c-174 0 -283 155 -283 331c0 178 111 333 278 333c98 0 177 -54 200 -77c13 -13 11 -20 4 -28c-8 -8 -17 -8 -28 1zM425 357c13 0 20 -7 20 -18s-7 -18 -20 -18h-234c-13 0 -20 7 -20 18s7 18 20 18h234z" />
    <glyph glyph-name="Ecircumflex" unicode="&#xca;" horiz-adv-x="522" 
d="M366 746c-8 -8 -17 -7 -23 0l-74 78l-74 -78c-6 -7 -15 -8 -23 0c-9 7 -8 18 4 30l74 74c5 5 10 10 19 10s14 -5 19 -10l74 -74c12 -12 13 -23 4 -30zM433 34c12 0 18 -8 18 -17s-6 -17 -18 -17h-325c-14 0 -20 6 -20 20v612c0 14 6 20 20 20h320c12 0 18 -8 18 -17
s-6 -17 -18 -17h-306v-265h260c13 0 20 -6 20 -17s-7 -17 -20 -17h-260v-285h311z" />
    <glyph glyph-name="Ecircumflex.ss01" horiz-adv-x="522" 
d="M366 746c-8 -8 -17 -7 -23 0l-74 78l-74 -78c-6 -7 -15 -8 -23 0c-9 7 -8 18 4 30l74 74c5 5 10 10 19 10s14 -5 19 -10l74 -74c12 -12 13 -23 4 -30zM433 34c12 0 18 -8 18 -17s-6 -17 -18 -17h-325c-14 0 -20 6 -20 20v612c0 14 6 20 20 20h320c12 0 18 -8 18 -17
s-6 -17 -18 -17h-306v-584h311zM383 354c13 0 20 -6 20 -18s-7 -18 -20 -18h-184c-13 0 -20 6 -20 18s7 18 20 18h184z" />
    <glyph glyph-name="Ecircumflex.ss02" horiz-adv-x="621" 
d="M427 746c-8 -8 -17 -7 -23 0l-74 78l-74 -78c-6 -7 -15 -8 -23 0c-9 7 -8 18 4 30l74 74c5 5 10 10 19 10s14 -5 19 -10l74 -74c12 -12 13 -23 4 -30zM508 554c-26 21 -87 70 -176 70c-149 0 -242 -138 -242 -298s92 -298 250 -298c95 0 156 50 184 73c6 5 16 12 26 2
c7 -7 7 -15 0 -24c-19 -24 -104 -85 -213 -85c-174 0 -283 155 -283 331c0 178 111 333 278 333c98 0 177 -54 200 -77c13 -13 11 -20 4 -28c-8 -8 -17 -8 -28 1zM425 357c13 0 20 -7 20 -18s-7 -18 -20 -18h-234c-13 0 -20 7 -20 18s7 18 20 18h234z" />
    <glyph glyph-name="Edieresis" unicode="&#xcb;" horiz-adv-x="522" 
d="M213 736c-15 0 -25 11 -25 25s10 25 25 25s25 -11 25 -25s-10 -25 -25 -25zM333 736c-15 0 -25 11 -25 25s10 25 25 25s25 -11 25 -25s-10 -25 -25 -25zM433 34c12 0 18 -8 18 -17s-6 -17 -18 -17h-325c-14 0 -20 6 -20 20v612c0 14 6 20 20 20h320c12 0 18 -8 18 -17
s-6 -17 -18 -17h-306v-265h260c13 0 20 -6 20 -17s-7 -17 -20 -17h-260v-285h311z" />
    <glyph glyph-name="Edieresis.ss01" horiz-adv-x="522" 
d="M213 736c-15 0 -25 11 -25 25s10 25 25 25s25 -11 25 -25s-10 -25 -25 -25zM333 736c-15 0 -25 11 -25 25s10 25 25 25s25 -11 25 -25s-10 -25 -25 -25zM433 34c12 0 18 -8 18 -17s-6 -17 -18 -17h-325c-14 0 -20 6 -20 20v612c0 14 6 20 20 20h320c12 0 18 -8 18 -17
s-6 -17 -18 -17h-306v-584h311zM383 354c13 0 20 -6 20 -18s-7 -18 -20 -18h-184c-13 0 -20 6 -20 18s7 18 20 18h184z" />
    <glyph glyph-name="Edieresis.ss02" horiz-adv-x="621" 
d="M274 736c-15 0 -25 11 -25 25s10 25 25 25s25 -11 25 -25s-10 -25 -25 -25zM394 736c-15 0 -25 11 -25 25s10 25 25 25s25 -11 25 -25s-10 -25 -25 -25zM508 554c-26 21 -87 70 -176 70c-149 0 -242 -138 -242 -298s92 -298 250 -298c95 0 156 50 184 73c6 5 16 12 26 2
c7 -7 7 -15 0 -24c-19 -24 -104 -85 -213 -85c-174 0 -283 155 -283 331c0 178 111 333 278 333c98 0 177 -54 200 -77c13 -13 11 -20 4 -28c-8 -8 -17 -8 -28 1zM425 357c13 0 20 -7 20 -18s-7 -18 -20 -18h-234c-13 0 -20 7 -20 18s7 18 20 18h234z" />
    <glyph glyph-name="Edotaccent" unicode="&#x116;" horiz-adv-x="522" 
d="M269 729c-20 0 -33 14 -33 33s13 33 33 33s33 -14 33 -33s-13 -33 -33 -33zM433 34c12 0 18 -8 18 -17s-6 -17 -18 -17h-325c-14 0 -20 6 -20 20v612c0 14 6 20 20 20h320c12 0 18 -8 18 -17s-6 -17 -18 -17h-306v-265h260c13 0 20 -6 20 -17s-7 -17 -20 -17h-260v-285
h311z" />
    <glyph glyph-name="Edotaccent.001" horiz-adv-x="522" 
d="M269 729c-20 0 -33 14 -33 33s13 33 33 33s33 -14 33 -33s-13 -33 -33 -33zM433 34c12 0 18 -8 18 -17s-6 -17 -18 -17h-325c-14 0 -20 6 -20 20v612c0 14 6 20 20 20h320c12 0 18 -8 18 -17s-6 -17 -18 -17h-306v-584h311zM383 354c13 0 20 -6 20 -18s-7 -18 -20 -18
h-184c-13 0 -20 6 -20 18s7 18 20 18h184z" />
    <glyph glyph-name="Edotaccent.ss02" horiz-adv-x="621" 
d="M330 729c-20 0 -33 14 -33 33s13 33 33 33s33 -14 33 -33s-13 -33 -33 -33zM508 554c-26 21 -87 70 -176 70c-149 0 -242 -138 -242 -298s92 -298 250 -298c95 0 156 50 184 73c6 5 16 12 26 2c7 -7 7 -15 0 -24c-19 -24 -104 -85 -213 -85c-174 0 -283 155 -283 331
c0 178 111 333 278 333c98 0 177 -54 200 -77c13 -13 11 -20 4 -28c-8 -8 -17 -8 -28 1zM425 357c13 0 20 -7 20 -18s-7 -18 -20 -18h-234c-13 0 -20 7 -20 18s7 18 20 18h234z" />
    <glyph glyph-name="Egrave" unicode="&#xc8;" horiz-adv-x="522" 
d="M226 852l105 -87c10 -9 12 -17 4 -26c-7 -8 -15 -9 -26 0l-105 87c-10 9 -11 17 -4 25c8 9 16 10 26 1zM433 34c12 0 18 -8 18 -17s-6 -17 -18 -17h-325c-14 0 -20 6 -20 20v612c0 14 6 20 20 20h320c12 0 18 -8 18 -17s-6 -17 -18 -17h-306v-265h260c13 0 20 -6 20 -17
s-7 -17 -20 -17h-260v-285h311z" />
    <glyph glyph-name="Egrave.ss01" horiz-adv-x="522" 
d="M226 852l105 -87c10 -9 12 -17 4 -26c-7 -8 -15 -9 -26 0l-105 87c-10 9 -11 17 -4 25c8 9 16 10 26 1zM433 34c12 0 18 -8 18 -17s-6 -17 -18 -17h-325c-14 0 -20 6 -20 20v612c0 14 6 20 20 20h320c12 0 18 -8 18 -17s-6 -17 -18 -17h-306v-584h311zM383 354
c13 0 20 -6 20 -18s-7 -18 -20 -18h-184c-13 0 -20 6 -20 18s7 18 20 18h184z" />
    <glyph glyph-name="Egrave.ss02" horiz-adv-x="621" 
d="M287 852l105 -87c10 -9 12 -17 4 -26c-7 -8 -15 -9 -26 0l-105 87c-10 9 -11 17 -4 25c8 9 16 10 26 1zM508 554c-26 21 -87 70 -176 70c-149 0 -242 -138 -242 -298s92 -298 250 -298c95 0 156 50 184 73c6 5 16 12 26 2c7 -7 7 -15 0 -24c-19 -24 -104 -85 -213 -85
c-174 0 -283 155 -283 331c0 178 111 333 278 333c98 0 177 -54 200 -77c13 -13 11 -20 4 -28c-8 -8 -17 -8 -28 1zM425 357c13 0 20 -7 20 -18s-7 -18 -20 -18h-234c-13 0 -20 7 -20 18s7 18 20 18h234z" />
    <glyph glyph-name="Emacron" unicode="&#x112;" horiz-adv-x="522" 
d="M369 755c0 -10 -6 -16 -19 -16h-162c-13 0 -19 6 -19 16s6 16 19 16h162c13 0 19 -6 19 -16zM433 34c12 0 18 -8 18 -17s-6 -17 -18 -17h-325c-14 0 -20 6 -20 20v612c0 14 6 20 20 20h320c12 0 18 -8 18 -17s-6 -17 -18 -17h-306v-265h260c13 0 20 -6 20 -17
s-7 -17 -20 -17h-260v-285h311z" />
    <glyph glyph-name="Emacron.ss01" horiz-adv-x="522" 
d="M369 755c0 -10 -6 -16 -19 -16h-162c-13 0 -19 6 -19 16s6 16 19 16h162c13 0 19 -6 19 -16zM433 34c12 0 18 -8 18 -17s-6 -17 -18 -17h-325c-14 0 -20 6 -20 20v612c0 14 6 20 20 20h320c12 0 18 -8 18 -17s-6 -17 -18 -17h-306v-584h311zM383 354c13 0 20 -6 20 -18
s-7 -18 -20 -18h-184c-13 0 -20 6 -20 18s7 18 20 18h184z" />
    <glyph glyph-name="Emacron.ss02" horiz-adv-x="621" 
d="M430 755c0 -10 -6 -16 -19 -16h-162c-13 0 -19 6 -19 16s6 16 19 16h162c13 0 19 -6 19 -16zM508 554c-26 21 -87 70 -176 70c-149 0 -242 -138 -242 -298s92 -298 250 -298c95 0 156 50 184 73c6 5 16 12 26 2c7 -7 7 -15 0 -24c-19 -24 -104 -85 -213 -85
c-174 0 -283 155 -283 331c0 178 111 333 278 333c98 0 177 -54 200 -77c13 -13 11 -20 4 -28c-8 -8 -17 -8 -28 1zM425 357c13 0 20 -7 20 -18s-7 -18 -20 -18h-234c-13 0 -20 7 -20 18s7 18 20 18h234z" />
    <glyph glyph-name="Eogonek" unicode="&#x118;" horiz-adv-x="522" 
d="M425 -117c12 6 21 0 24 -8c4 -10 1 -16 -12 -23c-14 -8 -37 -15 -62 -15c-42 0 -74 20 -84 54c-10 37 8 84 61 109h-244c-14 0 -20 6 -20 20v612c0 14 6 20 20 20h320c12 0 18 -8 18 -17s-6 -17 -18 -17h-306v-265h260c13 0 20 -6 20 -17s-7 -17 -20 -17h-260v-285h311
c12 0 18 -8 18 -17s-6 -17 -18 -17h-32c-66 -12 -85 -63 -74 -95c8 -25 32 -35 56 -35c16 0 33 8 42 13z" />
    <glyph glyph-name="Eogonek.ss01" horiz-adv-x="522" 
d="M425 -117c12 6 21 0 24 -8c4 -10 1 -16 -12 -23c-14 -8 -37 -15 -62 -15c-42 0 -74 20 -84 54c-10 37 8 84 61 109h-244c-14 0 -20 6 -20 20v612c0 14 6 20 20 20h320c12 0 18 -8 18 -17s-6 -17 -18 -17h-306v-584h311c12 0 18 -8 18 -17s-6 -17 -18 -17h-32
c-66 -12 -85 -63 -74 -95c8 -25 32 -35 56 -35c16 0 33 8 42 13zM199 354h184c13 0 20 -6 20 -18s-7 -18 -20 -18h-184c-13 0 -20 6 -20 18s7 18 20 18z" />
    <glyph glyph-name="Eogonek.ss02" horiz-adv-x="621" 
d="M550 103c7 -7 7 -15 0 -24c-15 -19 -72 -62 -150 -78v-1c-66 -12 -85 -63 -74 -95c8 -25 32 -35 56 -35c16 0 33 8 42 13c12 6 21 0 24 -8c4 -10 1 -16 -12 -23c-14 -8 -37 -15 -62 -15c-42 0 -74 20 -84 54c-10 35 5 77 50 103h-3c-174 0 -283 155 -283 331
c0 178 111 333 278 333c98 0 177 -54 200 -77c13 -13 11 -20 4 -28c-8 -8 -17 -8 -28 1c-26 21 -87 70 -176 70c-149 0 -242 -138 -242 -298s92 -298 250 -298c95 0 156 50 184 73c6 5 16 12 26 2zM191 357h234c13 0 20 -7 20 -18s-7 -18 -20 -18h-234c-13 0 -20 7 -20 18
s7 18 20 18z" />
    <glyph glyph-name="F" unicode="F" horiz-adv-x="504" 
d="M423 618h-301v-274h246c13 0 19 -6 19 -17s-6 -17 -19 -17h-246v-290c0 -14 -7 -20 -17 -20s-17 6 -17 20v612c0 14 6 20 17 20h318c12 0 17 -8 17 -17s-5 -17 -17 -17z" />
    <glyph glyph-name="F.ss01" horiz-adv-x="488" 
d="M407 652c12 0 17 -8 17 -17s-5 -17 -17 -17h-285v-598c0 -14 -6 -20 -17 -20s-17 6 -17 20v612c0 14 6 20 17 20h302zM372 343c13 0 20 -6 20 -18s-7 -18 -20 -18h-174c-13 0 -20 6 -20 18s7 18 20 18h174z" />
    <glyph glyph-name="F.ss02" horiz-adv-x="491" 
d="M410 652c12 0 17 -8 17 -17s-5 -17 -17 -17h-101c-115 0 -187 -80 -187 -235v-363c0 -14 -6 -20 -17 -20s-17 6 -17 20v373c0 166 89 259 230 259h92zM380 343c13 0 20 -6 20 -18s-7 -18 -20 -18h-174c-13 0 -20 6 -20 18s7 18 20 18h174z" />
    <glyph glyph-name="G" unicode="G" horiz-adv-x="728" 
d="M649 343c12 0 17 -5 17 -14v-80c0 -146 -127 -255 -289 -255c-191 0 -323 151 -323 331c0 182 134 333 318 333c108 0 196 -52 225 -84c5 -6 9 -14 1 -22c-8 -9 -17 -9 -25 -2c-27 24 -94 74 -199 74c-173 0 -284 -135 -284 -299c0 -173 123 -297 288 -297
c137 0 252 84 252 234v47h-192c-12 0 -18 8 -18 17s6 17 18 17h211z" />
    <glyph glyph-name="G.ss01" horiz-adv-x="725" 
d="M573 550c-27 24 -94 74 -199 74c-172 0 -284 -135 -284 -297c0 -155 105 -299 290 -299c138 0 223 79 250 186c3 10 6 18 20 15c13 -3 15 -10 12 -25c-20 -109 -124 -210 -284 -210c-200 0 -324 158 -324 331c0 182 135 333 318 333c108 0 196 -52 225 -84
c5 -6 9 -14 1 -22c-8 -9 -17 -10 -25 -2zM660 296c0 -9 -7 -18 -19 -18h-186c-12 0 -19 9 -19 18s7 18 19 18h186c12 0 19 -9 19 -18z" />
    <glyph glyph-name="Gbreve" unicode="&#x11e;" horiz-adv-x="728" 
d="M475 836c10 -4 10 -12 6 -25c-16 -47 -49 -81 -110 -81c-64 0 -96 34 -110 81c-2 8 -7 19 6 25c15 6 20 1 25 -13c7 -20 21 -63 79 -63s72 43 79 63c4 12 10 19 25 13zM649 343c12 0 17 -5 17 -14v-80c0 -146 -127 -255 -289 -255c-191 0 -323 151 -323 331
c0 182 134 333 318 333c108 0 196 -52 225 -84c5 -6 9 -14 1 -22c-8 -9 -17 -9 -25 -2c-27 24 -94 74 -199 74c-173 0 -284 -135 -284 -299c0 -173 123 -297 288 -297c137 0 252 84 252 234v47h-192c-12 0 -18 8 -18 17s6 17 18 17h211z" />
    <glyph glyph-name="Gbreve.ss01" horiz-adv-x="725" 
d="M468 836c10 -4 10 -12 6 -25c-16 -47 -49 -81 -110 -81c-64 0 -96 34 -110 81c-2 8 -7 19 6 25c15 6 20 1 25 -13c7 -20 21 -63 79 -63s72 43 79 63c4 12 10 19 25 13zM573 550c-27 24 -94 74 -199 74c-172 0 -284 -135 -284 -297c0 -155 105 -299 290 -299
c138 0 223 79 250 186c3 10 6 18 20 15c13 -3 15 -10 12 -25c-20 -109 -124 -210 -284 -210c-200 0 -324 158 -324 331c0 182 135 333 318 333c108 0 196 -52 225 -84c5 -6 9 -14 1 -22c-8 -9 -17 -10 -25 -2zM660 296c0 -9 -7 -18 -19 -18h-186c-12 0 -19 9 -19 18
s7 18 19 18h186c12 0 19 -9 19 -18z" />
    <glyph glyph-name="uni0122" unicode="&#x122;" horiz-adv-x="728" 
d="M649 343c12 0 17 -5 17 -14v-80c0 -146 -127 -255 -289 -255c-191 0 -323 151 -323 331c0 182 134 333 318 333c108 0 196 -52 225 -84c5 -6 9 -14 1 -22c-8 -9 -17 -9 -25 -2c-27 24 -94 74 -199 74c-173 0 -284 -135 -284 -299c0 -173 123 -297 288 -297
c137 0 252 84 252 234v47h-192c-12 0 -18 8 -18 17s6 17 18 17h211zM402 -95l-45 -78c-4 -7 -7 -9 -12 -9c-8 0 -11 6 -11 11c0 1 0 2 2 7l31 84c5 15 12 20 23 20c10 0 19 -6 19 -16c0 -8 -2 -11 -7 -19z" />
    <glyph glyph-name="uni0122.ss01" horiz-adv-x="725" 
d="M573 550c-27 24 -94 74 -199 74c-172 0 -284 -135 -284 -297c0 -155 105 -299 290 -299c138 0 223 79 250 186c3 10 6 18 20 15c13 -3 15 -10 12 -25c-20 -109 -124 -210 -284 -210c-200 0 -324 158 -324 331c0 182 135 333 318 333c108 0 196 -52 225 -84
c5 -6 9 -14 1 -22c-8 -9 -17 -10 -25 -2zM660 296c0 -9 -7 -18 -19 -18h-186c-12 0 -19 9 -19 18s7 18 19 18h186c12 0 19 -9 19 -18zM408 -95l-45 -78c-4 -7 -7 -9 -12 -9c-8 0 -11 6 -11 11c0 1 0 2 2 7l31 84c5 15 12 20 23 20c10 0 19 -6 19 -16c0 -8 -2 -11 -7 -19z
" />
    <glyph glyph-name="Gdotaccent" unicode="&#x120;" horiz-adv-x="728" 
d="M371 729c-20 0 -33 14 -33 33s13 33 33 33s33 -14 33 -33s-13 -33 -33 -33zM649 343c12 0 17 -5 17 -14v-80c0 -146 -127 -255 -289 -255c-191 0 -323 151 -323 331c0 182 134 333 318 333c108 0 196 -52 225 -84c5 -6 9 -14 1 -22c-8 -9 -17 -9 -25 -2
c-27 24 -94 74 -199 74c-173 0 -284 -135 -284 -299c0 -173 123 -297 288 -297c137 0 252 84 252 234v47h-192c-12 0 -18 8 -18 17s6 17 18 17h211z" />
    <glyph glyph-name="Gdotaccent.ss01" horiz-adv-x="725" 
d="M364 729c-20 0 -33 14 -33 33s13 33 33 33s33 -14 33 -33s-13 -33 -33 -33zM573 550c-27 24 -94 74 -199 74c-172 0 -284 -135 -284 -297c0 -155 105 -299 290 -299c138 0 223 79 250 186c3 10 6 18 20 15c13 -3 15 -10 12 -25c-20 -109 -124 -210 -284 -210
c-200 0 -324 158 -324 331c0 182 135 333 318 333c108 0 196 -52 225 -84c5 -6 9 -14 1 -22c-8 -9 -17 -10 -25 -2zM660 296c0 -9 -7 -18 -19 -18h-186c-12 0 -19 9 -19 18s7 18 19 18h186c12 0 19 -9 19 -18z" />
    <glyph glyph-name="H" unicode="H" horiz-adv-x="700" 
d="M595 652c11 0 17 -6 17 -20v-612c0 -14 -6 -20 -17 -20s-17 6 -17 20v298h-456v-298c0 -14 -6 -20 -17 -20s-17 6 -17 20v612c0 14 6 20 17 20s17 -6 17 -20v-280h456v280c0 14 6 20 17 20z" />
    <glyph glyph-name="H.ss01" horiz-adv-x="700" 
d="M105 652c11 0 17 -6 17 -20v-612c0 -14 -6 -20 -17 -20s-17 6 -17 20v612c0 14 6 20 17 20zM595 652c11 0 17 -6 17 -20v-612c0 -14 -6 -20 -17 -20s-17 6 -17 20v612c0 14 6 20 17 20zM521 334c0 -11 -7 -18 -20 -18h-302c-13 0 -20 7 -20 18s7 18 20 18h302
c13 0 20 -7 20 -18z" />
    <glyph glyph-name="Hbar" unicode="&#x126;" horiz-adv-x="680" 
d="M575 652c11 0 17 -6 17 -20v-612c0 -14 -6 -20 -17 -20s-17 6 -17 20v206h-436v-206c0 -14 -6 -20 -17 -20s-17 6 -17 20v612c0 14 6 20 17 20s17 -6 17 -20v-190h436v190c0 14 6 20 17 20zM122 260h436v148h-436v-148z" />
    <glyph glyph-name="I" unicode="I" horiz-adv-x="226" 
d="M113 652c11 0 17 -6 17 -20v-612c0 -14 -6 -20 -17 -20s-17 6 -17 20v612c0 14 6 20 17 20z" />
    <glyph glyph-name="I.ss01" horiz-adv-x="294" 
d="M198 34c12 0 18 -8 18 -17s-6 -17 -18 -17h-102c-12 0 -18 8 -18 17s6 17 18 17h34v584h-34c-12 0 -18 8 -18 17s6 17 18 17h102c12 0 18 -8 18 -17s-6 -17 -18 -17h-34v-584h34z" />
    <glyph glyph-name="Iacute" unicode="&#xcd;" horiz-adv-x="226" 
d="M156 852c10 9 18 8 26 -1c7 -8 6 -16 -4 -25l-105 -87c-11 -9 -19 -8 -26 0c-8 9 -6 17 4 26zM113 652c11 0 17 -6 17 -20v-612c0 -14 -6 -20 -17 -20s-17 6 -17 20v612c0 14 6 20 17 20z" />
    <glyph glyph-name="Iacute.ss01" horiz-adv-x="294" 
d="M190 852c10 9 18 8 26 -1c7 -8 6 -16 -4 -25l-105 -87c-11 -9 -19 -8 -26 0c-8 9 -6 17 4 26zM198 34c12 0 18 -8 18 -17s-6 -17 -18 -17h-102c-12 0 -18 8 -18 17s6 17 18 17h34v584h-34c-12 0 -18 8 -18 17s6 17 18 17h102c12 0 18 -8 18 -17s-6 -17 -18 -17h-34v-584
h34z" />
    <glyph glyph-name="Ibreve" unicode="&#x12c;" horiz-adv-x="226" 
d="M217 836c10 -4 10 -12 6 -25c-16 -47 -49 -81 -110 -81c-64 0 -96 34 -110 81c-2 8 -7 19 6 25c15 6 20 1 25 -13c7 -20 21 -63 79 -63s72 43 79 63c4 12 10 19 25 13zM113 652c11 0 17 -6 17 -20v-612c0 -14 -6 -20 -17 -20s-17 6 -17 20v612c0 14 6 20 17 20z" />
    <glyph glyph-name="Ibreve.ss01" horiz-adv-x="294" 
d="M251 836c10 -4 10 -12 6 -25c-16 -47 -49 -81 -110 -81c-64 0 -96 34 -110 81c-2 8 -7 19 6 25c15 6 20 1 25 -13c7 -20 21 -63 79 -63s72 43 79 63c4 12 10 19 25 13zM198 34c12 0 18 -8 18 -17s-6 -17 -18 -17h-102c-12 0 -18 8 -18 17s6 17 18 17h34v584h-34
c-12 0 -18 8 -18 17s6 17 18 17h102c12 0 18 -8 18 -17s-6 -17 -18 -17h-34v-584h34z" />
    <glyph glyph-name="Icircumflex" unicode="&#xce;" horiz-adv-x="226" 
d="M210 746c-8 -8 -17 -7 -23 0l-74 78l-74 -78c-6 -7 -15 -8 -23 0c-9 7 -8 18 4 30l74 74c5 5 10 10 19 10s14 -5 19 -10l74 -74c12 -12 13 -23 4 -30zM113 652c11 0 17 -6 17 -20v-612c0 -14 -6 -20 -17 -20s-17 6 -17 20v612c0 14 6 20 17 20z" />
    <glyph glyph-name="Icircumflex.ss01" horiz-adv-x="294" 
d="M244 746c-8 -8 -17 -7 -23 0l-74 78l-74 -78c-6 -7 -15 -8 -23 0c-9 7 -8 18 4 30l74 74c5 5 10 10 19 10s14 -5 19 -10l74 -74c12 -12 13 -23 4 -30zM198 34c12 0 18 -8 18 -17s-6 -17 -18 -17h-102c-12 0 -18 8 -18 17s6 17 18 17h34v584h-34c-12 0 -18 8 -18 17
s6 17 18 17h102c12 0 18 -8 18 -17s-6 -17 -18 -17h-34v-584h34z" />
    <glyph glyph-name="Idieresis" unicode="&#xcf;" horiz-adv-x="226" 
d="M57 736c-15 0 -25 11 -25 25s10 25 25 25s25 -11 25 -25s-10 -25 -25 -25zM177 736c-15 0 -25 11 -25 25s10 25 25 25s25 -11 25 -25s-10 -25 -25 -25zM113 652c11 0 17 -6 17 -20v-612c0 -14 -6 -20 -17 -20s-17 6 -17 20v612c0 14 6 20 17 20z" />
    <glyph glyph-name="Idieresis.ss01" horiz-adv-x="294" 
d="M91 736c-15 0 -25 11 -25 25s10 25 25 25s25 -11 25 -25s-10 -25 -25 -25zM211 736c-15 0 -25 11 -25 25s10 25 25 25s25 -11 25 -25s-10 -25 -25 -25zM198 34c12 0 18 -8 18 -17s-6 -17 -18 -17h-102c-12 0 -18 8 -18 17s6 17 18 17h34v584h-34c-12 0 -18 8 -18 17
s6 17 18 17h102c12 0 18 -8 18 -17s-6 -17 -18 -17h-34v-584h34z" />
    <glyph glyph-name="Idotaccent" unicode="&#x130;" horiz-adv-x="226" 
d="M113 729c-20 0 -33 14 -33 33s13 33 33 33s33 -14 33 -33s-13 -33 -33 -33zM113 652c11 0 17 -6 17 -20v-612c0 -14 -6 -20 -17 -20s-17 6 -17 20v612c0 14 6 20 17 20z" />
    <glyph glyph-name="Idotaccent.ss01" horiz-adv-x="294" 
d="M147 729c-20 0 -33 14 -33 33s13 33 33 33s33 -14 33 -33s-13 -33 -33 -33zM198 34c12 0 18 -8 18 -17s-6 -17 -18 -17h-102c-12 0 -18 8 -18 17s6 17 18 17h34v584h-34c-12 0 -18 8 -18 17s6 17 18 17h102c12 0 18 -8 18 -17s-6 -17 -18 -17h-34v-584h34z" />
    <glyph glyph-name="Igrave" unicode="&#xcc;" horiz-adv-x="226" 
d="M70 852l105 -87c10 -9 12 -17 4 -26c-7 -8 -15 -9 -26 0l-105 87c-10 9 -11 17 -4 25c8 9 16 10 26 1zM113 652c11 0 17 -6 17 -20v-612c0 -14 -6 -20 -17 -20s-17 6 -17 20v612c0 14 6 20 17 20z" />
    <glyph glyph-name="Igrave.ss01" horiz-adv-x="294" 
d="M104 852l105 -87c10 -9 12 -17 4 -26c-7 -8 -15 -9 -26 0l-105 87c-10 9 -11 17 -4 25c8 9 16 10 26 1zM198 34c12 0 18 -8 18 -17s-6 -17 -18 -17h-102c-12 0 -18 8 -18 17s6 17 18 17h34v584h-34c-12 0 -18 8 -18 17s6 17 18 17h102c12 0 18 -8 18 -17s-6 -17 -18 -17
h-34v-584h34z" />
    <glyph glyph-name="Imacron" unicode="&#x12a;" horiz-adv-x="226" 
d="M202 755c0 -10 -6 -16 -19 -16h-140c-13 0 -19 6 -19 16s6 16 19 16h140c13 0 19 -6 19 -16zM113 652c11 0 17 -6 17 -20v-612c0 -14 -6 -20 -17 -20s-17 6 -17 20v612c0 14 6 20 17 20z" />
    <glyph glyph-name="Imacron.ss01" horiz-adv-x="294" 
d="M236 755c0 -10 -6 -16 -19 -16h-140c-13 0 -19 6 -19 16s6 16 19 16h140c13 0 19 -6 19 -16zM198 34c12 0 18 -8 18 -17s-6 -17 -18 -17h-102c-12 0 -18 8 -18 17s6 17 18 17h34v584h-34c-12 0 -18 8 -18 17s6 17 18 17h102c12 0 18 -8 18 -17s-6 -17 -18 -17h-34v-584
h34z" />
    <glyph glyph-name="Iogonek" unicode="&#x12e;" horiz-adv-x="226" 
d="M166 -125c4 -10 1 -16 -12 -23c-14 -8 -37 -15 -62 -15c-42 0 -74 20 -84 54c-12 43 14 98 89 119c-1 3 -1 6 -1 10v612c0 14 6 20 17 20s17 -6 17 -20v-612c0 -12 -4 -18 -12 -20c-66 -12 -85 -63 -74 -95c8 -25 32 -35 56 -35c16 0 33 8 42 13c12 6 21 0 24 -8z" />
    <glyph glyph-name="Iogonek.ss01" horiz-adv-x="294" 
d="M166 0c-66 -12 -85 -63 -74 -95c8 -25 32 -35 56 -35c16 0 33 8 42 13c12 6 21 0 24 -8c4 -10 1 -16 -12 -23c-14 -8 -37 -15 -62 -15c-42 0 -74 20 -84 54c-10 37 8 84 61 109h-21c-12 0 -18 8 -18 17s6 17 18 17h34v584h-34c-12 0 -18 8 -18 17s6 17 18 17h102
c12 0 18 -8 18 -17s-6 -17 -18 -17h-34v-584h34c12 0 18 -8 18 -17s-6 -17 -18 -17h-32z" />
    <glyph glyph-name="Itilde" unicode="&#x128;" horiz-adv-x="226" 
d="M210 781c10 -7 9 -19 3 -25c-31 -31 -73 -34 -102 -14c-43 29 -57 9 -71 -3c-6 -5 -15 -5 -21 -1c-10 7 -9 19 -3 25c31 31 73 34 101 15c47 -32 60 -7 72 2c7 5 15 5 21 1zM113 652c11 0 17 -6 17 -20v-612c0 -14 -6 -20 -17 -20s-17 6 -17 20v612c0 14 6 20 17 20z" />
    <glyph glyph-name="Itilde.ss01" horiz-adv-x="294" 
d="M244 781c10 -7 9 -19 3 -25c-31 -31 -73 -34 -102 -14c-43 29 -57 9 -71 -3c-6 -5 -15 -5 -21 -1c-10 7 -9 19 -3 25c31 31 73 34 101 15c47 -32 60 -7 72 2c7 5 15 5 21 1zM198 34c12 0 18 -8 18 -17s-6 -17 -18 -17h-102c-12 0 -18 8 -18 17s6 17 18 17h34v584h-34
c-12 0 -18 8 -18 17s6 17 18 17h102c12 0 18 -8 18 -17s-6 -17 -18 -17h-34v-584h34z" />
    <glyph glyph-name="J" unicode="J" horiz-adv-x="325" 
d="M200 652c11 0 17 -6 17 -20v-565c0 -100 -70 -152 -147 -187c-11 -5 -18 -1 -22 7s-2 17 9 23c66 36 126 70 126 159v549h-98c-12 0 -18 8 -18 17s6 17 18 17h115z" />
    <glyph glyph-name="uni00A40301" horiz-adv-x="325" 
d="M191 852c10 9 18 8 26 -1c7 -8 6 -16 -4 -25l-105 -87c-11 -9 -19 -8 -26 0c-8 9 -6 17 4 26zM200 652c11 0 17 -6 17 -20v-565c0 -100 -70 -152 -147 -187c-11 -5 -18 -1 -22 7s-2 17 9 23c66 36 126 70 126 159v549h-98c-12 0 -18 8 -18 17s6 17 18 17h115z" />
    <glyph glyph-name="K" unicode="K" horiz-adv-x="565" 
d="M508 23c4 -12 -1 -19 -10 -22s-18 1 -22 13l-67 175c-34 92 -72 127 -169 127h-118v-296c0 -14 -6 -20 -17 -20s-17 6 -17 20v612c0 14 6 20 17 20s17 -6 17 -20v-284h102c90 0 118 32 152 120l66 171c4 11 13 15 22 12s13 -10 8 -23l-66 -172c-27 -70 -47 -103 -98 -118
c59 -8 104 -52 129 -121z" />
    <glyph glyph-name="K.ss01" horiz-adv-x="565" 
d="M508 23c4 -12 -1 -19 -10 -22s-18 1 -22 13l-67 175c-34 92 -75 126 -213 126c-11 0 -17 8 -17 17s6 17 17 17c124 0 146 31 180 119l66 171c4 11 13 15 22 12s13 -10 8 -23l-66 -172c-27 -70 -56 -116 -116 -121c64 -3 122 -49 147 -118zM105 652c11 0 17 -6 17 -20
v-612c0 -14 -6 -20 -17 -20s-17 6 -17 20v612c0 14 6 20 17 20z" />
    <glyph glyph-name="uni0136" unicode="&#x136;" horiz-adv-x="565" 
d="M508 23c4 -12 -1 -19 -10 -22s-18 1 -22 13l-67 175c-34 92 -72 127 -169 127h-118v-296c0 -14 -6 -20 -17 -20s-17 6 -17 20v612c0 14 6 20 17 20s17 -6 17 -20v-284h102c90 0 118 32 152 120l66 171c4 11 13 15 22 12s13 -10 8 -23l-66 -172c-27 -70 -47 -103 -98 -118
c59 -8 104 -52 129 -121zM315 -95l-45 -78c-4 -7 -7 -9 -12 -9c-8 0 -11 6 -11 11c0 1 0 2 2 7l31 84c5 15 12 20 23 20c10 0 19 -6 19 -16c0 -8 -2 -11 -7 -19z" />
    <glyph glyph-name="uni0136.ss01" horiz-adv-x="565" 
d="M508 23c4 -12 -1 -19 -10 -22s-18 1 -22 13l-67 175c-34 92 -75 126 -213 126c-11 0 -17 8 -17 17s6 17 17 17c124 0 146 31 180 119l66 171c4 11 13 15 22 12s13 -10 8 -23l-66 -172c-27 -70 -56 -116 -116 -121c64 -3 122 -49 147 -118zM105 652c11 0 17 -6 17 -20
v-612c0 -14 -6 -20 -17 -20s-17 6 -17 20v612c0 14 6 20 17 20zM292 -95l-45 -78c-4 -7 -7 -9 -12 -9c-8 0 -11 6 -11 11c0 1 0 2 2 7l31 84c5 15 12 20 23 20c10 0 19 -6 19 -16c0 -8 -2 -11 -7 -19z" />
    <glyph glyph-name="L" unicode="L" horiz-adv-x="493" 
d="M432 34c12 0 17 -8 17 -17s-5 -17 -17 -17h-327c-11 0 -17 6 -17 20v612c0 14 6 20 17 20s17 -6 17 -20v-598h310z" />
    <glyph glyph-name="Lacute" unicode="&#x139;" horiz-adv-x="493" 
d="M306 852c10 9 18 8 26 -1c7 -8 6 -16 -4 -25l-105 -87c-11 -9 -19 -8 -26 0c-8 9 -6 17 4 26zM432 34c12 0 17 -8 17 -17s-5 -17 -17 -17h-327c-11 0 -17 6 -17 20v612c0 14 6 20 17 20s17 -6 17 -20v-598h310z" />
    <glyph glyph-name="Lcaron" unicode="&#x13d;" horiz-adv-x="493" 
d="M347 681l-45 -152c-2 -6 -6 -9 -12 -9c-8 0 -14 5 -12 15l36 151c3 14 11 17 19 17c12 0 18 -10 14 -22zM432 34c12 0 17 -8 17 -17s-5 -17 -17 -17h-327c-11 0 -17 6 -17 20v612c0 14 6 20 17 20s17 -6 17 -20v-598h310z" />
    <glyph glyph-name="uni013B" unicode="&#x13b;" horiz-adv-x="493" 
d="M432 34c12 0 17 -8 17 -17s-5 -17 -17 -17h-327c-11 0 -17 6 -17 20v612c0 14 6 20 17 20s17 -6 17 -20v-598h310zM292 -95l-45 -78c-4 -7 -7 -9 -12 -9c-8 0 -11 6 -11 11c0 1 0 2 2 7l31 84c5 15 12 20 23 20c10 0 19 -6 19 -16c0 -8 -2 -11 -7 -19z" />
    <glyph glyph-name="Ldot" unicode="&#x13f;" horiz-adv-x="493" 
d="M432 34c12 0 17 -8 17 -17s-5 -17 -17 -17h-327c-11 0 -17 6 -17 20v612c0 14 6 20 17 20s17 -6 17 -20v-598h310zM300 310c-17 0 -30 13 -30 30s13 30 30 30s30 -13 30 -30s-13 -30 -30 -30z" />
    <glyph glyph-name="Lslash" unicode="&#x141;" horiz-adv-x="518" 
d="M457 34c12 0 17 -8 17 -17s-5 -17 -17 -17h-327c-11 0 -17 6 -17 20v277l-53 -44c-10 -8 -18 -7 -23 -1c-7 8 -6 16 4 24l72 60v296c0 14 6 20 17 20s17 -6 17 -20v-268l115 96c10 8 18 7 23 1c7 -8 6 -16 -4 -24l-134 -112v-291h310z" />
    <glyph glyph-name="M" unicode="M" horiz-adv-x="745" 
d="M679 21c1 -14 -2 -19 -11 -21c-14 -2 -22 5 -23 17l-59 578l-196 -396c-5 -9 -10 -12 -18 -12c-7 0 -14 3 -18 12l-196 396l-58 -578c-1 -11 -8 -18 -22 -17c-9 1 -13 7 -12 21l63 615c1 9 6 17 19 17c15 0 21 -5 27 -18l197 -398l197 398c6 13 12 18 27 18
c13 0 18 -8 19 -17z" />
    <glyph glyph-name="N" unicode="N" horiz-adv-x="672" 
d="M567 652c11 0 17 -6 17 -20v-612c0 -14 -6 -20 -17 -20c-9 0 -13 3 -19 11l-426 573v-564c0 -14 -6 -20 -17 -20s-17 6 -17 20v612c0 14 6 20 17 20c7 0 13 -5 18 -12l427 -574v566c0 14 6 20 17 20z" />
    <glyph glyph-name="Nacute" unicode="&#x143;" horiz-adv-x="672" 
d="M384 852c10 9 18 8 26 -1c7 -8 6 -16 -4 -25l-105 -87c-11 -9 -19 -8 -26 0c-8 9 -6 17 4 26zM567 652c11 0 17 -6 17 -20v-612c0 -14 -6 -20 -17 -20c-9 0 -13 3 -19 11l-426 573v-564c0 -14 -6 -20 -17 -20s-17 6 -17 20v612c0 14 6 20 17 20c7 0 13 -5 18 -12
l427 -574v566c0 14 6 20 17 20z" />
    <glyph glyph-name="Ncaron" unicode="&#x147;" horiz-adv-x="672" 
d="M438 846c9 -7 8 -18 -4 -30l-74 -74c-5 -5 -10 -10 -19 -10s-14 5 -19 10l-74 74c-12 12 -13 23 -4 30c8 8 17 7 23 0l74 -78l74 78c6 7 15 8 23 0zM567 652c11 0 17 -6 17 -20v-612c0 -14 -6 -20 -17 -20c-9 0 -13 3 -19 11l-426 573v-564c0 -14 -6 -20 -17 -20
s-17 6 -17 20v612c0 14 6 20 17 20c7 0 13 -5 18 -12l427 -574v566c0 14 6 20 17 20z" />
    <glyph glyph-name="uni0145" unicode="&#x145;" horiz-adv-x="672" 
d="M567 652c11 0 17 -6 17 -20v-612c0 -14 -6 -20 -17 -20c-9 0 -13 3 -19 11l-426 573v-564c0 -14 -6 -20 -17 -20s-17 6 -17 20v612c0 14 6 20 17 20c7 0 13 -5 18 -12l427 -574v566c0 14 6 20 17 20zM370 -95l-45 -78c-4 -7 -7 -9 -12 -9c-8 0 -11 6 -11 11c0 1 0 2 2 7
l31 84c5 15 12 20 23 20c10 0 19 -6 19 -16c0 -8 -2 -11 -7 -19z" />
    <glyph glyph-name="Eng" unicode="&#x14a;" horiz-adv-x="692" 
d="M567 652c11 0 17 -6 17 -20v-617c-4 -80 -48 -126 -125 -152c-12 -4 -20 1 -23 9s0 17 12 22c93 35 111 99 88 134l-414 556v-564c0 -14 -6 -20 -17 -20s-17 6 -17 20v612c0 14 6 20 17 20c7 0 13 -5 18 -12l427 -574v566c0 14 6 20 17 20z" />
    <glyph glyph-name="Ntilde" unicode="&#xd1;" horiz-adv-x="672" 
d="M438 781c10 -7 9 -19 3 -25c-31 -31 -73 -34 -102 -14c-43 29 -57 9 -71 -3c-6 -5 -15 -5 -21 -1c-10 7 -9 19 -3 25c31 31 73 34 101 15c47 -32 60 -7 72 2c7 5 15 5 21 1zM567 652c11 0 17 -6 17 -20v-612c0 -14 -6 -20 -17 -20c-9 0 -13 3 -19 11l-426 573v-564
c0 -14 -6 -20 -17 -20s-17 6 -17 20v612c0 14 6 20 17 20c7 0 13 -5 18 -12l427 -574v566c0 14 6 20 17 20z" />
    <glyph glyph-name="O" unicode="O" horiz-adv-x="768" 
d="M384 -6c-186 0 -330 138 -330 331s144 333 330 333s330 -140 330 -333s-144 -331 -330 -331zM384 28c163 0 294 117 294 297s-131 299 -294 299s-294 -119 -294 -299s131 -297 294 -297z" />
    <glyph glyph-name="O.ss01" horiz-adv-x="768" 
d="M384 -6c-186 0 -330 138 -330 331s144 333 330 333s330 -140 330 -333s-144 -331 -330 -331zM384 28c163 0 294 117 294 297s-131 299 -294 299s-294 -119 -294 -299s131 -297 294 -297zM384 299c-16 0 -27 12 -27 27s11 27 27 27s27 -12 27 -27s-11 -27 -27 -27z" />
    <glyph glyph-name="Oacute" unicode="&#xd3;" horiz-adv-x="768" 
d="M427 852c10 9 18 8 26 -1c7 -8 6 -16 -4 -25l-105 -87c-11 -9 -19 -8 -26 0c-8 9 -6 17 4 26zM384 -6c-186 0 -330 138 -330 331s144 333 330 333s330 -140 330 -333s-144 -331 -330 -331zM384 28c163 0 294 117 294 297s-131 299 -294 299s-294 -119 -294 -299
s131 -297 294 -297z" />
    <glyph glyph-name="Obreve" unicode="&#x14e;" horiz-adv-x="768" 
d="M488 836c10 -4 10 -12 6 -25c-16 -47 -49 -81 -110 -81c-64 0 -96 34 -110 81c-2 8 -7 19 6 25c15 6 20 1 25 -13c7 -20 21 -63 79 -63s72 43 79 63c4 12 10 19 25 13zM384 -6c-186 0 -330 138 -330 331s144 333 330 333s330 -140 330 -333s-144 -331 -330 -331zM384 28
c163 0 294 117 294 297s-131 299 -294 299s-294 -119 -294 -299s131 -297 294 -297z" />
    <glyph glyph-name="Ocircumflex" unicode="&#xd4;" horiz-adv-x="768" 
d="M481 746c-8 -8 -17 -7 -23 0l-74 78l-74 -78c-6 -7 -15 -8 -23 0c-9 7 -8 18 4 30l74 74c5 5 10 10 19 10s14 -5 19 -10l74 -74c12 -12 13 -23 4 -30zM384 -6c-186 0 -330 138 -330 331s144 333 330 333s330 -140 330 -333s-144 -331 -330 -331zM384 28
c163 0 294 117 294 297s-131 299 -294 299s-294 -119 -294 -299s131 -297 294 -297z" />
    <glyph glyph-name="Odieresis" unicode="&#xd6;" horiz-adv-x="768" 
d="M328 736c-15 0 -25 11 -25 25s10 25 25 25s25 -11 25 -25s-10 -25 -25 -25zM448 736c-15 0 -25 11 -25 25s10 25 25 25s25 -11 25 -25s-10 -25 -25 -25zM384 -6c-186 0 -330 138 -330 331s144 333 330 333s330 -140 330 -333s-144 -331 -330 -331zM384 28
c163 0 294 117 294 297s-131 299 -294 299s-294 -119 -294 -299s131 -297 294 -297z" />
    <glyph glyph-name="Ograve" unicode="&#xd2;" horiz-adv-x="768" 
d="M341 852l105 -87c10 -9 12 -17 4 -26c-7 -8 -15 -9 -26 0l-105 87c-10 9 -11 17 -4 25c8 9 16 10 26 1zM384 -6c-186 0 -330 138 -330 331s144 333 330 333s330 -140 330 -333s-144 -331 -330 -331zM384 28c163 0 294 117 294 297s-131 299 -294 299s-294 -119 -294 -299
s131 -297 294 -297z" />
    <glyph glyph-name="Ohungarumlaut" unicode="&#x150;" horiz-adv-x="768" 
d="M356 847c9 10 16 11 25 4s9 -15 1 -25l-71 -84c-9 -11 -17 -11 -25 -5c-10 8 -9 16 -1 26zM488 847c9 10 16 11 25 4s9 -15 1 -25l-71 -84c-9 -11 -17 -11 -25 -5c-10 8 -9 16 -1 26zM384 -6c-186 0 -330 138 -330 331s144 333 330 333s330 -140 330 -333
s-144 -331 -330 -331zM384 28c163 0 294 117 294 297s-131 299 -294 299s-294 -119 -294 -299s131 -297 294 -297z" />
    <glyph glyph-name="Omacron" unicode="&#x14c;" horiz-adv-x="768" 
d="M484 755c0 -10 -6 -16 -19 -16h-162c-13 0 -19 6 -19 16s6 16 19 16h162c13 0 19 -6 19 -16zM384 -6c-186 0 -330 138 -330 331s144 333 330 333s330 -140 330 -333s-144 -331 -330 -331zM384 28c163 0 294 117 294 297s-131 299 -294 299s-294 -119 -294 -299
s131 -297 294 -297z" />
    <glyph glyph-name="Oslash" unicode="&#xd8;" horiz-adv-x="768" 
d="M632 550c51 -58 82 -136 82 -225c0 -193 -144 -331 -330 -331c-88 0 -167 31 -225 84l-72 -71c-9 -8 -18 -8 -24 -1s-7 15 1 24l72 71c-51 58 -82 135 -82 224c0 193 144 333 330 333c88 0 167 -31 225 -85l73 73c9 8 18 8 24 1s7 -15 -1 -24zM90 325
c0 -81 26 -149 70 -199l425 423c-53 48 -123 75 -201 75c-163 0 -294 -119 -294 -299zM384 28c163 0 294 117 294 297c0 81 -27 150 -71 201l-424 -424c52 -47 123 -74 201 -74z" />
    <glyph glyph-name="Otilde" unicode="&#xd5;" horiz-adv-x="768" 
d="M481 781c10 -7 9 -19 3 -25c-31 -31 -73 -34 -102 -14c-43 29 -57 9 -71 -3c-6 -5 -15 -5 -21 -1c-10 7 -9 19 -3 25c31 31 73 34 101 15c47 -32 60 -7 72 2c7 5 15 5 21 1zM384 -6c-186 0 -330 138 -330 331s144 333 330 333s330 -140 330 -333s-144 -331 -330 -331z
M384 28c163 0 294 117 294 297s-131 299 -294 299s-294 -119 -294 -299s131 -297 294 -297z" />
    <glyph glyph-name="OE" unicode="&#x152;" horiz-adv-x="1113" 
d="M1024 34c12 0 18 -8 18 -17s-6 -17 -18 -17h-325c-14 0 -20 6 -20 20v151c-54 -108 -164 -177 -295 -177c-186 0 -330 138 -330 331s144 333 330 333c131 0 241 -70 295 -178v152c0 14 6 20 20 20h320c12 0 18 -8 18 -17s-6 -17 -18 -17h-306v-265h260c13 0 20 -6 20 -17
s-7 -17 -20 -17h-259c0 -7 0 -14 -1 -22v-263h311zM384 28c163 0 294 117 294 297s-131 299 -294 299s-294 -119 -294 -299s131 -297 294 -297z" />
    <glyph glyph-name="OE.ss01" horiz-adv-x="1113" 
d="M1024 34c12 0 18 -8 18 -17s-6 -17 -18 -17h-325c-14 0 -20 6 -20 20v151c-54 -108 -164 -177 -295 -177c-186 0 -330 138 -330 331s144 333 330 333c131 0 241 -70 295 -178v152c0 14 6 20 20 20h320c12 0 18 -8 18 -17s-6 -17 -18 -17h-306v-265c1 -9 1 -19 1 -28
s0 -19 -1 -28v-263h311zM384 28c163 0 294 117 294 297s-131 299 -294 299s-294 -119 -294 -299s131 -297 294 -297zM790 354h184c13 0 20 -6 20 -18s-7 -18 -20 -18h-184c-13 0 -20 6 -20 18s7 18 20 18z" />
    <glyph glyph-name="P" unicode="P" horiz-adv-x="569" 
d="M313 652c118 0 204 -71 204 -209c0 -134 -81 -213 -199 -213h-196v-210c0 -14 -6 -20 -17 -20s-17 6 -17 20v612c0 14 6 20 17 20h208zM314 264c107 0 168 66 168 179c0 117 -66 175 -173 175h-187v-354h192z" />
    <glyph glyph-name="P.ss01" horiz-adv-x="598" 
d="M325 652c124 0 199 -79 199 -210c0 -137 -82 -215 -206 -215h-121c-12 0 -18 6 -18 17s6 17 18 17h112c105 0 180 50 180 180c0 126 -70 177 -175 177h-192v-598c0 -14 -6 -20 -17 -20s-17 6 -17 20v612c0 14 6 20 17 20h220z" />
    <glyph glyph-name="Thorn" unicode="&#xde;" horiz-adv-x="526" 
d="M258 522c151 0 214 -80 214 -192s-63 -192 -214 -192h-136v-118c0 -14 -6 -20 -17 -20s-17 6 -17 20v612c0 14 6 20 17 20s17 -6 17 -20v-110h136zM249 172c125 0 188 53 188 158s-63 158 -188 158h-127v-316h127z" />
    <glyph glyph-name="Thorn.ss01" horiz-adv-x="546" 
d="M105 652c11 0 17 -6 17 -20v-612c0 -14 -6 -20 -17 -20s-17 6 -17 20v612c0 14 6 20 17 20zM285 522c141 0 207 -83 207 -192s-66 -192 -207 -192h-88c-12 0 -18 6 -18 17s6 17 18 17h77c119 0 183 53 183 158s-64 158 -183 158h-77c-12 0 -18 6 -18 17s6 17 18 17h88z
" />
    <glyph glyph-name="Q" unicode="Q" horiz-adv-x="768" 
d="M655 15c12 -11 9 -22 3 -28s-17 -9 -28 2l-59 60c-52 -35 -117 -55 -187 -55c-186 0 -330 138 -330 331s144 333 330 333s330 -140 330 -333c0 -107 -44 -196 -114 -255zM90 325c0 -180 131 -297 294 -297s294 117 294 297s-131 299 -294 299s-294 -119 -294 -299z" />
    <glyph glyph-name="Q.ss01" horiz-adv-x="768" 
d="M384 658c200 0 330 -154 330 -333c0 -110 -48 -185 -73 -214c-8 -9 -19 -12 -27 -4c-7 7 -8 17 0 26c22 26 64 92 64 192c0 162 -113 299 -294 299s-294 -137 -294 -299s113 -297 294 -297c47 0 86 9 121 24c10 4 18 0 22 -9s2 -19 -9 -23c-38 -15 -80 -26 -134 -26
c-200 0 -330 152 -330 331s130 333 330 333zM658 -13c-6 -6 -17 -9 -28 2l-69 70c-11 12 -9 22 -3 28s16 8 27 -3l70 -69c12 -12 9 -22 3 -28z" />
    <glyph glyph-name="R" unicode="R" horiz-adv-x="602" 
d="M537 29c7 -10 6 -20 -2 -26s-21 -4 -28 6l-106 154c-22 31 -53 93 -145 93h-134v-236c0 -14 -6 -20 -17 -20s-17 6 -17 20v612c0 14 6 20 17 20h204c129 0 209 -57 209 -197c0 -137 -94 -183 -167 -195c19 -6 40 -19 78 -74zM291 290c101 0 191 36 191 165
s-72 163 -186 163h-174v-328h169z" />
    <glyph glyph-name="R.ss01" horiz-adv-x="589" 
d="M522 3c-9 -6 -21 -4 -28 6l-106 154c-29 44 -80 94 -159 94c-11 0 -18 7 -18 17s7 17 18 17h56c115 0 186 48 186 165c0 120 -65 162 -182 162h-167v-598c0 -14 -6 -20 -17 -20s-17 6 -17 20v612c0 14 6 20 17 20h197c123 0 205 -57 205 -196c0 -117 -67 -183 -179 -196
c26 -10 54 -28 84 -68l112 -163c7 -10 6 -20 -2 -26z" />
    <glyph glyph-name="Racute" unicode="&#x154;" horiz-adv-x="602" 
d="M349 852c10 9 18 8 26 -1c7 -8 6 -16 -4 -25l-105 -87c-11 -9 -19 -8 -26 0c-8 9 -6 17 4 26zM537 29c7 -10 6 -20 -2 -26s-21 -4 -28 6l-106 154c-22 31 -53 93 -145 93h-134v-236c0 -14 -6 -20 -17 -20s-17 6 -17 20v612c0 14 6 20 17 20h204c129 0 209 -57 209 -197
c0 -137 -94 -183 -167 -195c19 -6 40 -19 78 -74zM291 290c101 0 191 36 191 165s-72 163 -186 163h-174v-328h169z" />
    <glyph glyph-name="Racute.ss01" horiz-adv-x="589" 
d="M314 852c10 9 18 8 26 -1c7 -8 6 -16 -4 -25l-105 -87c-11 -9 -19 -8 -26 0c-8 9 -6 17 4 26zM522 3c-9 -6 -21 -4 -28 6l-106 154c-29 44 -80 94 -159 94c-11 0 -18 7 -18 17s7 17 18 17h56c115 0 186 48 186 165c0 120 -65 162 -182 162h-167v-598
c0 -14 -6 -20 -17 -20s-17 6 -17 20v612c0 14 6 20 17 20h197c123 0 205 -57 205 -196c0 -117 -67 -183 -179 -196c26 -10 54 -28 84 -68l112 -163c7 -10 6 -20 -2 -26z" />
    <glyph glyph-name="Rcaron" unicode="&#x158;" horiz-adv-x="602" 
d="M403 846c9 -7 8 -18 -4 -30l-74 -74c-5 -5 -10 -10 -19 -10s-14 5 -19 10l-74 74c-12 12 -13 23 -4 30c8 8 17 7 23 0l74 -78l74 78c6 7 15 8 23 0zM537 29c7 -10 6 -20 -2 -26s-21 -4 -28 6l-106 154c-22 31 -53 93 -145 93h-134v-236c0 -14 -6 -20 -17 -20
s-17 6 -17 20v612c0 14 6 20 17 20h204c129 0 209 -57 209 -197c0 -137 -94 -183 -167 -195c19 -6 40 -19 78 -74zM291 290c101 0 191 36 191 165s-72 163 -186 163h-174v-328h169z" />
    <glyph glyph-name="Rcaron.ss01" horiz-adv-x="589" 
d="M368 846c9 -7 8 -18 -4 -30l-74 -74c-5 -5 -10 -10 -19 -10s-14 5 -19 10l-74 74c-12 12 -13 23 -4 30c8 8 17 7 23 0l74 -78l74 78c6 7 15 8 23 0zM522 3c-9 -6 -21 -4 -28 6l-106 154c-29 44 -80 94 -159 94c-11 0 -18 7 -18 17s7 17 18 17h56c115 0 186 48 186 165
c0 120 -65 162 -182 162h-167v-598c0 -14 -6 -20 -17 -20s-17 6 -17 20v612c0 14 6 20 17 20h197c123 0 205 -57 205 -196c0 -117 -67 -183 -179 -196c26 -10 54 -28 84 -68l112 -163c7 -10 6 -20 -2 -26z" />
    <glyph glyph-name="uni0156" unicode="&#x156;" horiz-adv-x="602" 
d="M537 29c7 -10 6 -20 -2 -26s-21 -4 -28 6l-106 154c-22 31 -53 93 -145 93h-134v-236c0 -14 -6 -20 -17 -20s-17 6 -17 20v612c0 14 6 20 17 20h204c129 0 209 -57 209 -197c0 -137 -94 -183 -167 -195c19 -6 40 -19 78 -74zM291 290c101 0 191 36 191 165
s-72 163 -186 163h-174v-328h169zM335 -95l-45 -78c-4 -7 -7 -9 -12 -9c-8 0 -11 6 -11 11c0 1 0 2 2 7l31 84c5 15 12 20 23 20c10 0 19 -6 19 -16c0 -8 -2 -11 -7 -19z" />
    <glyph glyph-name="uni0156.ss01" horiz-adv-x="589" 
d="M522 3c-9 -6 -21 -4 -28 6l-106 154c-29 44 -80 94 -159 94c-11 0 -18 7 -18 17s7 17 18 17h56c115 0 186 48 186 165c0 120 -65 162 -182 162h-167v-598c0 -14 -6 -20 -17 -20s-17 6 -17 20v612c0 14 6 20 17 20h197c123 0 205 -57 205 -196c0 -117 -67 -183 -179 -196
c26 -10 54 -28 84 -68l112 -163c7 -10 6 -20 -2 -26zM300 -95l-45 -78c-4 -7 -7 -9 -12 -9c-8 0 -11 6 -11 11c0 1 0 2 2 7l31 84c5 15 12 20 23 20c10 0 19 -6 19 -16c0 -8 -2 -11 -7 -19z" />
    <glyph glyph-name="S" unicode="S" horiz-adv-x="562" 
d="M125 502c0 -55 32 -96 172 -143c125 -42 209 -87 209 -187s-84 -178 -216 -178c-106 0 -189 52 -227 102c-7 9 -11 19 0 29c7 6 17 9 27 -3c18 -22 83 -94 198 -94c113 0 182 60 182 141s-76 121 -203 163c-138 46 -178 98 -178 167c0 102 91 159 190 159
c85 0 159 -40 194 -80c10 -12 10 -19 3 -27c-7 -7 -16 -8 -26 0c-9 8 -64 73 -169 73c-92 0 -156 -48 -156 -122z" />
    <glyph glyph-name="Sacute" unicode="&#x15a;" horiz-adv-x="562" 
d="M327 852c10 9 18 8 26 -1c7 -8 6 -16 -4 -25l-105 -87c-11 -9 -19 -8 -26 0c-8 9 -6 17 4 26zM125 502c0 -55 32 -96 172 -143c125 -42 209 -87 209 -187s-84 -178 -216 -178c-106 0 -189 52 -227 102c-7 9 -11 19 0 29c7 6 17 9 27 -3c18 -22 83 -94 198 -94
c113 0 182 60 182 141s-76 121 -203 163c-138 46 -178 98 -178 167c0 102 91 159 190 159c85 0 159 -40 194 -80c10 -12 10 -19 3 -27c-7 -7 -16 -8 -26 0c-9 8 -64 73 -169 73c-92 0 -156 -48 -156 -122z" />
    <glyph glyph-name="Scaron" unicode="&#x160;" horiz-adv-x="562" 
d="M381 846c9 -7 8 -18 -4 -30l-74 -74c-5 -5 -10 -10 -19 -10s-14 5 -19 10l-74 74c-12 12 -13 23 -4 30c8 8 17 7 23 0l74 -78l74 78c6 7 15 8 23 0zM125 502c0 -55 32 -96 172 -143c125 -42 209 -87 209 -187s-84 -178 -216 -178c-106 0 -189 52 -227 102
c-7 9 -11 19 0 29c7 6 17 9 27 -3c18 -22 83 -94 198 -94c113 0 182 60 182 141s-76 121 -203 163c-138 46 -178 98 -178 167c0 102 91 159 190 159c85 0 159 -40 194 -80c10 -12 10 -19 3 -27c-7 -7 -16 -8 -26 0c-9 8 -64 73 -169 73c-92 0 -156 -48 -156 -122z" />
    <glyph glyph-name="Scedilla" unicode="&#x15e;" horiz-adv-x="562" 
d="M506 172c0 -98 -81 -175 -208 -178l-19 -33c33 -10 81 -27 81 -78c0 -37 -25 -67 -77 -67c-25 0 -49 7 -65 17c-10 6 -13 13 -8 22c4 7 11 9 19 5c12 -6 30 -14 52 -14c29 0 46 14 46 38c0 30 -31 46 -68 56c-9 2 -12 8 -7 20l14 35c-95 7 -168 55 -203 101
c-7 9 -11 19 0 29c7 6 17 9 27 -3c18 -22 83 -94 198 -94c113 0 182 60 182 141s-76 121 -203 163c-138 46 -178 98 -178 167c0 102 91 159 190 159c85 0 159 -40 194 -80c10 -12 10 -19 3 -27c-7 -7 -16 -8 -26 0c-9 8 -64 73 -169 73c-92 0 -156 -48 -156 -122
c0 -55 32 -96 172 -143c125 -42 209 -87 209 -187z" />
    <glyph glyph-name="uni0218" unicode="&#x218;" horiz-adv-x="562" 
d="M125 502c0 -55 32 -96 172 -143c125 -42 209 -87 209 -187s-84 -178 -216 -178c-106 0 -189 52 -227 102c-7 9 -11 19 0 29c7 6 17 9 27 -3c18 -22 83 -94 198 -94c113 0 182 60 182 141s-76 121 -203 163c-138 46 -178 98 -178 167c0 102 91 159 190 159
c85 0 159 -40 194 -80c10 -12 10 -19 3 -27c-7 -7 -16 -8 -26 0c-9 8 -64 73 -169 73c-92 0 -156 -48 -156 -122zM295 -95l-45 -78c-4 -7 -7 -9 -12 -9c-8 0 -11 6 -11 11c0 1 0 2 2 7l31 84c5 15 12 20 23 20c10 0 19 -6 19 -16c0 -8 -2 -11 -7 -19z" />
    <glyph glyph-name="uni1E9E" unicode="&#x1e9e;" horiz-adv-x="603" 
d="M398 365c80 -21 143 -96 143 -183c0 -96 -77 -182 -212 -182h-132c-11 0 -17 6 -17 17s6 17 17 17h126c120 0 183 65 183 149c0 68 -47 140 -144 157c-6 1 -14 4 -16 14s3 16 12 21c54 32 99 61 99 127c0 82 -69 122 -144 122c-115 0 -191 -89 -191 -263v-341
c0 -14 -6 -20 -17 -20s-17 6 -17 20v351c0 175 89 287 224 287c97 0 180 -59 180 -154c0 -80 -64 -128 -94 -139z" />
    <glyph glyph-name="T" unicode="T" horiz-adv-x="554" 
d="M495 652c12 0 17 -8 17 -17s-5 -17 -17 -17h-201v-598c0 -14 -6 -20 -17 -20s-17 6 -17 20v598h-201c-12 0 -17 8 -17 17s5 17 17 17h436z" />
    <glyph glyph-name="T.ss01" horiz-adv-x="586" 
d="M126 652c131 0 184 -59 184 -181v-451c0 -14 -6 -20 -17 -20s-17 6 -17 20v441c0 106 -40 155 -138 157h-79c-12 0 -17 8 -17 17s5 17 17 17h67zM527 652c12 0 17 -8 17 -17s-5 -17 -17 -17h-201c-12 0 -17 8 -17 17s5 17 17 17h201z" />
    <glyph glyph-name="Tbar" unicode="&#x166;" horiz-adv-x="554" 
d="M495 652c12 0 17 -8 17 -17s-5 -17 -17 -17h-201v-280h94c14 0 20 -6 20 -17s-6 -17 -20 -17h-94v-284c0 -14 -6 -20 -17 -20s-17 6 -17 20v284h-92c-14 0 -20 6 -20 17s6 17 20 17h92v280h-201c-12 0 -17 8 -17 17s5 17 17 17h436z" />
    <glyph glyph-name="Tbar.ss01" horiz-adv-x="586" 
d="M403 338c14 0 20 -6 20 -17s-6 -17 -20 -17h-93v-284c0 -14 -6 -20 -17 -20s-17 6 -17 20v284h-93c-14 0 -20 6 -20 17s6 17 20 17h93v123c0 106 -40 155 -138 157h-79c-12 0 -17 8 -17 17s5 17 17 17h67c131 0 184 -59 184 -181v-133h93zM527 652c12 0 17 -8 17 -17
s-5 -17 -17 -17h-201c-12 0 -17 8 -17 17s5 17 17 17h201z" />
    <glyph glyph-name="Tcaron" unicode="&#x164;" horiz-adv-x="554" 
d="M375 846c9 -7 8 -18 -4 -30l-74 -74c-5 -5 -10 -10 -19 -10s-14 5 -19 10l-74 74c-12 12 -13 23 -4 30c8 8 17 7 23 0l74 -78l74 78c6 7 15 8 23 0zM495 652c12 0 17 -8 17 -17s-5 -17 -17 -17h-201v-598c0 -14 -6 -20 -17 -20s-17 6 -17 20v598h-201c-12 0 -17 8 -17 17
s5 17 17 17h436z" />
    <glyph glyph-name="Tcaron.ss01" horiz-adv-x="586" 
d="M390 846c9 -7 8 -18 -4 -30l-74 -74c-5 -5 -10 -10 -19 -10s-14 5 -19 10l-74 74c-12 12 -13 23 -4 30c8 8 17 7 23 0l74 -78l74 78c6 7 15 8 23 0zM126 652c131 0 184 -59 184 -181v-451c0 -14 -6 -20 -17 -20s-17 6 -17 20v441c0 106 -40 155 -138 157h-79
c-12 0 -17 8 -17 17s5 17 17 17h67zM527 652c12 0 17 -8 17 -17s-5 -17 -17 -17h-201c-12 0 -17 8 -17 17s5 17 17 17h201z" />
    <glyph glyph-name="uni0162" unicode="&#x162;" horiz-adv-x="554" 
d="M495 652c12 0 17 -8 17 -17s-5 -17 -17 -17h-201v-598c0 -4 -1 -8 -2 -11h3l-27 -48c33 -10 81 -27 81 -78c0 -37 -25 -67 -77 -67c-25 0 -49 7 -65 17c-10 6 -13 13 -8 22c4 7 11 9 19 5c12 -6 30 -14 52 -14c29 0 46 14 46 38c0 30 -31 46 -68 56c-9 2 -12 8 -7 20
l19 49h2c-1 3 -2 7 -2 11v598h-201c-12 0 -17 8 -17 17s5 17 17 17h436z" />
    <glyph glyph-name="uni0162.ss01" horiz-adv-x="586" 
d="M282 -39c33 -10 81 -27 81 -78c0 -37 -25 -67 -77 -67c-25 0 -49 7 -65 17c-10 6 -13 13 -8 22c4 7 11 9 19 5c12 -6 30 -14 52 -14c29 0 46 14 46 38c0 30 -31 46 -68 56c-9 2 -12 8 -7 20l19 49h4c-1 3 -2 7 -2 11v441c0 106 -40 155 -138 157h-79c-12 0 -17 8 -17 17
s5 17 17 17h67c131 0 184 -59 184 -181v-451c0 -4 -1 -8 -2 -11h1zM527 652c12 0 17 -8 17 -17s-5 -17 -17 -17h-201c-12 0 -17 8 -17 17s5 17 17 17h201z" />
    <glyph glyph-name="uni021A" unicode="&#x21a;" horiz-adv-x="554" 
d="M495 652c12 0 17 -8 17 -17s-5 -17 -17 -17h-201v-598c0 -14 -6 -20 -17 -20s-17 6 -17 20v598h-201c-12 0 -17 8 -17 17s5 17 17 17h436zM284 -95l-45 -78c-4 -7 -7 -9 -12 -9c-8 0 -11 6 -11 11c0 1 0 2 2 7l31 84c5 15 12 20 23 20c10 0 19 -6 19 -16
c0 -8 -2 -11 -7 -19z" />
    <glyph glyph-name="uni021A.001" horiz-adv-x="586" 
d="M126 652c131 0 184 -59 184 -181v-451c0 -14 -6 -20 -17 -20s-17 6 -17 20v441c0 106 -40 155 -138 157h-79c-12 0 -17 8 -17 17s5 17 17 17h67zM527 652c12 0 17 -8 17 -17s-5 -17 -17 -17h-201c-12 0 -17 8 -17 17s5 17 17 17h201zM298 -95l-45 -78c-4 -7 -7 -9 -12 -9
c-8 0 -11 6 -11 11c0 1 0 2 2 7l31 84c5 15 12 20 23 20c10 0 19 -6 19 -16c0 -8 -2 -11 -7 -19z" />
    <glyph glyph-name="U" unicode="U" horiz-adv-x="668" 
d="M569 652c11 0 17 -6 17 -20v-385c0 -156 -104 -252 -252 -253c-147 -1 -252 96 -252 253v385c0 14 6 20 17 20s17 -6 17 -20v-373c0 -147 90 -232 218 -232s218 85 218 232v373c0 14 6 20 17 20z" />
    <glyph glyph-name="Uacute" unicode="&#xda;" horiz-adv-x="668" 
d="M377 852c10 9 18 8 26 -1c7 -8 6 -16 -4 -25l-105 -87c-11 -9 -19 -8 -26 0c-8 9 -6 17 4 26zM569 652c11 0 17 -6 17 -20v-385c0 -156 -104 -252 -252 -253c-147 -1 -252 96 -252 253v385c0 14 6 20 17 20s17 -6 17 -20v-373c0 -147 90 -232 218 -232s218 85 218 232
v373c0 14 6 20 17 20z" />
    <glyph glyph-name="Ubreve" unicode="&#x16c;" horiz-adv-x="668" 
d="M438 836c10 -4 10 -12 6 -25c-16 -47 -49 -81 -110 -81c-64 0 -96 34 -110 81c-2 8 -7 19 6 25c15 6 20 1 25 -13c7 -20 21 -63 79 -63s72 43 79 63c4 12 10 19 25 13zM569 652c11 0 17 -6 17 -20v-385c0 -156 -104 -252 -252 -253c-147 -1 -252 96 -252 253v385
c0 14 6 20 17 20s17 -6 17 -20v-373c0 -147 90 -232 218 -232s218 85 218 232v373c0 14 6 20 17 20z" />
    <glyph glyph-name="Ucircumflex" unicode="&#xdb;" horiz-adv-x="668" 
d="M431 746c-8 -8 -17 -7 -23 0l-74 78l-74 -78c-6 -7 -15 -8 -23 0c-9 7 -8 18 4 30l74 74c5 5 10 10 19 10s14 -5 19 -10l74 -74c12 -12 13 -23 4 -30zM569 652c11 0 17 -6 17 -20v-385c0 -156 -104 -252 -252 -253c-147 -1 -252 96 -252 253v385c0 14 6 20 17 20
s17 -6 17 -20v-373c0 -147 90 -232 218 -232s218 85 218 232v373c0 14 6 20 17 20z" />
    <glyph glyph-name="Udieresis" unicode="&#xdc;" horiz-adv-x="668" 
d="M278 736c-15 0 -25 11 -25 25s10 25 25 25s25 -11 25 -25s-10 -25 -25 -25zM398 736c-15 0 -25 11 -25 25s10 25 25 25s25 -11 25 -25s-10 -25 -25 -25zM569 652c11 0 17 -6 17 -20v-385c0 -156 -104 -252 -252 -253c-147 -1 -252 96 -252 253v385c0 14 6 20 17 20
s17 -6 17 -20v-373c0 -147 90 -232 218 -232s218 85 218 232v373c0 14 6 20 17 20z" />
    <glyph glyph-name="Ugrave" unicode="&#xd9;" horiz-adv-x="668" 
d="M291 852l105 -87c10 -9 12 -17 4 -26c-7 -8 -15 -9 -26 0l-105 87c-10 9 -11 17 -4 25c8 9 16 10 26 1zM569 652c11 0 17 -6 17 -20v-385c0 -156 -104 -252 -252 -253c-147 -1 -252 96 -252 253v385c0 14 6 20 17 20s17 -6 17 -20v-373c0 -147 90 -232 218 -232
s218 85 218 232v373c0 14 6 20 17 20z" />
    <glyph glyph-name="Uhungarumlaut" unicode="&#x170;" horiz-adv-x="668" 
d="M306 847c9 10 16 11 25 4s9 -15 1 -25l-71 -84c-9 -11 -17 -11 -25 -5c-10 8 -9 16 -1 26zM438 847c9 10 16 11 25 4s9 -15 1 -25l-71 -84c-9 -11 -17 -11 -25 -5c-10 8 -9 16 -1 26zM569 652c11 0 17 -6 17 -20v-385c0 -156 -104 -252 -252 -253
c-147 -1 -252 96 -252 253v385c0 14 6 20 17 20s17 -6 17 -20v-373c0 -147 90 -232 218 -232s218 85 218 232v373c0 14 6 20 17 20z" />
    <glyph glyph-name="Umacron" unicode="&#x16a;" horiz-adv-x="668" 
d="M434 755c0 -10 -6 -16 -19 -16h-162c-13 0 -19 6 -19 16s6 16 19 16h162c13 0 19 -6 19 -16zM569 652c11 0 17 -6 17 -20v-385c0 -156 -104 -252 -252 -253c-147 -1 -252 96 -252 253v385c0 14 6 20 17 20s17 -6 17 -20v-373c0 -147 90 -232 218 -232s218 85 218 232v373
c0 14 6 20 17 20z" />
    <glyph glyph-name="Uogonek" unicode="&#x172;" horiz-adv-x="668" 
d="M569 652c11 0 17 -6 17 -20v-385c0 -133 -75 -222 -189 -246v-1c-66 -12 -85 -63 -74 -95c8 -25 32 -35 56 -35c16 0 33 8 42 13c12 6 21 0 24 -8c4 -10 1 -16 -12 -23c-14 -8 -37 -15 -62 -15c-42 0 -74 20 -84 54c-10 35 5 77 50 103h-3c-147 -1 -252 96 -252 253v385
c0 14 6 20 17 20s17 -6 17 -20v-373c0 -147 90 -232 218 -232s218 85 218 232v373c0 14 6 20 17 20z" />
    <glyph glyph-name="Uring" unicode="&#x16e;" horiz-adv-x="668" 
d="M334 719c-48 0 -81 33 -81 81c0 47 33 80 81 80c47 0 80 -33 80 -80c0 -48 -33 -81 -80 -81zM334 749c31 0 50 19 50 51c0 31 -19 50 -50 50c-32 0 -51 -19 -51 -50c0 -32 19 -51 51 -51zM569 652c11 0 17 -6 17 -20v-385c0 -156 -104 -252 -252 -253
c-147 -1 -252 96 -252 253v385c0 14 6 20 17 20s17 -6 17 -20v-373c0 -147 90 -232 218 -232s218 85 218 232v373c0 14 6 20 17 20z" />
    <glyph glyph-name="Utilde" unicode="&#x168;" horiz-adv-x="668" 
d="M431 781c10 -7 9 -19 3 -25c-31 -31 -73 -34 -102 -14c-43 29 -57 9 -71 -3c-6 -5 -15 -5 -21 -1c-10 7 -9 19 -3 25c31 31 73 34 101 15c47 -32 60 -7 72 2c7 5 15 5 21 1zM569 652c11 0 17 -6 17 -20v-385c0 -156 -104 -252 -252 -253c-147 -1 -252 96 -252 253v385
c0 14 6 20 17 20s17 -6 17 -20v-373c0 -147 90 -232 218 -232s218 85 218 232v373c0 14 6 20 17 20z" />
    <glyph glyph-name="V" unicode="V" horiz-adv-x="602" 
d="M545 650c12 -5 13 -14 9 -23l-235 -612c-4 -10 -8 -15 -18 -15s-14 5 -18 15l-235 612c-4 9 -3 18 9 23c10 4 20 1 23 -7l221 -584l221 584c3 8 13 11 23 7z" />
    <glyph glyph-name="V.ss01" horiz-adv-x="602" 
d="M306 1c-9 -3 -18 0 -22 11l-235 613c-5 12 -3 20 9 25c10 4 19 2 24 -12l231 -614c5 -13 2 -20 -7 -23zM324 76c-9 4 -11 10 -7 22l203 540c5 14 14 16 24 12c12 -5 14 -13 9 -25l-206 -537c-5 -12 -13 -16 -23 -12z" />
    <glyph glyph-name="W" unicode="W" horiz-adv-x="876" 
d="M817 651c13 -4 15 -13 10 -28l-193 -607c-4 -10 -10 -16 -23 -16c-15 0 -20 4 -25 18l-148 496l-148 -496c-4 -14 -11 -18 -25 -18c-11 0 -19 5 -23 16l-193 607c-5 15 -3 24 10 28c12 4 19 -1 23 -12l184 -596l151 519c2 8 10 14 21 14s18 -6 21 -14l151 -519l184 596
c4 11 11 16 23 12z" />
    <glyph glyph-name="W.ss01" horiz-adv-x="876" 
d="M266 1c-11 -3 -20 2 -24 15l-194 610c-3 9 -3 21 11 25c7 2 18 3 23 -12l194 -613c4 -14 1 -22 -10 -25zM817 651c14 -4 14 -16 11 -25l-194 -610c-4 -11 -11 -16 -24 -16s-19 4 -24 18l-148 496l-127 -424c-4 -14 -13 -16 -22 -13c-8 3 -13 9 -9 23l137 462
c2 8 10 14 21 14s19 -6 21 -14l151 -519l184 596c5 15 16 14 23 12z" />
    <glyph glyph-name="Wacute" unicode="&#x1e82;" horiz-adv-x="876" 
d="M481 852c10 9 18 8 26 -1c7 -8 6 -16 -4 -25l-105 -87c-11 -9 -19 -8 -26 0c-8 9 -6 17 4 26zM817 651c13 -4 15 -13 10 -28l-193 -607c-4 -10 -10 -16 -23 -16c-15 0 -20 4 -25 18l-148 496l-148 -496c-4 -14 -11 -18 -25 -18c-11 0 -19 5 -23 16l-193 607
c-5 15 -3 24 10 28c12 4 19 -1 23 -12l184 -596l151 519c2 8 10 14 21 14s18 -6 21 -14l151 -519l184 596c4 11 11 16 23 12z" />
    <glyph glyph-name="Wacute.ss01" horiz-adv-x="876" 
d="M487 852c10 9 18 8 26 -1c7 -8 6 -16 -4 -25l-105 -87c-11 -9 -19 -8 -26 0c-8 9 -6 17 4 26zM266 1c-11 -3 -20 2 -24 15l-194 610c-3 9 -3 21 11 25c7 2 18 3 23 -12l194 -613c4 -14 1 -22 -10 -25zM817 651c14 -4 14 -16 11 -25l-194 -610c-4 -11 -11 -16 -24 -16
s-19 4 -24 18l-148 496l-127 -424c-4 -14 -13 -16 -22 -13c-8 3 -13 9 -9 23l137 462c2 8 10 14 21 14s19 -6 21 -14l151 -519l184 596c5 15 16 14 23 12z" />
    <glyph glyph-name="Wcircumflex" unicode="&#x174;" horiz-adv-x="876" 
d="M535 746c-8 -8 -17 -7 -23 0l-74 78l-74 -78c-6 -7 -15 -8 -23 0c-9 7 -8 18 4 30l74 74c5 5 10 10 19 10s14 -5 19 -10l74 -74c12 -12 13 -23 4 -30zM817 651c13 -4 15 -13 10 -28l-193 -607c-4 -10 -10 -16 -23 -16c-15 0 -20 4 -25 18l-148 496l-148 -496
c-4 -14 -11 -18 -25 -18c-11 0 -19 5 -23 16l-193 607c-5 15 -3 24 10 28c12 4 19 -1 23 -12l184 -596l151 519c2 8 10 14 21 14s18 -6 21 -14l151 -519l184 596c4 11 11 16 23 12z" />
    <glyph glyph-name="Wcircumflex.ss01" horiz-adv-x="876" 
d="M541 746c-8 -8 -17 -7 -23 0l-74 78l-74 -78c-6 -7 -15 -8 -23 0c-9 7 -8 18 4 30l74 74c5 5 10 10 19 10s14 -5 19 -10l74 -74c12 -12 13 -23 4 -30zM266 1c-11 -3 -20 2 -24 15l-194 610c-3 9 -3 21 11 25c7 2 18 3 23 -12l194 -613c4 -14 1 -22 -10 -25zM817 651
c14 -4 14 -16 11 -25l-194 -610c-4 -11 -11 -16 -24 -16s-19 4 -24 18l-148 496l-127 -424c-4 -14 -13 -16 -22 -13c-8 3 -13 9 -9 23l137 462c2 8 10 14 21 14s19 -6 21 -14l151 -519l184 596c5 15 16 14 23 12z" />
    <glyph glyph-name="Wdieresis" unicode="&#x1e84;" horiz-adv-x="876" 
d="M382 736c-15 0 -25 11 -25 25s10 25 25 25s25 -11 25 -25s-10 -25 -25 -25zM502 736c-15 0 -25 11 -25 25s10 25 25 25s25 -11 25 -25s-10 -25 -25 -25zM817 651c13 -4 15 -13 10 -28l-193 -607c-4 -10 -10 -16 -23 -16c-15 0 -20 4 -25 18l-148 496l-148 -496
c-4 -14 -11 -18 -25 -18c-11 0 -19 5 -23 16l-193 607c-5 15 -3 24 10 28c12 4 19 -1 23 -12l184 -596l151 519c2 8 10 14 21 14s18 -6 21 -14l151 -519l184 596c4 11 11 16 23 12z" />
    <glyph glyph-name="Wdieresis.ss01" horiz-adv-x="876" 
d="M388 736c-15 0 -25 11 -25 25s10 25 25 25s25 -11 25 -25s-10 -25 -25 -25zM508 736c-15 0 -25 11 -25 25s10 25 25 25s25 -11 25 -25s-10 -25 -25 -25zM266 1c-11 -3 -20 2 -24 15l-194 610c-3 9 -3 21 11 25c7 2 18 3 23 -12l194 -613c4 -14 1 -22 -10 -25zM817 651
c14 -4 14 -16 11 -25l-194 -610c-4 -11 -11 -16 -24 -16s-19 4 -24 18l-148 496l-127 -424c-4 -14 -13 -16 -22 -13c-8 3 -13 9 -9 23l137 462c2 8 10 14 21 14s19 -6 21 -14l151 -519l184 596c5 15 16 14 23 12z" />
    <glyph glyph-name="Wgrave" unicode="&#x1e80;" horiz-adv-x="876" 
d="M395 852l105 -87c10 -9 12 -17 4 -26c-7 -8 -15 -9 -26 0l-105 87c-10 9 -11 17 -4 25c8 9 16 10 26 1zM817 651c13 -4 15 -13 10 -28l-193 -607c-4 -10 -10 -16 -23 -16c-15 0 -20 4 -25 18l-148 496l-148 -496c-4 -14 -11 -18 -25 -18c-11 0 -19 5 -23 16l-193 607
c-5 15 -3 24 10 28c12 4 19 -1 23 -12l184 -596l151 519c2 8 10 14 21 14s18 -6 21 -14l151 -519l184 596c4 11 11 16 23 12z" />
    <glyph glyph-name="Wgrave.ss01" horiz-adv-x="876" 
d="M401 852l105 -87c10 -9 12 -17 4 -26c-7 -8 -15 -9 -26 0l-105 87c-10 9 -11 17 -4 25c8 9 16 10 26 1zM266 1c-11 -3 -20 2 -24 15l-194 610c-3 9 -3 21 11 25c7 2 18 3 23 -12l194 -613c4 -14 1 -22 -10 -25zM817 651c14 -4 14 -16 11 -25l-194 -610
c-4 -11 -11 -16 -24 -16s-19 4 -24 18l-148 496l-127 -424c-4 -14 -13 -16 -22 -13c-8 3 -13 9 -9 23l137 462c2 8 10 14 21 14s19 -6 21 -14l151 -519l184 596c5 15 16 14 23 12z" />
    <glyph glyph-name="X" unicode="X" horiz-adv-x="584" 
d="M518 28c8 -11 4 -20 -4 -25c-10 -6 -20 -2 -26 7l-196 297l-196 -297c-6 -9 -16 -13 -26 -7c-8 5 -12 14 -4 25l205 307l-185 290c-7 11 -2 21 7 25s16 2 24 -9l175 -278l175 278c8 11 15 13 24 9s14 -14 7 -25l-185 -290z" />
    <glyph glyph-name="X.ss01" horiz-adv-x="580" 
d="M492 649c9 -7 11 -16 3 -27l-400 -610c-7 -12 -18 -15 -25 -9c-9 7 -11 16 -3 28l400 610c7 11 17 14 25 8zM90 649c9 5 18 3 26 -8l146 -234c7 -12 7 -22 -3 -28c-8 -5 -18 -2 -25 10l-147 233c-8 11 -7 21 3 27zM322 290c9 5 18 3 25 -8l166 -251c8 -12 7 -22 -3 -28
c-8 -5 -18 -3 -25 9l-166 251c-8 11 -7 21 3 27z" />
    <glyph glyph-name="Y" unicode="Y" horiz-adv-x="578" 
d="M495 652c11 0 17 -6 17 -20v-125c0 -135 -73 -235 -206 -244v-243c0 -14 -6 -20 -17 -20s-17 6 -17 20v243c-133 9 -206 109 -206 244v125c0 14 6 20 17 20s17 -6 17 -20v-115c0 -131 66 -222 189 -222s189 91 189 222v115c0 14 6 20 17 20z" />
    <glyph glyph-name="Y.ss01" horiz-adv-x="578" 
d="M495 652c11 0 17 -6 17 -20v-125c0 -149 -88 -244 -223 -244s-223 95 -223 244v125c0 14 6 20 17 20s17 -6 17 -20v-115c0 -141 72 -222 189 -222s189 81 189 222v115c0 14 6 20 17 20zM289 225c11 0 17 -6 17 -20v-185c0 -14 -6 -20 -17 -20s-17 6 -17 20v185
c0 14 6 20 17 20z" />
    <glyph glyph-name="Yacute" unicode="&#xdd;" horiz-adv-x="578" 
d="M332 852c10 9 18 8 26 -1c7 -8 6 -16 -4 -25l-105 -87c-11 -9 -19 -8 -26 0c-8 9 -6 17 4 26zM495 652c11 0 17 -6 17 -20v-125c0 -135 -73 -235 -206 -244v-243c0 -14 -6 -20 -17 -20s-17 6 -17 20v243c-133 9 -206 109 -206 244v125c0 14 6 20 17 20s17 -6 17 -20v-115
c0 -131 66 -222 189 -222s189 91 189 222v115c0 14 6 20 17 20z" />
    <glyph glyph-name="Yacute.ss01" horiz-adv-x="578" 
d="M332 852c10 9 18 8 26 -1c7 -8 6 -16 -4 -25l-105 -87c-11 -9 -19 -8 -26 0c-8 9 -6 17 4 26zM495 652c11 0 17 -6 17 -20v-125c0 -149 -88 -244 -223 -244s-223 95 -223 244v125c0 14 6 20 17 20s17 -6 17 -20v-115c0 -141 72 -222 189 -222s189 81 189 222v115
c0 14 6 20 17 20zM289 225c11 0 17 -6 17 -20v-185c0 -14 -6 -20 -17 -20s-17 6 -17 20v185c0 14 6 20 17 20z" />
    <glyph glyph-name="Ycircumflex" unicode="&#x176;" horiz-adv-x="578" 
d="M386 746c-8 -8 -17 -7 -23 0l-74 78l-74 -78c-6 -7 -15 -8 -23 0c-9 7 -8 18 4 30l74 74c5 5 10 10 19 10s14 -5 19 -10l74 -74c12 -12 13 -23 4 -30zM495 652c11 0 17 -6 17 -20v-125c0 -135 -73 -235 -206 -244v-243c0 -14 -6 -20 -17 -20s-17 6 -17 20v243
c-133 9 -206 109 -206 244v125c0 14 6 20 17 20s17 -6 17 -20v-115c0 -131 66 -222 189 -222s189 91 189 222v115c0 14 6 20 17 20z" />
    <glyph glyph-name="Ycircumflex.ss01" horiz-adv-x="578" 
d="M386 746c-8 -8 -17 -7 -23 0l-74 78l-74 -78c-6 -7 -15 -8 -23 0c-9 7 -8 18 4 30l74 74c5 5 10 10 19 10s14 -5 19 -10l74 -74c12 -12 13 -23 4 -30zM495 652c11 0 17 -6 17 -20v-125c0 -149 -88 -244 -223 -244s-223 95 -223 244v125c0 14 6 20 17 20s17 -6 17 -20
v-115c0 -141 72 -222 189 -222s189 81 189 222v115c0 14 6 20 17 20zM289 225c11 0 17 -6 17 -20v-185c0 -14 -6 -20 -17 -20s-17 6 -17 20v185c0 14 6 20 17 20z" />
    <glyph glyph-name="Ydieresis" unicode="&#x178;" horiz-adv-x="578" 
d="M233 736c-15 0 -25 11 -25 25s10 25 25 25s25 -11 25 -25s-10 -25 -25 -25zM353 736c-15 0 -25 11 -25 25s10 25 25 25s25 -11 25 -25s-10 -25 -25 -25zM495 652c11 0 17 -6 17 -20v-125c0 -135 -73 -235 -206 -244v-243c0 -14 -6 -20 -17 -20s-17 6 -17 20v243
c-133 9 -206 109 -206 244v125c0 14 6 20 17 20s17 -6 17 -20v-115c0 -131 66 -222 189 -222s189 91 189 222v115c0 14 6 20 17 20z" />
    <glyph glyph-name="Ydieresis.ss01" horiz-adv-x="578" 
d="M233 736c-15 0 -25 11 -25 25s10 25 25 25s25 -11 25 -25s-10 -25 -25 -25zM353 736c-15 0 -25 11 -25 25s10 25 25 25s25 -11 25 -25s-10 -25 -25 -25zM495 652c11 0 17 -6 17 -20v-125c0 -149 -88 -244 -223 -244s-223 95 -223 244v125c0 14 6 20 17 20s17 -6 17 -20
v-115c0 -141 72 -222 189 -222s189 81 189 222v115c0 14 6 20 17 20zM289 225c11 0 17 -6 17 -20v-185c0 -14 -6 -20 -17 -20s-17 6 -17 20v185c0 14 6 20 17 20z" />
    <glyph glyph-name="Ygrave" unicode="&#x1ef2;" horiz-adv-x="578" 
d="M246 852l105 -87c10 -9 12 -17 4 -26c-7 -8 -15 -9 -26 0l-105 87c-10 9 -11 17 -4 25c8 9 16 10 26 1zM495 652c11 0 17 -6 17 -20v-125c0 -135 -73 -235 -206 -244v-243c0 -14 -6 -20 -17 -20s-17 6 -17 20v243c-133 9 -206 109 -206 244v125c0 14 6 20 17 20
s17 -6 17 -20v-115c0 -131 66 -222 189 -222s189 91 189 222v115c0 14 6 20 17 20z" />
    <glyph glyph-name="Ygrave.ss01" horiz-adv-x="578" 
d="M246 852l105 -87c10 -9 12 -17 4 -26c-7 -8 -15 -9 -26 0l-105 87c-10 9 -11 17 -4 25c8 9 16 10 26 1zM495 652c11 0 17 -6 17 -20v-125c0 -149 -88 -244 -223 -244s-223 95 -223 244v125c0 14 6 20 17 20s17 -6 17 -20v-115c0 -141 72 -222 189 -222s189 81 189 222
v115c0 14 6 20 17 20zM289 225c11 0 17 -6 17 -20v-185c0 -14 -6 -20 -17 -20s-17 6 -17 20v185c0 14 6 20 17 20z" />
    <glyph glyph-name="Z" unicode="Z" horiz-adv-x="565" 
d="M484 34c11 0 17 -6 17 -17s-6 -17 -17 -17h-402c-6 0 -14 2 -17 11c-2 6 0 13 4 20l378 587h-342c-11 0 -17 6 -17 17s6 17 17 17h371c10 0 13 -2 16 -8c3 -7 2 -15 -3 -22l-379 -588h374z" />
    <glyph glyph-name="Zacute" unicode="&#x179;" horiz-adv-x="565" 
d="M334 852c10 9 18 8 26 -1c7 -8 6 -16 -4 -25l-105 -87c-11 -9 -19 -8 -26 0c-8 9 -6 17 4 26zM484 34c11 0 17 -6 17 -17s-6 -17 -17 -17h-402c-6 0 -14 2 -17 11c-2 6 0 13 4 20l378 587h-342c-11 0 -17 6 -17 17s6 17 17 17h371c10 0 13 -2 16 -8c3 -7 2 -15 -3 -22
l-379 -588h374z" />
    <glyph glyph-name="Zcaron" unicode="&#x17d;" horiz-adv-x="565" 
d="M388 846c9 -7 8 -18 -4 -30l-74 -74c-5 -5 -10 -10 -19 -10s-14 5 -19 10l-74 74c-12 12 -13 23 -4 30c8 8 17 7 23 0l74 -78l74 78c6 7 15 8 23 0zM484 34c11 0 17 -6 17 -17s-6 -17 -17 -17h-402c-6 0 -14 2 -17 11c-2 6 0 13 4 20l378 587h-342c-11 0 -17 6 -17 17
s6 17 17 17h371c10 0 13 -2 16 -8c3 -7 2 -15 -3 -22l-379 -588h374z" />
    <glyph glyph-name="Zdotaccent" unicode="&#x17b;" horiz-adv-x="565" 
d="M291 729c-20 0 -33 14 -33 33s13 33 33 33s33 -14 33 -33s-13 -33 -33 -33zM484 34c11 0 17 -6 17 -17s-6 -17 -17 -17h-402c-6 0 -14 2 -17 11c-2 6 0 13 4 20l378 587h-342c-11 0 -17 6 -17 17s6 17 17 17h371c10 0 13 -2 16 -8c3 -7 2 -15 -3 -22l-379 -588h374z" />
    <glyph glyph-name="a" unicode="a" 
d="M309 506c138 0 237 -89 237 -229v-256c0 -15 -6 -21 -17 -21s-17 6 -17 21v94h-4c-7 -27 -60 -121 -204 -121c-158 0 -252 113 -252 253c0 146 103 259 257 259zM308 27c135 0 204 91 204 232v7c0 138 -91 207 -201 207c-132 0 -224 -96 -224 -225
c0 -123 79 -221 221 -221z" />
    <glyph glyph-name="a.ss01" 
d="M336 33c15 0 19 -6 19 -17s-4 -16 -19 -16c-179 0 -284 103 -284 250c0 152 112 256 265 256c147 0 229 -74 229 -220v-265c0 -14 -5 -21 -17 -21s-17 7 -17 21v249c0 145 -65 203 -196 203c-132 0 -229 -92 -229 -221c0 -130 90 -219 249 -219z" />
    <glyph glyph-name="a.ss02" 
d="M336 33c15 0 19 -6 19 -17s-4 -16 -19 -16c-179 0 -284 103 -284 250c0 152 112 256 265 256c147 0 229 -74 229 -220v-145c0 -14 -5 -21 -17 -21s-17 7 -17 21v129c0 143 -63 203 -196 203c-132 0 -229 -92 -229 -221c0 -130 90 -219 249 -219z" />
    <glyph glyph-name="aacute" unicode="&#xe1;" 
d="M271 587c-11 -9 -19 -8 -26 0c-8 9 -6 17 4 26l105 87c10 9 18 8 26 -1c7 -8 6 -16 -4 -25zM309 506c138 0 237 -89 237 -229v-256c0 -15 -6 -21 -17 -21s-17 6 -17 21v94h-4c-7 -27 -60 -121 -204 -121c-158 0 -252 113 -252 253c0 146 103 259 257 259zM308 27
c135 0 204 91 204 232v7c0 138 -91 207 -201 207c-132 0 -224 -96 -224 -225c0 -123 79 -221 221 -221z" />
    <glyph glyph-name="aacute.ss01" 
d="M358 700c10 9 18 8 26 -1c7 -8 6 -16 -4 -25l-105 -87c-11 -9 -19 -8 -26 0c-8 9 -6 17 4 26zM336 33c15 0 19 -6 19 -17s-4 -16 -19 -16c-179 0 -284 103 -284 250c0 152 112 256 265 256c147 0 229 -74 229 -220v-265c0 -14 -5 -21 -17 -21s-17 7 -17 21v249
c0 145 -65 203 -196 203c-132 0 -229 -92 -229 -221c0 -130 90 -219 249 -219z" />
    <glyph glyph-name="aacute.ss02" 
d="M354 700c10 9 18 8 26 -1c7 -8 6 -16 -4 -25l-105 -87c-11 -9 -19 -8 -26 0c-8 9 -6 17 4 26zM336 33c15 0 19 -6 19 -17s-4 -16 -19 -16c-179 0 -284 103 -284 250c0 152 112 256 265 256c147 0 229 -74 229 -220v-145c0 -14 -5 -21 -17 -21s-17 7 -17 21v129
c0 143 -63 203 -196 203c-132 0 -229 -92 -229 -221c0 -130 90 -219 249 -219z" />
    <glyph glyph-name="abreve" unicode="&#x103;" 
d="M311 578c-64 0 -96 34 -110 81c-2 8 -7 19 6 25c15 6 20 1 25 -13c7 -20 21 -63 79 -63s72 43 79 63c4 12 10 19 25 13c10 -4 10 -12 6 -25c-16 -47 -49 -81 -110 -81zM309 506c138 0 237 -89 237 -229v-256c0 -15 -6 -21 -17 -21s-17 6 -17 21v94h-4
c-7 -27 -60 -121 -204 -121c-158 0 -252 113 -252 253c0 146 103 259 257 259zM308 27c135 0 204 91 204 232v7c0 138 -91 207 -201 207c-132 0 -224 -96 -224 -225c0 -123 79 -221 221 -221z" />
    <glyph glyph-name="abreve.ss01" 
d="M419 684c10 -4 10 -12 6 -25c-16 -47 -49 -81 -110 -81c-64 0 -96 34 -110 81c-2 8 -7 19 6 25c15 6 20 1 25 -13c7 -20 21 -63 79 -63s72 43 79 63c4 12 10 19 25 13zM336 33c15 0 19 -6 19 -17s-4 -16 -19 -16c-179 0 -284 103 -284 250c0 152 112 256 265 256
c147 0 229 -74 229 -220v-265c0 -14 -5 -21 -17 -21s-17 7 -17 21v249c0 145 -65 203 -196 203c-132 0 -229 -92 -229 -221c0 -130 90 -219 249 -219z" />
    <glyph glyph-name="abreve.ss02" 
d="M415 684c10 -4 10 -12 6 -25c-16 -47 -49 -81 -110 -81c-64 0 -96 34 -110 81c-2 8 -7 19 6 25c15 6 20 1 25 -13c7 -20 21 -63 79 -63s72 43 79 63c4 12 10 19 25 13zM336 33c15 0 19 -6 19 -17s-4 -16 -19 -16c-179 0 -284 103 -284 250c0 152 112 256 265 256
c147 0 229 -74 229 -220v-145c0 -14 -5 -21 -17 -21s-17 7 -17 21v129c0 143 -63 203 -196 203c-132 0 -229 -92 -229 -221c0 -130 90 -219 249 -219z" />
    <glyph glyph-name="acircumflex" unicode="&#xe2;" 
d="M214 594c-9 7 -8 18 4 30l74 74c5 5 10 10 19 10s14 -5 19 -10l74 -74c12 -12 13 -23 4 -30c-8 -8 -17 -7 -23 0l-74 78l-74 -78c-6 -7 -15 -8 -23 0zM309 506c138 0 237 -89 237 -229v-256c0 -15 -6 -21 -17 -21s-17 6 -17 21v94h-4c-7 -27 -60 -121 -204 -121
c-158 0 -252 113 -252 253c0 146 103 259 257 259zM308 27c135 0 204 91 204 232v7c0 138 -91 207 -201 207c-132 0 -224 -96 -224 -225c0 -123 79 -221 221 -221z" />
    <glyph glyph-name="acircumflex.ss01" 
d="M412 594c-8 -8 -17 -7 -23 0l-74 78l-74 -78c-6 -7 -15 -8 -23 0c-9 7 -8 18 4 30l74 74c5 5 10 10 19 10s14 -5 19 -10l74 -74c12 -12 13 -23 4 -30zM336 33c15 0 19 -6 19 -17s-4 -16 -19 -16c-179 0 -284 103 -284 250c0 152 112 256 265 256c147 0 229 -74 229 -220
v-265c0 -14 -5 -21 -17 -21s-17 7 -17 21v249c0 145 -65 203 -196 203c-132 0 -229 -92 -229 -221c0 -130 90 -219 249 -219z" />
    <glyph glyph-name="acircumflex.ss02" 
d="M408 594c-8 -8 -17 -7 -23 0l-74 78l-74 -78c-6 -7 -15 -8 -23 0c-9 7 -8 18 4 30l74 74c5 5 10 10 19 10s14 -5 19 -10l74 -74c12 -12 13 -23 4 -30zM336 33c15 0 19 -6 19 -17s-4 -16 -19 -16c-179 0 -284 103 -284 250c0 152 112 256 265 256c147 0 229 -74 229 -220
v-145c0 -14 -5 -21 -17 -21s-17 7 -17 21v129c0 143 -63 203 -196 203c-132 0 -229 -92 -229 -221c0 -130 90 -219 249 -219z" />
    <glyph glyph-name="adieresis" unicode="&#xe4;" 
d="M255 584c-15 0 -25 11 -25 25s10 25 25 25s25 -11 25 -25s-10 -25 -25 -25zM375 584c-15 0 -25 11 -25 25s10 25 25 25s25 -11 25 -25s-10 -25 -25 -25zM309 506c138 0 237 -89 237 -229v-256c0 -15 -6 -21 -17 -21s-17 6 -17 21v94h-4c-7 -27 -60 -121 -204 -121
c-158 0 -252 113 -252 253c0 146 103 259 257 259zM308 27c135 0 204 91 204 232v7c0 138 -91 207 -201 207c-132 0 -224 -96 -224 -225c0 -123 79 -221 221 -221z" />
    <glyph glyph-name="adieresis.ss01" 
d="M259 584c-15 0 -25 11 -25 25s10 25 25 25s25 -11 25 -25s-10 -25 -25 -25zM379 584c-15 0 -25 11 -25 25s10 25 25 25s25 -11 25 -25s-10 -25 -25 -25zM336 33c15 0 19 -6 19 -17s-4 -16 -19 -16c-179 0 -284 103 -284 250c0 152 112 256 265 256
c147 0 229 -74 229 -220v-265c0 -14 -5 -21 -17 -21s-17 7 -17 21v249c0 145 -65 203 -196 203c-132 0 -229 -92 -229 -221c0 -130 90 -219 249 -219z" />
    <glyph glyph-name="adieresis.ss02" 
d="M255 584c-15 0 -25 11 -25 25s10 25 25 25s25 -11 25 -25s-10 -25 -25 -25zM375 584c-15 0 -25 11 -25 25s10 25 25 25s25 -11 25 -25s-10 -25 -25 -25zM336 33c15 0 19 -6 19 -17s-4 -16 -19 -16c-179 0 -284 103 -284 250c0 152 112 256 265 256
c147 0 229 -74 229 -220v-145c0 -14 -5 -21 -17 -21s-17 7 -17 21v129c0 143 -63 203 -196 203c-132 0 -229 -92 -229 -221c0 -130 90 -219 249 -219z" />
    <glyph glyph-name="agrave" unicode="&#xe0;" 
d="M246 674c-10 9 -11 17 -4 25c8 9 16 10 26 1l105 -87c10 -9 12 -17 4 -26c-7 -8 -15 -9 -26 0zM309 506c138 0 237 -89 237 -229v-256c0 -15 -6 -21 -17 -21s-17 6 -17 21v94h-4c-7 -27 -60 -121 -204 -121c-158 0 -252 113 -252 253c0 146 103 259 257 259zM308 27
c135 0 204 91 204 232v7c0 138 -91 207 -201 207c-132 0 -224 -96 -224 -225c0 -123 79 -221 221 -221z" />
    <glyph glyph-name="agrave.ss01" 
d="M272 700l105 -87c10 -9 12 -17 4 -26c-7 -8 -15 -9 -26 0l-105 87c-10 9 -11 17 -4 25c8 9 16 10 26 1zM336 33c15 0 19 -6 19 -17s-4 -16 -19 -16c-179 0 -284 103 -284 250c0 152 112 256 265 256c147 0 229 -74 229 -220v-265c0 -14 -5 -21 -17 -21s-17 7 -17 21v249
c0 145 -65 203 -196 203c-132 0 -229 -92 -229 -221c0 -130 90 -219 249 -219z" />
    <glyph glyph-name="agrave.ss02" 
d="M268 700l105 -87c10 -9 12 -17 4 -26c-7 -8 -15 -9 -26 0l-105 87c-10 9 -11 17 -4 25c8 9 16 10 26 1zM336 33c15 0 19 -6 19 -17s-4 -16 -19 -16c-179 0 -284 103 -284 250c0 152 112 256 265 256c147 0 229 -74 229 -220v-145c0 -14 -5 -21 -17 -21s-17 7 -17 21v129
c0 143 -63 203 -196 203c-132 0 -229 -92 -229 -221c0 -130 90 -219 249 -219z" />
    <glyph glyph-name="amacron" unicode="&#x101;" 
d="M230 587c-13 0 -19 6 -19 16s6 16 19 16h162c13 0 19 -6 19 -16s-6 -16 -19 -16h-162zM309 506c138 0 237 -89 237 -229v-256c0 -15 -6 -21 -17 -21s-17 6 -17 21v94h-4c-7 -27 -60 -121 -204 -121c-158 0 -252 113 -252 253c0 146 103 259 257 259zM308 27
c135 0 204 91 204 232v7c0 138 -91 207 -201 207c-132 0 -224 -96 -224 -225c0 -123 79 -221 221 -221z" />
    <glyph glyph-name="amacron.ss01" 
d="M415 603c0 -10 -6 -16 -19 -16h-162c-13 0 -19 6 -19 16s6 16 19 16h162c13 0 19 -6 19 -16zM336 33c15 0 19 -6 19 -17s-4 -16 -19 -16c-179 0 -284 103 -284 250c0 152 112 256 265 256c147 0 229 -74 229 -220v-265c0 -14 -5 -21 -17 -21s-17 7 -17 21v249
c0 145 -65 203 -196 203c-132 0 -229 -92 -229 -221c0 -130 90 -219 249 -219z" />
    <glyph glyph-name="amacron.ss02" 
d="M411 603c0 -10 -6 -16 -19 -16h-162c-13 0 -19 6 -19 16s6 16 19 16h162c13 0 19 -6 19 -16zM336 33c15 0 19 -6 19 -17s-4 -16 -19 -16c-179 0 -284 103 -284 250c0 152 112 256 265 256c147 0 229 -74 229 -220v-145c0 -14 -5 -21 -17 -21s-17 7 -17 21v129
c0 143 -63 203 -196 203c-132 0 -229 -92 -229 -221c0 -130 90 -219 249 -219z" />
    <glyph glyph-name="aogonek" unicode="&#x105;" 
d="M582 -125c4 -10 1 -16 -12 -23c-14 -8 -37 -15 -62 -15c-42 0 -74 20 -84 54c-12 43 14 98 89 119c-1 3 -1 7 -1 11v94h-4c-7 -27 -60 -121 -204 -121c-158 0 -252 113 -252 253c0 146 103 259 257 259c138 0 237 -89 237 -229v-256c0 -13 -4 -19 -12 -21
c-66 -12 -85 -63 -74 -95c8 -25 32 -35 56 -35c16 0 33 8 42 13c12 6 21 0 24 -8zM308 27c135 0 204 91 204 232v7c0 138 -91 207 -201 207c-132 0 -224 -96 -224 -225c0 -123 79 -221 221 -221z" />
    <glyph glyph-name="aogonek.ss01" 
d="M582 -125c4 -10 1 -16 -12 -23c-14 -8 -37 -15 -62 -15c-42 0 -74 20 -84 54c-12 43 14 98 89 119c-1 3 -1 7 -1 11v249c0 145 -65 203 -196 203c-132 0 -229 -92 -229 -221c0 -130 90 -219 249 -219c15 0 19 -6 19 -17s-4 -16 -19 -16c-179 0 -284 103 -284 250
c0 152 112 256 265 256c147 0 229 -74 229 -220v-265c0 -12 -4 -19 -12 -21c-66 -12 -85 -63 -74 -95c8 -25 32 -35 56 -35c16 0 33 8 42 13c12 6 21 0 24 -8z" />
    <glyph glyph-name="aring" unicode="&#xe5;" 
d="M311 567c-48 0 -81 33 -81 81c0 47 33 80 81 80c47 0 80 -33 80 -80c0 -48 -33 -81 -80 -81zM311 698c-32 0 -51 -19 -51 -50c0 -32 19 -51 51 -51c31 0 50 19 50 51c0 31 -19 50 -50 50zM309 506c138 0 237 -89 237 -229v-256c0 -15 -6 -21 -17 -21s-17 6 -17 21v94h-4
c-7 -27 -60 -121 -204 -121c-158 0 -252 113 -252 253c0 146 103 259 257 259zM308 27c135 0 204 91 204 232v7c0 138 -91 207 -201 207c-132 0 -224 -96 -224 -225c0 -123 79 -221 221 -221z" />
    <glyph glyph-name="aring.ss01" 
d="M315 567c-48 0 -81 33 -81 81c0 47 33 80 81 80c47 0 80 -33 80 -80c0 -48 -33 -81 -80 -81zM315 597c31 0 50 19 50 51c0 31 -19 50 -50 50c-32 0 -51 -19 -51 -50c0 -32 19 -51 51 -51zM336 33c15 0 19 -6 19 -17s-4 -16 -19 -16c-179 0 -284 103 -284 250
c0 152 112 256 265 256c147 0 229 -74 229 -220v-265c0 -14 -5 -21 -17 -21s-17 7 -17 21v249c0 145 -65 203 -196 203c-132 0 -229 -92 -229 -221c0 -130 90 -219 249 -219z" />
    <glyph glyph-name="aring.ss02" 
d="M311 567c-48 0 -81 33 -81 81c0 47 33 80 81 80c47 0 80 -33 80 -80c0 -48 -33 -81 -80 -81zM311 597c31 0 50 19 50 51c0 31 -19 50 -50 50c-32 0 -51 -19 -51 -50c0 -32 19 -51 51 -51zM336 33c15 0 19 -6 19 -17s-4 -16 -19 -16c-179 0 -284 103 -284 250
c0 152 112 256 265 256c147 0 229 -74 229 -220v-145c0 -14 -5 -21 -17 -21s-17 7 -17 21v129c0 143 -63 203 -196 203c-132 0 -229 -92 -229 -221c0 -130 90 -219 249 -219z" />
    <glyph glyph-name="atilde" unicode="&#xe3;" 
d="M217 586c-10 7 -9 19 -3 25c31 31 73 34 101 15c47 -32 60 -7 72 2c7 5 15 5 21 1c10 -7 9 -19 3 -25c-31 -31 -73 -34 -102 -14c-43 29 -57 9 -71 -3c-6 -5 -15 -5 -21 -1zM309 506c138 0 237 -89 237 -229v-256c0 -15 -6 -21 -17 -21s-17 6 -17 21v94h-4
c-7 -27 -60 -121 -204 -121c-158 0 -252 113 -252 253c0 146 103 259 257 259zM308 27c135 0 204 91 204 232v7c0 138 -91 207 -201 207c-132 0 -224 -96 -224 -225c0 -123 79 -221 221 -221z" />
    <glyph glyph-name="atilde.ss01" 
d="M412 629c10 -7 9 -19 3 -25c-31 -31 -73 -34 -102 -14c-43 29 -57 9 -71 -3c-6 -5 -15 -5 -21 -1c-10 7 -9 19 -3 25c31 31 73 34 101 15c47 -32 60 -7 72 2c7 5 15 5 21 1zM336 33c15 0 19 -6 19 -17s-4 -16 -19 -16c-179 0 -284 103 -284 250c0 152 112 256 265 256
c147 0 229 -74 229 -220v-265c0 -14 -5 -21 -17 -21s-17 7 -17 21v249c0 145 -65 203 -196 203c-132 0 -229 -92 -229 -221c0 -130 90 -219 249 -219z" />
    <glyph glyph-name="atilde.ss02" 
d="M408 629c10 -7 9 -19 3 -25c-31 -31 -73 -34 -102 -14c-43 29 -57 9 -71 -3c-6 -5 -15 -5 -21 -1c-10 7 -9 19 -3 25c31 31 73 34 101 15c47 -32 60 -7 72 2c7 5 15 5 21 1zM336 33c15 0 19 -6 19 -17s-4 -16 -19 -16c-179 0 -284 103 -284 250c0 152 112 256 265 256
c147 0 229 -74 229 -220v-145c0 -14 -5 -21 -17 -21s-17 7 -17 21v129c0 143 -63 203 -196 203c-132 0 -229 -92 -229 -221c0 -130 90 -219 249 -219z" />
    <glyph glyph-name="ae" unicode="&#xe6;" horiz-adv-x="1028" 
d="M976 290c0 -34 -14 -48 -43 -48h-386c3 -126 86 -215 225 -215c63 0 117 18 140 36c10 8 20 7 26 0s6 -16 -4 -25c-28 -25 -96 -44 -162 -44c-164 0 -260 108 -260 256v26c0 133 -88 197 -199 197c-134 0 -226 -97 -226 -225c0 -123 79 -221 221 -221c35 0 71 7 97 20
c12 6 17 -1 20 -7c3 -7 5 -15 -8 -21c-37 -17 -66 -25 -113 -25c-158 0 -252 113 -252 253c0 146 103 259 263 259c108 0 189 -58 219 -144c37 87 117 144 215 144c133 0 227 -84 227 -216zM752 473c-111 0 -194 -83 -204 -199h396c0 135 -87 199 -192 199z" />
    <glyph glyph-name="ae.ss01" horiz-adv-x="1028" 
d="M718 257c0 10 6 16 17 16h209c0 139 -89 200 -185 200c-125 0 -212 -94 -212 -223s81 -223 225 -223c63 0 121 19 140 36c9 8 20 7 26 0s6 -16 -4 -25c-28 -25 -96 -44 -162 -44c-164 0 -260 108 -260 256v26c0 133 -88 197 -199 197c-136 0 -226 -96 -226 -225
c0 -122 80 -221 221 -221c35 0 71 7 97 20c12 6 17 -1 20 -7c3 -7 5 -15 -8 -21c-37 -17 -66 -25 -113 -25c-158 0 -252 113 -252 253c0 146 103 259 263 259c108 0 189 -58 219 -144c37 87 119 144 222 144c126 0 220 -84 220 -216c0 -34 -14 -49 -43 -49h-198
c-11 0 -17 6 -17 16z" />
    <glyph glyph-name="b" unicode="b" 
d="M321 506c147 0 251 -113 251 -255s-93 -257 -252 -257c-139 0 -242 88 -242 231v456c0 14 6 21 17 21s17 -7 17 -21v-307h4c10 31 66 132 205 132zM322 27c133 0 215 99 215 222c0 127 -90 224 -221 224c-127 0 -203 -91 -203 -232v-5c0 -145 91 -209 209 -209z" />
    <glyph glyph-name="b.ss01" 
d="M324 466h-37c-11 0 -17 6 -17 17s6 17 17 17h37c157 0 248 -108 248 -248c0 -143 -95 -258 -250 -258c-150 0 -244 107 -244 244v444c0 14 6 20 17 20s17 -6 17 -20v-433c0 -133 89 -222 213 -222c130 0 212 98 212 223c0 123 -79 216 -213 216z" />
    <glyph glyph-name="c" unicode="c" horiz-adv-x="562" 
d="M470 400c-37 40 -87 73 -162 73c-127 0 -221 -94 -221 -223s94 -223 220 -223c89 0 146 47 176 87c7 9 14 9 24 2c8 -6 10 -15 3 -24c-37 -48 -102 -98 -202 -98c-148 0 -256 108 -256 256s108 256 256 256c92 0 149 -41 189 -84c5 -5 6 -15 -2 -22c-7 -7 -18 -7 -25 0z
" />
    <glyph glyph-name="cacute" unicode="&#x107;" horiz-adv-x="562" 
d="M349 700c10 9 18 8 26 -1c7 -8 6 -16 -4 -25l-105 -87c-11 -9 -19 -8 -26 0c-8 9 -6 17 4 26zM470 400c-37 40 -87 73 -162 73c-127 0 -221 -94 -221 -223s94 -223 220 -223c89 0 146 47 176 87c7 9 14 9 24 2c8 -6 10 -15 3 -24c-37 -48 -102 -98 -202 -98
c-148 0 -256 108 -256 256s108 256 256 256c92 0 149 -41 189 -84c5 -5 6 -15 -2 -22c-7 -7 -18 -7 -25 0z" />
    <glyph glyph-name="ccaron" unicode="&#x10d;" horiz-adv-x="562" 
d="M403 694c9 -7 8 -18 -4 -30l-74 -74c-5 -5 -10 -10 -19 -10s-14 5 -19 10l-74 74c-12 12 -13 23 -4 30c8 8 17 7 23 0l74 -78l74 78c6 7 15 8 23 0zM470 400c-37 40 -87 73 -162 73c-127 0 -221 -94 -221 -223s94 -223 220 -223c89 0 146 47 176 87c7 9 14 9 24 2
c8 -6 10 -15 3 -24c-37 -48 -102 -98 -202 -98c-148 0 -256 108 -256 256s108 256 256 256c92 0 149 -41 189 -84c5 -5 6 -15 -2 -22c-7 -7 -18 -7 -25 0z" />
    <glyph glyph-name="ccedilla" unicode="&#xe7;" horiz-adv-x="562" 
d="M507 116c8 -6 10 -15 3 -24c-35 -46 -96 -93 -188 -98l-19 -33c33 -10 81 -27 81 -78c0 -37 -25 -67 -77 -67c-25 0 -49 7 -65 17c-10 6 -13 13 -8 22c4 7 11 9 19 5c12 -6 30 -14 52 -14c29 0 46 14 46 38c0 30 -31 46 -68 56c-9 2 -12 8 -7 20l13 35
c-138 8 -237 113 -237 255c0 148 108 256 256 256c92 0 149 -41 189 -84c5 -5 6 -15 -2 -22c-7 -7 -18 -7 -25 0c-37 40 -87 73 -162 73c-127 0 -221 -94 -221 -223s94 -223 220 -223c89 0 146 47 176 87c7 9 14 9 24 2z" />
    <glyph glyph-name="cdotaccent" unicode="&#x10b;" horiz-adv-x="562" 
d="M306 577c-20 0 -33 14 -33 33s13 33 33 33s33 -14 33 -33s-13 -33 -33 -33zM470 400c-37 40 -87 73 -162 73c-127 0 -221 -94 -221 -223s94 -223 220 -223c89 0 146 47 176 87c7 9 14 9 24 2c8 -6 10 -15 3 -24c-37 -48 -102 -98 -202 -98c-148 0 -256 108 -256 256
s108 256 256 256c92 0 149 -41 189 -84c5 -5 6 -15 -2 -22c-7 -7 -18 -7 -25 0z" />
    <glyph glyph-name="d" unicode="d" 
d="M529 702c11 0 17 -7 17 -21v-456c0 -132 -98 -231 -241 -231c-156 0 -253 117 -253 257c0 142 102 255 257 255c142 0 189 -95 199 -126h4v301c0 14 6 21 17 21zM511 236v5c0 141 -71 232 -201 232c-135 0 -223 -99 -223 -224s88 -222 221 -222c118 0 203 78 203 209z
" />
    <glyph glyph-name="d.ss01" 
d="M300 466c-137 0 -213 -93 -213 -215c0 -125 88 -224 220 -224c126 0 205 75 205 212v443c0 14 6 20 17 20s17 -6 17 -20v-454c0 -137 -89 -234 -235 -234c-160 0 -259 115 -259 259c0 138 91 247 248 247h42c11 0 17 -6 17 -17s-6 -17 -17 -17h-42z" />
    <glyph glyph-name="eth" unicode="&#xf0;" horiz-adv-x="583" 
d="M353 623c102 -106 176 -226 176 -368c0 -143 -86 -261 -238 -261c-153 0 -239 121 -239 245c0 155 128 237 234 261c12 3 16 -4 19 -12s-1 -18 -10 -20c-81 -19 -208 -79 -208 -226c0 -108 71 -215 204 -215c129 0 203 101 203 229c0 155 -94 272 -166 345l-36 -30
c-9 -8 -17 -6 -24 2c-8 9 -7 16 2 24l34 28c-21 20 -38 35 -48 46c-11 12 -10 19 -3 26s15 8 27 -3c17 -15 34 -31 50 -47l37 31c9 8 15 7 23 -2c7 -8 8 -16 -2 -24z" />
    <glyph glyph-name="dcaron" unicode="&#x10f;" horiz-adv-x="705" 
d="M529 702c11 0 17 -7 17 -21v-456c0 -132 -98 -231 -241 -231c-156 0 -253 117 -253 257c0 142 102 255 257 255c142 0 189 -95 199 -126h4v301c0 14 6 21 17 21zM666 682c12 0 18 -10 14 -22l-45 -152c-2 -6 -6 -9 -12 -9c-8 0 -14 5 -12 15l36 151c3 14 11 17 19 17z
M511 236v5c0 141 -71 232 -201 232c-135 0 -223 -99 -223 -224s88 -222 221 -222c118 0 203 78 203 209z" />
    <glyph glyph-name="dcaron.ss01" horiz-adv-x="705" 
d="M300 466c-137 0 -213 -93 -213 -215c0 -125 88 -224 220 -224c126 0 205 75 205 212v443c0 14 6 20 17 20s17 -6 17 -20v-454c0 -137 -89 -234 -235 -234c-160 0 -259 115 -259 259c0 138 91 247 248 247h42c11 0 17 -6 17 -17s-6 -17 -17 -17h-42zM680 660l-45 -152
c-2 -6 -6 -9 -12 -9c-8 0 -14 5 -12 15l36 151c3 14 11 17 19 17c12 0 18 -10 14 -22z" />
    <glyph glyph-name="dcroat" unicode="&#x111;" horiz-adv-x="626" 
d="M529 620c13 0 19 -6 19 -16s-6 -16 -19 -16h-35v-363c0 -132 -98 -231 -241 -231c-156 0 -253 117 -253 257c0 142 102 255 257 255c142 0 189 -95 199 -126h4v208h-111c-13 0 -19 6 -19 16s6 16 19 16h111v61c0 14 6 21 17 21s17 -7 17 -21v-61h35zM459 236v5
c0 141 -71 232 -201 232c-135 0 -223 -99 -223 -224s88 -222 221 -222c118 0 203 78 203 209z" />
    <glyph glyph-name="dcroat.ss01" horiz-adv-x="678" 
d="M581 620c13 0 19 -6 19 -16s-6 -16 -19 -16h-35v-360c0 -137 -89 -234 -235 -234c-160 0 -259 115 -259 259c0 138 91 247 248 247h42c11 0 17 -6 17 -17s-6 -17 -17 -17h-42c-137 0 -213 -93 -213 -215c0 -125 88 -224 220 -224c126 0 205 75 205 212v349h-111
c-13 0 -19 6 -19 16s6 16 19 16h111v62c0 14 6 20 17 20s17 -6 17 -20v-62h35z" />
    <glyph glyph-name="e" unicode="e" horiz-adv-x="568" 
d="M516 290c0 -34 -14 -48 -43 -48h-386c3 -126 86 -215 225 -215c63 0 117 18 140 36c10 8 20 7 26 0s6 -16 -4 -25c-28 -25 -96 -44 -162 -44c-164 0 -260 108 -260 256s102 256 237 256c133 0 227 -84 227 -216zM292 473c-111 0 -194 -83 -204 -199h396
c0 135 -87 199 -192 199z" />
    <glyph glyph-name="e.ss01" horiz-adv-x="568" 
d="M452 63c9 8 20 7 26 0s6 -16 -4 -25c-28 -25 -96 -44 -162 -44c-164 0 -260 108 -260 256s102 256 244 256c126 0 220 -84 220 -216c0 -34 -14 -49 -43 -49h-198c-11 0 -17 6 -17 16s6 16 17 16h209c0 139 -89 200 -185 200c-125 0 -212 -94 -212 -223s81 -223 225 -223
c63 0 121 19 140 36z" />
    <glyph glyph-name="e.ss02" horiz-adv-x="568" 
d="M324 32c12 0 18 -5 18 -16s-6 -17 -18 -17c-173 0 -272 108 -272 251c0 148 102 256 244 256c126 0 220 -84 220 -216c0 -34 -14 -49 -43 -49h-161c-11 0 -17 6 -17 16s6 16 17 16h172c0 138 -88 200 -184 200c-126 0 -213 -94 -213 -223c0 -124 85 -218 237 -218z" />
    <glyph glyph-name="eacute" unicode="&#xe9;" horiz-adv-x="568" 
d="M253 587c-11 -9 -19 -8 -26 0c-8 9 -6 17 4 26l105 87c10 9 18 8 26 -1c7 -8 6 -16 -4 -25zM516 290c0 -34 -14 -48 -43 -48h-386c3 -126 86 -215 225 -215c63 0 117 18 140 36c10 8 20 7 26 0s6 -16 -4 -25c-28 -25 -96 -44 -162 -44c-164 0 -260 108 -260 256
s102 256 237 256c133 0 227 -84 227 -216zM292 473c-111 0 -194 -83 -204 -199h396c0 135 -87 199 -192 199z" />
    <glyph glyph-name="eacute.ss01" horiz-adv-x="568" 
d="M341 700c10 9 18 8 26 -1c7 -8 6 -16 -4 -25l-105 -87c-11 -9 -19 -8 -26 0c-8 9 -6 17 4 26zM452 63c9 8 20 7 26 0s6 -16 -4 -25c-28 -25 -96 -44 -162 -44c-164 0 -260 108 -260 256s102 256 244 256c126 0 220 -84 220 -216c0 -34 -14 -49 -43 -49h-198
c-11 0 -17 6 -17 16s6 16 17 16h209c0 139 -89 200 -185 200c-125 0 -212 -94 -212 -223s81 -223 225 -223c63 0 121 19 140 36z" />
    <glyph glyph-name="eacute.ss02" horiz-adv-x="568" 
d="M339 700c10 9 18 8 26 -1c7 -8 6 -16 -4 -25l-105 -87c-11 -9 -19 -8 -26 0c-8 9 -6 17 4 26zM324 32c12 0 18 -5 18 -16s-6 -17 -18 -17c-173 0 -272 108 -272 251c0 148 102 256 244 256c126 0 220 -84 220 -216c0 -34 -14 -49 -43 -49h-161c-11 0 -17 6 -17 16
s6 16 17 16h172c0 138 -88 200 -184 200c-126 0 -213 -94 -213 -223c0 -124 85 -218 237 -218z" />
    <glyph glyph-name="ebreve" unicode="&#x115;" horiz-adv-x="568" 
d="M293 578c-64 0 -96 34 -110 81c-2 8 -7 19 6 25c15 6 20 1 25 -13c7 -20 21 -63 79 -63s72 43 79 63c4 12 10 19 25 13c10 -4 10 -12 6 -25c-16 -47 -49 -81 -110 -81zM516 290c0 -34 -14 -48 -43 -48h-386c3 -126 86 -215 225 -215c63 0 117 18 140 36c10 8 20 7 26 0
s6 -16 -4 -25c-28 -25 -96 -44 -162 -44c-164 0 -260 108 -260 256s102 256 237 256c133 0 227 -84 227 -216zM292 473c-111 0 -194 -83 -204 -199h396c0 135 -87 199 -192 199z" />
    <glyph glyph-name="ebreve.ss01" horiz-adv-x="568" 
d="M402 684c10 -4 10 -12 6 -25c-16 -47 -49 -81 -110 -81c-64 0 -96 34 -110 81c-2 8 -7 19 6 25c15 6 20 1 25 -13c7 -20 21 -63 79 -63s72 43 79 63c4 12 10 19 25 13zM452 63c9 8 20 7 26 0s6 -16 -4 -25c-28 -25 -96 -44 -162 -44c-164 0 -260 108 -260 256
s102 256 244 256c126 0 220 -84 220 -216c0 -34 -14 -49 -43 -49h-198c-11 0 -17 6 -17 16s6 16 17 16h209c0 139 -89 200 -185 200c-125 0 -212 -94 -212 -223s81 -223 225 -223c63 0 121 19 140 36z" />
    <glyph glyph-name="ebreve.ss02" horiz-adv-x="568" 
d="M400 684c10 -4 10 -12 6 -25c-16 -47 -49 -81 -110 -81c-64 0 -96 34 -110 81c-2 8 -7 19 6 25c15 6 20 1 25 -13c7 -20 21 -63 79 -63s72 43 79 63c4 12 10 19 25 13zM324 32c12 0 18 -5 18 -16s-6 -17 -18 -17c-173 0 -272 108 -272 251c0 148 102 256 244 256
c126 0 220 -84 220 -216c0 -34 -14 -49 -43 -49h-161c-11 0 -17 6 -17 16s6 16 17 16h172c0 138 -88 200 -184 200c-126 0 -213 -94 -213 -223c0 -124 85 -218 237 -218z" />
    <glyph glyph-name="ecaron" unicode="&#x11b;" horiz-adv-x="568" 
d="M274 590l-74 74c-12 12 -13 23 -4 30c8 8 17 7 23 0l74 -78l74 78c6 7 15 8 23 0c9 -7 8 -18 -4 -30l-74 -74c-5 -5 -10 -10 -19 -10s-14 5 -19 10zM516 290c0 -34 -14 -48 -43 -48h-386c3 -126 86 -215 225 -215c63 0 117 18 140 36c10 8 20 7 26 0s6 -16 -4 -25
c-28 -25 -96 -44 -162 -44c-164 0 -260 108 -260 256s102 256 237 256c133 0 227 -84 227 -216zM292 473c-111 0 -194 -83 -204 -199h396c0 135 -87 199 -192 199z" />
    <glyph glyph-name="ecaron.ss01" horiz-adv-x="568" 
d="M395 694c9 -7 8 -18 -4 -30l-74 -74c-5 -5 -10 -10 -19 -10s-14 5 -19 10l-74 74c-12 12 -13 23 -4 30c8 8 17 7 23 0l74 -78l74 78c6 7 15 8 23 0zM452 63c9 8 20 7 26 0s6 -16 -4 -25c-28 -25 -96 -44 -162 -44c-164 0 -260 108 -260 256s102 256 244 256
c126 0 220 -84 220 -216c0 -34 -14 -49 -43 -49h-198c-11 0 -17 6 -17 16s6 16 17 16h209c0 139 -89 200 -185 200c-125 0 -212 -94 -212 -223s81 -223 225 -223c63 0 121 19 140 36z" />
    <glyph glyph-name="ecaron.ss02" horiz-adv-x="568" 
d="M393 694c9 -7 8 -18 -4 -30l-74 -74c-5 -5 -10 -10 -19 -10s-14 5 -19 10l-74 74c-12 12 -13 23 -4 30c8 8 17 7 23 0l74 -78l74 78c6 7 15 8 23 0zM324 32c12 0 18 -5 18 -16s-6 -17 -18 -17c-173 0 -272 108 -272 251c0 148 102 256 244 256c126 0 220 -84 220 -216
c0 -34 -14 -49 -43 -49h-161c-11 0 -17 6 -17 16s6 16 17 16h172c0 138 -88 200 -184 200c-126 0 -213 -94 -213 -223c0 -124 85 -218 237 -218z" />
    <glyph glyph-name="ecircumflex" unicode="&#xea;" horiz-adv-x="568" 
d="M196 594c-9 7 -8 18 4 30l74 74c5 5 10 10 19 10s14 -5 19 -10l74 -74c12 -12 13 -23 4 -30c-8 -8 -17 -7 -23 0l-74 78l-74 -78c-6 -7 -15 -8 -23 0zM516 290c0 -34 -14 -48 -43 -48h-386c3 -126 86 -215 225 -215c63 0 117 18 140 36c10 8 20 7 26 0s6 -16 -4 -25
c-28 -25 -96 -44 -162 -44c-164 0 -260 108 -260 256s102 256 237 256c133 0 227 -84 227 -216zM292 473c-111 0 -194 -83 -204 -199h396c0 135 -87 199 -192 199z" />
    <glyph glyph-name="ecircumflex.ss01" horiz-adv-x="568" 
d="M395 594c-8 -8 -17 -7 -23 0l-74 78l-74 -78c-6 -7 -15 -8 -23 0c-9 7 -8 18 4 30l74 74c5 5 10 10 19 10s14 -5 19 -10l74 -74c12 -12 13 -23 4 -30zM452 63c9 8 20 7 26 0s6 -16 -4 -25c-28 -25 -96 -44 -162 -44c-164 0 -260 108 -260 256s102 256 244 256
c126 0 220 -84 220 -216c0 -34 -14 -49 -43 -49h-198c-11 0 -17 6 -17 16s6 16 17 16h209c0 139 -89 200 -185 200c-125 0 -212 -94 -212 -223s81 -223 225 -223c63 0 121 19 140 36z" />
    <glyph glyph-name="ecircumflex.ss02" horiz-adv-x="568" 
d="M393 594c-8 -8 -17 -7 -23 0l-74 78l-74 -78c-6 -7 -15 -8 -23 0c-9 7 -8 18 4 30l74 74c5 5 10 10 19 10s14 -5 19 -10l74 -74c12 -12 13 -23 4 -30zM324 32c12 0 18 -5 18 -16s-6 -17 -18 -17c-173 0 -272 108 -272 251c0 148 102 256 244 256c126 0 220 -84 220 -216
c0 -34 -14 -49 -43 -49h-161c-11 0 -17 6 -17 16s6 16 17 16h172c0 138 -88 200 -184 200c-126 0 -213 -94 -213 -223c0 -124 85 -218 237 -218z" />
    <glyph glyph-name="edieresis" unicode="&#xeb;" horiz-adv-x="568" 
d="M237 584c-15 0 -25 11 -25 25s10 25 25 25s25 -11 25 -25s-10 -25 -25 -25zM357 584c-15 0 -25 11 -25 25s10 25 25 25s25 -11 25 -25s-10 -25 -25 -25zM516 290c0 -34 -14 -48 -43 -48h-386c3 -126 86 -215 225 -215c63 0 117 18 140 36c10 8 20 7 26 0s6 -16 -4 -25
c-28 -25 -96 -44 -162 -44c-164 0 -260 108 -260 256s102 256 237 256c133 0 227 -84 227 -216zM292 473c-111 0 -194 -83 -204 -199h396c0 135 -87 199 -192 199z" />
    <glyph glyph-name="edieresis.ss01" horiz-adv-x="568" 
d="M242 584c-15 0 -25 11 -25 25s10 25 25 25s25 -11 25 -25s-10 -25 -25 -25zM362 584c-15 0 -25 11 -25 25s10 25 25 25s25 -11 25 -25s-10 -25 -25 -25zM452 63c9 8 20 7 26 0s6 -16 -4 -25c-28 -25 -96 -44 -162 -44c-164 0 -260 108 -260 256s102 256 244 256
c126 0 220 -84 220 -216c0 -34 -14 -49 -43 -49h-198c-11 0 -17 6 -17 16s6 16 17 16h209c0 139 -89 200 -185 200c-125 0 -212 -94 -212 -223s81 -223 225 -223c63 0 121 19 140 36z" />
    <glyph glyph-name="edieresis.ss02" horiz-adv-x="568" 
d="M240 584c-15 0 -25 11 -25 25s10 25 25 25s25 -11 25 -25s-10 -25 -25 -25zM360 584c-15 0 -25 11 -25 25s10 25 25 25s25 -11 25 -25s-10 -25 -25 -25zM324 32c12 0 18 -5 18 -16s-6 -17 -18 -17c-173 0 -272 108 -272 251c0 148 102 256 244 256
c126 0 220 -84 220 -216c0 -34 -14 -49 -43 -49h-161c-11 0 -17 6 -17 16s6 16 17 16h172c0 138 -88 200 -184 200c-126 0 -213 -94 -213 -223c0 -124 85 -218 237 -218z" />
    <glyph glyph-name="edotaccent" unicode="&#x117;" horiz-adv-x="568" 
d="M293 577c-20 0 -33 14 -33 33s13 33 33 33s33 -14 33 -33s-13 -33 -33 -33zM516 290c0 -34 -14 -48 -43 -48h-386c3 -126 86 -215 225 -215c63 0 117 18 140 36c10 8 20 7 26 0s6 -16 -4 -25c-28 -25 -96 -44 -162 -44c-164 0 -260 108 -260 256s102 256 237 256
c133 0 227 -84 227 -216zM292 473c-111 0 -194 -83 -204 -199h396c0 135 -87 199 -192 199z" />
    <glyph glyph-name="edotaccent.ss01" horiz-adv-x="568" 
d="M298 577c-20 0 -33 14 -33 33s13 33 33 33s33 -14 33 -33s-13 -33 -33 -33zM452 63c9 8 20 7 26 0s6 -16 -4 -25c-28 -25 -96 -44 -162 -44c-164 0 -260 108 -260 256s102 256 244 256c126 0 220 -84 220 -216c0 -34 -14 -49 -43 -49h-198c-11 0 -17 6 -17 16s6 16 17 16
h209c0 139 -89 200 -185 200c-125 0 -212 -94 -212 -223s81 -223 225 -223c63 0 121 19 140 36z" />
    <glyph glyph-name="edotaccent.ss02" horiz-adv-x="568" 
d="M296 577c-20 0 -33 14 -33 33s13 33 33 33s33 -14 33 -33s-13 -33 -33 -33zM324 32c12 0 18 -5 18 -16s-6 -17 -18 -17c-173 0 -272 108 -272 251c0 148 102 256 244 256c126 0 220 -84 220 -216c0 -34 -14 -49 -43 -49h-161c-11 0 -17 6 -17 16s6 16 17 16h172
c0 138 -88 200 -184 200c-126 0 -213 -94 -213 -223c0 -124 85 -218 237 -218z" />
    <glyph glyph-name="egrave" unicode="&#xe8;" horiz-adv-x="568" 
d="M228 674c-10 9 -11 17 -4 25c8 9 16 10 26 1l105 -87c10 -9 12 -17 4 -26c-7 -8 -15 -9 -26 0zM516 290c0 -34 -14 -48 -43 -48h-386c3 -126 86 -215 225 -215c63 0 117 18 140 36c10 8 20 7 26 0s6 -16 -4 -25c-28 -25 -96 -44 -162 -44c-164 0 -260 108 -260 256
s102 256 237 256c133 0 227 -84 227 -216zM292 473c-111 0 -194 -83 -204 -199h396c0 135 -87 199 -192 199z" />
    <glyph glyph-name="egrave.ss01" horiz-adv-x="568" 
d="M255 700l105 -87c10 -9 12 -17 4 -26c-7 -8 -15 -9 -26 0l-105 87c-10 9 -11 17 -4 25c8 9 16 10 26 1zM452 63c9 8 20 7 26 0s6 -16 -4 -25c-28 -25 -96 -44 -162 -44c-164 0 -260 108 -260 256s102 256 244 256c126 0 220 -84 220 -216c0 -34 -14 -49 -43 -49h-198
c-11 0 -17 6 -17 16s6 16 17 16h209c0 139 -89 200 -185 200c-125 0 -212 -94 -212 -223s81 -223 225 -223c63 0 121 19 140 36z" />
    <glyph glyph-name="egrave.ss02" horiz-adv-x="568" 
d="M253 700l105 -87c10 -9 12 -17 4 -26c-7 -8 -15 -9 -26 0l-105 87c-10 9 -11 17 -4 25c8 9 16 10 26 1zM324 32c12 0 18 -5 18 -16s-6 -17 -18 -17c-173 0 -272 108 -272 251c0 148 102 256 244 256c126 0 220 -84 220 -216c0 -34 -14 -49 -43 -49h-161
c-11 0 -17 6 -17 16s6 16 17 16h172c0 138 -88 200 -184 200c-126 0 -213 -94 -213 -223c0 -124 85 -218 237 -218z" />
    <glyph glyph-name="emacron" unicode="&#x113;" horiz-adv-x="568" 
d="M212 587c-13 0 -19 6 -19 16s6 16 19 16h162c13 0 19 -6 19 -16s-6 -16 -19 -16h-162zM516 290c0 -34 -14 -48 -43 -48h-386c3 -126 86 -215 225 -215c63 0 117 18 140 36c10 8 20 7 26 0s6 -16 -4 -25c-28 -25 -96 -44 -162 -44c-164 0 -260 108 -260 256
s102 256 237 256c133 0 227 -84 227 -216zM292 473c-111 0 -194 -83 -204 -199h396c0 135 -87 199 -192 199z" />
    <glyph glyph-name="emacron.ss01" horiz-adv-x="568" 
d="M398 603c0 -10 -6 -16 -19 -16h-162c-13 0 -19 6 -19 16s6 16 19 16h162c13 0 19 -6 19 -16zM452 63c9 8 20 7 26 0s6 -16 -4 -25c-28 -25 -96 -44 -162 -44c-164 0 -260 108 -260 256s102 256 244 256c126 0 220 -84 220 -216c0 -34 -14 -49 -43 -49h-198
c-11 0 -17 6 -17 16s6 16 17 16h209c0 139 -89 200 -185 200c-125 0 -212 -94 -212 -223s81 -223 225 -223c63 0 121 19 140 36z" />
    <glyph glyph-name="emacron.ss02" horiz-adv-x="568" 
d="M396 603c0 -10 -6 -16 -19 -16h-162c-13 0 -19 6 -19 16s6 16 19 16h162c13 0 19 -6 19 -16zM324 32c12 0 18 -5 18 -16s-6 -17 -18 -17c-173 0 -272 108 -272 251c0 148 102 256 244 256c126 0 220 -84 220 -216c0 -34 -14 -49 -43 -49h-161c-11 0 -17 6 -17 16
s6 16 17 16h172c0 138 -88 200 -184 200c-126 0 -213 -94 -213 -223c0 -124 85 -218 237 -218z" />
    <glyph glyph-name="eogonek" unicode="&#x119;" horiz-adv-x="568" 
d="M516 290c0 -34 -14 -48 -43 -48h-386c3 -126 86 -215 225 -215c63 0 117 18 140 36c10 8 20 7 26 0s6 -16 -4 -25c-18 -16 -52 -30 -92 -37v-1c-66 -12 -85 -63 -74 -95c8 -25 32 -35 56 -35c16 0 33 8 42 13c12 6 21 0 24 -8c4 -10 1 -16 -12 -23
c-14 -8 -37 -15 -62 -15c-42 0 -74 20 -84 54c-10 35 5 77 50 103h-10c-164 0 -260 108 -260 256s102 256 237 256c133 0 227 -84 227 -216zM292 473c-111 0 -194 -83 -204 -199h396c0 135 -87 199 -192 199z" />
    <glyph glyph-name="eogonek.ss01" horiz-adv-x="568" 
d="M258 257c0 10 6 16 17 16h209c0 139 -89 200 -185 200c-125 0 -212 -94 -212 -223s81 -223 225 -223c63 0 121 19 140 36c9 8 20 7 26 0s6 -16 -4 -25c-18 -16 -52 -30 -92 -37v-1c-66 -12 -85 -63 -74 -95c8 -25 32 -35 56 -35c16 0 33 8 42 13c12 6 21 0 24 -8
c4 -10 1 -16 -12 -23c-14 -8 -37 -15 -62 -15c-42 0 -74 20 -84 54c-10 35 5 77 50 103h-10c-164 0 -260 108 -260 256s102 256 244 256c126 0 220 -84 220 -216c0 -34 -14 -49 -43 -49h-198c-11 0 -17 6 -17 16z" />
    <glyph glyph-name="eogonek.ss02" horiz-adv-x="568" 
d="M296 506c126 0 220 -84 220 -216c0 -34 -14 -49 -43 -49h-161c-11 0 -17 6 -17 16s6 16 17 16h172c0 138 -88 200 -184 200c-126 0 -213 -94 -213 -223c0 -124 85 -218 237 -218c12 0 18 -5 18 -16c0 -8 -3 -13 -9 -15v-1c-66 -12 -85 -63 -74 -95c8 -25 32 -35 56 -35
c16 0 33 8 42 13c12 6 21 0 24 -8c4 -10 1 -16 -12 -23c-14 -8 -37 -15 -62 -15c-42 0 -74 20 -84 54c-10 38 8 85 63 110c-149 15 -234 117 -234 249c0 148 102 256 244 256z" />
    <glyph glyph-name="f" unicode="f" horiz-adv-x="390" 
d="M293 670c-73 0 -117 -30 -117 -140v-30h138c12 0 16 -8 16 -16s-4 -16 -16 -16h-138v-448c0 -14 -6 -20 -17 -20s-17 6 -17 20v448h-94c-12 0 -16 8 -16 16s4 16 16 16h94v36c0 104 50 166 146 166h46c13 0 16 -6 16 -16s-3 -16 -16 -16h-41z" />
    <glyph glyph-name="f.ss01" horiz-adv-x="330" 
d="M274 702c13 0 16 -6 16 -16s-3 -16 -16 -16h-31c-78 0 -127 -40 -127 -154v-496c0 -14 -6 -20 -17 -20s-17 6 -17 20v502c0 109 55 180 156 180h36zM254 500c12 0 17 -6 17 -17s-5 -17 -17 -17h-66c-12 0 -17 6 -17 17s5 17 17 17h66z" />
    <glyph glyph-name="g" unicode="g" horiz-adv-x="617" 
d="M299 506c137 0 240 -89 240 -244v-184c0 -170 -145 -230 -258 -230c-59 0 -128 17 -146 30c-10 7 -10 14 -8 21c3 8 8 14 22 10c19 -6 63 -28 130 -28c98 0 226 46 226 210v41h-4c-28 -72 -102 -123 -213 -123c-145 0 -236 113 -236 247c0 137 94 250 247 250zM296 42
c133 0 209 109 209 211v7c0 136 -88 213 -206 213c-131 0 -212 -97 -212 -219c0 -128 90 -212 209 -212z" />
    <glyph glyph-name="g.ss01" horiz-adv-x="632" 
d="M323 34c13 0 19 -6 19 -17s-6 -17 -19 -17c-174 0 -271 126 -271 253c0 130 103 253 261 253c144 0 241 -100 241 -220v-222c0 -96 -62 -179 -157 -212c-15 -5 -25 0 -28 10c-3 8 2 18 17 23c82 29 134 100 134 186v199c0 117 -80 203 -208 203
c-135 0 -225 -108 -225 -220c0 -109 82 -219 236 -219z" />
    <glyph glyph-name="gbreve" unicode="&#x11f;" horiz-adv-x="617" 
d="M303 578c-64 0 -96 34 -110 81c-2 8 -7 19 6 25c15 6 20 1 25 -13c7 -20 21 -63 79 -63s72 43 79 63c4 12 10 19 25 13c10 -4 10 -12 6 -25c-16 -47 -49 -81 -110 -81zM299 506c137 0 240 -89 240 -244v-184c0 -170 -145 -230 -258 -230c-59 0 -128 17 -146 30
c-10 7 -10 14 -8 21c3 8 8 14 22 10c19 -6 63 -28 130 -28c98 0 226 46 226 210v41h-4c-28 -72 -102 -123 -213 -123c-145 0 -236 113 -236 247c0 137 94 250 247 250zM296 42c133 0 209 109 209 211v7c0 136 -88 213 -206 213c-131 0 -212 -97 -212 -219
c0 -128 90 -212 209 -212z" />
    <glyph glyph-name="gbreve.ss01" horiz-adv-x="632" 
d="M417 684c10 -4 10 -12 6 -25c-16 -47 -49 -81 -110 -81c-64 0 -96 34 -110 81c-2 8 -7 19 6 25c15 6 20 1 25 -13c7 -20 21 -63 79 -63s72 43 79 63c4 12 10 19 25 13zM323 34c13 0 19 -6 19 -17s-6 -17 -19 -17c-174 0 -271 126 -271 253c0 130 103 253 261 253
c144 0 241 -100 241 -220v-222c0 -96 -62 -179 -157 -212c-15 -5 -25 0 -28 10c-3 8 2 18 17 23c82 29 134 100 134 186v199c0 117 -80 203 -208 203c-135 0 -225 -108 -225 -220c0 -109 82 -219 236 -219z" />
    <glyph glyph-name="uni0123" unicode="&#x123;" horiz-adv-x="617" 
d="M285 587c-13 6 -14 17 -8 31l43 87c3 7 11 12 19 9s9 -12 7 -19l-31 -92c-5 -17 -17 -22 -30 -16zM299 506c137 0 240 -89 240 -244v-184c0 -170 -145 -230 -258 -230c-59 0 -128 17 -146 30c-10 7 -10 14 -8 21c3 8 8 14 22 10c19 -6 63 -28 130 -28
c98 0 226 46 226 210v41h-4c-28 -72 -102 -123 -213 -123c-145 0 -236 113 -236 247c0 137 94 250 247 250zM296 42c133 0 209 109 209 211v7c0 136 -88 213 -206 213c-131 0 -212 -97 -212 -219c0 -128 90 -212 209 -212z" />
    <glyph glyph-name="uni0123.ss01" horiz-adv-x="632" 
d="M287 618l43 87c3 7 11 12 19 9s9 -12 7 -19l-31 -92c-5 -17 -17 -22 -30 -16s-14 17 -8 31zM323 34c13 0 19 -6 19 -17s-6 -17 -19 -17c-174 0 -271 126 -271 253c0 130 103 253 261 253c144 0 241 -100 241 -220v-222c0 -96 -62 -179 -157 -212c-15 -5 -25 0 -28 10
c-3 8 2 18 17 23c82 29 134 100 134 186v199c0 117 -80 203 -208 203c-135 0 -225 -108 -225 -220c0 -109 82 -219 236 -219z" />
    <glyph glyph-name="gdotaccent" unicode="&#x121;" horiz-adv-x="617" 
d="M303 577c-20 0 -33 14 -33 33s13 33 33 33s33 -14 33 -33s-13 -33 -33 -33zM299 506c137 0 240 -89 240 -244v-184c0 -170 -145 -230 -258 -230c-59 0 -128 17 -146 30c-10 7 -10 14 -8 21c3 8 8 14 22 10c19 -6 63 -28 130 -28c98 0 226 46 226 210v41h-4
c-28 -72 -102 -123 -213 -123c-145 0 -236 113 -236 247c0 137 94 250 247 250zM296 42c133 0 209 109 209 211v7c0 136 -88 213 -206 213c-131 0 -212 -97 -212 -219c0 -128 90 -212 209 -212z" />
    <glyph glyph-name="gdotaccent.ss01" horiz-adv-x="632" 
d="M313 577c-20 0 -33 14 -33 33s13 33 33 33s33 -14 33 -33s-13 -33 -33 -33zM323 34c13 0 19 -6 19 -17s-6 -17 -19 -17c-174 0 -271 126 -271 253c0 130 103 253 261 253c144 0 241 -100 241 -220v-222c0 -96 -62 -179 -157 -212c-15 -5 -25 0 -28 10c-3 8 2 18 17 23
c82 29 134 100 134 186v199c0 117 -80 203 -208 203c-135 0 -225 -108 -225 -220c0 -109 82 -219 236 -219z" />
    <glyph glyph-name="h" unicode="h" horiz-adv-x="573" 
d="M295 506c122 0 200 -67 200 -185v-301c0 -14 -6 -20 -17 -20s-17 6 -17 20v286c0 109 -56 167 -165 167c-125 0 -184 -83 -184 -155v-298c0 -14 -6 -20 -17 -20s-17 6 -17 20v662c0 14 6 20 17 20s17 -6 17 -20v-272h4c25 48 81 96 179 96z" />
    <glyph glyph-name="hbar" unicode="&#x127;" horiz-adv-x="610" 
d="M332 506c122 0 200 -67 200 -185v-301c0 -14 -6 -20 -17 -20s-17 6 -17 20v286c0 109 -56 167 -165 167c-125 0 -184 -83 -184 -155v-298c0 -14 -6 -20 -17 -20s-17 6 -17 20v568h-54c-13 0 -19 6 -19 16s6 16 19 16h54v62c0 14 6 20 17 20s17 -6 17 -20v-62h92
c13 0 19 -6 19 -16s-6 -16 -19 -16h-92v-178h4c25 48 81 96 179 96z" />
    <glyph glyph-name="i" unicode="i" horiz-adv-x="212" 
d="M106 624c-17 0 -28 11 -28 28s11 28 28 28s28 -11 28 -28s-11 -28 -28 -28zM106 500c11 0 17 -6 17 -20v-460c0 -14 -6 -20 -17 -20s-17 6 -17 20v460c0 14 6 20 17 20z" />
    <glyph glyph-name="dotlessi" unicode="&#x131;" horiz-adv-x="218" 
d="M109 500c11 0 17 -6 17 -20v-460c0 -14 -6 -20 -17 -20s-17 6 -17 20v460c0 14 6 20 17 20z" />
    <glyph glyph-name="iacute" unicode="&#xed;" horiz-adv-x="218" 
d="M152 724c10 9 18 8 26 -1c7 -8 6 -16 -4 -25l-105 -87c-11 -9 -19 -8 -26 0c-8 9 -6 17 4 26zM109 500c11 0 17 -6 17 -20v-460c0 -14 -6 -20 -17 -20s-17 6 -17 20v460c0 14 6 20 17 20z" />
    <glyph glyph-name="ibreve" unicode="&#x12d;" horiz-adv-x="218" 
d="M213 708c10 -4 10 -12 6 -25c-16 -47 -49 -81 -110 -81c-64 0 -96 34 -110 81c-2 8 -7 19 6 25c15 6 20 1 25 -13c7 -20 21 -63 79 -63s72 43 79 63c4 12 10 19 25 13zM109 500c11 0 17 -6 17 -20v-460c0 -14 -6 -20 -17 -20s-17 6 -17 20v460c0 14 6 20 17 20z" />
    <glyph glyph-name="icircumflex" unicode="&#xee;" horiz-adv-x="218" 
d="M206 618c-8 -8 -17 -7 -23 0l-74 78l-74 -78c-6 -7 -15 -8 -23 0c-9 7 -8 18 4 30l74 74c5 5 10 10 19 10s14 -5 19 -10l74 -74c12 -12 13 -23 4 -30zM109 500c11 0 17 -6 17 -20v-460c0 -14 -6 -20 -17 -20s-17 6 -17 20v460c0 14 6 20 17 20z" />
    <glyph glyph-name="idieresis" unicode="&#xef;" horiz-adv-x="218" 
d="M53 608c-15 0 -25 11 -25 25s10 25 25 25s25 -11 25 -25s-10 -25 -25 -25zM173 608c-15 0 -25 11 -25 25s10 25 25 25s25 -11 25 -25s-10 -25 -25 -25zM109 500c11 0 17 -6 17 -20v-460c0 -14 -6 -20 -17 -20s-17 6 -17 20v460c0 14 6 20 17 20z" />
    <glyph glyph-name="i.loclTRK" horiz-adv-x="218" 
d="M109 601c-20 0 -33 14 -33 33s13 33 33 33s33 -14 33 -33s-13 -33 -33 -33zM109 500c11 0 17 -6 17 -20v-460c0 -14 -6 -20 -17 -20s-17 6 -17 20v460c0 14 6 20 17 20z" />
    <glyph glyph-name="igrave" unicode="&#xec;" horiz-adv-x="218" 
d="M66 724l105 -87c10 -9 12 -17 4 -26c-7 -8 -15 -9 -26 0l-105 87c-10 9 -11 17 -4 25c8 9 16 10 26 1zM109 500c11 0 17 -6 17 -20v-460c0 -14 -6 -20 -17 -20s-17 6 -17 20v460c0 14 6 20 17 20z" />
    <glyph glyph-name="imacron" unicode="&#x12b;" horiz-adv-x="218" 
d="M198 627c0 -10 -6 -16 -19 -16h-140c-13 0 -19 6 -19 16s6 16 19 16h140c13 0 19 -6 19 -16zM109 500c11 0 17 -6 17 -20v-460c0 -14 -6 -20 -17 -20s-17 6 -17 20v460c0 14 6 20 17 20z" />
    <glyph glyph-name="iogonek" unicode="&#x12f;" horiz-adv-x="218" 
d="M106 624c-17 0 -28 11 -28 28s11 28 28 28s28 -11 28 -28s-11 -28 -28 -28zM159 -125c4 -10 1 -16 -12 -23c-14 -8 -37 -15 -62 -15c-42 0 -74 20 -84 54c-12 43 14 98 89 119c-1 3 -1 6 -1 10v460c0 14 6 20 17 20s17 -6 17 -20v-460c0 -12 -4 -18 -12 -20
c-66 -12 -85 -63 -74 -95c8 -25 32 -35 56 -35c16 0 33 8 42 13c12 6 21 0 24 -8z" />
    <glyph glyph-name="itilde" unicode="&#x129;" horiz-adv-x="218" 
d="M206 653c10 -7 9 -19 3 -25c-31 -31 -73 -34 -102 -14c-43 29 -57 9 -71 -3c-6 -5 -15 -5 -21 -1c-10 7 -9 19 -3 25c31 31 73 34 101 15c47 -32 60 -7 72 2c7 5 15 5 21 1zM109 500c11 0 17 -6 17 -20v-460c0 -14 -6 -20 -17 -20s-17 6 -17 20v460c0 14 6 20 17 20z" />
    <glyph glyph-name="j" unicode="j" horiz-adv-x="236" 
d="M130 624c-17 0 -28 11 -28 28s11 28 28 28s28 -11 28 -28s-11 -28 -28 -28zM130 500c11 0 17 -6 17 -20v-418c0 -88 -40 -139 -114 -167c-11 -4 -19 1 -22 10c-3 8 0 17 11 22c66 29 91 65 91 142v411c0 14 6 20 17 20z" />
    <glyph glyph-name="uni0237" unicode="&#x237;" horiz-adv-x="225" 
d="M130 500c11 0 17 -6 17 -20v-418c0 -88 -40 -139 -114 -167c-11 -4 -19 1 -22 10c-3 8 0 17 11 22c66 29 91 65 91 142v411c0 14 6 20 17 20z" />
    <glyph glyph-name="uni006A0301" horiz-adv-x="225" 
d="M169 700c10 9 18 8 26 -1c7 -8 6 -16 -4 -25l-105 -87c-11 -9 -19 -8 -26 0c-8 9 -6 17 4 26zM130 500c11 0 17 -6 17 -20v-418c0 -88 -40 -139 -114 -167c-11 -4 -19 1 -22 10c-3 8 0 17 11 22c66 29 91 65 91 142v411c0 14 6 20 17 20z" />
    <glyph glyph-name="k" unicode="k" horiz-adv-x="465" 
d="M416 24c6 -13 1 -20 -8 -23c-10 -3 -18 1 -24 14l-71 153c-23 49 -50 79 -130 79h-71v-227c0 -14 -6 -20 -17 -20s-17 6 -17 20v662c0 14 6 20 17 20s17 -6 17 -20v-402h71c71 0 90 33 107 66l74 142c5 10 12 14 22 11c9 -3 15 -11 9 -24l-74 -143
c-17 -32 -29 -56 -65 -65c55 -9 75 -52 90 -87z" />
    <glyph glyph-name="k.ss01" horiz-adv-x="465" 
d="M95 702c11 0 17 -6 17 -20v-662c0 -14 -6 -20 -17 -20s-17 6 -17 20v662c0 14 6 20 17 20zM416 24c6 -13 1 -20 -8 -23c-10 -3 -18 1 -24 14l-71 153c-23 49 -50 80 -129 80c-14 0 -20 6 -20 17s6 17 20 17c72 0 89 31 106 64l74 142c5 10 12 14 22 11c9 -3 15 -11 9 -24
l-74 -143c-17 -32 -29 -56 -65 -65c55 -9 75 -52 90 -87z" />
    <glyph glyph-name="uni0137" unicode="&#x137;" horiz-adv-x="465" 
d="M416 24c6 -13 1 -20 -8 -23c-10 -3 -18 1 -24 14l-71 153c-23 49 -50 79 -130 79h-71v-227c0 -14 -6 -20 -17 -20s-17 6 -17 20v662c0 14 6 20 17 20s17 -6 17 -20v-402h71c71 0 90 33 107 66l74 142c5 10 12 14 22 11c9 -3 15 -11 9 -24l-74 -143
c-17 -32 -29 -56 -65 -65c55 -9 75 -52 90 -87zM266 -60c10 0 19 -6 19 -16c0 -8 -2 -11 -7 -19l-45 -78c-4 -7 -7 -9 -12 -9c-8 0 -11 6 -11 11c0 1 0 2 2 7l31 84c5 15 12 20 23 20z" />
    <glyph glyph-name="uni0137.ss01" horiz-adv-x="465" 
d="M95 702c11 0 17 -6 17 -20v-662c0 -14 -6 -20 -17 -20s-17 6 -17 20v662c0 14 6 20 17 20zM416 24c6 -13 1 -20 -8 -23c-10 -3 -18 1 -24 14l-71 153c-23 49 -50 80 -129 80c-14 0 -20 6 -20 17s6 17 20 17c72 0 89 31 106 64l74 142c5 10 12 14 22 11c9 -3 15 -11 9 -24
l-74 -143c-17 -32 -29 -56 -65 -65c55 -9 75 -52 90 -87zM242 -95l-45 -78c-4 -7 -7 -9 -12 -9c-8 0 -11 6 -11 11c0 1 0 2 2 7l31 84c5 15 12 20 23 20c10 0 19 -6 19 -16c0 -8 -2 -11 -7 -19z" />
    <glyph glyph-name="l" unicode="l" horiz-adv-x="198" 
d="M99 702c11 0 17 -6 17 -20v-662c0 -14 -6 -20 -17 -20s-17 6 -17 20v662c0 14 6 20 17 20z" />
    <glyph glyph-name="lacute" unicode="&#x13a;" horiz-adv-x="198" 
d="M142 891c10 9 18 8 26 -1c7 -8 6 -16 -4 -25l-105 -87c-11 -9 -19 -8 -26 0c-8 9 -6 17 4 26zM99 702c11 0 17 -6 17 -20v-662c0 -14 -6 -20 -17 -20s-17 6 -17 20v662c0 14 6 20 17 20z" />
    <glyph glyph-name="lcaron" unicode="&#x13e;" horiz-adv-x="291" 
d="M99 702c11 0 17 -6 17 -20v-662c0 -14 -6 -20 -17 -20s-17 6 -17 20v662c0 14 6 20 17 20zM266 660l-45 -152c-2 -6 -6 -9 -12 -9c-8 0 -14 5 -12 15l36 151c3 14 11 17 19 17c12 0 18 -10 14 -22z" />
    <glyph glyph-name="uni013C" unicode="&#x13c;" horiz-adv-x="198" 
d="M99 702c11 0 17 -6 17 -20v-662c0 -14 -6 -20 -17 -20s-17 6 -17 20v662c0 14 6 20 17 20zM115 -95l-45 -78c-4 -7 -7 -9 -12 -9c-8 0 -11 6 -11 11c0 1 0 2 2 7l31 84c5 15 12 20 23 20c10 0 19 -6 19 -16c0 -8 -2 -11 -7 -19z" />
    <glyph glyph-name="ldot" unicode="&#x140;" horiz-adv-x="317" 
d="M99 702c11 0 17 -6 17 -20v-662c0 -14 -6 -20 -17 -20s-17 6 -17 20v662c0 14 6 20 17 20zM231 310c-17 0 -30 13 -30 30s13 30 30 30s30 -13 30 -30s-13 -30 -30 -30z" />
    <glyph glyph-name="lslash" unicode="&#x142;" horiz-adv-x="243" 
d="M226 457c6 -8 5 -19 -7 -28l-81 -68v-341c0 -14 -6 -20 -17 -20s-17 6 -17 20v313l-59 -50c-12 -11 -23 -10 -28 -3c-6 9 -6 20 6 29l81 68v305c0 14 6 20 17 20s17 -6 17 -20v-277l59 50c12 11 23 11 29 2z" />
    <glyph glyph-name="m" unicode="m" horiz-adv-x="828" 
d="M577 506c105 0 173 -63 173 -144v-342c0 -14 -6 -20 -17 -20s-17 6 -17 20v332c0 73 -53 121 -140 121c-82 0 -145 -46 -145 -115v-338c0 -14 -6 -20 -17 -20s-17 6 -17 20v332c0 74 -67 121 -141 121c-80 0 -144 -51 -144 -120v-333c0 -14 -6 -20 -17 -20s-17 6 -17 20
v460c0 14 6 20 17 20s17 -6 17 -20v-41h4c9 14 63 67 141 67c56 0 133 -29 158 -86c25 46 80 86 162 86z" />
    <glyph glyph-name="m.ss01" horiz-adv-x="802" 
d="M554 506c90 0 170 -55 170 -173v-313c0 -14 -6 -20 -17 -20s-17 6 -17 20v305c0 111 -70 148 -136 148s-136 -37 -136 -148v-305c0 -14 -6 -20 -17 -20s-17 6 -17 20v305c0 111 -70 148 -136 148s-136 -37 -136 -148v-305c0 -14 -6 -20 -17 -20s-17 6 -17 20v313
c0 118 80 173 170 173c75 0 140 -49 153 -109c13 60 78 109 153 109z" />
    <glyph glyph-name="m.ss02" horiz-adv-x="710" 
d="M292 483c0 -11 -6 -17 -20 -17c-73 0 -160 -35 -160 -158v-288c0 -14 -6 -20 -17 -20s-17 6 -17 20v292c0 133 105 188 194 188c14 0 20 -6 20 -17zM418 483c0 11 6 17 20 17c89 0 194 -55 194 -188v-292c0 -14 -6 -20 -17 -20s-17 6 -17 20v288c0 123 -87 158 -160 158
c-14 0 -20 6 -20 17zM355 456c10 0 17 -5 17 -18v-420c0 -13 -7 -18 -17 -18s-17 5 -17 18v420c0 13 7 18 17 18z" />
    <glyph glyph-name="n" unicode="n" horiz-adv-x="573" 
d="M298 506c119 0 197 -67 197 -185v-302c0 -13 -6 -19 -17 -19s-17 6 -17 19v287c0 110 -56 167 -163 167c-127 0 -186 -83 -186 -155v-299c0 -13 -6 -19 -17 -19s-17 6 -17 19v462c0 13 6 19 17 19s17 -6 17 -19v-71h4c25 48 86 96 182 96z" />
    <glyph glyph-name="n.ss01" horiz-adv-x="576" 
d="M481 0c-11 0 -17 6 -17 20v279c0 111 -80 174 -176 174s-176 -63 -176 -174v-279c0 -14 -6 -20 -17 -20s-17 6 -17 20v287c0 118 90 199 210 199s210 -81 210 -199v-287c0 -14 -6 -20 -17 -20z" />
    <glyph glyph-name="nacute" unicode="&#x144;" horiz-adv-x="573" 
d="M330 700c10 9 18 8 26 -1c7 -8 6 -16 -4 -25l-105 -87c-11 -9 -19 -8 -26 0c-8 9 -6 17 4 26zM298 506c119 0 197 -67 197 -185v-302c0 -13 -6 -19 -17 -19s-17 6 -17 19v287c0 110 -56 167 -163 167c-127 0 -186 -83 -186 -155v-299c0 -13 -6 -19 -17 -19s-17 6 -17 19
v462c0 13 6 19 17 19s17 -6 17 -19v-71h4c25 48 86 96 182 96z" />
    <glyph glyph-name="nacute.ss01" horiz-adv-x="576" 
d="M331 700c10 9 18 8 26 -1c7 -8 6 -16 -4 -25l-105 -87c-11 -9 -19 -8 -26 0c-8 9 -6 17 4 26zM481 0c-11 0 -17 6 -17 20v279c0 111 -80 174 -176 174s-176 -63 -176 -174v-279c0 -14 -6 -20 -17 -20s-17 6 -17 20v287c0 118 90 199 210 199s210 -81 210 -199v-287
c0 -14 -6 -20 -17 -20z" />
    <glyph glyph-name="ncaron" unicode="&#x148;" horiz-adv-x="573" 
d="M384 694c9 -7 8 -18 -4 -30l-74 -74c-5 -5 -10 -10 -19 -10s-14 5 -19 10l-74 74c-12 12 -13 23 -4 30c8 8 17 7 23 0l74 -78l74 78c6 7 15 8 23 0zM298 506c119 0 197 -67 197 -185v-302c0 -13 -6 -19 -17 -19s-17 6 -17 19v287c0 110 -56 167 -163 167
c-127 0 -186 -83 -186 -155v-299c0 -13 -6 -19 -17 -19s-17 6 -17 19v462c0 13 6 19 17 19s17 -6 17 -19v-71h4c25 48 86 96 182 96z" />
    <glyph glyph-name="ncaron.ss01" horiz-adv-x="576" 
d="M385 694c9 -7 8 -18 -4 -30l-74 -74c-5 -5 -10 -10 -19 -10s-14 5 -19 10l-74 74c-12 12 -13 23 -4 30c8 8 17 7 23 0l74 -78l74 78c6 7 15 8 23 0zM481 0c-11 0 -17 6 -17 20v279c0 111 -80 174 -176 174s-176 -63 -176 -174v-279c0 -14 -6 -20 -17 -20s-17 6 -17 20
v287c0 118 90 199 210 199s210 -81 210 -199v-287c0 -14 -6 -20 -17 -20z" />
    <glyph glyph-name="uni0146" unicode="&#x146;" horiz-adv-x="573" 
d="M298 506c119 0 197 -67 197 -185v-302c0 -13 -6 -19 -17 -19s-17 6 -17 19v287c0 110 -56 167 -163 167c-127 0 -186 -83 -186 -155v-299c0 -13 -6 -19 -17 -19s-17 6 -17 19v462c0 13 6 19 17 19s17 -6 17 -19v-71h4c25 48 86 96 182 96zM316 -95l-45 -78
c-4 -7 -7 -9 -12 -9c-8 0 -11 6 -11 11c0 1 0 2 2 7l31 84c5 15 12 20 23 20c10 0 19 -6 19 -16c0 -8 -2 -11 -7 -19z" />
    <glyph glyph-name="uni0146.ss01" horiz-adv-x="576" 
d="M481 0c-11 0 -17 6 -17 20v279c0 111 -80 174 -176 174s-176 -63 -176 -174v-279c0 -14 -6 -20 -17 -20s-17 6 -17 20v287c0 118 90 199 210 199s210 -81 210 -199v-287c0 -14 -6 -20 -17 -20zM317 -95l-45 -78c-4 -7 -7 -9 -12 -9c-8 0 -11 6 -11 11c0 1 0 2 2 7l31 84
c5 15 12 20 23 20c10 0 19 -6 19 -16c0 -8 -2 -11 -7 -19z" />
    <glyph glyph-name="eng" unicode="&#x14b;" horiz-adv-x="573" 
d="M298 506c119 0 197 -67 197 -185v-277c0 -66 -50 -125 -120 -152c-13 -5 -20 -1 -23 8c-3 8 -1 15 13 22c61 31 96 68 96 143v241c0 110 -56 167 -163 167c-127 0 -186 -83 -186 -155v-299c0 -13 -6 -19 -17 -19s-17 6 -17 19v462c0 13 6 19 17 19s17 -6 17 -19v-71h4
c25 48 86 96 182 96z" />
    <glyph glyph-name="eng.ss01" horiz-adv-x="576" 
d="M288 506c120 0 210 -81 210 -199v-263c0 -66 -50 -125 -120 -152c-13 -5 -20 -1 -23 8c-3 8 -1 15 13 22c61 31 96 68 96 143v234c0 111 -80 174 -176 174s-176 -63 -176 -174v-279c0 -14 -6 -20 -17 -20s-17 6 -17 20v287c0 118 90 199 210 199z" />
    <glyph glyph-name="ntilde" unicode="&#xf1;" horiz-adv-x="573" 
d="M384 629c10 -7 9 -19 3 -25c-31 -31 -73 -34 -102 -14c-43 29 -57 9 -71 -3c-6 -5 -15 -5 -21 -1c-10 7 -9 19 -3 25c31 31 73 34 101 15c47 -32 60 -7 72 2c7 5 15 5 21 1zM298 506c119 0 197 -67 197 -185v-302c0 -13 -6 -19 -17 -19s-17 6 -17 19v287
c0 110 -56 167 -163 167c-127 0 -186 -83 -186 -155v-299c0 -13 -6 -19 -17 -19s-17 6 -17 19v462c0 13 6 19 17 19s17 -6 17 -19v-71h4c25 48 86 96 182 96z" />
    <glyph glyph-name="ntilde.ss01" horiz-adv-x="576" 
d="M385 629c10 -7 9 -19 3 -25c-31 -31 -73 -34 -102 -14c-43 29 -57 9 -71 -3c-6 -5 -15 -5 -21 -1c-10 7 -9 19 -3 25c31 31 73 34 101 15c47 -32 60 -7 72 2c7 5 15 5 21 1zM481 0c-11 0 -17 6 -17 20v279c0 111 -80 174 -176 174s-176 -63 -176 -174v-279
c0 -14 -6 -20 -17 -20s-17 6 -17 20v287c0 118 90 199 210 199s210 -81 210 -199v-287c0 -14 -6 -20 -17 -20z" />
    <glyph glyph-name="o" unicode="o" horiz-adv-x="612" 
d="M306 -6c-146 0 -254 108 -254 256s108 256 254 256s254 -108 254 -256s-108 -256 -254 -256zM306 27c125 0 219 94 219 223s-94 223 -219 223s-219 -94 -219 -223s94 -223 219 -223z" />
    <glyph glyph-name="o.ss01" horiz-adv-x="612" 
d="M306 -6c-146 0 -254 108 -254 256s108 256 254 256s254 -108 254 -256s-108 -256 -254 -256zM306 27c125 0 219 94 219 223s-94 223 -219 223s-219 -94 -219 -223s94 -223 219 -223zM306 227c-13 0 -23 10 -23 23s10 23 23 23s23 -10 23 -23s-10 -23 -23 -23z" />
    <glyph glyph-name="oacute" unicode="&#xf3;" horiz-adv-x="612" 
d="M349 700c10 9 18 8 26 -1c7 -8 6 -16 -4 -25l-105 -87c-11 -9 -19 -8 -26 0c-8 9 -6 17 4 26zM306 -6c-146 0 -254 108 -254 256s108 256 254 256s254 -108 254 -256s-108 -256 -254 -256zM306 27c125 0 219 94 219 223s-94 223 -219 223s-219 -94 -219 -223
s94 -223 219 -223z" />
    <glyph glyph-name="obreve" unicode="&#x14f;" horiz-adv-x="612" 
d="M410 684c10 -4 10 -12 6 -25c-16 -47 -49 -81 -110 -81c-64 0 -96 34 -110 81c-2 8 -7 19 6 25c15 6 20 1 25 -13c7 -20 21 -63 79 -63s72 43 79 63c4 12 10 19 25 13zM306 -6c-146 0 -254 108 -254 256s108 256 254 256s254 -108 254 -256s-108 -256 -254 -256zM306 27
c125 0 219 94 219 223s-94 223 -219 223s-219 -94 -219 -223s94 -223 219 -223z" />
    <glyph glyph-name="ocircumflex" unicode="&#xf4;" horiz-adv-x="612" 
d="M403 594c-8 -8 -17 -7 -23 0l-74 78l-74 -78c-6 -7 -15 -8 -23 0c-9 7 -8 18 4 30l74 74c5 5 10 10 19 10s14 -5 19 -10l74 -74c12 -12 13 -23 4 -30zM306 -6c-146 0 -254 108 -254 256s108 256 254 256s254 -108 254 -256s-108 -256 -254 -256zM306 27
c125 0 219 94 219 223s-94 223 -219 223s-219 -94 -219 -223s94 -223 219 -223z" />
    <glyph glyph-name="odieresis" unicode="&#xf6;" horiz-adv-x="612" 
d="M250 584c-15 0 -25 11 -25 25s10 25 25 25s25 -11 25 -25s-10 -25 -25 -25zM370 584c-15 0 -25 11 -25 25s10 25 25 25s25 -11 25 -25s-10 -25 -25 -25zM306 -6c-146 0 -254 108 -254 256s108 256 254 256s254 -108 254 -256s-108 -256 -254 -256zM306 27
c125 0 219 94 219 223s-94 223 -219 223s-219 -94 -219 -223s94 -223 219 -223z" />
    <glyph glyph-name="ograve" unicode="&#xf2;" horiz-adv-x="612" 
d="M263 700l105 -87c10 -9 12 -17 4 -26c-7 -8 -15 -9 -26 0l-105 87c-10 9 -11 17 -4 25c8 9 16 10 26 1zM306 -6c-146 0 -254 108 -254 256s108 256 254 256s254 -108 254 -256s-108 -256 -254 -256zM306 27c125 0 219 94 219 223s-94 223 -219 223s-219 -94 -219 -223
s94 -223 219 -223z" />
    <glyph glyph-name="ohungarumlaut" unicode="&#x151;" horiz-adv-x="612" 
d="M278 695c9 10 16 11 25 4s9 -15 1 -25l-71 -84c-9 -11 -17 -11 -25 -5c-10 8 -9 16 -1 26zM410 695c9 10 16 11 25 4s9 -15 1 -25l-71 -84c-9 -11 -17 -11 -25 -5c-10 8 -9 16 -1 26zM306 -6c-146 0 -254 108 -254 256s108 256 254 256s254 -108 254 -256
s-108 -256 -254 -256zM306 27c125 0 219 94 219 223s-94 223 -219 223s-219 -94 -219 -223s94 -223 219 -223z" />
    <glyph glyph-name="omacron" unicode="&#x14d;" horiz-adv-x="612" 
d="M406 603c0 -10 -6 -16 -19 -16h-162c-13 0 -19 6 -19 16s6 16 19 16h162c13 0 19 -6 19 -16zM306 -6c-146 0 -254 108 -254 256s108 256 254 256s254 -108 254 -256s-108 -256 -254 -256zM306 27c125 0 219 94 219 223s-94 223 -219 223s-219 -94 -219 -223
s94 -223 219 -223z" />
    <glyph glyph-name="oslash" unicode="&#xf8;" horiz-adv-x="612" 
d="M500 421c38 -45 60 -104 60 -171c0 -148 -108 -256 -254 -256c-67 0 -127 23 -171 62l-47 -47c-10 -10 -18 -9 -25 -2s-8 15 2 25l47 47c-38 45 -60 104 -60 171c0 148 108 256 254 256c67 0 127 -23 171 -62l47 47c10 10 18 9 25 2s8 -15 -2 -25zM87 250
c0 -57 19 -108 50 -146l315 315c-38 34 -89 54 -146 54c-125 0 -219 -94 -219 -223zM306 27c125 0 219 94 219 223c0 57 -19 108 -50 146l-315 -315c38 -34 89 -54 146 -54z" />
    <glyph glyph-name="otilde" unicode="&#xf5;" horiz-adv-x="612" 
d="M403 629c10 -7 9 -19 3 -25c-31 -31 -73 -34 -102 -14c-43 29 -57 9 -71 -3c-6 -5 -15 -5 -21 -1c-10 7 -9 19 -3 25c31 31 73 34 101 15c47 -32 60 -7 72 2c7 5 15 5 21 1zM306 -6c-146 0 -254 108 -254 256s108 256 254 256s254 -108 254 -256s-108 -256 -254 -256z
M306 27c125 0 219 94 219 223s-94 223 -219 223s-219 -94 -219 -223s94 -223 219 -223z" />
    <glyph glyph-name="oe" unicode="&#x153;" horiz-adv-x="1041" 
d="M989 290c0 -34 -14 -48 -43 -48h-386c3 -126 86 -215 225 -215c63 0 117 18 140 36c10 8 20 7 26 0s6 -16 -4 -25c-28 -25 -96 -44 -162 -44c-124 0 -209 62 -243 156c-37 -94 -126 -156 -236 -156c-146 0 -254 108 -254 256s108 256 254 256c111 0 199 -62 236 -156
c34 94 118 156 220 156c133 0 227 -84 227 -216zM306 27c125 0 219 94 219 223s-94 223 -219 223s-219 -94 -219 -223s94 -223 219 -223zM765 473c-111 0 -194 -83 -204 -199h396c0 135 -87 199 -192 199z" />
    <glyph glyph-name="oe.ss01" horiz-adv-x="1041" 
d="M731 257c0 10 6 16 17 16h209c0 139 -89 200 -185 200c-125 0 -212 -94 -212 -223s81 -223 225 -223c63 0 121 19 140 36c9 8 20 7 26 0s6 -16 -4 -25c-28 -25 -96 -44 -162 -44c-124 0 -209 62 -243 156c-37 -94 -126 -156 -236 -156c-146 0 -254 108 -254 256
s108 256 254 256c111 0 200 -62 236 -157c35 95 119 157 227 157c126 0 220 -84 220 -216c0 -34 -14 -49 -43 -49h-198c-11 0 -17 6 -17 16zM306 27c125 0 219 94 219 223s-94 223 -219 223s-219 -94 -219 -223s94 -223 219 -223z" />
    <glyph glyph-name="p" unicode="p" horiz-adv-x="608" 
d="M307 506c133 0 249 -103 249 -255c0 -140 -99 -257 -247 -257c-95 0 -169 52 -193 122h-4v-248c0 -14 -6 -20 -17 -20s-17 6 -17 20v390c0 163 101 248 229 248zM318 27c116 0 203 104 203 224c0 135 -103 222 -215 222c-107 0 -193 -70 -194 -220
c1 -149 86 -226 206 -226z" />
    <glyph glyph-name="p.ss01" horiz-adv-x="608" 
d="M273 34c107 0 249 60 249 221c0 144 -109 218 -218 218c-114 0 -192 -79 -192 -213v-350c0 -14 -6 -20 -17 -20s-17 6 -17 20v358c0 147 94 238 226 238c131 0 252 -88 252 -250c0 -181 -153 -256 -283 -256c-14 0 -20 6 -20 17s6 17 20 17z" />
    <glyph glyph-name="thorn" unicode="&#xfe;" horiz-adv-x="616" 
d="M324 506c154 0 240 -113 240 -255c0 -140 -102 -257 -250 -257c-95 0 -170 49 -198 128h-4v-254c0 -14 -6 -20 -17 -20s-17 6 -17 20v814c0 14 6 20 17 20s17 -6 17 -20v-308h4c10 31 66 132 208 132zM323 27c120 0 206 105 206 222c0 127 -72 224 -209 224
c-131 0 -207 -91 -207 -232v-1c0 -131 89 -213 210 -213z" />
    <glyph glyph-name="thorn.ss01" horiz-adv-x="608" 
d="M324 506c154 0 232 -113 232 -256c0 -174 -136 -250 -287 -250c-14 0 -20 5 -20 16s6 17 20 17c127 0 252 62 252 217c0 127 -64 223 -201 223c-131 0 -208 -91 -208 -233v-330c0 -14 -6 -20 -17 -20s-17 6 -17 20v772c0 14 6 20 17 20s17 -6 17 -20v-308h4
c10 31 66 132 208 132z" />
    <glyph glyph-name="q" unicode="q" horiz-adv-x="608" 
d="M299 506c138 0 231 -75 231 -248v-390c0 -14 -6 -20 -17 -20s-17 6 -17 20v248h-4c-25 -70 -96 -122 -191 -122c-148 0 -249 117 -249 257c0 152 114 255 247 255zM301 27c111 0 194 77 195 227c-1 159 -79 219 -196 219c-112 0 -213 -87 -213 -222
c0 -120 85 -224 214 -224z" />
    <glyph glyph-name="q.ss01" horiz-adv-x="608" 
d="M343 34c14 0 20 -6 20 -17s-6 -17 -20 -17c-140 0 -291 75 -291 256c0 162 121 250 252 250c142 0 226 -81 226 -238v-358c0 -14 -6 -20 -17 -20s-17 6 -17 20v350c0 146 -68 213 -192 213c-109 0 -218 -74 -218 -218c0 -161 140 -221 257 -221z" />
    <glyph glyph-name="r" unicode="r" horiz-adv-x="390" 
d="M336 484c12 -6 14 -14 10 -23s-10 -15 -24 -8s-40 19 -70 19c-100 0 -140 -99 -140 -222v-230c0 -14 -6 -20 -17 -20s-17 6 -17 20v460c0 14 6 20 17 20s17 -6 17 -20v-80h4c6 30 38 106 137 106c39 0 67 -14 83 -22z" />
    <glyph glyph-name="racute" unicode="&#x155;" horiz-adv-x="390" 
d="M254 700c10 9 18 8 26 -1c7 -8 6 -16 -4 -25l-105 -87c-11 -9 -19 -8 -26 0c-8 9 -6 17 4 26zM336 484c12 -6 14 -14 10 -23s-10 -15 -24 -8s-40 19 -70 19c-100 0 -140 -99 -140 -222v-230c0 -14 -6 -20 -17 -20s-17 6 -17 20v460c0 14 6 20 17 20s17 -6 17 -20v-80h4
c6 30 38 106 137 106c39 0 67 -14 83 -22z" />
    <glyph glyph-name="rcaron" unicode="&#x159;" horiz-adv-x="390" 
d="M308 694c9 -7 8 -18 -4 -30l-74 -74c-5 -5 -10 -10 -19 -10s-14 5 -19 10l-74 74c-12 12 -13 23 -4 30c8 8 17 7 23 0l74 -78l74 78c6 7 15 8 23 0zM336 484c12 -6 14 -14 10 -23s-10 -15 -24 -8s-40 19 -70 19c-100 0 -140 -99 -140 -222v-230c0 -14 -6 -20 -17 -20
s-17 6 -17 20v460c0 14 6 20 17 20s17 -6 17 -20v-80h4c6 30 38 106 137 106c39 0 67 -14 83 -22z" />
    <glyph glyph-name="uni0157" unicode="&#x157;" horiz-adv-x="390" 
d="M336 484c12 -6 14 -14 10 -23s-10 -15 -24 -8s-40 19 -70 19c-100 0 -140 -99 -140 -222v-230c0 -14 -6 -20 -17 -20s-17 6 -17 20v460c0 14 6 20 17 20s17 -6 17 -20v-80h4c6 30 38 106 137 106c39 0 67 -14 83 -22zM124 -95l-45 -78c-4 -7 -7 -9 -12 -9
c-8 0 -11 6 -11 11c0 1 0 2 2 7l31 84c5 15 12 20 23 20c10 0 19 -6 19 -16c0 -8 -2 -11 -7 -19z" />
    <glyph glyph-name="s" unicode="s" horiz-adv-x="469" 
d="M110 378c0 -38 13 -66 145 -103c79 -22 160 -44 160 -137c0 -89 -76 -144 -174 -144c-86 0 -152 42 -181 78c-8 10 -7 19 1 26c9 7 18 6 24 -1c25 -29 78 -70 156 -70s139 40 139 111c0 60 -42 82 -166 114c-111 29 -139 75 -139 125c0 77 62 129 156 129
c68 0 125 -27 152 -57c8 -9 11 -17 3 -25c-9 -9 -18 -9 -27 -1c-35 32 -72 50 -126 50c-77 0 -123 -38 -123 -95z" />
    <glyph glyph-name="sacute" unicode="&#x15b;" horiz-adv-x="469" 
d="M272 700c10 9 18 8 26 -1c7 -8 6 -16 -4 -25l-105 -87c-11 -9 -19 -8 -26 0c-8 9 -6 17 4 26zM110 378c0 -38 13 -66 145 -103c79 -22 160 -44 160 -137c0 -89 -76 -144 -174 -144c-86 0 -152 42 -181 78c-8 10 -7 19 1 26c9 7 18 6 24 -1c25 -29 78 -70 156 -70
s139 40 139 111c0 60 -42 82 -166 114c-111 29 -139 75 -139 125c0 77 62 129 156 129c68 0 125 -27 152 -57c8 -9 11 -17 3 -25c-9 -9 -18 -9 -27 -1c-35 32 -72 50 -126 50c-77 0 -123 -38 -123 -95z" />
    <glyph glyph-name="scaron" unicode="&#x161;" horiz-adv-x="469" 
d="M326 694c9 -7 8 -18 -4 -30l-74 -74c-5 -5 -10 -10 -19 -10s-14 5 -19 10l-74 74c-12 12 -13 23 -4 30c8 8 17 7 23 0l74 -78l74 78c6 7 15 8 23 0zM110 378c0 -38 13 -66 145 -103c79 -22 160 -44 160 -137c0 -89 -76 -144 -174 -144c-86 0 -152 42 -181 78
c-8 10 -7 19 1 26c9 7 18 6 24 -1c25 -29 78 -70 156 -70s139 40 139 111c0 60 -42 82 -166 114c-111 29 -139 75 -139 125c0 77 62 129 156 129c68 0 125 -27 152 -57c8 -9 11 -17 3 -25c-9 -9 -18 -9 -27 -1c-35 32 -72 50 -126 50c-77 0 -123 -38 -123 -95z" />
    <glyph glyph-name="scedilla" unicode="&#x15f;" horiz-adv-x="469" 
d="M415 138c0 -88 -74 -143 -170 -144l-19 -33c33 -10 81 -27 81 -78c0 -37 -25 -67 -77 -67c-25 0 -49 7 -65 17c-10 6 -13 13 -8 22c4 7 11 9 19 5c12 -6 30 -14 52 -14c29 0 46 14 46 38c0 30 -31 46 -68 56c-9 2 -12 8 -7 20l14 36c-72 7 -127 44 -153 76
c-8 10 -7 19 1 26c9 7 18 6 24 -1c25 -29 78 -70 156 -70s139 40 139 111c0 60 -42 82 -166 114c-111 29 -139 75 -139 125c0 77 62 129 156 129c68 0 125 -27 152 -57c8 -9 11 -17 3 -25c-9 -9 -18 -9 -27 -1c-35 32 -72 50 -126 50c-77 0 -123 -38 -123 -95
c0 -38 13 -66 145 -103c79 -22 160 -44 160 -137z" />
    <glyph glyph-name="uni0219" unicode="&#x219;" horiz-adv-x="469" 
d="M110 378c0 -38 13 -66 145 -103c79 -22 160 -44 160 -137c0 -89 -76 -144 -174 -144c-86 0 -152 42 -181 78c-8 10 -7 19 1 26c9 7 18 6 24 -1c25 -29 78 -70 156 -70s139 40 139 111c0 60 -42 82 -166 114c-111 29 -139 75 -139 125c0 77 62 129 156 129
c68 0 125 -27 152 -57c8 -9 11 -17 3 -25c-9 -9 -18 -9 -27 -1c-35 32 -72 50 -126 50c-77 0 -123 -38 -123 -95zM242 -95l-45 -78c-4 -7 -7 -9 -12 -9c-8 0 -11 6 -11 11c0 1 0 2 2 7l31 84c5 15 12 20 23 20c10 0 19 -6 19 -16c0 -8 -2 -11 -7 -19z" />
    <glyph glyph-name="germandbls" unicode="&#xdf;" horiz-adv-x="530" 
d="M317 378c0 -96 165 -127 165 -250c0 -71 -59 -134 -142 -134c-37 0 -76 13 -95 21c-12 5 -15 12 -12 22c3 9 10 13 23 9c12 -4 52 -19 86 -19c61 0 105 49 105 102c0 101 -165 133 -165 250c0 95 109 111 109 179c0 41 -42 66 -110 66c-109 0 -169 -62 -169 -206v-398
c0 -14 -6 -20 -17 -20s-17 6 -17 20v408c0 156 76 229 206 229c87 0 142 -40 142 -100c0 -85 -109 -101 -109 -179z" />
    <glyph glyph-name="t" unicode="t" horiz-adv-x="398" 
d="M320 34c13 0 20 -6 20 -17s-7 -17 -20 -17h-18c-95 0 -160 61 -160 166v302h-80c-16 0 -20 8 -20 16s4 16 20 16h80v132c0 14 6 20 17 20s17 -6 17 -20v-132h140c16 0 20 -8 20 -16s-4 -16 -20 -16h-140v-284c0 -102 46 -150 126 -150h18z" />
    <glyph glyph-name="t.ss01" horiz-adv-x="353" 
d="M276 34c13 0 19 -6 19 -17s-6 -17 -19 -17h-48c-105 0 -150 51 -150 166v466c0 14 6 20 17 20s17 -6 17 -20v-448c0 -115 28 -150 116 -150h48zM189 466c-12 0 -17 6 -17 17s5 17 17 17h86c12 0 17 -6 17 -17s-5 -17 -17 -17h-86z" />
    <glyph glyph-name="tbar" unicode="&#x167;" horiz-adv-x="397" 
d="M319 34c13 0 20 -6 20 -17s-7 -17 -20 -17h-18c-95 0 -160 61 -160 166v120h-80c-13 0 -19 6 -19 16s6 16 19 16h80v150h-80c-13 0 -19 6 -19 16s6 16 19 16h80v132c0 14 6 20 17 20s17 -6 17 -20v-132h141c13 0 19 -6 19 -16s-6 -16 -19 -16h-141v-150h141
c13 0 19 -6 19 -16s-6 -16 -19 -16h-141v-102c0 -102 46 -150 126 -150h18z" />
    <glyph glyph-name="tbar.ss01" horiz-adv-x="353" 
d="M276 34c13 0 19 -6 19 -17s-6 -17 -19 -17h-48c-105 0 -150 51 -150 166v466c0 14 6 20 17 20s17 -6 17 -20v-448c0 -115 28 -150 116 -150h48zM189 466c-12 0 -17 6 -17 17s5 17 17 17h86c12 0 17 -6 17 -17s-5 -17 -17 -17h-86zM292 302c0 -10 -6 -16 -19 -16h-82
c-13 0 -19 6 -19 16s6 16 19 16h82c13 0 19 -6 19 -16z" />
    <glyph glyph-name="tcaron" unicode="&#x165;" horiz-adv-x="398" 
d="M333 740l-45 -152c-2 -6 -6 -9 -12 -9c-8 0 -14 5 -12 15l36 151c3 14 11 17 19 17c12 0 18 -10 14 -22zM320 34c13 0 20 -6 20 -17s-7 -17 -20 -17h-18c-95 0 -160 61 -160 166v302h-80c-16 0 -20 8 -20 16s4 16 20 16h80v132c0 14 6 20 17 20s17 -6 17 -20v-132h140
c16 0 20 -8 20 -16s-4 -16 -20 -16h-140v-284c0 -102 46 -150 126 -150h18z" />
    <glyph glyph-name="tcaron.ss01" horiz-adv-x="353" 
d="M288 740l-45 -152c-2 -6 -6 -9 -12 -9c-8 0 -14 5 -12 15l36 151c3 14 11 17 19 17c12 0 18 -10 14 -22zM276 34c13 0 19 -6 19 -17s-6 -17 -19 -17h-48c-105 0 -150 51 -150 166v466c0 14 6 20 17 20s17 -6 17 -20v-448c0 -115 28 -150 116 -150h48zM189 466
c-12 0 -17 6 -17 17s5 17 17 17h86c12 0 17 -6 17 -17s-5 -17 -17 -17h-86z" />
    <glyph glyph-name="uni0163" unicode="&#x163;" horiz-adv-x="398" 
d="M302 0c-10 0 -19 1 -28 2l-23 -41c33 -10 81 -27 81 -78c0 -37 -25 -67 -77 -67c-25 0 -49 7 -65 17c-10 6 -13 13 -8 22c4 7 11 9 19 5c12 -6 30 -14 52 -14c29 0 46 14 46 38c0 30 -31 46 -68 56c-9 2 -12 8 -7 20l19 49c-62 21 -101 76 -101 157v302h-80
c-16 0 -20 8 -20 16s4 16 20 16h80v132c0 14 6 20 17 20s17 -6 17 -20v-132h140c16 0 20 -8 20 -16s-4 -16 -20 -16h-140v-284c0 -102 46 -150 126 -150h18c13 0 20 -6 20 -17s-7 -17 -20 -17h-18z" />
    <glyph glyph-name="uni0163.ss01" horiz-adv-x="353" 
d="M276 34c13 0 19 -6 19 -17s-6 -17 -19 -17h-48c-9 0 -18 0 -26 1l-23 -40c33 -10 81 -27 81 -78c0 -37 -25 -67 -77 -67c-25 0 -49 7 -65 17c-10 6 -13 13 -8 22c4 7 11 9 19 5c12 -6 30 -14 52 -14c29 0 46 14 46 38c0 30 -31 46 -68 56c-9 2 -12 8 -7 20l18 47
c-64 17 -92 68 -92 159v466c0 14 6 20 17 20s17 -6 17 -20v-448c0 -115 28 -150 116 -150h48zM189 466c-12 0 -17 6 -17 17s5 17 17 17h86c12 0 17 -6 17 -17s-5 -17 -17 -17h-86z" />
    <glyph glyph-name="uni021B" unicode="&#x21b;" horiz-adv-x="398" 
d="M320 34c13 0 20 -6 20 -17s-7 -17 -20 -17h-18c-95 0 -160 61 -160 166v302h-80c-16 0 -20 8 -20 16s4 16 20 16h80v132c0 14 6 20 17 20s17 -6 17 -20v-132h140c16 0 20 -8 20 -16s-4 -16 -20 -16h-140v-284c0 -102 46 -150 126 -150h18zM267 -95l-45 -78
c-4 -7 -7 -9 -12 -9c-8 0 -11 6 -11 11c0 1 0 2 2 7l31 84c5 15 12 20 23 20c10 0 19 -6 19 -16c0 -8 -2 -11 -7 -19z" />
    <glyph glyph-name="uni021B.ss01" horiz-adv-x="353" 
d="M276 34c13 0 19 -6 19 -17s-6 -17 -19 -17h-48c-105 0 -150 51 -150 166v466c0 14 6 20 17 20s17 -6 17 -20v-448c0 -115 28 -150 116 -150h48zM189 466c-12 0 -17 6 -17 17s5 17 17 17h86c12 0 17 -6 17 -17s-5 -17 -17 -17h-86zM195 -95l-45 -78c-4 -7 -7 -9 -12 -9
c-8 0 -11 6 -11 11c0 1 0 2 2 7l31 84c5 15 12 20 23 20c10 0 19 -6 19 -16c0 -8 -2 -11 -7 -19z" />
    <glyph glyph-name="u" unicode="u" horiz-adv-x="573" 
d="M478 500c11 0 17 -6 17 -20v-460c0 -14 -6 -20 -17 -20s-17 6 -17 20v68h-4c-27 -50 -86 -94 -182 -94c-119 0 -197 67 -197 185v301c0 14 6 20 17 20s17 -6 17 -20v-286c0 -110 56 -167 163 -167c127 0 186 83 186 150v303c0 14 6 20 17 20z" />
    <glyph glyph-name="u.ss01" horiz-adv-x="574" 
d="M479 500c11 0 17 -6 17 -20v-281c0 -119 -84 -205 -209 -205s-209 86 -209 205v281c0 14 6 20 17 20s17 -6 17 -20v-273c0 -107 69 -180 175 -180s175 73 175 180v273c0 14 6 20 17 20z" />
    <glyph glyph-name="uacute" unicode="&#xfa;" horiz-adv-x="573" 
d="M344 700c10 9 18 8 26 -1c7 -8 6 -16 -4 -25l-105 -87c-11 -9 -19 -8 -26 0c-8 9 -6 17 4 26zM478 500c11 0 17 -6 17 -20v-460c0 -14 -6 -20 -17 -20s-17 6 -17 20v68h-4c-27 -50 -86 -94 -182 -94c-119 0 -197 67 -197 185v301c0 14 6 20 17 20s17 -6 17 -20v-286
c0 -110 56 -167 163 -167c127 0 186 83 186 150v303c0 14 6 20 17 20z" />
    <glyph glyph-name="uacute.ss01" horiz-adv-x="574" 
d="M330 700c10 9 18 8 26 -1c7 -8 6 -16 -4 -25l-105 -87c-11 -9 -19 -8 -26 0c-8 9 -6 17 4 26zM479 500c11 0 17 -6 17 -20v-281c0 -119 -84 -205 -209 -205s-209 86 -209 205v281c0 14 6 20 17 20s17 -6 17 -20v-273c0 -107 69 -180 175 -180s175 73 175 180v273
c0 14 6 20 17 20z" />
    <glyph glyph-name="ubreve" unicode="&#x16d;" horiz-adv-x="573" 
d="M405 684c10 -4 10 -12 6 -25c-16 -47 -49 -81 -110 -81c-64 0 -96 34 -110 81c-2 8 -7 19 6 25c15 6 20 1 25 -13c7 -20 21 -63 79 -63s72 43 79 63c4 12 10 19 25 13zM478 500c11 0 17 -6 17 -20v-460c0 -14 -6 -20 -17 -20s-17 6 -17 20v68h-4
c-27 -50 -86 -94 -182 -94c-119 0 -197 67 -197 185v301c0 14 6 20 17 20s17 -6 17 -20v-286c0 -110 56 -167 163 -167c127 0 186 83 186 150v303c0 14 6 20 17 20z" />
    <glyph glyph-name="ubreve.ss01" horiz-adv-x="574" 
d="M391 684c10 -4 10 -12 6 -25c-16 -47 -49 -81 -110 -81c-64 0 -96 34 -110 81c-2 8 -7 19 6 25c15 6 20 1 25 -13c7 -20 21 -63 79 -63s72 43 79 63c4 12 10 19 25 13zM479 500c11 0 17 -6 17 -20v-281c0 -119 -84 -205 -209 -205s-209 86 -209 205v281c0 14 6 20 17 20
s17 -6 17 -20v-273c0 -107 69 -180 175 -180s175 73 175 180v273c0 14 6 20 17 20z" />
    <glyph glyph-name="ucircumflex" unicode="&#xfb;" horiz-adv-x="573" 
d="M398 594c-8 -8 -17 -7 -23 0l-74 78l-74 -78c-6 -7 -15 -8 -23 0c-9 7 -8 18 4 30l74 74c5 5 10 10 19 10s14 -5 19 -10l74 -74c12 -12 13 -23 4 -30zM478 500c11 0 17 -6 17 -20v-460c0 -14 -6 -20 -17 -20s-17 6 -17 20v68h-4c-27 -50 -86 -94 -182 -94
c-119 0 -197 67 -197 185v301c0 14 6 20 17 20s17 -6 17 -20v-286c0 -110 56 -167 163 -167c127 0 186 83 186 150v303c0 14 6 20 17 20z" />
    <glyph glyph-name="ucircumflex.ss01" horiz-adv-x="574" 
d="M384 594c-8 -8 -17 -7 -23 0l-74 78l-74 -78c-6 -7 -15 -8 -23 0c-9 7 -8 18 4 30l74 74c5 5 10 10 19 10s14 -5 19 -10l74 -74c12 -12 13 -23 4 -30zM479 500c11 0 17 -6 17 -20v-281c0 -119 -84 -205 -209 -205s-209 86 -209 205v281c0 14 6 20 17 20s17 -6 17 -20
v-273c0 -107 69 -180 175 -180s175 73 175 180v273c0 14 6 20 17 20z" />
    <glyph glyph-name="udieresis" unicode="&#xfc;" horiz-adv-x="573" 
d="M245 584c-15 0 -25 11 -25 25s10 25 25 25s25 -11 25 -25s-10 -25 -25 -25zM365 584c-15 0 -25 11 -25 25s10 25 25 25s25 -11 25 -25s-10 -25 -25 -25zM478 500c11 0 17 -6 17 -20v-460c0 -14 -6 -20 -17 -20s-17 6 -17 20v68h-4c-27 -50 -86 -94 -182 -94
c-119 0 -197 67 -197 185v301c0 14 6 20 17 20s17 -6 17 -20v-286c0 -110 56 -167 163 -167c127 0 186 83 186 150v303c0 14 6 20 17 20z" />
    <glyph glyph-name="udieresis.ss01" horiz-adv-x="574" 
d="M231 584c-15 0 -25 11 -25 25s10 25 25 25s25 -11 25 -25s-10 -25 -25 -25zM351 584c-15 0 -25 11 -25 25s10 25 25 25s25 -11 25 -25s-10 -25 -25 -25zM479 500c11 0 17 -6 17 -20v-281c0 -119 -84 -205 -209 -205s-209 86 -209 205v281c0 14 6 20 17 20s17 -6 17 -20
v-273c0 -107 69 -180 175 -180s175 73 175 180v273c0 14 6 20 17 20z" />
    <glyph glyph-name="ugrave" unicode="&#xf9;" horiz-adv-x="573" 
d="M258 700l105 -87c10 -9 12 -17 4 -26c-7 -8 -15 -9 -26 0l-105 87c-10 9 -11 17 -4 25c8 9 16 10 26 1zM478 500c11 0 17 -6 17 -20v-460c0 -14 -6 -20 -17 -20s-17 6 -17 20v68h-4c-27 -50 -86 -94 -182 -94c-119 0 -197 67 -197 185v301c0 14 6 20 17 20s17 -6 17 -20
v-286c0 -110 56 -167 163 -167c127 0 186 83 186 150v303c0 14 6 20 17 20z" />
    <glyph glyph-name="ugrave.ss01" horiz-adv-x="574" 
d="M244 700l105 -87c10 -9 12 -17 4 -26c-7 -8 -15 -9 -26 0l-105 87c-10 9 -11 17 -4 25c8 9 16 10 26 1zM479 500c11 0 17 -6 17 -20v-281c0 -119 -84 -205 -209 -205s-209 86 -209 205v281c0 14 6 20 17 20s17 -6 17 -20v-273c0 -107 69 -180 175 -180s175 73 175 180
v273c0 14 6 20 17 20z" />
    <glyph glyph-name="uhungarumlaut" unicode="&#x171;" horiz-adv-x="573" 
d="M273 695c9 10 16 11 25 4s9 -15 1 -25l-71 -84c-9 -11 -17 -11 -25 -5c-10 8 -9 16 -1 26zM405 695c9 10 16 11 25 4s9 -15 1 -25l-71 -84c-9 -11 -17 -11 -25 -5c-10 8 -9 16 -1 26zM478 500c11 0 17 -6 17 -20v-460c0 -14 -6 -20 -17 -20s-17 6 -17 20v68h-4
c-27 -50 -86 -94 -182 -94c-119 0 -197 67 -197 185v301c0 14 6 20 17 20s17 -6 17 -20v-286c0 -110 56 -167 163 -167c127 0 186 83 186 150v303c0 14 6 20 17 20z" />
    <glyph glyph-name="uhungarumlaut.ss01" horiz-adv-x="574" 
d="M259 695c9 10 16 11 25 4s9 -15 1 -25l-71 -84c-9 -11 -17 -11 -25 -5c-10 8 -9 16 -1 26zM391 695c9 10 16 11 25 4s9 -15 1 -25l-71 -84c-9 -11 -17 -11 -25 -5c-10 8 -9 16 -1 26zM479 500c11 0 17 -6 17 -20v-281c0 -119 -84 -205 -209 -205s-209 86 -209 205v281
c0 14 6 20 17 20s17 -6 17 -20v-273c0 -107 69 -180 175 -180s175 73 175 180v273c0 14 6 20 17 20z" />
    <glyph glyph-name="umacron" unicode="&#x16b;" horiz-adv-x="573" 
d="M401 603c0 -10 -6 -16 -19 -16h-162c-13 0 -19 6 -19 16s6 16 19 16h162c13 0 19 -6 19 -16zM478 500c11 0 17 -6 17 -20v-460c0 -14 -6 -20 -17 -20s-17 6 -17 20v68h-4c-27 -50 -86 -94 -182 -94c-119 0 -197 67 -197 185v301c0 14 6 20 17 20s17 -6 17 -20v-286
c0 -110 56 -167 163 -167c127 0 186 83 186 150v303c0 14 6 20 17 20z" />
    <glyph glyph-name="umacron.ss01" horiz-adv-x="574" 
d="M387 603c0 -10 -6 -16 -19 -16h-162c-13 0 -19 6 -19 16s6 16 19 16h162c13 0 19 -6 19 -16zM479 500c11 0 17 -6 17 -20v-281c0 -119 -84 -205 -209 -205s-209 86 -209 205v281c0 14 6 20 17 20s17 -6 17 -20v-273c0 -107 69 -180 175 -180s175 73 175 180v273
c0 14 6 20 17 20z" />
    <glyph glyph-name="uogonek" unicode="&#x173;" horiz-adv-x="573" 
d="M526 -125c4 -10 1 -16 -12 -23c-14 -8 -37 -15 -62 -15c-42 0 -74 20 -84 54c-12 44 15 101 94 121c-1 2 -1 5 -1 8v68h-4c-27 -50 -86 -94 -182 -94c-119 0 -197 67 -197 185v301c0 14 6 20 17 20s17 -6 17 -20v-286c0 -110 56 -167 163 -167c127 0 186 83 186 150v303
c0 14 6 20 17 20s17 -6 17 -20v-460c0 -14 -6 -20 -17 -20c-66 -12 -85 -63 -74 -95c8 -25 32 -35 56 -35c16 0 33 8 42 13c12 6 21 0 24 -8z" />
    <glyph glyph-name="uogonek.ss01" horiz-adv-x="574" 
d="M479 500c11 0 17 -6 17 -20v-281c0 -99 -59 -176 -151 -198v-1c-66 -12 -85 -63 -74 -95c8 -25 32 -35 56 -35c16 0 33 8 42 13c12 6 21 0 24 -8c4 -10 1 -16 -12 -23c-14 -8 -37 -15 -62 -15c-42 0 -74 20 -84 54c-10 35 5 77 50 103c-124 1 -207 87 -207 205v281
c0 14 6 20 17 20s17 -6 17 -20v-273c0 -107 69 -180 175 -180s175 73 175 180v273c0 14 6 20 17 20z" />
    <glyph glyph-name="uring" unicode="&#x16f;" horiz-adv-x="573" 
d="M301 567c-48 0 -81 33 -81 81c0 47 33 80 81 80c47 0 80 -33 80 -80c0 -48 -33 -81 -80 -81zM301 597c31 0 50 19 50 51c0 31 -19 50 -50 50c-32 0 -51 -19 -51 -50c0 -32 19 -51 51 -51zM478 500c11 0 17 -6 17 -20v-460c0 -14 -6 -20 -17 -20s-17 6 -17 20v68h-4
c-27 -50 -86 -94 -182 -94c-119 0 -197 67 -197 185v301c0 14 6 20 17 20s17 -6 17 -20v-286c0 -110 56 -167 163 -167c127 0 186 83 186 150v303c0 14 6 20 17 20z" />
    <glyph glyph-name="uring.ss01" horiz-adv-x="574" 
d="M287 567c-48 0 -81 33 -81 81c0 47 33 80 81 80c47 0 80 -33 80 -80c0 -48 -33 -81 -80 -81zM287 597c31 0 50 19 50 51c0 31 -19 50 -50 50c-32 0 -51 -19 -51 -50c0 -32 19 -51 51 -51zM479 500c11 0 17 -6 17 -20v-281c0 -119 -84 -205 -209 -205s-209 86 -209 205
v281c0 14 6 20 17 20s17 -6 17 -20v-273c0 -107 69 -180 175 -180s175 73 175 180v273c0 14 6 20 17 20z" />
    <glyph glyph-name="utilde" unicode="&#x169;" horiz-adv-x="573" 
d="M398 629c10 -7 9 -19 3 -25c-31 -31 -73 -34 -102 -14c-43 29 -57 9 -71 -3c-6 -5 -15 -5 -21 -1c-10 7 -9 19 -3 25c31 31 73 34 101 15c47 -32 60 -7 72 2c7 5 15 5 21 1zM478 500c11 0 17 -6 17 -20v-460c0 -14 -6 -20 -17 -20s-17 6 -17 20v68h-4
c-27 -50 -86 -94 -182 -94c-119 0 -197 67 -197 185v301c0 14 6 20 17 20s17 -6 17 -20v-286c0 -110 56 -167 163 -167c127 0 186 83 186 150v303c0 14 6 20 17 20z" />
    <glyph glyph-name="utilde.ss01" horiz-adv-x="574" 
d="M384 629c10 -7 9 -19 3 -25c-31 -31 -73 -34 -102 -14c-43 29 -57 9 -71 -3c-6 -5 -15 -5 -21 -1c-10 7 -9 19 -3 25c31 31 73 34 101 15c47 -32 60 -7 72 2c7 5 15 5 21 1zM479 500c11 0 17 -6 17 -20v-281c0 -119 -84 -205 -209 -205s-209 86 -209 205v281
c0 14 6 20 17 20s17 -6 17 -20v-273c0 -107 69 -180 175 -180s175 73 175 180v273c0 14 6 20 17 20z" />
    <glyph glyph-name="v" unicode="v" horiz-adv-x="520" 
d="M469 498c9 -4 12 -12 6 -25l-197 -464c-4 -10 -11 -13 -18 -13s-14 3 -18 13l-197 465c-6 12 -3 20 6 24c12 5 21 2 25 -8l184 -443l184 443c5 10 13 13 25 8z" />
    <glyph glyph-name="w" unicode="w" horiz-adv-x="710" 
d="M657 499c10 -3 13 -12 9 -26l-142 -457c-5 -13 -13 -16 -23 -16s-18 3 -22 16l-124 395l-124 -395c-4 -13 -12 -16 -23 -16c-9 0 -17 3 -22 16l-142 457c-5 14 -1 23 9 26c13 4 21 -2 24 -12l131 -440l123 399c5 16 12 21 24 21s19 -5 24 -21l123 -399l131 440
c3 10 11 16 24 12z" />
    <glyph glyph-name="w.ss01" horiz-adv-x="802" 
d="M554 0c-75 0 -140 49 -153 109c-13 -60 -78 -109 -153 -109c-90 0 -170 55 -170 173v307c0 14 6 20 17 20s17 -6 17 -20v-299c0 -111 70 -148 136 -148s136 37 136 148v299c0 14 6 20 17 20s17 -6 17 -20v-299c0 -111 70 -148 136 -148s136 37 136 148v299
c0 14 6 20 17 20s17 -6 17 -20v-307c0 -118 -80 -173 -170 -173z" />
    <glyph glyph-name="wacute" unicode="&#x1e83;" horiz-adv-x="710" 
d="M398 700c10 9 18 8 26 -1c7 -8 6 -16 -4 -25l-105 -87c-11 -9 -19 -8 -26 0c-8 9 -6 17 4 26zM657 499c10 -3 13 -12 9 -26l-142 -457c-5 -13 -13 -16 -23 -16s-18 3 -22 16l-124 395l-124 -395c-4 -13 -12 -16 -23 -16c-9 0 -17 3 -22 16l-142 457c-5 14 -1 23 9 26
c13 4 21 -2 24 -12l131 -440l123 399c5 16 12 21 24 21s19 -5 24 -21l123 -399l131 440c3 10 11 16 24 12z" />
    <glyph glyph-name="wacute.ss01" horiz-adv-x="802" 
d="M444 700c10 9 18 8 26 -1c7 -8 6 -16 -4 -25l-105 -87c-11 -9 -19 -8 -26 0c-8 9 -6 17 4 26zM554 0c-75 0 -140 49 -153 109c-13 -60 -78 -109 -153 -109c-90 0 -170 55 -170 173v307c0 14 6 20 17 20s17 -6 17 -20v-299c0 -111 70 -148 136 -148s136 37 136 148v299
c0 14 6 20 17 20s17 -6 17 -20v-299c0 -111 70 -148 136 -148s136 37 136 148v299c0 14 6 20 17 20s17 -6 17 -20v-307c0 -118 -80 -173 -170 -173z" />
    <glyph glyph-name="wcircumflex" unicode="&#x175;" horiz-adv-x="710" 
d="M452 594c-8 -8 -17 -7 -23 0l-74 78l-74 -78c-6 -7 -15 -8 -23 0c-9 7 -8 18 4 30l74 74c5 5 10 10 19 10s14 -5 19 -10l74 -74c12 -12 13 -23 4 -30zM657 499c10 -3 13 -12 9 -26l-142 -457c-5 -13 -13 -16 -23 -16s-18 3 -22 16l-124 395l-124 -395
c-4 -13 -12 -16 -23 -16c-9 0 -17 3 -22 16l-142 457c-5 14 -1 23 9 26c13 4 21 -2 24 -12l131 -440l123 399c5 16 12 21 24 21s19 -5 24 -21l123 -399l131 440c3 10 11 16 24 12z" />
    <glyph glyph-name="wcircumflex.ss01" horiz-adv-x="802" 
d="M498 594c-8 -8 -17 -7 -23 0l-74 78l-74 -78c-6 -7 -15 -8 -23 0c-9 7 -8 18 4 30l74 74c5 5 10 10 19 10s14 -5 19 -10l74 -74c12 -12 13 -23 4 -30zM554 0c-75 0 -140 49 -153 109c-13 -60 -78 -109 -153 -109c-90 0 -170 55 -170 173v307c0 14 6 20 17 20
s17 -6 17 -20v-299c0 -111 70 -148 136 -148s136 37 136 148v299c0 14 6 20 17 20s17 -6 17 -20v-299c0 -111 70 -148 136 -148s136 37 136 148v299c0 14 6 20 17 20s17 -6 17 -20v-307c0 -118 -80 -173 -170 -173z" />
    <glyph glyph-name="wdieresis" unicode="&#x1e85;" horiz-adv-x="710" 
d="M299 584c-15 0 -25 11 -25 25s10 25 25 25s25 -11 25 -25s-10 -25 -25 -25zM419 584c-15 0 -25 11 -25 25s10 25 25 25s25 -11 25 -25s-10 -25 -25 -25zM657 499c10 -3 13 -12 9 -26l-142 -457c-5 -13 -13 -16 -23 -16s-18 3 -22 16l-124 395l-124 -395
c-4 -13 -12 -16 -23 -16c-9 0 -17 3 -22 16l-142 457c-5 14 -1 23 9 26c13 4 21 -2 24 -12l131 -440l123 399c5 16 12 21 24 21s19 -5 24 -21l123 -399l131 440c3 10 11 16 24 12z" />
    <glyph glyph-name="wdieresis.ss01" horiz-adv-x="802" 
d="M345 584c-15 0 -25 11 -25 25s10 25 25 25s25 -11 25 -25s-10 -25 -25 -25zM465 584c-15 0 -25 11 -25 25s10 25 25 25s25 -11 25 -25s-10 -25 -25 -25zM554 0c-75 0 -140 49 -153 109c-13 -60 -78 -109 -153 -109c-90 0 -170 55 -170 173v307c0 14 6 20 17 20
s17 -6 17 -20v-299c0 -111 70 -148 136 -148s136 37 136 148v299c0 14 6 20 17 20s17 -6 17 -20v-299c0 -111 70 -148 136 -148s136 37 136 148v299c0 14 6 20 17 20s17 -6 17 -20v-307c0 -118 -80 -173 -170 -173z" />
    <glyph glyph-name="wgrave" unicode="&#x1e81;" horiz-adv-x="710" 
d="M312 700l105 -87c10 -9 12 -17 4 -26c-7 -8 -15 -9 -26 0l-105 87c-10 9 -11 17 -4 25c8 9 16 10 26 1zM657 499c10 -3 13 -12 9 -26l-142 -457c-5 -13 -13 -16 -23 -16s-18 3 -22 16l-124 395l-124 -395c-4 -13 -12 -16 -23 -16c-9 0 -17 3 -22 16l-142 457
c-5 14 -1 23 9 26c13 4 21 -2 24 -12l131 -440l123 399c5 16 12 21 24 21s19 -5 24 -21l123 -399l131 440c3 10 11 16 24 12z" />
    <glyph glyph-name="wgrave.ss01" horiz-adv-x="802" 
d="M358 700l105 -87c10 -9 12 -17 4 -26c-7 -8 -15 -9 -26 0l-105 87c-10 9 -11 17 -4 25c8 9 16 10 26 1zM554 0c-75 0 -140 49 -153 109c-13 -60 -78 -109 -153 -109c-90 0 -170 55 -170 173v307c0 14 6 20 17 20s17 -6 17 -20v-299c0 -111 70 -148 136 -148
s136 37 136 148v299c0 14 6 20 17 20s17 -6 17 -20v-299c0 -111 70 -148 136 -148s136 37 136 148v299c0 14 6 20 17 20s17 -6 17 -20v-307c0 -118 -80 -173 -170 -173z" />
    <glyph glyph-name="x" unicode="x" horiz-adv-x="524" 
d="M464 27c7 -8 5 -19 -6 -25c-8 -5 -17 -2 -27 11l-169 217l-169 -216c-11 -14 -19 -17 -28 -11c-9 7 -12 16 -5 25l182 228l-174 218c-6 7 -2 17 6 23c9 6 17 4 27 -9l161 -206l161 207c9 11 18 14 27 9c10 -6 12 -16 6 -23l-174 -219z" />
    <glyph glyph-name="x.ss01" horiz-adv-x="570" 
d="M500 35c14 -5 16 -12 13 -22c-3 -11 -9 -15 -22 -11c-89 27 -179 112 -206 178c-27 -66 -114 -151 -207 -179c-13 -3 -18 2 -21 12s-1 16 13 21c110 35 197 133 197 216s-87 182 -197 217c-14 5 -16 11 -13 21s8 15 21 12c95 -22 180 -114 207 -180
c27 66 117 152 206 179c13 4 19 0 22 -11c3 -10 1 -18 -13 -22c-109 -34 -198 -133 -198 -216c0 -84 89 -181 198 -215z" />
    <glyph glyph-name="x.ss02" horiz-adv-x="573" 
d="M498 32c14 0 19 -5 19 -16s-5 -16 -19 -16c-104 0 -180 88 -210 180c-30 -92 -109 -180 -213 -180c-14 0 -19 5 -19 16s5 16 19 16c119 0 195 139 195 218s-76 218 -195 218c-14 0 -19 5 -19 16s5 16 19 16c104 0 183 -88 213 -180c30 92 106 180 210 180
c14 0 19 -5 19 -16s-5 -16 -19 -16c-119 0 -193 -139 -193 -218s74 -218 193 -218z" />
    <glyph glyph-name="y" unicode="y" horiz-adv-x="584" 
d="M489 500c11 0 17 -6 17 -20v-429c0 -125 -107 -203 -237 -203c-52 0 -109 12 -150 35c-9 5 -12 14 -7 24s14 14 23 9c40 -22 82 -35 131 -35c106 0 206 60 206 178v47h-4c-16 -25 -80 -83 -181 -83c-122 0 -209 74 -209 231v226c0 14 6 20 17 20s17 -6 17 -20v-218
c0 -149 74 -207 184 -206c107 1 176 68 176 151v273c0 14 6 20 17 20z" />
    <glyph glyph-name="y.ss01" horiz-adv-x="584" 
d="M489 500c11 0 17 -6 17 -20v-439c0 -88 -57 -154 -138 -180c-15 -5 -22 0 -25 9c-3 10 0 17 14 22c64 21 115 72 115 157v57h-4c-16 -25 -80 -83 -181 -83c-122 0 -209 84 -209 231v226c0 14 6 20 17 20s17 -6 17 -20v-218c0 -139 74 -207 184 -206c107 1 176 68 176 151
v273c0 14 6 20 17 20z" />
    <glyph glyph-name="y.ss02" horiz-adv-x="558" 
d="M463 500c11 0 17 -6 17 -20v-193c0 -159 -87 -230 -201 -230s-201 71 -201 230v193c0 14 6 20 17 20s17 -6 17 -20v-185c0 -149 74 -205 167 -205s167 56 167 205v185c0 14 6 20 17 20zM279 0c11 0 17 -6 17 -20v-112c0 -14 -6 -20 -17 -20s-17 6 -17 20v112
c0 14 6 20 17 20z" />
    <glyph glyph-name="yacute" unicode="&#xfd;" horiz-adv-x="584" 
d="M335 700c10 9 18 8 26 -1c7 -8 6 -16 -4 -25l-105 -87c-11 -9 -19 -8 -26 0c-8 9 -6 17 4 26zM489 500c11 0 17 -6 17 -20v-429c0 -125 -107 -203 -237 -203c-52 0 -109 12 -150 35c-9 5 -12 14 -7 24s14 14 23 9c40 -22 82 -35 131 -35c106 0 206 60 206 178v47h-4
c-16 -25 -80 -83 -181 -83c-122 0 -209 74 -209 231v226c0 14 6 20 17 20s17 -6 17 -20v-218c0 -149 74 -207 184 -206c107 1 176 68 176 151v273c0 14 6 20 17 20z" />
    <glyph glyph-name="yacute.ss01" horiz-adv-x="584" 
d="M334 700c10 9 18 8 26 -1c7 -8 6 -16 -4 -25l-105 -87c-11 -9 -19 -8 -26 0c-8 9 -6 17 4 26zM489 500c11 0 17 -6 17 -20v-439c0 -88 -57 -154 -138 -180c-15 -5 -22 0 -25 9c-3 10 0 17 14 22c64 21 115 72 115 157v57h-4c-16 -25 -80 -83 -181 -83
c-122 0 -209 84 -209 231v226c0 14 6 20 17 20s17 -6 17 -20v-218c0 -139 74 -207 184 -206c107 1 176 68 176 151v273c0 14 6 20 17 20z" />
    <glyph glyph-name="yacute.ss02" horiz-adv-x="558" 
d="M322 700c10 9 18 8 26 -1c7 -8 6 -16 -4 -25l-105 -87c-11 -9 -19 -8 -26 0c-8 9 -6 17 4 26zM463 500c11 0 17 -6 17 -20v-193c0 -159 -87 -230 -201 -230s-201 71 -201 230v193c0 14 6 20 17 20s17 -6 17 -20v-185c0 -149 74 -205 167 -205s167 56 167 205v185
c0 14 6 20 17 20zM279 0c11 0 17 -6 17 -20v-112c0 -14 -6 -20 -17 -20s-17 6 -17 20v112c0 14 6 20 17 20z" />
    <glyph glyph-name="ycircumflex" unicode="&#x177;" horiz-adv-x="584" 
d="M389 594c-8 -8 -17 -7 -23 0l-74 78l-74 -78c-6 -7 -15 -8 -23 0c-9 7 -8 18 4 30l74 74c5 5 10 10 19 10s14 -5 19 -10l74 -74c12 -12 13 -23 4 -30zM489 500c11 0 17 -6 17 -20v-429c0 -125 -107 -203 -237 -203c-52 0 -109 12 -150 35c-9 5 -12 14 -7 24s14 14 23 9
c40 -22 82 -35 131 -35c106 0 206 60 206 178v47h-4c-16 -25 -80 -83 -181 -83c-122 0 -209 74 -209 231v226c0 14 6 20 17 20s17 -6 17 -20v-218c0 -149 74 -207 184 -206c107 1 176 68 176 151v273c0 14 6 20 17 20z" />
    <glyph glyph-name="ycircumflex.ss01" horiz-adv-x="584" 
d="M388 594c-8 -8 -17 -7 -23 0l-74 78l-74 -78c-6 -7 -15 -8 -23 0c-9 7 -8 18 4 30l74 74c5 5 10 10 19 10s14 -5 19 -10l74 -74c12 -12 13 -23 4 -30zM489 500c11 0 17 -6 17 -20v-439c0 -88 -57 -154 -138 -180c-15 -5 -22 0 -25 9c-3 10 0 17 14 22
c64 21 115 72 115 157v57h-4c-16 -25 -80 -83 -181 -83c-122 0 -209 84 -209 231v226c0 14 6 20 17 20s17 -6 17 -20v-218c0 -139 74 -207 184 -206c107 1 176 68 176 151v273c0 14 6 20 17 20z" />
    <glyph glyph-name="ycircumflex.ss02" horiz-adv-x="558" 
d="M376 594c-8 -8 -17 -7 -23 0l-74 78l-74 -78c-6 -7 -15 -8 -23 0c-9 7 -8 18 4 30l74 74c5 5 10 10 19 10s14 -5 19 -10l74 -74c12 -12 13 -23 4 -30zM463 500c11 0 17 -6 17 -20v-193c0 -159 -87 -230 -201 -230s-201 71 -201 230v193c0 14 6 20 17 20s17 -6 17 -20
v-185c0 -149 74 -205 167 -205s167 56 167 205v185c0 14 6 20 17 20zM279 0c11 0 17 -6 17 -20v-112c0 -14 -6 -20 -17 -20s-17 6 -17 20v112c0 14 6 20 17 20z" />
    <glyph glyph-name="ydieresis" unicode="&#xff;" horiz-adv-x="584" 
d="M236 584c-15 0 -25 11 -25 25s10 25 25 25s25 -11 25 -25s-10 -25 -25 -25zM356 584c-15 0 -25 11 -25 25s10 25 25 25s25 -11 25 -25s-10 -25 -25 -25zM489 500c11 0 17 -6 17 -20v-429c0 -125 -107 -203 -237 -203c-52 0 -109 12 -150 35c-9 5 -12 14 -7 24s14 14 23 9
c40 -22 82 -35 131 -35c106 0 206 60 206 178v47h-4c-16 -25 -80 -83 -181 -83c-122 0 -209 74 -209 231v226c0 14 6 20 17 20s17 -6 17 -20v-218c0 -149 74 -207 184 -206c107 1 176 68 176 151v273c0 14 6 20 17 20z" />
    <glyph glyph-name="ydieresis.ss01" horiz-adv-x="584" 
d="M235 584c-15 0 -25 11 -25 25s10 25 25 25s25 -11 25 -25s-10 -25 -25 -25zM355 584c-15 0 -25 11 -25 25s10 25 25 25s25 -11 25 -25s-10 -25 -25 -25zM489 500c11 0 17 -6 17 -20v-439c0 -88 -57 -154 -138 -180c-15 -5 -22 0 -25 9c-3 10 0 17 14 22
c64 21 115 72 115 157v57h-4c-16 -25 -80 -83 -181 -83c-122 0 -209 84 -209 231v226c0 14 6 20 17 20s17 -6 17 -20v-218c0 -139 74 -207 184 -206c107 1 176 68 176 151v273c0 14 6 20 17 20z" />
    <glyph glyph-name="ydieresis.ss02" horiz-adv-x="558" 
d="M223 584c-15 0 -25 11 -25 25s10 25 25 25s25 -11 25 -25s-10 -25 -25 -25zM343 584c-15 0 -25 11 -25 25s10 25 25 25s25 -11 25 -25s-10 -25 -25 -25zM463 500c11 0 17 -6 17 -20v-193c0 -159 -87 -230 -201 -230s-201 71 -201 230v193c0 14 6 20 17 20s17 -6 17 -20
v-185c0 -149 74 -205 167 -205s167 56 167 205v185c0 14 6 20 17 20zM279 0c11 0 17 -6 17 -20v-112c0 -14 -6 -20 -17 -20s-17 6 -17 20v112c0 14 6 20 17 20z" />
    <glyph glyph-name="ygrave" unicode="&#x1ef3;" horiz-adv-x="584" 
d="M249 700l105 -87c10 -9 12 -17 4 -26c-7 -8 -15 -9 -26 0l-105 87c-10 9 -11 17 -4 25c8 9 16 10 26 1zM489 500c11 0 17 -6 17 -20v-429c0 -125 -107 -203 -237 -203c-52 0 -109 12 -150 35c-9 5 -12 14 -7 24s14 14 23 9c40 -22 82 -35 131 -35c106 0 206 60 206 178
v47h-4c-16 -25 -80 -83 -181 -83c-122 0 -209 74 -209 231v226c0 14 6 20 17 20s17 -6 17 -20v-218c0 -149 74 -207 184 -206c107 1 176 68 176 151v273c0 14 6 20 17 20z" />
    <glyph glyph-name="ygrave.ss01" horiz-adv-x="584" 
d="M248 700l105 -87c10 -9 12 -17 4 -26c-7 -8 -15 -9 -26 0l-105 87c-10 9 -11 17 -4 25c8 9 16 10 26 1zM489 500c11 0 17 -6 17 -20v-439c0 -88 -57 -154 -138 -180c-15 -5 -22 0 -25 9c-3 10 0 17 14 22c64 21 115 72 115 157v57h-4c-16 -25 -80 -83 -181 -83
c-122 0 -209 84 -209 231v226c0 14 6 20 17 20s17 -6 17 -20v-218c0 -139 74 -207 184 -206c107 1 176 68 176 151v273c0 14 6 20 17 20z" />
    <glyph glyph-name="ygrave.ss02" horiz-adv-x="558" 
d="M236 700l105 -87c10 -9 12 -17 4 -26c-7 -8 -15 -9 -26 0l-105 87c-10 9 -11 17 -4 25c8 9 16 10 26 1zM463 500c11 0 17 -6 17 -20v-193c0 -159 -87 -230 -201 -230s-201 71 -201 230v193c0 14 6 20 17 20s17 -6 17 -20v-185c0 -149 74 -205 167 -205s167 56 167 205
v185c0 14 6 20 17 20zM279 0c11 0 17 -6 17 -20v-112c0 -14 -6 -20 -17 -20s-17 6 -17 20v112c0 14 6 20 17 20z" />
    <glyph glyph-name="z" unicode="z" horiz-adv-x="479" 
d="M407 32c13 0 18 -6 18 -16s-5 -16 -18 -16h-333c-16 0 -20 8 -20 16c0 6 2 10 10 21l303 431h-281c-13 0 -18 6 -18 16s5 16 18 16h307c9 0 17 -3 20 -12c2 -6 2 -10 -3 -17l-309 -439h306z" />
    <glyph glyph-name="zacute" unicode="&#x17a;" horiz-adv-x="479" 
d="M285 700c10 9 18 8 26 -1c7 -8 6 -16 -4 -25l-105 -87c-11 -9 -19 -8 -26 0c-8 9 -6 17 4 26zM407 32c13 0 18 -6 18 -16s-5 -16 -18 -16h-333c-16 0 -20 8 -20 16c0 6 2 10 10 21l303 431h-281c-13 0 -18 6 -18 16s5 16 18 16h307c9 0 17 -3 20 -12c2 -6 2 -10 -3 -17
l-309 -439h306z" />
    <glyph glyph-name="zcaron" unicode="&#x17e;" horiz-adv-x="479" 
d="M339 694c9 -7 8 -18 -4 -30l-74 -74c-5 -5 -10 -10 -19 -10s-14 5 -19 10l-74 74c-12 12 -13 23 -4 30c8 8 17 7 23 0l74 -78l74 78c6 7 15 8 23 0zM407 32c13 0 18 -6 18 -16s-5 -16 -18 -16h-333c-16 0 -20 8 -20 16c0 6 2 10 10 21l303 431h-281c-13 0 -18 6 -18 16
s5 16 18 16h307c9 0 17 -3 20 -12c2 -6 2 -10 -3 -17l-309 -439h306z" />
    <glyph glyph-name="zdotaccent" unicode="&#x17c;" horiz-adv-x="479" 
d="M242 577c-20 0 -33 14 -33 33s13 33 33 33s33 -14 33 -33s-13 -33 -33 -33zM407 32c13 0 18 -6 18 -16s-5 -16 -18 -16h-333c-16 0 -20 8 -20 16c0 6 2 10 10 21l303 431h-281c-13 0 -18 6 -18 16s5 16 18 16h307c9 0 17 -3 20 -12c2 -6 2 -10 -3 -17l-309 -439h306z" />
    <glyph glyph-name="ordfeminine" unicode="&#xaa;" horiz-adv-x="394" 
d="M222 437c12 0 19 -6 19 -17s-7 -16 -19 -16c-108 0 -182 49 -182 147c0 100 63 157 159 157c98 0 155 -44 155 -138v-147c0 -14 -5 -19 -16 -19s-18 5 -18 19v133c0 90 -41 119 -121 119c-82 0 -124 -50 -124 -124c0 -69 48 -114 147 -114z" />
    <glyph glyph-name="ordmasculine" unicode="&#xba;" horiz-adv-x="390" 
d="M195 400c-79 0 -155 51 -155 154c0 104 76 154 155 154c80 0 155 -50 155 -154c0 -103 -75 -154 -155 -154zM195 433c64 0 120 42 120 121s-56 121 -120 121s-120 -42 -120 -121s56 -121 120 -121z" />
    <glyph glyph-name="zero" unicode="0" horiz-adv-x="640" 
d="M320 658c141 0 258 -125 258 -332s-117 -331 -258 -332s-258 125 -258 332s117 332 258 332zM320 626c-125 0 -222 -110 -222 -300s97 -300 222 -299s222 109 222 299s-97 300 -222 300z" />
    <glyph glyph-name="one" unicode="1" horiz-adv-x="299" 
d="M170 652c17 0 29 -9 29 -32v-600c0 -14 -5 -20 -17 -20s-17 6 -17 20v574c0 10 -11 13 -18 5l-81 -87c-8 -9 -18 -9 -25 -2c-8 8 -8 18 1 27l90 94c10 10 19 21 38 21z" />
    <glyph glyph-name="two" unicode="2" horiz-adv-x="571" 
d="M487 34c12 0 18 -6 18 -17s-6 -17 -18 -17h-381c-6 0 -13 3 -17 11c-3 6 -4 16 4 22l268 225c67 58 113 107 113 188c0 108 -78 178 -183 178c-110 0 -194 -78 -194 -181c0 -45 13 -83 44 -118c8 -9 8 -18 2 -24s-14 -9 -25 0c-31 26 -56 79 -56 139
c0 118 93 218 228 218c128 0 219 -91 219 -214c0 -89 -50 -142 -134 -217l-228 -193h340z" />
    <glyph glyph-name="three" unicode="3" horiz-adv-x="525" 
d="M321 346c68 -12 142 -65 142 -168c0 -115 -91 -184 -208 -184c-103 0 -177 53 -206 90c-7 9 -6 18 1 25s17 7 24 0c31 -32 87 -82 179 -82c95 0 175 54 175 152c0 102 -86 144 -180 144h-17c-12 0 -18 8 -18 17s6 17 18 17h11c79 0 163 57 163 139s-77 129 -156 129
c-99 0 -144 -75 -156 -96c-4 -7 -13 -9 -21 -4c-9 5 -9 16 -3 26c23 43 80 107 181 107c114 0 190 -74 190 -161c0 -81 -71 -140 -119 -151z" />
    <glyph glyph-name="four" unicode="4" horiz-adv-x="539" 
d="M483 224c12 0 18 -5 18 -16s-6 -16 -18 -16h-81c-41 0 -62 -20 -62 -70v-104c0 -12 -6 -18 -17 -18s-17 6 -17 18v104c0 50 -21 70 -62 70h-189c-12 0 -17 8 -17 17c0 5 1 8 8 20l249 412c8 13 17 14 25 9s11 -14 5 -24l-245 -402h164c19 0 47 0 62 -34v148
c0 12 6 18 17 18s17 -6 17 -18v-148c15 34 43 34 62 34h81z" />
    <glyph glyph-name="five" unicode="5" horiz-adv-x="549" 
d="M275 436c120 0 212 -81 212 -213c0 -141 -104 -229 -225 -229c-96 0 -167 54 -195 96c-8 12 -5 18 2 24s18 9 27 -2c31 -39 86 -85 165 -85c95 0 191 68 191 196c0 117 -81 180 -181 180c-92 0 -134 -60 -146 -79c-7 -11 -23 -13 -32 -7c-8 5 -11 9 -8 29l43 288
c2 11 9 18 21 18h272c11 0 17 -6 17 -16s-6 -16 -17 -16h-262l-42 -266c13 20 57 82 158 82z" />
    <glyph glyph-name="six" unicode="6" horiz-adv-x="595" 
d="M265 337c-9 -7 -18 -10 -26 0c-7 8 -4 18 6 27c19 17 62 41 121 41c106 0 175 -87 175 -198c0 -119 -90 -213 -229 -213c-163 0 -250 127 -250 296c0 242 219 354 299 367c12 2 18 -2 20 -12s-3 -17 -17 -21c-157 -44 -267 -174 -267 -337c0 -148 74 -260 216 -260
c120 0 193 82 193 183c0 92 -58 162 -140 162c-45 0 -78 -17 -101 -35z" />
    <glyph glyph-name="seven" unicode="7" horiz-adv-x="437" 
d="M405 640c1 -4 0 -9 -2 -13l-276 -615c-6 -11 -13 -15 -25 -9c-8 4 -10 14 -4 25l266 592h-313c-13 0 -19 6 -19 16s6 16 19 16h335c12 0 17 -4 19 -12z" />
    <glyph glyph-name="eight" unicode="8" horiz-adv-x="552" 
d="M361 359c86 -26 137 -93 137 -175c0 -107 -87 -190 -222 -190s-222 83 -222 190c0 82 51 149 137 175c-65 27 -100 84 -100 141c0 80 68 158 185 158s185 -78 185 -158c0 -57 -35 -114 -100 -141zM126 502c0 -56 41 -129 150 -129s150 73 150 129c0 68 -62 123 -150 123
s-150 -55 -150 -123zM275 27c108 0 188 63 188 157c0 79 -66 157 -187 157c-122 0 -187 -80 -187 -157c0 -91 77 -157 186 -157z" />
    <glyph glyph-name="nine" unicode="9" horiz-adv-x="595" 
d="M337 320c9 7 18 10 26 0c7 -8 4 -18 -6 -27c-19 -17 -62 -41 -121 -41c-112 0 -182 82 -182 193c0 119 86 213 229 213c163 0 250 -120 250 -289c0 -248 -228 -362 -308 -375c-12 -2 -18 2 -20 13c-2 10 3 17 17 21c157 45 276 175 276 344c0 148 -74 253 -216 253
c-124 0 -193 -82 -193 -183c0 -92 59 -157 147 -157c45 0 78 17 101 35z" />
    <glyph glyph-name="uni00B9" unicode="&#xb9;" horiz-adv-x="223" 
d="M115 707c23 0 34 -13 34 -38v-251c0 -13 -6 -19 -17 -19s-17 6 -17 19v252c0 6 -4 7 -9 1l-26 -29c-5 -6 -14 -10 -22 -2c-7 7 -8 15 -1 24l31 33c8 8 16 10 27 10z" />
    <glyph glyph-name="uni00B2" unicode="&#xb2;" horiz-adv-x="342" 
d="M260 434c12 0 18 -5 18 -16s-6 -16 -18 -16h-174c-7 0 -11 2 -13 8c-1 4 0 8 5 13l130 124c25 23 32 41 32 62c0 45 -30 69 -72 69c-43 0 -68 -29 -68 -59c0 -21 6 -32 11 -41s0 -18 -5 -21c-8 -5 -17 -6 -25 5c-8 12 -14 32 -14 54c0 41 35 92 105 92
c62 0 100 -44 100 -97c0 -32 -9 -51 -44 -85l-98 -92h130z" />
    <glyph glyph-name="uni00B3" unicode="&#xb3;" horiz-adv-x="330" 
d="M203 570c41 -9 67 -38 67 -80c0 -46 -35 -92 -110 -92c-48 0 -78 17 -93 32c-7 7 -10 15 -2 24c6 7 14 9 22 2c18 -15 38 -28 69 -28c51 0 82 29 82 63c0 37 -37 58 -73 58h-13c-12 0 -18 6 -18 15s6 15 18 15h19c27 0 51 23 51 54c0 27 -25 45 -64 45
c-34 0 -47 -13 -64 -32c-4 -5 -11 -9 -20 -3c-7 5 -8 12 -4 19c19 30 53 46 92 46c54 0 90 -32 90 -75c0 -31 -17 -55 -49 -63z" />
    <glyph glyph-name="uni2074" unicode="&#x2074;" horiz-adv-x="307" 
d="M246 512c10 0 17 -7 17 -17s-7 -15 -17 -15c-25 0 -44 0 -44 -21v-39c0 -14 -5 -20 -17 -20s-17 6 -17 20v39c0 17 -13 21 -23 21h-90c-11 0 -17 8 -17 17c0 3 0 5 4 11l117 189c6 10 14 13 25 5c7 -5 9 -14 3 -23l-107 -167h60c12 0 22 -4 29 -14v53c0 10 6 16 16 16
s16 -6 16 -16v-53c5 10 17 14 45 14z" />
    <glyph glyph-name="fraction" unicode="&#x2044;" horiz-adv-x="544" 
d="M451 705c10 -6 9 -14 2 -27l-346 -677c-4 -7 -15 -10 -24 -4c-8 6 -10 13 -2 27l348 677c4 8 13 9 22 4z" />
    <glyph glyph-name="onehalf" unicode="&#xbd;" horiz-adv-x="626" 
d="M471 705c10 -6 9 -14 2 -27l-346 -677c-4 -7 -15 -10 -24 -4c-8 6 -10 13 -2 27l348 677c4 8 13 9 22 4zM127 707c23 0 34 -13 34 -38v-251c0 -13 -6 -19 -17 -19s-17 6 -17 19v252c0 6 -4 7 -9 1l-26 -29c-5 -6 -14 -10 -22 -2c-7 7 -8 15 -1 24l31 33c8 8 16 10 27 10z
M547 32c12 0 18 -5 18 -16s-6 -16 -18 -16h-174c-7 0 -11 2 -13 8c-1 4 0 8 5 13l130 124c25 23 32 41 32 62c0 45 -30 69 -72 69c-43 0 -68 -29 -68 -59c0 -21 6 -32 11 -41s0 -18 -5 -21c-8 -5 -17 -6 -25 5c-8 12 -14 32 -14 54c0 41 35 92 105 92c62 0 100 -44 100 -97
c0 -32 -9 -51 -44 -85l-98 -92h130z" />
    <glyph glyph-name="onequarter" unicode="&#xbc;" horiz-adv-x="617" 
d="M471 705c10 -6 9 -14 2 -27l-346 -677c-4 -7 -15 -10 -24 -4c-8 6 -10 13 -2 27l348 677c4 8 13 9 22 4zM127 707c23 0 34 -13 34 -38v-251c0 -13 -6 -19 -17 -19s-17 6 -17 19v252c0 6 -4 7 -9 1l-26 -29c-5 -6 -14 -10 -22 -2c-7 7 -8 15 -1 24l31 33c8 8 16 10 27 10z
M525 115c10 0 17 -7 17 -17s-7 -15 -17 -15c-25 0 -44 0 -44 -21v-39c0 -14 -5 -20 -17 -20s-17 6 -17 20v39c0 17 -13 21 -23 21h-90c-11 0 -17 8 -17 17c0 3 0 5 4 11l117 189c6 10 14 13 25 5c7 -5 9 -14 3 -23l-107 -167h60c12 0 22 -4 29 -14v53c0 10 6 16 16 16
s16 -6 16 -16v-53c5 10 17 14 45 14z" />
    <glyph glyph-name="threequarters" unicode="&#xbe;" horiz-adv-x="631" 
d="M508 705c10 -6 9 -14 2 -27l-346 -677c-4 -7 -15 -10 -24 -4c-8 6 -10 13 -2 27l348 677c4 8 13 9 22 4zM203 570c41 -9 67 -38 67 -80c0 -46 -35 -92 -110 -92c-48 0 -78 17 -93 32c-7 7 -10 15 -2 24c6 7 14 9 22 2c18 -15 38 -28 69 -28c51 0 82 29 82 63
c0 37 -37 58 -73 58h-13c-12 0 -18 6 -18 15s6 15 18 15h19c27 0 51 23 51 54c0 27 -25 45 -64 45c-34 0 -47 -13 -64 -32c-4 -5 -11 -9 -20 -3c-7 5 -8 12 -4 19c19 30 53 46 92 46c54 0 90 -32 90 -75c0 -31 -17 -55 -49 -63zM557 111c10 0 17 -7 17 -17s-7 -15 -17 -15
c-25 0 -44 0 -44 -21v-39c0 -14 -5 -20 -17 -20s-17 6 -17 20v39c0 17 -13 21 -23 21h-90c-11 0 -17 8 -17 17c0 3 0 5 4 11l117 189c6 10 14 13 25 5c7 -5 9 -14 3 -23l-107 -167h60c12 0 22 -4 29 -14v53c0 10 6 16 16 16s16 -6 16 -16v-53c5 10 17 14 45 14z" />
    <glyph glyph-name="period" unicode="." horiz-adv-x="192" 
d="M96 0c-17 0 -30 13 -30 30s13 30 30 30s30 -13 30 -30s-13 -30 -30 -30z" />
    <glyph glyph-name="comma" unicode="," horiz-adv-x="194" 
d="M126 23l-56 -121c-1 -4 -5 -8 -13 -8s-15 7 -15 13c0 2 0 3 2 8l40 126c3 9 11 13 21 13c13 0 23 -10 23 -22c0 -3 -1 -7 -2 -9z" />
    <glyph glyph-name="colon" unicode=":" horiz-adv-x="220" 
d="M110 310c-17 0 -30 13 -30 30s13 30 30 30s30 -13 30 -30s-13 -30 -30 -30zM110 0c-17 0 -30 13 -30 30s13 30 30 30s30 -13 30 -30s-13 -30 -30 -30z" />
    <glyph glyph-name="semicolon" unicode=";" horiz-adv-x="219" 
d="M109 310c-17 0 -30 13 -30 30s13 30 30 30s30 -13 30 -30s-13 -30 -30 -30zM133 23l-56 -121c-1 -4 -5 -8 -13 -8s-15 7 -15 13c0 2 0 3 2 8l40 126c3 9 11 13 21 13c13 0 23 -10 23 -22c0 -3 -1 -7 -2 -9z" />
    <glyph glyph-name="ellipsis" unicode="&#x2026;" horiz-adv-x="576" 
d="M96 0c-17 0 -30 13 -30 30s13 30 30 30s30 -13 30 -30s-13 -30 -30 -30zM288 0c-17 0 -30 13 -30 30s13 30 30 30s30 -13 30 -30s-13 -30 -30 -30zM480 0c-17 0 -30 13 -30 30s13 30 30 30s30 -13 30 -30s-13 -30 -30 -30z" />
    <glyph glyph-name="exclam" unicode="!" horiz-adv-x="270" 
d="M135 658c11 0 17 -6 17 -20v-463c0 -14 -6 -20 -17 -20s-17 6 -17 20v463c0 14 6 20 17 20zM135 -6c-19 0 -35 16 -35 35s16 35 35 35s35 -16 35 -35s-16 -35 -35 -35z" />
    <glyph glyph-name="exclamdown" unicode="&#xa1;" horiz-adv-x="304" 
d="M135 508c19 0 35 -16 35 -35s-16 -35 -35 -35s-35 16 -35 35s16 35 35 35zM135 -156c-11 0 -17 6 -17 20v463c0 14 6 20 17 20s17 -6 17 -20v-463c0 -14 -6 -20 -17 -20z" />
    <glyph glyph-name="question" unicode="?" horiz-adv-x="564" 
d="M343 280c-48 -1 -59 -2 -59 -48v-76c0 -13 -6 -19 -18 -19s-18 6 -18 19v91c0 44 19 65 75 65h2c85 0 126 71 126 150c0 94 -60 163 -173 163c-111 0 -155 -88 -167 -140c-3 -13 -14 -14 -22 -12c-11 3 -12 11 -11 20c10 63 66 165 206 165c130 0 202 -88 202 -196
c0 -105 -65 -181 -143 -182zM264 -6c-19 0 -35 16 -35 35s16 35 35 35s35 -16 35 -35s-16 -35 -35 -35z" />
    <glyph glyph-name="questiondown" unicode="&#xbf;" horiz-adv-x="482" 
d="M258 506c19 0 35 -16 35 -35s-16 -35 -35 -35s-35 16 -35 35s16 35 35 35zM179 220c48 1 59 2 59 48v76c0 13 6 19 18 19s18 -6 18 -19v-91c0 -44 -19 -65 -75 -65h-2c-85 0 -126 -71 -126 -150c0 -94 60 -163 173 -163c111 0 155 88 167 140c3 13 14 14 22 12
c11 -3 12 -11 11 -20c-10 -63 -66 -165 -206 -165c-130 0 -202 88 -202 196c0 105 65 181 143 182z" />
    <glyph glyph-name="periodcentered" unicode="&#xb7;" horiz-adv-x="220" 
d="M110 310c-17 0 -30 13 -30 30s13 30 30 30s30 -13 30 -30s-13 -30 -30 -30z" />
    <glyph glyph-name="bullet" unicode="&#x2022;" horiz-adv-x="304" 
d="M152 273c-36 0 -64 28 -64 64s28 64 64 64s64 -28 64 -64s-28 -64 -64 -64z" />
    <glyph glyph-name="asterisk" unicode="*" horiz-adv-x="401" 
d="M322 508c11 -5 18 -17 11 -29s-21 -13 -31 -6l-95 70l14 -117c1 -12 -6 -24 -20 -24s-22 12 -21 24l14 117l-95 -70c-10 -7 -24 -7 -31 5s0 25 11 30l108 47l-108 47c-11 5 -18 18 -11 30s21 12 31 5l95 -70l-14 117c-1 12 7 24 21 24s21 -12 20 -24l-14 -117l95 70
c10 7 24 6 31 -6s0 -24 -11 -29l-108 -47z" />
    <glyph glyph-name="numbersign" unicode="#" horiz-adv-x="696" 
d="M619 468c13 0 19 -6 19 -16s-6 -16 -19 -16h-99l-53 -215h92c13 0 19 -6 19 -16s-6 -16 -19 -16h-100l-43 -175c-3 -13 -10 -16 -20 -14s-14 8 -11 23l41 166h-225l-43 -175c-3 -13 -10 -16 -20 -14s-14 8 -11 23l41 166h-91c-13 0 -19 6 -19 16s6 16 19 16h99l53 215
h-92c-13 0 -19 6 -19 16s6 16 19 16h100l42 169c3 12 9 16 21 14c9 -3 13 -9 10 -23l-40 -160h225l42 169c3 12 9 16 21 14c9 -3 13 -9 10 -23l-40 -160h91zM434 221l53 215h-225l-53 -215h225z" />
    <glyph glyph-name="slash" unicode="/" horiz-adv-x="371" 
d="M341 727c9 -4 13 -11 7 -25l-284 -702c-5 -13 -13 -16 -24 -12c-9 4 -13 11 -7 25l284 702c5 13 13 16 24 12z" />
    <glyph glyph-name="backslash" unicode="\" horiz-adv-x="371" 
d="M30 727c11 4 19 1 24 -12l284 -702c6 -14 2 -21 -7 -25c-11 -4 -19 -1 -24 12l-284 702c-6 14 -2 21 7 25z" />
    <glyph glyph-name="parenleft" unicode="(" horiz-adv-x="303" 
d="M228 700c10 -4 14 -12 8 -26c-30 -66 -100 -195 -100 -381s69 -315 100 -381c6 -14 2 -22 -9 -26c-10 -4 -17 -1 -23 13c-32 68 -104 224 -104 394s73 326 104 394c6 14 13 17 24 13z" />
    <glyph glyph-name="parenright" unicode=")" horiz-adv-x="303" 
d="M75 700c11 4 18 1 24 -13c31 -68 104 -224 104 -394s-72 -326 -104 -394c-6 -14 -13 -17 -23 -13c-11 4 -15 12 -9 26c31 66 100 195 100 381s-70 315 -100 381c-6 14 -2 22 8 26z" />
    <glyph glyph-name="braceleft" unicode="{" horiz-adv-x="324" 
d="M263 -86c13 0 19 -6 19 -17s-6 -17 -19 -17h-20c-72 0 -98 36 -98 101v254c0 31 -10 39 -29 39h-18c-10 0 -16 7 -16 17s6 17 16 17h18c19 0 29 8 29 39v254c0 65 26 101 98 101h20c13 0 19 -6 19 -17s-6 -17 -19 -17h-20c-55 0 -64 -33 -64 -83v-254
c0 -27 -22 -39 -40 -39v-2c18 0 40 -12 40 -39v-254c0 -50 9 -83 64 -83h20z" />
    <glyph glyph-name="braceright" unicode="}" horiz-adv-x="324" 
d="M61 -86h20c55 0 64 33 64 83v254c0 27 22 39 40 39v2c-18 0 -40 12 -40 39v254c0 50 -9 83 -64 83h-20c-13 0 -19 6 -19 17s6 17 19 17h20c72 0 98 -36 98 -101v-254c0 -31 10 -39 29 -39h18c10 0 16 -7 16 -17s-6 -17 -16 -17h-18c-19 0 -29 -8 -29 -39v-254
c0 -65 -26 -101 -98 -101h-20c-13 0 -19 6 -19 17s6 17 19 17z" />
    <glyph glyph-name="bracketleft" unicode="[" horiz-adv-x="287" 
d="M228 -89c11 0 17 -6 17 -16s-6 -16 -17 -16h-28c-73 0 -100 53 -100 111v601c0 58 27 111 100 111h28c11 0 17 -6 17 -16s-6 -16 -17 -16h-28c-40 0 -66 -25 -66 -95v-569c0 -70 26 -95 66 -95h28z" />
    <glyph glyph-name="bracketright" unicode="]" horiz-adv-x="287" 
d="M59 -89h28c40 0 66 25 66 95v569c0 70 -26 95 -66 95h-28c-11 0 -17 6 -17 16s6 16 17 16h28c73 0 100 -53 100 -111v-601c0 -58 -27 -111 -100 -111h-28c-11 0 -17 6 -17 16s6 16 17 16z" />
    <glyph glyph-name="hyphen" unicode="-" horiz-adv-x="448" 
d="M348 281c0 -11 -6 -17 -20 -17h-208c-14 0 -20 6 -20 17s6 17 20 17h208c14 0 20 -6 20 -17z" />
    <glyph glyph-name="endash" unicode="&#x2013;" horiz-adv-x="502" 
d="M458 281c0 -11 -6 -17 -20 -17h-374c-14 0 -20 6 -20 17s6 17 20 17h374c14 0 20 -6 20 -17z" />
    <glyph glyph-name="emdash" unicode="&#x2014;" horiz-adv-x="756" 
d="M712 281c0 -11 -6 -17 -20 -17h-628c-14 0 -20 6 -20 17s6 17 20 17h628c14 0 20 -6 20 -17z" />
    <glyph glyph-name="underscore" unicode="_" horiz-adv-x="620" 
d="M532 -86c0 -11 -6 -17 -20 -17h-404c-14 0 -20 6 -20 17s6 17 20 17h404c14 0 20 -6 20 -17z" />
    <glyph glyph-name="quotesinglbase" unicode="&#x201a;" horiz-adv-x="210" 
d="M157 83l-80 -176c-2 -5 -9 -11 -19 -8c-8 2 -12 11 -9 19l76 185c4 9 8 13 18 13c11 0 19 -7 19 -18c0 -4 -1 -7 -5 -15z" />
    <glyph glyph-name="quotedblbase" unicode="&#x201e;" horiz-adv-x="370" 
d="M157 83l-80 -176c-2 -5 -9 -11 -19 -8c-8 2 -12 11 -9 19l76 185c4 9 8 13 18 13c11 0 19 -7 19 -18c0 -4 -1 -7 -5 -15zM317 83l-80 -176c-2 -5 -9 -11 -19 -8c-8 2 -12 11 -9 19l76 185c4 9 8 13 18 13c11 0 19 -7 19 -18c0 -4 -1 -7 -5 -15z" />
    <glyph glyph-name="quotedblleft" unicode="&#x201c;" horiz-adv-x="370" 
d="M53 517l80 176c2 5 9 11 19 8c8 -2 12 -11 9 -19l-76 -185c-4 -9 -8 -13 -18 -13c-11 0 -19 7 -19 18c0 4 1 7 5 15zM213 517l80 176c2 5 9 11 19 8c8 -2 12 -11 9 -19l-76 -185c-4 -9 -8 -13 -18 -13c-11 0 -19 7 -19 18c0 4 1 7 5 15z" />
    <glyph glyph-name="quotedblright" unicode="&#x201d;" horiz-adv-x="370" 
d="M157 669l-80 -176c-2 -5 -9 -11 -19 -8c-8 2 -12 11 -9 19l76 185c4 9 8 13 18 13c11 0 19 -7 19 -18c0 -4 -1 -7 -5 -15zM317 669l-80 -176c-2 -5 -9 -11 -19 -8c-8 2 -12 11 -9 19l76 185c4 9 8 13 18 13c11 0 19 -7 19 -18c0 -4 -1 -7 -5 -15z" />
    <glyph glyph-name="quoteleft" unicode="&#x2018;" horiz-adv-x="210" 
d="M53 517l80 176c2 5 9 11 19 8c8 -2 12 -11 9 -19l-76 -185c-4 -9 -8 -13 -18 -13c-11 0 -19 7 -19 18c0 4 1 7 5 15z" />
    <glyph glyph-name="quoteright" unicode="&#x2019;" horiz-adv-x="210" 
d="M157 669l-80 -176c-2 -5 -9 -11 -19 -8c-8 2 -12 11 -9 19l76 185c4 9 8 13 18 13c11 0 19 -7 19 -18c0 -4 -1 -7 -5 -15z" />
    <glyph glyph-name="guillemotleft" unicode="&#xab;" horiz-adv-x="582" 
d="M110 279l155 -181c9 -12 8 -20 -1 -28s-16 -7 -26 5l-158 188c-6 7 -8 10 -8 16c0 5 2 8 8 15l157 188c9 11 16 13 27 5c9 -7 10 -16 1 -28zM321 279l155 -181c9 -12 8 -20 -1 -28s-16 -7 -26 5l-158 188c-6 7 -8 10 -8 16c0 5 2 8 8 15l157 188c9 11 16 13 27 5
c9 -7 10 -16 1 -28z" />
    <glyph glyph-name="guillemotright" unicode="&#xbb;" horiz-adv-x="582" 
d="M261 279l-155 180c-9 12 -8 21 1 28c11 8 18 6 27 -5l157 -188c6 -7 8 -10 8 -15c0 -6 -2 -9 -8 -16l-158 -188c-10 -12 -17 -13 -26 -5s-10 16 -1 28zM472 279l-155 180c-9 12 -8 21 1 28c11 8 18 6 27 -5l157 -188c6 -7 8 -10 8 -15c0 -6 -2 -9 -8 -16l-158 -188
c-10 -12 -17 -13 -26 -5s-10 16 -1 28z" />
    <glyph glyph-name="guilsinglleft" unicode="&#x2039;" horiz-adv-x="371" 
d="M110 279l155 -181c9 -12 8 -20 -1 -28s-16 -7 -26 5l-158 188c-6 7 -8 10 -8 16c0 5 2 8 8 15l157 188c9 11 16 13 27 5c9 -7 10 -16 1 -28z" />
    <glyph glyph-name="guilsinglright" unicode="&#x203a;" horiz-adv-x="371" 
d="M261 279l-155 180c-9 12 -8 21 1 28c11 8 18 6 27 -5l157 -188c6 -7 8 -10 8 -15c0 -6 -2 -9 -8 -16l-158 -188c-10 -12 -17 -13 -26 -5s-10 16 -1 28z" />
    <glyph glyph-name="quotedbl" unicode="&#x22;" horiz-adv-x="342" 
d="M89 708c11 0 17 -6 17 -20v-188c0 -14 -6 -20 -17 -20s-17 6 -17 20v188c0 14 6 20 17 20zM253 708c11 0 17 -6 17 -20v-188c0 -14 -6 -20 -17 -20s-17 6 -17 20v188c0 14 6 20 17 20z" />
    <glyph glyph-name="quotesingle" unicode="'" horiz-adv-x="178" 
d="M89 708c11 0 17 -6 17 -20v-188c0 -14 -6 -20 -17 -20s-17 6 -17 20v188c0 14 6 20 17 20z" />
    <glyph glyph-name="space" unicode=" " horiz-adv-x="296" 
 />
    <glyph glyph-name="cent" unicode="&#xa2;" horiz-adv-x="576" 
d="M527 192c8 -6 10 -15 3 -24c-35 -46 -95 -93 -187 -98v-56c0 -14 -6 -20 -17 -20s-17 6 -17 20v57c-138 8 -237 113 -237 255s99 247 237 255v57c0 14 6 20 17 20s17 -6 17 -20v-56c83 -5 136 -43 174 -84c5 -5 6 -15 -2 -22c-7 -7 -18 -7 -25 0c-37 40 -87 73 -162 73
c-127 0 -221 -94 -221 -223s94 -223 220 -223c89 0 146 47 176 87c7 9 14 9 24 2z" />
    <glyph glyph-name="currency" unicode="&#xa4;" horiz-adv-x="640" 
d="M514 156l33 -33c11 -11 9 -18 2 -26s-15 -9 -26 2l-33 33c-44 -39 -103 -62 -170 -62s-126 23 -170 62l-32 -32c-10 -10 -18 -9 -26 -2s-8 16 2 26l32 32c-38 44 -60 103 -60 170s22 126 60 170l-33 33c-10 10 -9 18 -2 26s16 8 26 -2l33 -33c44 39 103 62 170 62
s126 -23 170 -62l33 33c10 10 18 10 26 2c7 -7 8 -16 -2 -26l-33 -33c38 -44 60 -103 60 -170s-22 -126 -60 -170zM320 103c125 0 219 94 219 223s-94 223 -219 223s-219 -94 -219 -223s94 -223 219 -223z" />
    <glyph glyph-name="dollar" unicode="$" horiz-adv-x="570" 
d="M510 173c0 -100 -78 -174 -200 -179v-38c0 -13 -6 -20 -17 -20s-17 7 -17 20v39c-95 6 -174 54 -208 101c-11 15 -9 22 0 29c10 8 18 5 25 -4c28 -37 90 -88 183 -94v299c-5 1 -10 3 -15 5c-73 26 -162 62 -162 166c0 87 71 156 177 161v30c0 13 6 20 17 20s17 -7 17 -20
v-31c70 -7 138 -43 169 -81c9 -11 10 -17 2 -26c-9 -9 -16 -8 -24 0c-20 20 -70 66 -147 74v-271l9 -3c107 -37 191 -74 191 -177zM134 497c0 -70 58 -102 142 -132v260c-85 -4 -142 -59 -142 -128zM310 26c104 6 165 68 165 145c0 85 -77 114 -165 143v-288z" />
    <glyph glyph-name="Euro" unicode="&#x20ac;" horiz-adv-x="579" 
d="M502 106c8 -5 12 -12 5 -24c-26 -44 -86 -88 -164 -88c-118 0 -193 103 -216 241h-51c-14 0 -20 6 -20 16s6 16 20 16h47c-2 19 -3 40 -3 60c0 19 1 38 3 56h-47c-14 0 -20 6 -20 16s6 16 20 16h51c23 139 102 243 221 243c68 0 125 -34 150 -74c5 -9 2 -14 -5 -20
c-9 -7 -18 -6 -24 3c-27 36 -72 58 -122 58c-101 0 -164 -89 -185 -210h167c12 0 19 -6 19 -17c0 -9 -7 -15 -20 -15h-170c-2 -18 -3 -38 -3 -57c0 -20 1 -40 3 -59h171c12 0 19 -7 19 -17c0 -9 -7 -15 -20 -15h-166c21 -121 84 -208 184 -208c68 0 115 40 133 72
c6 11 15 12 23 7z" />
    <glyph glyph-name="florin" unicode="&#x192;" horiz-adv-x="454" 
d="M327 670c-95 0 -146 -51 -146 -157v-161h170c13 0 19 -6 19 -16s-6 -16 -19 -16h-170v-289c0 -78 -41 -125 -120 -125h-18c-13 0 -19 6 -19 16s6 16 19 16h18c55 0 86 34 86 93v482c0 125 62 189 180 189h68c13 0 19 -6 19 -16s-6 -16 -19 -16h-68z" />
    <glyph glyph-name="sterling" unicode="&#xa3;" horiz-adv-x="518" 
d="M434 32c12 0 18 -6 18 -16s-6 -16 -18 -16h-382c-10 0 -16 3 -16 13s6 15 16 15h14c35 0 57 23 57 61v374c0 124 63 189 180 189h108c10 0 16 -6 16 -16s-6 -16 -16 -16h-108c-95 0 -146 -51 -146 -157v-111h180c14 0 20 -6 20 -16s-6 -16 -20 -16h-180v-217
c0 -41 -7 -60 -22 -71h299z" />
    <glyph glyph-name="yen" unicode="&#xa5;" horiz-adv-x="588" 
d="M512 650c8 -4 14 -13 7 -23l-206 -304h85c13 0 18 -5 18 -15s-5 -15 -18 -15h-87v-69h87c13 0 18 -5 18 -15s-5 -15 -18 -15h-87v-174c0 -14 -6 -20 -17 -20s-17 6 -17 20v174h-87c-13 0 -18 5 -18 15s5 15 18 15h87v69h-87c-13 0 -18 5 -18 15s5 15 18 15h85l-206 304
c-7 10 -1 18 7 23s16 3 20 -2l198 -301l198 301c3 5 12 6 20 2z" />
    <glyph glyph-name="plus" unicode="+" horiz-adv-x="530" 
d="M444 298c14 0 20 -6 20 -17s-6 -17 -20 -17h-162v-179c0 -14 -6 -20 -17 -20s-17 6 -17 20v179h-162c-14 0 -20 6 -20 17s6 17 20 17h162v179c0 14 6 20 17 20s17 -6 17 -20v-179h162z" />
    <glyph glyph-name="minus" unicode="&#x2212;" horiz-adv-x="530" 
d="M464 281c0 -11 -6 -17 -20 -17h-358c-14 0 -20 6 -20 17s6 17 20 17h358c14 0 20 -6 20 -17z" />
    <glyph glyph-name="multiply" unicode="&#xd7;" horiz-adv-x="476" 
d="M259 281l147 -146c7 -9 9 -16 2 -24c-8 -7 -15 -5 -24 2l-146 147l-146 -147c-9 -7 -16 -9 -24 -2c-7 8 -5 15 2 24l147 146l-147 146c-7 9 -9 16 -2 24c8 7 15 5 24 -2l146 -147l146 147c9 7 16 9 24 2c7 -8 5 -15 -2 -24z" />
    <glyph glyph-name="divide" unicode="&#xf7;" horiz-adv-x="550" 
d="M275 407c-19 0 -35 16 -35 35s16 35 35 35s35 -16 35 -35s-16 -35 -35 -35zM484 281c0 -11 -6 -17 -20 -17h-378c-14 0 -20 6 -20 17s6 17 20 17h378c14 0 20 -6 20 -17zM275 85c-19 0 -35 16 -35 35s16 35 35 35s35 -16 35 -35s-16 -35 -35 -35z" />
    <glyph glyph-name="equal" unicode="=" horiz-adv-x="550" 
d="M484 391c0 -11 -6 -17 -20 -17h-378c-14 0 -20 6 -20 17s6 17 20 17h378c14 0 20 -6 20 -17zM484 171c0 -11 -6 -17 -20 -17h-378c-14 0 -20 6 -20 17s6 17 20 17h378c14 0 20 -6 20 -17z" />
    <glyph glyph-name="greater" unicode="&#x3e;" horiz-adv-x="426" 
d="M334 279l-264 181c-6 5 -7 12 -3 18c7 11 14 11 25 5l272 -187c12 -8 12 -14 12 -17c0 -4 0 -10 -12 -17l-273 -188c-11 -6 -19 -3 -24 5c-4 7 -4 14 3 19z" />
    <glyph glyph-name="less" unicode="&#x3c;" horiz-adv-x="426" 
d="M92 279l264 -181c7 -5 7 -12 3 -19c-5 -8 -13 -11 -24 -5l-273 188c-12 7 -12 13 -12 17c0 3 0 9 12 17l272 187c11 6 18 6 25 -5c4 -6 3 -13 -3 -18z" />
    <glyph glyph-name="plusminus" unicode="&#xb1;" horiz-adv-x="470" 
d="M86 314c-14 0 -20 6 -20 17s6 17 20 17h132v119c0 14 6 20 17 20s17 -6 17 -20v-119h132c14 0 20 -6 20 -17s-6 -17 -20 -17h-132v-119c0 -14 -6 -20 -17 -20s-17 6 -17 20v119h-132zM384 71c14 0 20 -6 20 -17s-6 -17 -20 -17h-298c-14 0 -20 6 -20 17s6 17 20 17h298z
" />
    <glyph glyph-name="asciitilde" unicode="~" horiz-adv-x="585" 
d="M506 340c5 -1 14 -7 13 -18c-6 -66 -48 -104 -113 -104c-103 0 -137 96 -231 96c-44 0 -66 -22 -76 -76c-2 -11 -11 -14 -20 -12c-5 1 -14 7 -13 18c6 66 48 104 113 104c103 0 141 -96 231 -96c44 0 66 22 76 76c2 11 11 14 20 12z" />
    <glyph glyph-name="logicalnot" unicode="&#xac;" horiz-adv-x="558" 
d="M482 277v-162c0 -14 -6 -20 -17 -20s-17 6 -17 20v150h-364c-12 0 -18 6 -18 16s6 16 18 16h378c13 0 20 -7 20 -20z" />
    <glyph glyph-name="uni00B5" unicode="&#xb5;" horiz-adv-x="643" 
d="M571 32c12 0 18 -6 18 -16s-6 -16 -18 -16h-8c-54 0 -93 36 -98 106c-14 -51 -84 -112 -174 -112c-62 0 -142 31 -169 104v-188c0 -14 -6 -20 -17 -20s-17 6 -17 20v570c0 14 6 20 17 20s17 -6 17 -20v-251c0 -112 55 -202 169 -202c99 0 170 78 170 158v295
c0 14 6 20 17 20s17 -6 17 -20v-357c0 -55 29 -91 72 -91h4z" />
    <glyph glyph-name="percent" unicode="%" horiz-adv-x="736" 
d="M552 705c10 -6 9 -14 2 -27l-346 -677c-4 -7 -15 -10 -24 -4c-8 6 -10 13 -2 27l348 677c4 8 13 9 22 4zM191 398c-69 0 -125 52 -125 155c0 104 56 155 125 155c70 0 125 -51 125 -155c0 -103 -55 -155 -125 -155zM191 431c56 0 91 36 91 122c0 88 -35 122 -91 122
c-54 0 -91 -34 -91 -122c0 -86 37 -122 91 -122zM545 -6c-69 0 -125 52 -125 155c0 104 56 155 125 155c70 0 125 -51 125 -155c0 -103 -55 -155 -125 -155zM545 27c56 0 91 36 91 122c0 88 -35 122 -91 122c-54 0 -91 -34 -91 -122c0 -86 37 -122 91 -122z" />
    <glyph glyph-name="perthousand" unicode="&#x2030;" horiz-adv-x="1053" 
d="M552 705c10 -6 9 -14 2 -27l-346 -677c-4 -7 -15 -10 -24 -4c-8 6 -10 13 -2 27l348 677c4 8 13 9 22 4zM191 398c-69 0 -125 52 -125 155c0 104 56 155 125 155c70 0 125 -51 125 -155c0 -103 -55 -155 -125 -155zM191 431c56 0 91 36 91 122c0 88 -35 122 -91 122
c-54 0 -91 -34 -91 -122c0 -86 37 -122 91 -122zM545 -6c-69 0 -125 52 -125 155c0 104 56 155 125 155c70 0 125 -51 125 -155c0 -103 -55 -155 -125 -155zM862 -6c-69 0 -125 52 -125 155c0 104 56 155 125 155c70 0 125 -51 125 -155c0 -103 -55 -155 -125 -155zM545 27
c56 0 91 36 91 122c0 88 -35 122 -91 122c-54 0 -91 -34 -91 -122c0 -86 37 -122 91 -122zM862 27c56 0 91 36 91 122c0 88 -35 122 -91 122c-54 0 -91 -34 -91 -122c0 -86 37 -122 91 -122z" />
    <glyph glyph-name="at" unicode="@" horiz-adv-x="928" 
d="M477 659c225 0 381 -121 381 -334v-160c0 -74 -51 -120 -113 -120s-116 46 -116 120v112c3 117 -51 172 -160 172c-126 0 -204 -73 -204 -190c0 -119 80 -201 188 -201c31 0 62 7 89 17c10 4 18 -2 21 -10s1 -18 -9 -22c-29 -12 -70 -18 -102 -18
c-130 0 -222 99 -222 232c0 135 94 225 237 225c122 0 193 -64 196 -171v-146c0 -54 32 -90 81 -90s80 36 80 90v161c0 194 -146 300 -347 300c-233 0 -388 -148 -388 -369c0 -218 151 -381 376 -381c43 0 85 6 130 20c10 3 18 -1 21 -9c4 -10 1 -18 -9 -22
c-33 -13 -96 -22 -149 -22c-227 0 -404 167 -404 414c0 233 162 402 423 402z" />
    <glyph glyph-name="ampersand" unicode="&#x26;" horiz-adv-x="598" 
d="M316 658c41 0 73 -13 86 -20c10 -5 13 -15 8 -23c-5 -9 -14 -11 -24 -6c-14 7 -38 15 -68 15c-60 0 -103 -33 -103 -95c0 -85 83 -73 83 -115c0 -16 -8 -24 -27 -26c-97 -10 -160 -97 -160 -185c0 -89 76 -175 190 -175c110 0 184 70 184 171c0 98 -68 110 -68 148
c0 17 11 28 27 28h101c11 0 17 -6 17 -16s-6 -16 -17 -16h-93c30 -33 68 -72 68 -148c0 -116 -90 -201 -219 -201c-137 0 -225 96 -225 211c0 107 77 201 193 212c-78 22 -89 84 -89 117c0 70 52 124 136 124z" />
    <glyph glyph-name="paragraph" unicode="&#xb6;" horiz-adv-x="441" 
d="M234 652c13 0 20 -7 20 -20v-752c0 -14 -6 -20 -17 -20s-17 6 -17 20v484c-80 0 -144 64 -144 144s64 144 144 144h14zM342 652c11 0 17 -6 17 -20v-752c0 -14 -6 -20 -17 -20s-17 6 -17 20v752c0 14 6 20 17 20z" />
    <glyph glyph-name="section" unicode="&#xa7;" horiz-adv-x="533" 
d="M390 180c34 -20 57 -49 57 -99c0 -89 -76 -144 -174 -144c-86 0 -152 42 -181 78c-8 10 -7 19 1 26c9 8 18 6 24 -1c25 -29 78 -70 156 -70s139 40 139 111c0 60 -45 82 -169 114c-111 29 -136 75 -136 125c0 49 25 88 68 110c-54 27 -68 63 -68 100c0 77 62 129 156 129
c68 0 125 -27 152 -57c8 -9 11 -17 3 -25c-9 -9 -18 -9 -27 -1c-35 32 -72 50 -126 50c-77 0 -123 -38 -123 -90c0 -43 14 -71 146 -108c79 -22 159 -44 159 -137c0 -47 -22 -86 -57 -111zM142 321c0 -78 124 -93 218 -126c32 23 52 52 52 96c0 60 -52 84 -203 123
c-42 -16 -67 -48 -67 -93z" />
    <glyph glyph-name="copyright" unicode="&#xa9;" horiz-adv-x="858" 
d="M429 -54c-220 0 -375 157 -375 376s155 376 375 376s375 -157 375 -376s-155 -376 -375 -376zM429 -22c210 0 340 157 340 344s-130 343 -340 343s-340 -156 -340 -343s130 -344 340 -344zM541 431c-31 31 -64 45 -105 45c-92 0 -152 -67 -152 -154s60 -154 152 -154
c41 0 76 16 109 45c10 9 17 10 26 1c10 -10 6 -19 -1 -26c-36 -36 -82 -53 -134 -53c-110 0 -187 78 -187 187s77 187 187 187c53 0 97 -18 131 -52c8 -8 11 -16 0 -26c-12 -11 -17 -9 -26 0z" />
    <glyph glyph-name="registered" unicode="&#xae;" horiz-adv-x="600" 
d="M300 800c145 0 246 -105 246 -247c0 -141 -101 -245 -246 -245s-246 104 -246 245c0 142 101 247 246 247zM300 340c124 0 212 82 212 213s-88 215 -212 215s-212 -84 -212 -215s88 -213 212 -213zM405 450c5 -7 2 -19 -6 -24c-7 -5 -18 -4 -23 3c-28 43 -54 92 -84 92
h-48v-80c0 -11 -6 -18 -16 -18s-17 7 -17 18v226c0 11 7 18 17 18h85c47 0 86 -20 86 -78c0 -42 -22 -68 -56 -80c21 -12 30 -26 62 -77zM307 551c30 0 59 19 59 52c0 42 -28 51 -59 51h-63v-103h63z" />
    <glyph glyph-name="trademark" unicode="&#x2122;" horiz-adv-x="691" 
d="M105 708c68 0 88 -20 88 -84v-199c0 -12 -6 -19 -17 -19c-10 0 -16 7 -16 19v185c0 57 -16 68 -54 68h-36c-11 0 -16 6 -16 15s5 15 16 15h35zM295 708c11 0 16 -6 16 -15s-5 -15 -16 -15h-78c-11 0 -16 6 -16 15s5 15 16 15h78zM637 426c2 -18 -9 -19 -16 -19
c-10 0 -16 2 -17 14l-20 222l-81 -158c-3 -6 -9 -8 -15 -8c-7 0 -11 1 -15 8l-81 158l-20 -222c-1 -12 -7 -14 -17 -14c-7 0 -18 1 -16 19l26 265c1 11 7 17 17 17c9 0 13 -2 17 -11l89 -183l89 183c4 9 8 11 17 11c10 0 16 -6 17 -17z" />
    </font>
</defs>
</svg>
